<svg width="2672" height="965" xmlns="http://www.w3.org/2000/svg" xmlns:xlink="http://www.w3.org/1999/xlink" overflow="hidden"><defs><clipPath id="clip0"><rect x="282" y="318" width="2672" height="965"/></clipPath></defs><g clip-path="url(#clip0)" transform="translate(-282 -318)"><text fill="#002060" font-family="Courier New,Courier New_MSFontService,sans-serif" font-weight="700" font-size="73" transform="matrix(1 0 0 1 331.884 989)">MPI_Allgather<tspan font-size="73" x="572" y="0">() (</tspan><tspan fill="#00B050" font-family="Arial,Arial_MSFontService,sans-serif" font-size="73" x="750" y="0">no root required</tspan><tspan fill="#000000" font-family="Arial,Arial_MSFontService,sans-serif" font-size="73" x="1316" y="0">)</tspan><tspan fill="#000000" font-family="Arial,Arial_MSFontService,sans-serif" font-size="83" x="518.458" y="-564">0</tspan><tspan fill="#000000" font-family="Arial,Arial_MSFontService,sans-serif" font-size="83" x="1494" y="-561">1</tspan><tspan fill="#000000" font-family="Arial,Arial_MSFontService,sans-serif" font-size="83" x="2460.29" y="-565">2</tspan><tspan font-size="64" x="-4.43735" y="-562">rank</tspan><tspan font-size="64" x="-11.2727" y="-414">sendbuf</tspan><tspan font-size="64" x="-11.2727" y="-215">recvbuf</tspan></text><path d="M324 878 2913.23 878" stroke="#A6A6A6" stroke-width="10.3125" stroke-linejoin="round" stroke-miterlimit="10" fill="none" fill-rule="evenodd"/><path d="M327 1061 2913.31 1061" stroke="#A6A6A6" stroke-width="10.3125" stroke-linejoin="round" stroke-miterlimit="10" fill="none" fill-rule="evenodd"/><text fill="#002060" font-family="Courier New,Courier New_MSFontService,sans-serif" font-weight="700" font-size="64" transform="matrix(1 0 0 1 320.611 1204)">recvbuf</text><rect x="757.5" y="693.5" width="114" height="114" stroke="#000000" stroke-width="9.16667" stroke-linejoin="round" stroke-miterlimit="10" fill="#F2F2F2"/><rect x="872.5" y="693.5" width="114" height="114" stroke="#000000" stroke-width="9.16667" stroke-linejoin="round" stroke-miterlimit="10" fill="#F2F2F2"/><rect x="985.5" y="693.5" width="114" height="114" stroke="#000000" stroke-width="9.16667" stroke-linejoin="round" stroke-miterlimit="10" fill="#F2F2F2"/><rect x="1099.5" y="693.5" width="115" height="114" stroke="#000000" stroke-width="9.16667" stroke-linejoin="round" stroke-miterlimit="10" fill="#F2F2F2"/><rect x="1214.5" y="692.5" width="114" height="114" stroke="#000000" stroke-width="9.16667" stroke-linejoin="round" stroke-miterlimit="10" fill="#F2F2F2"/><rect x="1328.5" y="692.5" width="115" height="114" stroke="#000000" stroke-width="9.16667" stroke-linejoin="round" stroke-miterlimit="10" fill="#F2F2F2"/><rect x="757.5" y="504.5" width="114" height="115" stroke="#000000" stroke-width="9.16667" stroke-linejoin="round" stroke-miterlimit="10" fill="#DDD9C3"/><text fill="#002060" font-family="Courier New,Courier New_MSFontService,sans-serif" font-weight="700" font-size="83" transform="matrix(1 0 0 1 789.435 585)">a</text><rect x="872.5" y="504.5" width="114" height="114" stroke="#000000" stroke-width="9.16667" stroke-linejoin="round" stroke-miterlimit="10" fill="#DDD9C3"/><text fill="#002060" font-family="Courier New,Courier New_MSFontService,sans-serif" font-weight="700" font-size="83" transform="matrix(1 0 0 1 904.216 585)">b</text><rect x="1736.5" y="501.5" width="114" height="115" stroke="#000000" stroke-width="9.16667" stroke-linejoin="round" stroke-miterlimit="10" fill="#C6D9F1"/><text fill="#002060" font-family="Courier New,Courier New_MSFontService,sans-serif" font-weight="700" font-size="83" transform="matrix(1 0 0 1 1768.29 582)">c</text><rect x="1850.5" y="502.5" width="115" height="114" stroke="#000000" stroke-width="9.16667" stroke-linejoin="round" stroke-miterlimit="10" fill="#C6D9F1"/><text fill="#002060" font-family="Courier New,Courier New_MSFontService,sans-serif" font-weight="700" font-size="83" transform="matrix(1 0 0 1 1882.76 582)">d</text><rect x="2707.5" y="504.5" width="114" height="114" stroke="#000000" stroke-width="9.16667" stroke-linejoin="round" stroke-miterlimit="10" fill="#F2DCDB"/><text fill="#002060" font-family="Courier New,Courier New_MSFontService,sans-serif" font-weight="700" font-size="83" transform="matrix(1 0 0 1 2739.42 585)">e</text><rect x="2822.5" y="503.5" width="114" height="115" stroke="#000000" stroke-width="9.16667" stroke-linejoin="round" stroke-miterlimit="10" fill="#F2DCDB"/><text fill="#002060" font-family="Courier New,Courier New_MSFontService,sans-serif" font-weight="700" font-size="83" transform="matrix(1 0 0 1 2854.42 584)">f</text><rect x="1504.5" y="693.5" width="115" height="114" stroke="#000000" stroke-width="9.16667" stroke-linejoin="round" stroke-miterlimit="10" fill="#F2F2F2"/><rect x="1619.5" y="693.5" width="114" height="114" stroke="#000000" stroke-width="9.16667" stroke-linejoin="round" stroke-miterlimit="10" fill="#F2F2F2"/><rect x="1734.5" y="693.5" width="114" height="114" stroke="#000000" stroke-width="9.16667" stroke-linejoin="round" stroke-miterlimit="10" fill="#F2F2F2"/><rect x="1848.5" y="693.5" width="115" height="114" stroke="#000000" stroke-width="9.16667" stroke-linejoin="round" stroke-miterlimit="10" fill="#F2F2F2"/><rect x="1963.5" y="692.5" width="114" height="114" stroke="#000000" stroke-width="9.16667" stroke-linejoin="round" stroke-miterlimit="10" fill="#F2F2F2"/><rect x="2077.5" y="692.5" width="115" height="114" stroke="#000000" stroke-width="9.16667" stroke-linejoin="round" stroke-miterlimit="10" fill="#F2F2F2"/><rect x="2251.5" y="693.5" width="115" height="114" stroke="#000000" stroke-width="9.16667" stroke-linejoin="round" stroke-miterlimit="10" fill="#F2F2F2"/><rect x="2366.5" y="693.5" width="115" height="114" stroke="#000000" stroke-width="9.16667" stroke-linejoin="round" stroke-miterlimit="10" fill="#F2F2F2"/><rect x="2481.5" y="693.5" width="114" height="114" stroke="#000000" stroke-width="9.16667" stroke-linejoin="round" stroke-miterlimit="10" fill="#F2F2F2"/><rect x="2595.5" y="693.5" width="115" height="114" stroke="#000000" stroke-width="9.16667" stroke-linejoin="round" stroke-miterlimit="10" fill="#F2F2F2"/><rect x="2710.5" y="692.5" width="114" height="114" stroke="#000000" stroke-width="9.16667" stroke-linejoin="round" stroke-miterlimit="10" fill="#F2F2F2"/><rect x="2824.5" y="692.5" width="115" height="114" stroke="#000000" stroke-width="9.16667" stroke-linejoin="round" stroke-miterlimit="10" fill="#F2F2F2"/><rect x="758.5" y="1125.5" width="114" height="114" stroke="#000000" stroke-width="9.16667" stroke-linejoin="round" stroke-miterlimit="10" fill="#DDD9C3"/><text fill="#002060" font-family="Courier New,Courier New_MSFontService,sans-serif" font-weight="700" font-size="83" transform="matrix(1 0 0 1 790.344 1206)">a</text><rect x="985.5" y="1125.5" width="114" height="114" stroke="#000000" stroke-width="9.16667" stroke-linejoin="round" stroke-miterlimit="10" fill="#DCE6F2"/><text fill="#002060" font-family="Courier New,Courier New_MSFontService,sans-serif" font-weight="700" font-size="83" transform="matrix(1 0 0 1 1017.62 1206)">c</text><rect x="1214.5" y="1125.5" width="114" height="114" stroke="#000000" stroke-width="9.16667" stroke-linejoin="round" stroke-miterlimit="10" fill="#F2DCDB"/><text fill="#002060" font-family="Courier New,Courier New_MSFontService,sans-serif" font-weight="700" font-size="83" transform="matrix(1 0 0 1 1246.39 1206)">e</text><rect x="871.5" y="1125.5" width="114" height="114" stroke="#000000" stroke-width="9.16667" stroke-linejoin="round" stroke-miterlimit="10" fill="#DDD9C3"/><text fill="#002060" font-family="Courier New,Courier New_MSFontService,sans-serif" font-weight="700" font-size="83" transform="matrix(1 0 0 1 903.312 1206)">b</text><rect x="1099.5" y="1125.5" width="114" height="114" stroke="#000000" stroke-width="9.16667" stroke-linejoin="round" stroke-miterlimit="10" fill="#DCE6F2"/><text fill="#002060" font-family="Courier New,Courier New_MSFontService,sans-serif" font-weight="700" font-size="83" transform="matrix(1 0 0 1 1131.26 1206)">d</text><rect x="1328.5" y="1125.5" width="115" height="114" stroke="#000000" stroke-width="9.16667" stroke-linejoin="round" stroke-miterlimit="10" fill="#F2DCDB"/><text fill="#002060" font-family="Courier New,Courier New_MSFontService,sans-serif" font-weight="700" font-size="83" transform="matrix(1 0 0 1 1360.94 1206)">f</text><rect x="2251.5" y="1125.5" width="115" height="114" stroke="#000000" stroke-width="9.16667" stroke-linejoin="round" stroke-miterlimit="10" fill="#DDD9C3"/><text fill="#002060" font-family="Courier New,Courier New_MSFontService,sans-serif" font-weight="700" font-size="83" transform="matrix(1 0 0 1 2283.83 1206)">a</text><rect x="2478.5" y="1125.5" width="115" height="114" stroke="#000000" stroke-width="9.16667" stroke-linejoin="round" stroke-miterlimit="10" fill="#DCE6F2"/><text fill="#002060" font-family="Courier New,Courier New_MSFontService,sans-serif" font-weight="700" font-size="83" transform="matrix(1 0 0 1 2511.1 1206)">c</text><rect x="2707.5" y="1125.5" width="115" height="114" stroke="#000000" stroke-width="9.16667" stroke-linejoin="round" stroke-miterlimit="10" fill="#F2DCDB"/><text fill="#002060" font-family="Courier New,Courier New_MSFontService,sans-serif" font-weight="700" font-size="83" transform="matrix(1 0 0 1 2739.87 1206)">e</text><rect x="2364.5" y="1125.5" width="115" height="114" stroke="#000000" stroke-width="9.16667" stroke-linejoin="round" stroke-miterlimit="10" fill="#DDD9C3"/><text fill="#002060" font-family="Courier New,Courier New_MSFontService,sans-serif" font-weight="700" font-size="83" transform="matrix(1 0 0 1 2396.79 1206)">b</text><rect x="2592.5" y="1125.5" width="115" height="114" stroke="#000000" stroke-width="9.16667" stroke-linejoin="round" stroke-miterlimit="10" fill="#DCE6F2"/><text fill="#002060" font-family="Courier New,Courier New_MSFontService,sans-serif" font-weight="700" font-size="83" transform="matrix(1 0 0 1 2624.74 1206)">d</text><rect x="2822.5" y="1125.5" width="114" height="114" stroke="#000000" stroke-width="9.16667" stroke-linejoin="round" stroke-miterlimit="10" fill="#F2DCDB"/><text fill="#002060" font-family="Courier New,Courier New_MSFontService,sans-serif" font-weight="700" font-size="83" transform="matrix(1 0 0 1 2854.42 1206)">f</text><rect x="1505.5" y="1125.5" width="115" height="114" stroke="#000000" stroke-width="9.16667" stroke-linejoin="round" stroke-miterlimit="10" fill="#DDD9C3"/><text fill="#002060" font-family="Courier New,Courier New_MSFontService,sans-serif" font-weight="700" font-size="83" transform="matrix(1 0 0 1 1537.66 1206)">a</text><rect x="1732.5" y="1125.5" width="115" height="114" stroke="#000000" stroke-width="9.16667" stroke-linejoin="round" stroke-miterlimit="10" fill="#DCE6F2"/><text fill="#002060" font-family="Courier New,Courier New_MSFontService,sans-serif" font-weight="700" font-size="83" transform="matrix(1 0 0 1 1764.94 1206)">c</text><rect x="1961.5" y="1125.5" width="115" height="114" stroke="#000000" stroke-width="9.16667" stroke-linejoin="round" stroke-miterlimit="10" fill="#F2DCDB"/><text fill="#002060" font-family="Courier New,Courier New_MSFontService,sans-serif" font-weight="700" font-size="83" transform="matrix(1 0 0 1 1993.71 1206)">e</text><rect x="1618.5" y="1125.5" width="115" height="114" stroke="#000000" stroke-width="9.16667" stroke-linejoin="round" stroke-miterlimit="10" fill="#DDD9C3"/><text fill="#002060" font-family="Courier New,Courier New_MSFontService,sans-serif" font-weight="700" font-size="83" transform="matrix(1 0 0 1 1650.63 1206)">b</text><rect x="1846.5" y="1125.5" width="114" height="114" stroke="#000000" stroke-width="9.16667" stroke-linejoin="round" stroke-miterlimit="10" fill="#DCE6F2"/><text fill="#002060" font-family="Courier New,Courier New_MSFontService,sans-serif" font-weight="700" font-size="83" transform="matrix(1 0 0 1 1878.58 1206)">d</text><rect x="2076.5" y="1125.5" width="114" height="114" stroke="#000000" stroke-width="9.16667" stroke-linejoin="round" stroke-miterlimit="10" fill="#F2DCDB"/><text fill="#002060" font-family="Courier New,Courier New_MSFontService,sans-serif" font-weight="700" font-size="83" transform="matrix(1 0 0 1 2108.26 1206)">f</text></g></svg>