<svg width="3047" height="1344" xmlns="http://www.w3.org/2000/svg" xmlns:xlink="http://www.w3.org/1999/xlink" overflow="hidden"><defs><clipPath id="clip0"><rect x="121" y="291" width="3047" height="1344"/></clipPath></defs><g clip-path="url(#clip0)" transform="translate(-121 -291)"><rect x="772.5" y="802.5" width="132" height="132" stroke="#000000" stroke-width="9.16667" stroke-linejoin="round" stroke-miterlimit="10" fill="#F2F2F2"/><rect x="905.5" y="802.5" width="132" height="132" stroke="#000000" stroke-width="9.16667" stroke-linejoin="round" stroke-miterlimit="10" fill="#F2F2F2"/><rect x="1037.5" y="802.5" width="133" height="132" stroke="#000000" stroke-width="9.16667" stroke-linejoin="round" stroke-miterlimit="10" fill="#F2F2F2"/><rect x="1170.5" y="802.5" width="132" height="132" stroke="#000000" stroke-width="9.16667" stroke-linejoin="round" stroke-miterlimit="10" fill="#F2F2F2"/><text fill="#002060" font-family="Courier New,Courier New_MSFontService,sans-serif" font-weight="700" font-size="73" transform="matrix(1 0 0 1 173.086 729)">sendcount<tspan font-size="83" x="5.15552" y="564">MPI_Alltoall</tspan><tspan font-size="83" x="599.156" y="564">() (</tspan><tspan fill="#000000" font-family="Arial,Arial_MSFontService,sans-serif" font-size="83" x="794.156" y="564">no root required)</tspan><tspan fill="#000000" font-family="Arial,Arial_MSFontService,sans-serif" font-size="92" x="597.927" y="-320">0</tspan><tspan fill="#000000" font-family="Arial,Arial_MSFontService,sans-serif" font-size="92" x="1206.31" y="-316">1</tspan><tspan fill="#000000" font-family="Arial,Arial_MSFontService,sans-serif" font-size="92" x="1814.69" y="-320">2</tspan><tspan fill="#000000" font-family="Arial,Arial_MSFontService,sans-serif" font-size="92" x="2410.8" y="-320">3</tspan><tspan font-size="73" x="0.496765" y="-316">rank</tspan><tspan font-size="73" x="-7.40769" y="-172">sendbuf</tspan><tspan font-size="73" x="-7.40732" y="167">recvbuf</tspan><tspan font-size="73" x="0" y="335">recvcount</tspan></text><rect x="1379.5" y="967.5" width="132" height="133" stroke="#000000" stroke-width="9.16667" stroke-linejoin="round" stroke-miterlimit="10" fill="#F2F2F2"/><text fill="#002060" font-family="Courier New,Courier New_MSFontService,sans-serif" font-weight="700" font-size="92" transform="matrix(1 0 0 1 1417.38 1060)">1</text><rect x="771.5" y="967.5" width="132" height="133" stroke="#000000" stroke-width="9.16667" stroke-linejoin="round" stroke-miterlimit="10" fill="#F2F2F2"/><text fill="#002060" font-family="Courier New,Courier New_MSFontService,sans-serif" font-weight="700" font-size="92" transform="matrix(1 0 0 1 808.998 1060)">1</text><rect x="2584.5" y="969.5" width="132" height="133" stroke="#000000" stroke-width="9.16667" stroke-linejoin="round" stroke-miterlimit="10" fill="#F2F2F2"/><text fill="#002060" font-family="Courier New,Courier New_MSFontService,sans-serif" font-weight="700" font-size="92" transform="matrix(1 0 0 1 2621.83 1062)">1</text><path d="M169 1165 3161.68 1165" stroke="#A6A6A6" stroke-width="10.3125" stroke-linejoin="round" stroke-miterlimit="10" fill="none" fill-rule="evenodd"/><path d="M173 1377 3162.31 1377" stroke="#A6A6A6" stroke-width="10.3125" stroke-linejoin="round" stroke-miterlimit="10" fill="none" fill-rule="evenodd"/><rect x="1381.5" y="799.5" width="132" height="132" stroke="#000000" stroke-width="9.16667" stroke-linejoin="round" stroke-miterlimit="10" fill="#F2F2F2"/><rect x="1514.5" y="799.5" width="132" height="132" stroke="#000000" stroke-width="9.16667" stroke-linejoin="round" stroke-miterlimit="10" fill="#F2F2F2"/><rect x="1646.5" y="799.5" width="133" height="132" stroke="#000000" stroke-width="9.16667" stroke-linejoin="round" stroke-miterlimit="10" fill="#F2F2F2"/><rect x="1779.5" y="799.5" width="132" height="132" stroke="#000000" stroke-width="9.16667" stroke-linejoin="round" stroke-miterlimit="10" fill="#F2F2F2"/><rect x="1978.5" y="802.5" width="132" height="132" stroke="#000000" stroke-width="9.16667" stroke-linejoin="round" stroke-miterlimit="10" fill="#F2F2F2"/><rect x="2110.5" y="802.5" width="133" height="132" stroke="#000000" stroke-width="9.16667" stroke-linejoin="round" stroke-miterlimit="10" fill="#F2F2F2"/><rect x="2243.5" y="802.5" width="132" height="132" stroke="#000000" stroke-width="9.16667" stroke-linejoin="round" stroke-miterlimit="10" fill="#F2F2F2"/><rect x="2375.5" y="802.5" width="133" height="132" stroke="#000000" stroke-width="9.16667" stroke-linejoin="round" stroke-miterlimit="10" fill="#F2F2F2"/><rect x="2586.5" y="802.5" width="133" height="132" stroke="#000000" stroke-width="9.16667" stroke-linejoin="round" stroke-miterlimit="10" fill="#F2F2F2"/><rect x="2719.5" y="802.5" width="132" height="132" stroke="#000000" stroke-width="9.16667" stroke-linejoin="round" stroke-miterlimit="10" fill="#F2F2F2"/><rect x="2852.5" y="802.5" width="132" height="132" stroke="#000000" stroke-width="9.16667" stroke-linejoin="round" stroke-miterlimit="10" fill="#F2F2F2"/><rect x="2984.5" y="802.5" width="132" height="132" stroke="#000000" stroke-width="9.16667" stroke-linejoin="round" stroke-miterlimit="10" fill="#F2F2F2"/><rect x="1975.5" y="967.5" width="133" height="133" stroke="#000000" stroke-width="9.16667" stroke-linejoin="round" stroke-miterlimit="10" fill="#F2F2F2"/><text fill="#002060" font-family="Courier New,Courier New_MSFontService,sans-serif" font-weight="700" font-size="92" transform="matrix(1 0 0 1 2013.48 1060)">1</text><rect x="1379.5" y="620.5" width="132" height="132" stroke="#000000" stroke-width="9.16667" stroke-linejoin="round" stroke-miterlimit="10" fill="#F2F2F2"/><text fill="#002060" font-family="Courier New,Courier New_MSFontService,sans-serif" font-weight="700" font-size="92" transform="matrix(1 0 0 1 1417.38 712)">1</text><rect x="771.5" y="620.5" width="132" height="132" stroke="#000000" stroke-width="9.16667" stroke-linejoin="round" stroke-miterlimit="10" fill="#F2F2F2"/><text fill="#002060" font-family="Courier New,Courier New_MSFontService,sans-serif" font-weight="700" font-size="92" transform="matrix(1 0 0 1 808.998 712)">1</text><rect x="2584.5" y="622.5" width="132" height="132" stroke="#000000" stroke-width="9.16667" stroke-linejoin="round" stroke-miterlimit="10" fill="#F2F2F2"/><text fill="#002060" font-family="Courier New,Courier New_MSFontService,sans-serif" font-weight="700" font-size="92" transform="matrix(1 0 0 1 2621.83 714)">1</text><rect x="1975.5" y="620.5" width="133" height="132" stroke="#000000" stroke-width="9.16667" stroke-linejoin="round" stroke-miterlimit="10" fill="#F2F2F2"/><text fill="#002060" font-family="Courier New,Courier New_MSFontService,sans-serif" font-weight="700" font-size="92" transform="matrix(1 0 0 1 2013.48 712)">1</text><rect x="772.5" y="1458.5" width="132" height="133" stroke="#000000" stroke-width="9.16667" stroke-linejoin="round" stroke-miterlimit="10" fill="#DDD9C3"/><text fill="#002060" font-family="Courier New,Courier New_MSFontService,sans-serif" font-weight="700" font-size="92" transform="matrix(1 0 0 1 810.395 1551)">0</text><rect x="905.5" y="1458.5" width="132" height="133" stroke="#000000" stroke-width="9.16667" stroke-linejoin="round" stroke-miterlimit="10" fill="#DCE6F2"/><text fill="#002060" font-family="Courier New,Courier New_MSFontService,sans-serif" font-weight="700" font-size="92" transform="matrix(1 0 0 1 943.053 1551)">4</text><rect x="1037.5" y="1458.5" width="133" height="133" stroke="#000000" stroke-width="9.16667" stroke-linejoin="round" stroke-miterlimit="10" fill="#F2DCDB"/><text fill="#002060" font-family="Courier New,Courier New_MSFontService,sans-serif" font-weight="700" font-size="92" transform="matrix(1 0 0 1 1075.71 1551)">8</text><rect x="1170.5" y="1458.5" width="132" height="133" stroke="#000000" stroke-width="9.16667" stroke-linejoin="round" stroke-miterlimit="10" fill="#EBF1DE"/><text fill="#002060" font-family="Courier New,Courier New_MSFontService,sans-serif" font-weight="700" font-size="50" transform="matrix(1 0 0 1 1205.04 1538)">12<tspan font-size="73" x="-1039.36" y="14">recvbuf</tspan></text><rect x="1381.5" y="1455.5" width="132" height="133" stroke="#000000" stroke-width="9.16667" stroke-linejoin="round" stroke-miterlimit="10" fill="#DDD9C3"/><text fill="#002060" font-family="Courier New,Courier New_MSFontService,sans-serif" font-weight="700" font-size="92" transform="matrix(1 0 0 1 1419.13 1547)">1</text><rect x="1514.5" y="1455.5" width="132" height="133" stroke="#000000" stroke-width="9.16667" stroke-linejoin="round" stroke-miterlimit="10" fill="#DCE6F2"/><text fill="#002060" font-family="Courier New,Courier New_MSFontService,sans-serif" font-weight="700" font-size="92" transform="matrix(1 0 0 1 1551.79 1547)">5</text><rect x="1646.5" y="1455.5" width="133" height="133" stroke="#000000" stroke-width="9.16667" stroke-linejoin="round" stroke-miterlimit="10" fill="#F2DCDB"/><text fill="#002060" font-family="Courier New,Courier New_MSFontService,sans-serif" font-weight="700" font-size="92" transform="matrix(1 0 0 1 1684.45 1547)">9</text><rect x="1779.5" y="1455.5" width="132" height="133" stroke="#000000" stroke-width="9.16667" stroke-linejoin="round" stroke-miterlimit="10" fill="#EBF1DE"/><text fill="#002060" font-family="Courier New,Courier New_MSFontService,sans-serif" font-weight="700" font-size="50" transform="matrix(1 0 0 1 1813.78 1535)">13</text><rect x="1978.5" y="1458.5" width="132" height="133" stroke="#000000" stroke-width="9.16667" stroke-linejoin="round" stroke-miterlimit="10" fill="#DDD9C3"/><text fill="#002060" font-family="Courier New,Courier New_MSFontService,sans-serif" font-weight="700" font-size="92" transform="matrix(1 0 0 1 2015.77 1550)">2</text><rect x="2110.5" y="1458.5" width="133" height="133" stroke="#000000" stroke-width="9.16667" stroke-linejoin="round" stroke-miterlimit="10" fill="#DCE6F2"/><text fill="#002060" font-family="Courier New,Courier New_MSFontService,sans-serif" font-weight="700" font-size="92" transform="matrix(1 0 0 1 2148.43 1550)">6</text><rect x="2243.5" y="1458.5" width="132" height="133" stroke="#000000" stroke-width="9.16667" stroke-linejoin="round" stroke-miterlimit="10" fill="#F2DCDB"/><text fill="#002060" font-family="Courier New,Courier New_MSFontService,sans-serif" font-weight="700" font-size="50" transform="matrix(1 0 0 1 2278.09 1538)">10</text><rect x="2375.5" y="1458.5" width="133" height="133" stroke="#000000" stroke-width="9.16667" stroke-linejoin="round" stroke-miterlimit="10" fill="#EBF1DE"/><text fill="#002060" font-family="Courier New,Courier New_MSFontService,sans-serif" font-weight="700" font-size="50" transform="matrix(1 0 0 1 2410.42 1538)">14</text><rect x="2586.5" y="1458.5" width="133" height="133" stroke="#000000" stroke-width="9.16667" stroke-linejoin="round" stroke-miterlimit="10" fill="#DDD9C3"/><text fill="#002060" font-family="Courier New,Courier New_MSFontService,sans-serif" font-weight="700" font-size="92" transform="matrix(1 0 0 1 2624.47 1551)">3</text><rect x="2719.5" y="1458.5" width="132" height="133" stroke="#000000" stroke-width="9.16667" stroke-linejoin="round" stroke-miterlimit="10" fill="#DCE6F2"/><text fill="#002060" font-family="Courier New,Courier New_MSFontService,sans-serif" font-weight="700" font-size="92" transform="matrix(1 0 0 1 2757.13 1551)">7</text><rect x="2852.5" y="1458.5" width="132" height="133" stroke="#000000" stroke-width="9.16667" stroke-linejoin="round" stroke-miterlimit="10" fill="#F2DCDB"/><text fill="#002060" font-family="Courier New,Courier New_MSFontService,sans-serif" font-weight="700" font-size="50" transform="matrix(1 0 0 1 2886.79 1538)">11</text><rect x="2984.5" y="1458.5" width="132" height="133" stroke="#000000" stroke-width="9.16667" stroke-linejoin="round" stroke-miterlimit="10" fill="#EBF1DE"/><text fill="#002060" font-family="Courier New,Courier New_MSFontService,sans-serif" font-weight="700" font-size="50" transform="matrix(1 0 0 1 3019.12 1538)">15</text><rect x="768.5" y="441.5" width="132" height="132" stroke="#000000" stroke-width="9.16667" stroke-linejoin="round" stroke-miterlimit="10" fill="#DDD9C3"/><text fill="#002060" font-family="Courier New,Courier New_MSFontService,sans-serif" font-weight="700" font-size="92" transform="matrix(1 0 0 1 806.316 533)">0</text><rect x="901.5" y="441.5" width="132" height="132" stroke="#000000" stroke-width="9.16667" stroke-linejoin="round" stroke-miterlimit="10" fill="#DDD9C3"/><text fill="#002060" font-family="Courier New,Courier New_MSFontService,sans-serif" font-weight="700" font-size="92" transform="matrix(1 0 0 1 938.974 533)">1</text><rect x="1033.5" y="441.5" width="133" height="132" stroke="#000000" stroke-width="9.16667" stroke-linejoin="round" stroke-miterlimit="10" fill="#DDD9C3"/><text fill="#002060" font-family="Courier New,Courier New_MSFontService,sans-serif" font-weight="700" font-size="92" transform="matrix(1 0 0 1 1071.63 533)">2</text><rect x="1166.5" y="441.5" width="132" height="132" stroke="#000000" stroke-width="9.16667" stroke-linejoin="round" stroke-miterlimit="10" fill="#DDD9C3"/><text fill="#002060" font-family="Courier New,Courier New_MSFontService,sans-serif" font-weight="700" font-size="92" transform="matrix(1 0 0 1 1203.96 533)">3</text><rect x="1377.5" y="438.5" width="132" height="132" stroke="#000000" stroke-width="9.16667" stroke-linejoin="round" stroke-miterlimit="10" fill="#DCE6F2"/><text fill="#002060" font-family="Courier New,Courier New_MSFontService,sans-serif" font-weight="700" font-size="92" transform="matrix(1 0 0 1 1415.05 530)">4</text><rect x="1509.5" y="438.5" width="133" height="132" stroke="#000000" stroke-width="9.16667" stroke-linejoin="round" stroke-miterlimit="10" fill="#DCE6F2"/><text fill="#002060" font-family="Courier New,Courier New_MSFontService,sans-serif" font-weight="700" font-size="92" transform="matrix(1 0 0 1 1547.71 530)">5</text><rect x="1642.5" y="438.5" width="132" height="132" stroke="#000000" stroke-width="9.16667" stroke-linejoin="round" stroke-miterlimit="10" fill="#DCE6F2"/><text fill="#002060" font-family="Courier New,Courier New_MSFontService,sans-serif" font-weight="700" font-size="92" transform="matrix(1 0 0 1 1680.37 530)">6</text><rect x="1774.5" y="438.5" width="133" height="132" stroke="#000000" stroke-width="9.16667" stroke-linejoin="round" stroke-miterlimit="10" fill="#DCE6F2"/><text fill="#002060" font-family="Courier New,Courier New_MSFontService,sans-serif" font-weight="700" font-size="92" transform="matrix(1 0 0 1 1812.7 530)">7</text><rect x="1973.5" y="441.5" width="133" height="132" stroke="#000000" stroke-width="9.16667" stroke-linejoin="round" stroke-miterlimit="10" fill="#F2DCDB"/><text fill="#002060" font-family="Courier New,Courier New_MSFontService,sans-serif" font-weight="700" font-size="92" transform="matrix(1 0 0 1 2011.7 533)">8</text><rect x="2106.5" y="441.5" width="132" height="132" stroke="#000000" stroke-width="9.16667" stroke-linejoin="round" stroke-miterlimit="10" fill="#F2DCDB"/><text fill="#002060" font-family="Courier New,Courier New_MSFontService,sans-serif" font-weight="700" font-size="92" transform="matrix(1 0 0 1 2144.35 533)">9</text><rect x="2239.5" y="441.5" width="132" height="132" stroke="#000000" stroke-width="9.16667" stroke-linejoin="round" stroke-miterlimit="10" fill="#F2DCDB"/><text fill="#002060" font-family="Courier New,Courier New_MSFontService,sans-serif" font-weight="700" font-size="50" transform="matrix(1 0 0 1 2274.01 521)">10</text><rect x="2371.5" y="441.5" width="132" height="132" stroke="#000000" stroke-width="9.16667" stroke-linejoin="round" stroke-miterlimit="10" fill="#F2DCDB"/><text fill="#002060" font-family="Courier New,Courier New_MSFontService,sans-serif" font-weight="700" font-size="50" transform="matrix(1 0 0 1 2406.34 521)">11</text><rect x="2544.5" y="441.5" width="132" height="132" stroke="#000000" stroke-width="9.16667" stroke-linejoin="round" stroke-miterlimit="10" fill="#EBF1DE"/><text fill="#002060" font-family="Courier New,Courier New_MSFontService,sans-serif" font-weight="700" font-size="50" transform="matrix(1 0 0 1 2579.31 521)">12</text><rect x="2677.5" y="441.5" width="132" height="132" stroke="#000000" stroke-width="9.16667" stroke-linejoin="round" stroke-miterlimit="10" fill="#EBF1DE"/><text fill="#002060" font-family="Courier New,Courier New_MSFontService,sans-serif" font-weight="700" font-size="50" transform="matrix(1 0 0 1 2711.97 521)">13</text><rect x="2809.5" y="441.5" width="133" height="132" stroke="#000000" stroke-width="9.16667" stroke-linejoin="round" stroke-miterlimit="10" fill="#EBF1DE"/><text fill="#002060" font-family="Courier New,Courier New_MSFontService,sans-serif" font-weight="700" font-size="50" transform="matrix(1 0 0 1 2844.63 521)">14</text><rect x="2942.5" y="441.5" width="132" height="132" stroke="#000000" stroke-width="9.16667" stroke-linejoin="round" stroke-miterlimit="10" fill="#EBF1DE"/><text fill="#002060" font-family="Courier New,Courier New_MSFontService,sans-serif" font-weight="700" font-size="50" transform="matrix(1 0 0 1 2976.96 521)">15</text></g></svg>