<svg width="823" height="960" xmlns="http://www.w3.org/2000/svg" xmlns:xlink="http://www.w3.org/1999/xlink" overflow="hidden"><defs><clipPath id="clip0"><rect x="2168" y="509" width="823" height="960"/></clipPath></defs><g clip-path="url(#clip0)" transform="translate(-2168 -509)"><rect x="2191" y="1134" width="155" height="156" stroke="#000000" stroke-width="5.72917" stroke-miterlimit="8" fill="#4BACC6"/><text font-family="Courier New,Courier New_MSFontService,sans-serif" font-weight="700" font-size="83" transform="matrix(1 0 0 1 2218.91 1236)">20</text><rect x="2346" y="1134" width="156" height="156" stroke="#000000" stroke-width="5.72917" stroke-miterlimit="8" fill="#0000FF"/><text fill="#00B050" font-family="Courier New,Courier New_MSFontService,sans-serif" font-weight="700" font-size="83" transform="matrix(1 0 0 1 2374.59 1236)">21</text><rect x="2813" y="1134" width="156" height="156" stroke="#000000" stroke-width="5.72917" stroke-miterlimit="8" fill="#4BACC6"/><text font-family="Courier New,Courier New_MSFontService,sans-serif" font-weight="700" font-size="83" transform="matrix(1 0 0 1 2841.63 1236)">24</text><rect x="2658" y="1134" width="155" height="156" stroke="#000000" stroke-width="5.72917" stroke-miterlimit="8" fill="#4BACC6"/><text font-family="Courier New,Courier New_MSFontService,sans-serif" font-weight="700" font-size="83" transform="matrix(1 0 0 1 2685.95 1236)">23</text><rect x="2502" y="1134" width="156" height="156" stroke="#000000" stroke-width="5.72917" stroke-miterlimit="8" fill="#4BACC6"/><text font-family="Courier New,Courier New_MSFontService,sans-serif" font-weight="700" font-size="83" transform="matrix(1 0 0 1 2530.27 1236)">22</text><rect x="2191" y="823" width="155" height="156" stroke="#000000" stroke-width="5.72917" stroke-miterlimit="8" fill="#4BACC6"/><text font-family="Courier New,Courier New_MSFontService,sans-serif" font-weight="700" font-size="83" transform="matrix(1 0 0 1 2218.91 924)">10</text><rect x="2346" y="823" width="156" height="156" stroke="#000000" stroke-width="5.72917" stroke-miterlimit="8" fill="#0000FF"/><text fill="#00B050" font-family="Courier New,Courier New_MSFontService,sans-serif" font-weight="700" font-size="83" transform="matrix(1 0 0 1 2374.59 924)">11</text><rect x="2813" y="823" width="156" height="156" stroke="#000000" stroke-width="5.72917" stroke-miterlimit="8" fill="#4BACC6"/><text font-family="Courier New,Courier New_MSFontService,sans-serif" font-weight="700" font-size="83" transform="matrix(1 0 0 1 2841.63 924)">14</text><rect x="2658" y="823" width="155" height="156" stroke="#000000" stroke-width="5.72917" stroke-miterlimit="8" fill="#4BACC6"/><text font-family="Courier New,Courier New_MSFontService,sans-serif" font-weight="700" font-size="83" transform="matrix(1 0 0 1 2685.95 924)">13</text><rect x="2502" y="823" width="156" height="156" stroke="#000000" stroke-width="5.72917" stroke-miterlimit="8" fill="#4BACC6"/><text font-family="Courier New,Courier New_MSFontService,sans-serif" font-weight="700" font-size="83" transform="matrix(1 0 0 1 2530.27 924)">12</text><rect x="2191" y="667" width="155" height="156" stroke="#000000" stroke-width="5.72917" stroke-miterlimit="8" fill="#4BACC6"/><text font-family="Courier New,Courier New_MSFontService,sans-serif" font-weight="700" font-size="83" transform="matrix(1 0 0 1 2243.91 769)">5</text><rect x="2346" y="667" width="156" height="156" stroke="#000000" stroke-width="5.72917" stroke-miterlimit="8" fill="#0000FF"/><text fill="#00B050" font-family="Courier New,Courier New_MSFontService,sans-serif" font-weight="700" font-size="83" transform="matrix(1 0 0 1 2399.59 769)">6</text><rect x="2813" y="667" width="156" height="156" stroke="#000000" stroke-width="5.72917" stroke-miterlimit="8" fill="#4BACC6"/><text font-family="Courier New,Courier New_MSFontService,sans-serif" font-weight="700" font-size="83" transform="matrix(1 0 0 1 2866.63 769)">9</text><rect x="2658" y="667" width="155" height="156" stroke="#000000" stroke-width="5.72917" stroke-miterlimit="8" fill="#4BACC6"/><text font-family="Courier New,Courier New_MSFontService,sans-serif" font-weight="700" font-size="83" transform="matrix(1 0 0 1 2710.95 769)">8</text><rect x="2502" y="667" width="156" height="156" stroke="#000000" stroke-width="5.72917" stroke-miterlimit="8" fill="#4BACC6"/><text font-family="Courier New,Courier New_MSFontService,sans-serif" font-weight="700" font-size="83" transform="matrix(1 0 0 1 2555.27 769)">7</text><rect x="2191" y="979" width="155" height="155" stroke="#000000" stroke-width="5.72917" stroke-miterlimit="8" fill="#4BACC6"/><text font-family="Courier New,Courier New_MSFontService,sans-serif" font-weight="700" font-size="83" transform="matrix(1 0 0 1 2218.91 1080)">15</text><rect x="2346" y="979" width="156" height="155" stroke="#000000" stroke-width="5.72917" stroke-miterlimit="8" fill="#0000FF"/><text fill="#00B050" font-family="Courier New,Courier New_MSFontService,sans-serif" font-weight="700" font-size="83" transform="matrix(1 0 0 1 2374.59 1080)">16</text><rect x="2813" y="979" width="156" height="155" stroke="#000000" stroke-width="5.72917" stroke-miterlimit="8" fill="#4BACC6"/><text font-family="Courier New,Courier New_MSFontService,sans-serif" font-weight="700" font-size="83" transform="matrix(1 0 0 1 2841.63 1080)">19</text><rect x="2658" y="979" width="155" height="155" stroke="#000000" stroke-width="5.72917" stroke-miterlimit="8" fill="#4BACC6"/><text font-family="Courier New,Courier New_MSFontService,sans-serif" font-weight="700" font-size="83" transform="matrix(1 0 0 1 2685.95 1080)">18</text><rect x="2502" y="979" width="156" height="155" stroke="#000000" stroke-width="5.72917" stroke-miterlimit="8" fill="#4BACC6"/><text font-family="Courier New,Courier New_MSFontService,sans-serif" font-weight="700" font-size="83" transform="matrix(1 0 0 1 2530.27 1080)">17</text><rect x="2191" y="512" width="155" height="155" stroke="#000000" stroke-width="5.72917" stroke-miterlimit="8" fill="#4BACC6"/><text font-family="Courier New,Courier New_MSFontService,sans-serif" font-weight="700" font-size="83" transform="matrix(1 0 0 1 2243.91 613)">0</text><rect x="2346" y="512" width="156" height="155" stroke="#000000" stroke-width="5.72917" stroke-miterlimit="8" fill="#0000FF"/><text fill="#00B050" font-family="Courier New,Courier New_MSFontService,sans-serif" font-weight="700" font-size="83" transform="matrix(1 0 0 1 2399.59 613)">1</text><rect x="2813" y="512" width="156" height="155" stroke="#000000" stroke-width="5.72917" stroke-miterlimit="8" fill="#4BACC6"/><text font-family="Courier New,Courier New_MSFontService,sans-serif" font-weight="700" font-size="83" transform="matrix(1 0 0 1 2866.63 613)">4</text><rect x="2658" y="512" width="155" height="155" stroke="#000000" stroke-width="5.72917" stroke-miterlimit="8" fill="#4BACC6"/><text font-family="Courier New,Courier New_MSFontService,sans-serif" font-weight="700" font-size="83" transform="matrix(1 0 0 1 2710.95 613)">3</text><rect x="2502" y="512" width="156" height="155" stroke="#000000" stroke-width="5.72917" stroke-miterlimit="8" fill="#4BACC6"/><text font-family="Courier New,Courier New_MSFontService,sans-serif" font-weight="700" font-size="83" transform="matrix(1 0 0 1 2555.27 613)">2</text><rect x="2191" y="1290" width="155" height="156" stroke="#000000" stroke-width="5.72917" stroke-miterlimit="8" fill="#4BACC6"/><text font-family="Courier New,Courier New_MSFontService,sans-serif" font-weight="700" font-size="83" transform="matrix(1 0 0 1 2218.91 1391)">25</text><rect x="2346" y="1290" width="156" height="156" stroke="#000000" stroke-width="5.72917" stroke-miterlimit="8" fill="#0000FF"/><text fill="#00B050" font-family="Courier New,Courier New_MSFontService,sans-serif" font-weight="700" font-size="83" transform="matrix(1 0 0 1 2374.59 1391)">26</text><rect x="2813" y="1290" width="156" height="156" stroke="#000000" stroke-width="5.72917" stroke-miterlimit="8" fill="#4BACC6"/><text font-family="Courier New,Courier New_MSFontService,sans-serif" font-weight="700" font-size="83" transform="matrix(1 0 0 1 2841.63 1391)">29</text><rect x="2658" y="1290" width="155" height="156" stroke="#000000" stroke-width="5.72917" stroke-miterlimit="8" fill="#4BACC6"/><text font-family="Courier New,Courier New_MSFontService,sans-serif" font-weight="700" font-size="83" transform="matrix(1 0 0 1 2685.95 1391)">28</text><rect x="2502" y="1290" width="156" height="156" stroke="#000000" stroke-width="5.72917" stroke-miterlimit="8" fill="#4BACC6"/><text font-family="Courier New,Courier New_MSFontService,sans-serif" font-weight="700" font-size="83" transform="matrix(1 0 0 1 2530.27 1391)">27</text></g></svg>