<svg width="992" height="1175" xmlns="http://www.w3.org/2000/svg" xmlns:xlink="http://www.w3.org/1999/xlink" overflow="hidden"><defs><clipPath id="clip0"><rect x="215" y="544" width="992" height="1175"/></clipPath></defs><g clip-path="url(#clip0)" transform="translate(-215 -544)"><path d="M0 0C-46.7053 0-93.4107 28.0295-93.4107 56.0583-93.4107 84.0878 275.824 112.117 645.058 112.117" stroke="#D9D9D9" stroke-width="20.625" stroke-linejoin="round" stroke-miterlimit="10" fill="none" fill-rule="evenodd" transform="matrix(-1 1.22465e-16 1.22465e-16 1 1102.56 955.5)"/><text fill="#C0504D" font-family="Courier New,Courier New_MSFontService,sans-serif" font-weight="700" font-size="73" transform="matrix(1 0 0 1 678.228 1652)">ncols</text><text fill="#9BBB59" font-family="Courier New,Courier New_MSFontService,sans-serif" font-weight="700" font-size="73" transform="matrix(-1.83697e-16 -1 1 -1.83697e-16 311.418 1261)">nrows</text><rect x="523" y="1232" width="110" height="110" stroke="#000000" stroke-width="5.72917" stroke-miterlimit="8" fill="#4BACC6"/><rect x="633" y="1232" width="110" height="110" stroke="#000000" stroke-width="5.72917" stroke-miterlimit="8" fill="#F79646"/><rect x="963" y="1232" width="110" height="110" stroke="#000000" stroke-width="5.72917" stroke-miterlimit="8" fill="#4BACC6"/><rect x="853" y="1232" width="110" height="110" stroke="#000000" stroke-width="5.72917" stroke-miterlimit="8" fill="#4BACC6"/><rect x="743" y="1232" width="110" height="110" stroke="#000000" stroke-width="5.72917" stroke-miterlimit="8" fill="#4BACC6"/><rect x="523" y="1012" width="110" height="110" stroke="#000000" stroke-width="5.72917" stroke-miterlimit="8" fill="#4BACC6"/><rect x="633" y="1012" width="110" height="110" stroke="#000000" stroke-width="5.72917" stroke-miterlimit="8" fill="#F79646"/><rect x="963" y="1012" width="110" height="110" stroke="#000000" stroke-width="5.72917" stroke-miterlimit="8" fill="#4BACC6"/><rect x="853" y="1012" width="110" height="110" stroke="#000000" stroke-width="5.72917" stroke-miterlimit="8" fill="#4BACC6"/><rect x="743" y="1012" width="110" height="110" stroke="#000000" stroke-width="5.72917" stroke-miterlimit="8" fill="#4BACC6"/><rect x="523" y="902" width="110" height="110" stroke="#000000" stroke-width="5.72917" stroke-miterlimit="8" fill="#4BACC6"/><rect x="633" y="902" width="110" height="110" stroke="#000000" stroke-width="5.72917" stroke-miterlimit="8" fill="#F79646"/><rect x="963" y="902" width="110" height="110" stroke="#000000" stroke-width="5.72917" stroke-miterlimit="8" fill="#4BACC6"/><rect x="853" y="902" width="110" height="110" stroke="#000000" stroke-width="5.72917" stroke-miterlimit="8" fill="#4BACC6"/><rect x="743" y="902" width="110" height="110" stroke="#000000" stroke-width="5.72917" stroke-miterlimit="8" fill="#4BACC6"/><rect x="523" y="1122" width="110" height="110" stroke="#000000" stroke-width="5.72917" stroke-miterlimit="8" fill="#4BACC6"/><rect x="633" y="1122" width="110" height="110" stroke="#000000" stroke-width="5.72917" stroke-miterlimit="8" fill="#F79646"/><rect x="963" y="1122" width="110" height="110" stroke="#000000" stroke-width="5.72917" stroke-miterlimit="8" fill="#4BACC6"/><rect x="853" y="1122" width="110" height="110" stroke="#000000" stroke-width="5.72917" stroke-miterlimit="8" fill="#4BACC6"/><rect x="743" y="1122" width="110" height="110" stroke="#000000" stroke-width="5.72917" stroke-miterlimit="8" fill="#4BACC6"/><rect x="523" y="792" width="110" height="110" stroke="#000000" stroke-width="5.72917" stroke-miterlimit="8" fill="#4BACC6"/><rect x="633" y="792" width="110" height="110" stroke="#000000" stroke-width="5.72917" stroke-miterlimit="8" fill="#F79646"/><rect x="963" y="792" width="110" height="110" stroke="#000000" stroke-width="5.72917" stroke-miterlimit="8" fill="#4BACC6"/><rect x="853" y="792" width="110" height="110" stroke="#000000" stroke-width="5.72917" stroke-miterlimit="8" fill="#4BACC6"/><rect x="743" y="792" width="110" height="110" stroke="#000000" stroke-width="5.72917" stroke-miterlimit="8" fill="#4BACC6"/><rect x="523" y="1342" width="110" height="110" stroke="#000000" stroke-width="5.72917" stroke-miterlimit="8" fill="#4BACC6"/><rect x="633" y="1342" width="110" height="110" stroke="#000000" stroke-width="5.72917" stroke-miterlimit="8" fill="#F79646"/><rect x="963" y="1342" width="110" height="110" stroke="#000000" stroke-width="5.72917" stroke-miterlimit="8" fill="#4BACC6"/><rect x="853" y="1342" width="110" height="110" stroke="#000000" stroke-width="5.72917" stroke-miterlimit="8" fill="#4BACC6"/><rect x="743" y="1342" width="110" height="110" stroke="#000000" stroke-width="5.72917" stroke-miterlimit="8" fill="#4BACC6"/><text fill="#C0504D" font-family="Courier New,Courier New_MSFontService,sans-serif" font-weight="700" font-size="73" transform="matrix(1 0 0 1 414.207 632)">&amp;<tspan font-size="73" x="44" y="0">matrix</tspan><tspan font-size="73" x="308" y="0">[1]</tspan></text><path d="M667.112 671.327 689.248 839.34 679.024 840.687 656.888 672.674ZM698.799 832.881 687.504 865.574 668.127 836.922Z" fill="#215968"/><path d="M0 0C28.4428-1.05034e-14 51.5002 18.6977 51.5002 41.7625L51.5002 288.238C51.5002 311.302 74.5577 330 103 330 74.5577 330 51.5002 348.698 51.5002 371.762L51.5002 618.238C51.5002 641.302 28.4428 660 0 660" stroke="#215968" stroke-width="10.3125" stroke-linejoin="round" stroke-miterlimit="10" fill="none" fill-rule="evenodd" transform="matrix(-1 0 0 1 457 800)"/><path d="M1073 1477C1073 1507.38 1058.12 1532 1039.77 1532L831.225 1532C812.875 1532 798 1556.62 798 1587 798 1556.62 783.124 1532 764.774 1532L556.225 1532C537.875 1532 523 1507.38 523 1477" stroke="#215968" stroke-width="10.3125" stroke-linejoin="round" stroke-miterlimit="10" fill="none" fill-rule="evenodd"/><path d="M0 0 468.831 2.11663" stroke="#D9D9D9" stroke-width="20.625" stroke-linejoin="round" stroke-miterlimit="10" fill="none" fill-rule="evenodd" transform="matrix(1 0 0 -1 633.5 957.617)"/><path d="M462.5 1067.5 633.394 1067.5" stroke="#D9D9D9" stroke-width="20.625" stroke-linejoin="round" stroke-miterlimit="10" fill="none" fill-rule="evenodd"/><path d="M633.5 902.5 633.5 1012.5" stroke="#D9D9D9" stroke-width="20.625" stroke-linejoin="round" stroke-miterlimit="10" fill="none" fill-rule="evenodd"/><path d="M633.5 1012.5 633.5 1122.5" stroke="#D9D9D9" stroke-width="20.625" stroke-linejoin="round" stroke-miterlimit="10" fill="none" fill-rule="evenodd"/><rect x="785" y="842" width="267" height="89.0001" fill="#F2F2F2"/><text fill="#002060" font-family="Courier New,Courier New_MSFontService,sans-serif" font-weight="700" font-size="73" transform="matrix(1 0 0 1 786.5 907)">stride</text></g></svg>