<svg width="891" height="948" xmlns="http://www.w3.org/2000/svg" xmlns:xlink="http://www.w3.org/1999/xlink" overflow="hidden"><defs><clipPath id="clip0"><rect x="2314" y="237" width="891" height="948"/></clipPath></defs><g clip-path="url(#clip0)" transform="translate(-2314 -237)"><text fill="#C0504D" font-family="Courier New,Courier New_MSFontService,sans-serif" font-weight="700" font-size="83" transform="matrix(1 0 0 1 2804.85 1107)">ncols</text><rect x="2650" y="680" width="110" height="110" stroke="#000000" stroke-width="5.72917" stroke-miterlimit="8" fill="#4BACC6"/><rect x="2760" y="680" width="110" height="110" stroke="#000000" stroke-width="5.72917" stroke-miterlimit="8" fill="#F79646"/><rect x="3090" y="680" width="110" height="110" stroke="#000000" stroke-width="5.72917" stroke-miterlimit="8" fill="#4BACC6"/><rect x="2980" y="680" width="110" height="110" stroke="#000000" stroke-width="5.72917" stroke-miterlimit="8" fill="#F79646"/><rect x="2870" y="680" width="110" height="110" stroke="#000000" stroke-width="5.72917" stroke-miterlimit="8" fill="#F79646"/><rect x="2650" y="460" width="110" height="110" stroke="#000000" stroke-width="5.72917" stroke-miterlimit="8" fill="#4BACC6"/><rect x="2760" y="460" width="110" height="110" stroke="#000000" stroke-width="5.72917" stroke-miterlimit="8" fill="#F79646"/><rect x="3090" y="460" width="110" height="110" stroke="#000000" stroke-width="5.72917" stroke-miterlimit="8" fill="#4BACC6"/><rect x="2980" y="460" width="110" height="110" stroke="#000000" stroke-width="5.72917" stroke-miterlimit="8" fill="#F79646"/><rect x="2870" y="460" width="110" height="110" stroke="#000000" stroke-width="5.72917" stroke-miterlimit="8" fill="#F79646"/><rect x="2650" y="350" width="110" height="110" stroke="#000000" stroke-width="5.72917" stroke-miterlimit="8" fill="#4BACC6"/><rect x="2760" y="350" width="110" height="110" stroke="#000000" stroke-width="5.72917" stroke-miterlimit="8" fill="#F79646"/><rect x="3090" y="350" width="110" height="110" stroke="#000000" stroke-width="5.72917" stroke-miterlimit="8" fill="#4BACC6"/><rect x="2980" y="350" width="110" height="110" stroke="#000000" stroke-width="5.72917" stroke-miterlimit="8" fill="#F79646"/><rect x="2870" y="350" width="110" height="110" stroke="#000000" stroke-width="5.72917" stroke-miterlimit="8" fill="#F79646"/><rect x="2650" y="570" width="110" height="110" stroke="#000000" stroke-width="5.72917" stroke-miterlimit="8" fill="#4BACC6"/><rect x="2760" y="570" width="110" height="110" stroke="#000000" stroke-width="5.72917" stroke-miterlimit="8" fill="#F79646"/><rect x="3090" y="570" width="110" height="110" stroke="#000000" stroke-width="5.72917" stroke-miterlimit="8" fill="#4BACC6"/><rect x="2980" y="570" width="110" height="110" stroke="#000000" stroke-width="5.72917" stroke-miterlimit="8" fill="#F79646"/><rect x="2870" y="570" width="110" height="110" stroke="#000000" stroke-width="5.72917" stroke-miterlimit="8" fill="#F79646"/><rect x="2650" y="240" width="110" height="110" stroke="#000000" stroke-width="5.72917" stroke-miterlimit="8" fill="#4BACC6"/><rect x="2760" y="240" width="110" height="110" stroke="#000000" stroke-width="5.72917" stroke-miterlimit="8" fill="#5287C4"/><rect x="3090" y="240" width="110" height="110" stroke="#000000" stroke-width="5.72917" stroke-miterlimit="8" fill="#4BACC6"/><rect x="2980" y="240" width="110" height="110" stroke="#000000" stroke-width="5.72917" stroke-miterlimit="8" fill="#4BACC6"/><rect x="2870" y="240" width="110" height="110" stroke="#000000" stroke-width="5.72917" stroke-miterlimit="8" fill="#4BACC6"/><rect x="2650" y="790" width="110" height="110" stroke="#000000" stroke-width="5.72917" stroke-miterlimit="8" fill="#4BACC6"/><rect x="2760" y="790" width="110" height="110" stroke="#000000" stroke-width="5.72917" stroke-miterlimit="8" fill="#F79646"/><rect x="3090" y="790" width="110" height="110" stroke="#000000" stroke-width="5.72917" stroke-miterlimit="8" fill="#4BACC6"/><rect x="2980" y="790" width="110" height="110" stroke="#000000" stroke-width="5.72917" stroke-miterlimit="8" fill="#4BACC6"/><rect x="2870" y="790" width="110" height="110" stroke="#000000" stroke-width="5.72917" stroke-miterlimit="8" fill="#4BACC6"/><path d="M0 0C22.6438-5.25168e-15 41.0003 13.65 41.0003 30.4882L41.0003 299.512C41.0003 316.35 59.3567 330 82.0005 330 59.3567 330 41.0003 343.65 41.0003 360.488L41.0003 629.512C41.0003 646.35 22.6438 660-5.25168e-15 660" stroke="#215968" stroke-width="10.3125" stroke-linejoin="round" stroke-miterlimit="10" fill="none" fill-rule="evenodd" transform="matrix(-1 0 0 1 2584 249)"/><path d="M3200 929C3200 957.995 3185.81 981.501 3168.3 981.501L2956.7 981.501C2939.19 981.501 2925 1005.01 2925 1034 2925 1005.01 2910.81 981.501 2893.3 981.501L2681.7 981.501C2664.19 981.501 2650 957.995 2650 929" stroke="#215968" stroke-width="10.3125" stroke-linejoin="round" stroke-miterlimit="10" fill="none" fill-rule="evenodd"/><text fill="#9BBB59" font-family="Courier New,Courier New_MSFontService,sans-serif" font-weight="700" font-size="83" transform="matrix(-1.83697e-16 -1 1 -1.83697e-16 2419.36 709)">nrows</text><rect x="2760" y="240" width="110" height="110" stroke="#000000" stroke-width="5.72917" stroke-miterlimit="8" fill="#4BACC6"/><rect x="2759" y="790" width="110" height="110" stroke="#000000" stroke-width="5.72917" stroke-miterlimit="8" fill="#4BACC6"/></g></svg>