<svg width="1800" height="924" xmlns="http://www.w3.org/2000/svg" xmlns:xlink="http://www.w3.org/1999/xlink" overflow="hidden"><defs><clipPath id="clip0"><rect x="1403" y="776" width="1800" height="924"/></clipPath></defs><g clip-path="url(#clip0)" transform="translate(-1403 -776)"><path d="M2475.5 883.94C2475.5 883.697 2475.7 883.5 2475.94 883.5L2677.06 883.5C2677.3 883.5 2677.5 883.697 2677.5 883.94L2677.5 949.06C2677.5 949.303 2677.3 949.5 2677.06 949.5L2475.94 949.5C2475.7 949.5 2475.5 949.303 2475.5 949.06Z" stroke="#000000" stroke-width="3.4375" stroke-linejoin="round" stroke-miterlimit="10" fill="#C3D69B" fill-rule="evenodd"/><path d="M2475.5 976.947C2475.5 976.7 2475.7 976.5 2475.95 976.5L2886.05 976.5C2886.3 976.5 2886.5 976.7 2886.5 976.947L2886.5 1043.05C2886.5 1043.3 2886.3 1043.5 2886.05 1043.5L2475.95 1043.5C2475.7 1043.5 2475.5 1043.3 2475.5 1043.05Z" stroke="#000000" stroke-width="3.4375" stroke-linejoin="round" stroke-miterlimit="10" fill="#95B3D7" fill-rule="evenodd"/><path d="M1866.5 1269.95C1866.5 1269.7 1866.7 1269.5 1866.95 1269.5L2277.05 1269.5C2277.3 1269.5 2277.5 1269.7 2277.5 1269.95L2277.5 1336.05C2277.5 1336.3 2277.3 1336.5 2277.05 1336.5L1866.95 1336.5C1866.7 1336.5 1866.5 1336.3 1866.5 1336.05Z" stroke="#000000" stroke-width="3.4375" stroke-linejoin="round" stroke-miterlimit="10" fill="#95B3D7" fill-rule="evenodd"/><path d="M1664.5 1269.95C1664.5 1269.7 1664.7 1269.5 1664.95 1269.5L1866.05 1269.5C1866.3 1269.5 1866.5 1269.7 1866.5 1269.95L1866.5 1336.05C1866.5 1336.3 1866.3 1336.5 1866.05 1336.5L1664.95 1336.5C1664.7 1336.5 1664.5 1336.3 1664.5 1336.05Z" stroke="#000000" stroke-width="3.4375" stroke-linejoin="round" stroke-miterlimit="10" fill="#C3D69B" fill-rule="evenodd"/><path d="M2277.5 1269.95C2277.5 1269.7 2277.7 1269.5 2277.95 1269.5L2688.05 1269.5C2688.3 1269.5 2688.5 1269.7 2688.5 1269.95L2688.5 1336.05C2688.5 1336.3 2688.3 1336.5 2688.05 1336.5L2277.95 1336.5C2277.7 1336.5 2277.5 1336.3 2277.5 1336.05Z" stroke="#000000" stroke-width="3.4375" stroke-linejoin="round" stroke-miterlimit="10" fill="#95B3D7" fill-rule="evenodd"/><path d="M2689.5 1269.95C2689.5 1269.7 2689.7 1269.5 2689.95 1269.5L3100.05 1269.5C3100.3 1269.5 3100.5 1269.7 3100.5 1269.95L3100.5 1336.05C3100.5 1336.3 3100.3 1336.5 3100.05 1336.5L2689.95 1336.5C2689.7 1336.5 2689.5 1336.3 2689.5 1336.05Z" stroke="#000000" stroke-width="3.4375" stroke-linejoin="round" stroke-miterlimit="10" fill="#95B3D7" fill-rule="evenodd"/><text fill="#F79646" font-family="Courier New,Courier New_MSFontService,sans-serif" font-weight="700" font-size="64" transform="matrix(1 0 0 1 2049.21 934)">types[0]<tspan font-size="64" x="-0.723389" y="94">types[1]</tspan><tspan fill="#4BACC6" font-size="64" x="-607.466" y="217">block_lengths</tspan><tspan fill="#002060" font-size="64" x="-109.466" y="217">[0]=1</tspan><tspan fill="#4BACC6" font-size="64" x="305.404" y="217">block_lengths</tspan><tspan fill="#002060" font-size="64" x="803.404" y="217">[1]=3</tspan><tspan fill="#C0504D" font-size="73" x="-286.056" y="698">displs</tspan><tspan fill="#C0504D" font-size="73" x="-22.056" y="698">[0]</tspan><tspan fill="#C0504D" font-size="73" x="19.7266" y="588">displs</tspan><tspan fill="#C0504D" font-size="73" x="283.727" y="588">[1]</tspan><tspan fill="#002060" font-size="64" x="-0.723389" y="-82">count = 2</tspan></text><path d="M63.9999 208C46.3268 208 31.9999 200.837 31.9999 192L32.0001 120C32.0001 111.163 17.6732 104 0 104 17.6732 104 32.0001 96.8366 32.0001 88.0001L32.0001 15.9999C32.0001 7.1634 46.327-3.31015e-15 64.0002-6.62029e-15" stroke="#000000" stroke-width="6.875" stroke-linejoin="round" stroke-miterlimit="10" fill="none" fill-rule="evenodd" transform="matrix(6.12323e-17 1 1 -6.12323e-17 1663.5 1186.5)"/><path d="M63.9999 1227C46.3268 1227 32 1184.82 32 1132.78L32 707.72C32 655.684 17.6731 613.5-4.88175e-15 613.5 17.6731 613.5 32 571.316 32 519.28L32 94.2203C32 42.1839 46.3268 5.85801e-14 63.9999 0" stroke="#000000" stroke-width="6.875" stroke-linejoin="round" stroke-miterlimit="10" fill="none" fill-rule="evenodd" transform="matrix(6.12323e-17 1 1 -6.12323e-17 1871.5 1186.5)"/><path d="M2033.52 1571.9 1736.01 1383.16 1741.53 1374.46 2039.05 1563.19ZM1734.84 1394.63 1717 1365 1751.41 1368.51Z" fill="#215968"/><path d="M2275.72 1461.53 1889.87 1369.02 1892.27 1359 2278.13 1451.5ZM1892.48 1380.26 1866 1358 1899.69 1350.17Z" fill="#215968"/></g></svg>