<svg width="2891" height="520" xmlns="http://www.w3.org/2000/svg" xmlns:xlink="http://www.w3.org/1999/xlink" overflow="hidden"><defs><clipPath id="clip0"><rect x="92" y="926" width="2891" height="520"/></clipPath></defs><g clip-path="url(#clip0)" transform="translate(-92 -926)"><text fill="#1F497D" font-family="Courier New,Courier New_MSFontService,sans-serif" font-weight="700" font-size="83" transform="matrix(1 0 0 1 142.852 1128)">a</text><rect x="330.5" y="1058.5" width="104" height="105" stroke="#00B050" stroke-width="9.16667" stroke-linejoin="round" stroke-miterlimit="10" fill="#F2F2F2"/><text font-family="Consolas,Consolas_MSFontService,sans-serif" font-weight="700" font-size="73" transform="matrix(1 0 0 1 361.908 1136)">1</text><rect x="434.5" y="1058.5" width="105" height="105" stroke="#00B050" stroke-width="9.16667" stroke-linejoin="round" stroke-miterlimit="10" fill="#F2F2F2"/><text font-family="Consolas,Consolas_MSFontService,sans-serif" font-weight="700" font-size="73" transform="matrix(1 0 0 1 466.404 1136)">2</text><rect x="923.5" y="1058.5" width="105" height="105" stroke="#00B050" stroke-width="9.16667" stroke-linejoin="round" stroke-miterlimit="10" fill="#F2F2F2"/><path d="M539.5 1058.5 923.278 1058.5" stroke="#00B050" stroke-width="9.16667" stroke-linejoin="round" stroke-miterlimit="10" stroke-dasharray="9.16667 9.16667" fill="none" fill-rule="evenodd"/><path d="M539.5 1163.5 923.278 1163.5" stroke="#00B050" stroke-width="9.16667" stroke-linejoin="round" stroke-miterlimit="10" stroke-dasharray="9.16667 9.16667" fill="none" fill-rule="evenodd"/><path d="M959.982 1088.07 969.951 1088.07 978.201 1112.41C979.388 1115.91 980.305 1118.87 980.951 1121.29L981.294 1121.29C981.461 1120.01 981.841 1117.9 982.435 1114.94 983.029 1111.98 983.576 1109.4 984.076 1107.19L986.263 1097.35C986.721 1095.29 986.951 1093.61 986.951 1092.32 986.951 1091.34 986.706 1090.66 986.216 1090.27 985.727 1089.88 984.951 1089.66 983.888 1089.6L984.232 1088.07 995.169 1088.07 994.826 1089.6C994.034 1089.76 993.466 1089.95 993.122 1090.16 992.779 1090.37 992.471 1090.68 992.201 1091.1 991.93 1091.51 991.649 1092.17 991.357 1093.05 991.065 1093.94 990.701 1095.38 990.263 1097.38L982.919 1130.72 978.669 1130.72 969.544 1103.91C968.44 1100.7 967.471 1097.5 966.638 1094.32L966.232 1094.32C966.107 1095.38 965.763 1097.41 965.201 1100.4 964.638 1103.38 964.044 1106.31 963.419 1109.16L960.669 1121.63C960.232 1123.61 960.013 1125.23 960.013 1126.5 960.013 1127.44 960.247 1128.1 960.716 1128.49 961.185 1128.87 961.971 1129.11 963.076 1129.19L962.732 1130.72 951.794 1130.72 952.138 1129.19C952.93 1129.07 953.524 1128.86 953.919 1128.58 954.315 1128.3 954.649 1127.91 954.919 1127.41 955.19 1126.91 955.44 1126.3 955.669 1125.58 955.899 1124.86 956.242 1123.47 956.701 1121.41L962.013 1097.35C962.221 1096.45 962.388 1095.6 962.513 1094.79 962.638 1093.97 962.701 1093.15 962.701 1092.32 962.701 1091.34 962.456 1090.66 961.966 1090.27 961.477 1089.88 960.701 1089.66 959.638 1089.6Z" fill-rule="evenodd"/><text fill="#000000" fill-opacity="0" font-family="Arial,Arial_MSFontService,sans-serif" font-size="42.6562" x="951.794" y="1125.39">𝑁</text><path d="M1004.31 1112.4 1005.96 1112.4C1005.01 1116.67 1004.14 1120.57 1003.36 1124.1 1002.57 1127.64 1001.71 1131.54 1000.77 1135.81 1000.56 1136.72 1000.41 1137.45 1000.31 1137.97 1000.22 1138.5 1000.18 1138.98 1000.18 1139.41 1000.18 1139.99 1000.3 1140.41 1000.53 1140.67 1000.77 1140.93 1001.13 1141.06 1001.62 1141.06 1001.9 1141.06 1002.17 1141.01 1002.45 1140.9 1002.72 1140.79 1003.01 1140.63 1003.32 1140.4 1003.63 1140.17 1003.97 1139.87 1004.34 1139.51 1004.72 1139.15 1005.14 1138.72 1005.62 1138.22L1007.11 1139.73C1006.33 1140.53 1005.62 1141.2 1004.98 1141.76 1004.35 1142.32 1003.75 1142.77 1003.17 1143.13 1002.6 1143.48 1002.03 1143.73 1001.47 1143.9 1000.91 1144.06 1000.31 1144.14 999.672 1144.14 999.09 1144.14 998.566 1144.03 998.1 1143.82 997.633 1143.6 997.232 1143.31 996.895 1142.93 996.558 1142.56 996.298 1142.11 996.115 1141.59 995.931 1141.07 995.839 1140.5 995.839 1139.87 995.839 1139.3 995.897 1138.6 996.011 1137.77 996.126 1136.93 996.306 1135.99 996.551 1134.93 997.209 1132 997.863 1129.07 998.513 1126.14 999.163 1123.22 999.695 1120.98 1000.11 1119.42 1000.48 1117.75 1000.66 1116.61 1000.66 1116 1000.66 1115.68 1000.62 1115.41 1000.53 1115.2 1000.45 1114.98 1000.3 1114.81 1000.07 1114.67 999.852 1114.53 999.549 1114.43 999.167 1114.37 998.784 1114.31 998.287 1114.26 997.675 1114.23L997.997 1112.67Z" fill-rule="evenodd"/><text fill="#000000" fill-opacity="0" font-family="Arial,Arial_MSFontService,sans-serif" font-size="31.7388" x="995.839" y="1140.17">𝑙</text><text fill="#1F497D" font-family="Courier New,Courier New_MSFontService,sans-serif" font-weight="700" font-size="83" transform="matrix(1 0 0 1 534.216 1025)">Rank 0</text><rect x="1338.5" y="1058.5" width="105" height="105" stroke="#00B050" stroke-width="9.16667" stroke-linejoin="round" stroke-miterlimit="10" fill="#F2F2F2"/><text font-family="Consolas,Consolas_MSFontService,sans-serif" font-weight="700" font-size="73" transform="matrix(1 0 0 1 1370.28 1136)">1</text><rect x="1443.5" y="1058.5" width="104" height="105" stroke="#00B050" stroke-width="9.16667" stroke-linejoin="round" stroke-miterlimit="10" fill="#F2F2F2"/><text font-family="Consolas,Consolas_MSFontService,sans-serif" font-weight="700" font-size="73" transform="matrix(1 0 0 1 1474.78 1136)">2</text><rect x="1932.5" y="1058.5" width="104" height="105" stroke="#00B050" stroke-width="9.16667" stroke-linejoin="round" stroke-miterlimit="10" fill="#F2F2F2"/><path d="M1547.5 1058.5 1931.28 1058.5" stroke="#00B050" stroke-width="9.16667" stroke-linejoin="round" stroke-miterlimit="10" stroke-dasharray="9.16667 9.16667" fill="none" fill-rule="evenodd"/><path d="M1547.5 1163.5 1931.28 1163.5" stroke="#00B050" stroke-width="9.16667" stroke-linejoin="round" stroke-miterlimit="10" stroke-dasharray="9.16667 9.16667" fill="none" fill-rule="evenodd"/><path d="M1968.36 1088.07 1978.32 1088.07 1986.57 1112.41C1987.76 1115.91 1988.68 1118.87 1989.32 1121.29L1989.67 1121.29C1989.83 1120.01 1990.21 1117.9 1990.81 1114.94 1991.4 1111.98 1991.95 1109.4 1992.45 1107.19L1994.64 1097.35C1995.09 1095.29 1995.32 1093.61 1995.32 1092.32 1995.32 1091.34 1995.08 1090.66 1994.59 1090.27 1994.1 1089.88 1993.32 1089.66 1992.26 1089.6L1992.61 1088.07 2003.54 1088.07 2003.2 1089.6C2002.41 1089.76 2001.84 1089.95 2001.5 1090.16 2001.15 1090.37 2000.84 1090.68 2000.57 1091.1 2000.3 1091.51 2000.02 1092.17 1999.73 1093.05 1999.44 1093.94 1999.07 1095.38 1998.64 1097.38L1991.29 1130.72 1987.04 1130.72 1977.92 1103.91C1976.81 1100.7 1975.84 1097.5 1975.01 1094.32L1974.61 1094.32C1974.48 1095.38 1974.14 1097.41 1973.57 1100.4 1973.01 1103.38 1972.42 1106.31 1971.79 1109.16L1969.04 1121.63C1968.61 1123.61 1968.39 1125.23 1968.39 1126.5 1968.39 1127.44 1968.62 1128.1 1969.09 1128.49 1969.56 1128.87 1970.34 1129.11 1971.45 1129.19L1971.11 1130.72 1960.17 1130.72 1960.51 1129.19C1961.3 1129.07 1961.9 1128.86 1962.29 1128.58 1962.69 1128.3 1963.02 1127.91 1963.29 1127.41 1963.56 1126.91 1963.81 1126.3 1964.04 1125.58 1964.27 1124.86 1964.62 1123.47 1965.07 1121.41L1970.39 1097.35C1970.59 1096.45 1970.76 1095.6 1970.89 1094.79 1971.01 1093.97 1971.07 1093.15 1971.07 1092.32 1971.07 1091.34 1970.83 1090.66 1970.34 1090.27 1969.85 1089.88 1969.07 1089.66 1968.01 1089.6Z" fill-rule="evenodd"/><text fill="#000000" fill-opacity="0" font-family="Arial,Arial_MSFontService,sans-serif" font-size="42.6562" x="1960.17" y="1125.39">𝑁</text><path d="M2012.68 1112.4 2014.33 1112.4C2013.38 1116.67 2012.52 1120.57 2011.73 1124.1 2010.94 1127.64 2010.08 1131.54 2009.15 1135.81 2008.93 1136.72 2008.78 1137.45 2008.69 1137.97 2008.6 1138.5 2008.55 1138.98 2008.55 1139.41 2008.55 1139.99 2008.67 1140.41 2008.91 1140.67 2009.14 1140.93 2009.51 1141.06 2010 1141.06 2010.27 1141.06 2010.55 1141.01 2010.82 1140.9 2011.1 1140.79 2011.39 1140.63 2011.69 1140.4 2012 1140.17 2012.34 1139.87 2012.72 1139.51 2013.09 1139.15 2013.51 1138.72 2013.99 1138.22L2015.48 1139.73C2014.7 1140.53 2013.99 1141.2 2013.36 1141.76 2012.72 1142.32 2012.12 1142.77 2011.54 1143.13 2010.97 1143.48 2010.41 1143.73 2009.85 1143.9 2009.29 1144.06 2008.69 1144.14 2008.05 1144.14 2007.46 1144.14 2006.94 1144.03 2006.47 1143.82 2006.01 1143.6 2005.6 1143.31 2005.27 1142.93 2004.93 1142.56 2004.67 1142.11 2004.49 1141.59 2004.3 1141.07 2004.21 1140.5 2004.21 1139.87 2004.21 1139.3 2004.27 1138.6 2004.38 1137.77 2004.5 1136.93 2004.68 1135.99 2004.92 1134.93 2005.58 1132 2006.24 1129.07 2006.89 1126.14 2007.54 1123.22 2008.07 1120.98 2008.48 1119.42 2008.85 1117.75 2009.03 1116.61 2009.03 1116 2009.03 1115.68 2008.99 1115.41 2008.91 1115.2 2008.82 1114.98 2008.67 1114.81 2008.45 1114.67 2008.22 1114.53 2007.92 1114.43 2007.54 1114.37 2007.16 1114.31 2006.66 1114.26 2006.05 1114.23L2006.37 1112.67Z" fill-rule="evenodd"/><text fill="#000000" fill-opacity="0" font-family="Arial,Arial_MSFontService,sans-serif" font-size="31.7388" x="2004.21" y="1140.17">𝑙</text><text fill="#1F497D" font-family="Courier New,Courier New_MSFontService,sans-serif" font-weight="700" font-size="83" transform="matrix(1 0 0 1 1542.59 1025)">Rank 1</text><rect x="2280.5" y="1058.5" width="105" height="105" stroke="#00B050" stroke-width="9.16667" stroke-linejoin="round" stroke-miterlimit="10" fill="#F2F2F2"/><text font-family="Consolas,Consolas_MSFontService,sans-serif" font-weight="700" font-size="73" transform="matrix(1 0 0 1 2312.4 1136)">1</text><rect x="2385.5" y="1058.5" width="104" height="105" stroke="#00B050" stroke-width="9.16667" stroke-linejoin="round" stroke-miterlimit="10" fill="#F2F2F2"/><text font-family="Consolas,Consolas_MSFontService,sans-serif" font-weight="700" font-size="73" transform="matrix(1 0 0 1 2416.89 1136)">2</text><rect x="2874.5" y="1058.5" width="104" height="105" stroke="#00B050" stroke-width="9.16667" stroke-linejoin="round" stroke-miterlimit="10" fill="#F2F2F2"/><path d="M2489.5 1058.5 2873.28 1058.5" stroke="#00B050" stroke-width="9.16667" stroke-linejoin="round" stroke-miterlimit="10" stroke-dasharray="9.16667 9.16667" fill="none" fill-rule="evenodd"/><path d="M2489.5 1163.5 2873.28 1163.5" stroke="#00B050" stroke-width="9.16667" stroke-linejoin="round" stroke-miterlimit="10" stroke-dasharray="9.16667 9.16667" fill="none" fill-rule="evenodd"/><path d="M2910.47 1088.07 2920.44 1088.07 2928.69 1112.41C2929.88 1115.91 2930.79 1118.87 2931.44 1121.29L2931.78 1121.29C2931.95 1120.01 2932.33 1117.9 2932.93 1114.94 2933.52 1111.98 2934.07 1109.4 2934.57 1107.19L2936.75 1097.35C2937.21 1095.29 2937.44 1093.61 2937.44 1092.32 2937.44 1091.34 2937.2 1090.66 2936.71 1090.27 2936.22 1089.88 2935.44 1089.66 2934.38 1089.6L2934.72 1088.07 2945.66 1088.07 2945.32 1089.6C2944.52 1089.76 2943.96 1089.95 2943.61 1090.16 2943.27 1090.37 2942.96 1090.68 2942.69 1091.1 2942.42 1091.51 2942.14 1092.17 2941.85 1093.05 2941.56 1093.94 2941.19 1095.38 2940.75 1097.38L2933.41 1130.72 2929.16 1130.72 2920.03 1103.91C2918.93 1100.7 2917.96 1097.5 2917.13 1094.32L2916.72 1094.32C2916.6 1095.38 2916.25 1097.41 2915.69 1100.4 2915.13 1103.38 2914.53 1106.31 2913.91 1109.16L2911.16 1121.63C2910.72 1123.61 2910.5 1125.23 2910.5 1126.5 2910.5 1127.44 2910.74 1128.1 2911.21 1128.49 2911.68 1128.87 2912.46 1129.11 2913.57 1129.19L2913.22 1130.72 2902.28 1130.72 2902.63 1129.19C2903.42 1129.07 2904.01 1128.86 2904.41 1128.58 2904.81 1128.3 2905.14 1127.91 2905.41 1127.41 2905.68 1126.91 2905.93 1126.3 2906.16 1125.58 2906.39 1124.86 2906.73 1123.47 2907.19 1121.41L2912.5 1097.35C2912.71 1096.45 2912.88 1095.6 2913 1094.79 2913.13 1093.97 2913.19 1093.15 2913.19 1092.32 2913.19 1091.34 2912.95 1090.66 2912.46 1090.27 2911.97 1089.88 2911.19 1089.66 2910.13 1089.6Z" fill-rule="evenodd"/><text fill="#000000" fill-opacity="0" font-family="Arial,Arial_MSFontService,sans-serif" font-size="42.6562" x="2902.28" y="1125.39">𝑁</text><path d="M2954.8 1112.4 2956.45 1112.4C2955.5 1116.67 2954.63 1120.57 2953.85 1124.1 2953.06 1127.64 2952.2 1131.54 2951.26 1135.81 2951.05 1136.72 2950.9 1137.45 2950.8 1137.97 2950.71 1138.5 2950.67 1138.98 2950.67 1139.41 2950.67 1139.99 2950.79 1140.41 2951.02 1140.67 2951.26 1140.93 2951.62 1141.06 2952.11 1141.06 2952.39 1141.06 2952.66 1141.01 2952.94 1140.9 2953.21 1140.79 2953.5 1140.63 2953.81 1140.4 2954.12 1140.17 2954.46 1139.87 2954.83 1139.51 2955.21 1139.15 2955.63 1138.72 2956.11 1138.22L2957.6 1139.73C2956.82 1140.53 2956.11 1141.2 2955.47 1141.76 2954.84 1142.32 2954.24 1142.77 2953.66 1143.13 2953.09 1143.48 2952.52 1143.73 2951.96 1143.9 2951.41 1144.06 2950.8 1144.14 2950.16 1144.14 2949.58 1144.14 2949.06 1144.03 2948.59 1143.82 2948.12 1143.6 2947.72 1143.31 2947.39 1142.93 2947.05 1142.56 2946.79 1142.11 2946.6 1141.59 2946.42 1141.07 2946.33 1140.5 2946.33 1139.87 2946.33 1139.3 2946.39 1138.6 2946.5 1137.77 2946.62 1136.93 2946.8 1135.99 2947.04 1134.93 2947.7 1132 2948.35 1129.07 2949 1126.14 2949.65 1123.22 2950.18 1120.98 2950.6 1119.42 2950.97 1117.75 2951.15 1116.61 2951.15 1116 2951.15 1115.68 2951.11 1115.41 2951.02 1115.2 2950.94 1114.98 2950.79 1114.81 2950.56 1114.67 2950.34 1114.53 2950.04 1114.43 2949.66 1114.37 2949.27 1114.31 2948.78 1114.26 2948.17 1114.23L2948.49 1112.67Z" fill-rule="evenodd"/><text fill="#000000" fill-opacity="0" font-family="Arial,Arial_MSFontService,sans-serif" font-size="31.7388" x="2946.33" y="1140.17">𝑙</text><text fill="#1F497D" font-family="Courier New,Courier New_MSFontService,sans-serif" font-weight="700" font-size="83" transform="matrix(1 0 0 1 2484.71 1025)">Rank 2<tspan font-size="83" x="-2342.18" y="243">b</tspan></text><rect x="329.5" y="1198.5" width="105" height="105" stroke="#00B050" stroke-width="9.16667" stroke-linejoin="round" stroke-miterlimit="10" fill="#F2F2F2"/><text font-family="Consolas,Consolas_MSFontService,sans-serif" font-weight="700" font-size="73" transform="matrix(1 0 0 1 361.579 1276)">1</text><rect x="434.5" y="1198.5" width="104" height="105" stroke="#00B050" stroke-width="9.16667" stroke-linejoin="round" stroke-miterlimit="10" fill="#F2F2F2"/><text font-family="Consolas,Consolas_MSFontService,sans-serif" font-weight="700" font-size="73" transform="matrix(1 0 0 1 466.076 1276)">2</text><rect x="923.5" y="1198.5" width="105" height="105" stroke="#00B050" stroke-width="9.16667" stroke-linejoin="round" stroke-miterlimit="10" fill="#F2F2F2"/><path d="M538.5 1198.5 922.278 1198.5" stroke="#00B050" stroke-width="9.16667" stroke-linejoin="round" stroke-miterlimit="10" stroke-dasharray="9.16667 9.16667" fill="none" fill-rule="evenodd"/><path d="M538.5 1303.5 922.278 1303.5" stroke="#00B050" stroke-width="9.16667" stroke-linejoin="round" stroke-miterlimit="10" stroke-dasharray="9.16667 9.16667" fill="none" fill-rule="evenodd"/><path d="M959.653 1228.04 969.622 1228.04 977.872 1252.38C979.06 1255.88 979.976 1258.84 980.622 1261.26L980.966 1261.26C981.133 1259.99 981.513 1257.87 982.107 1254.92 982.7 1251.96 983.247 1249.37 983.747 1247.17L985.935 1237.32C986.393 1235.26 986.622 1233.58 986.622 1232.29 986.622 1231.31 986.377 1230.63 985.888 1230.24 985.398 1229.86 984.622 1229.63 983.56 1229.57L983.903 1228.04 994.841 1228.04 994.497 1229.57C993.706 1229.74 993.138 1229.93 992.794 1230.13 992.45 1230.34 992.143 1230.66 991.872 1231.07 991.601 1231.49 991.32 1232.14 991.028 1233.02 990.737 1233.91 990.372 1235.35 989.935 1237.35L982.591 1270.7 978.341 1270.7 969.216 1243.88C968.112 1240.68 967.143 1237.48 966.31 1234.29L965.903 1234.29C965.778 1235.35 965.435 1237.38 964.872 1240.37 964.31 1243.36 963.716 1246.28 963.091 1249.13L960.341 1261.6C959.903 1263.58 959.685 1265.21 959.685 1266.48 959.685 1267.42 959.919 1268.08 960.388 1268.46 960.857 1268.85 961.643 1269.08 962.747 1269.17L962.403 1270.7 951.466 1270.7 951.81 1269.17C952.601 1269.04 953.195 1268.84 953.591 1268.56 953.987 1268.27 954.32 1267.88 954.591 1267.38 954.862 1266.88 955.112 1266.27 955.341 1265.56 955.57 1264.84 955.914 1263.45 956.372 1261.38L961.685 1237.32C961.893 1236.43 962.06 1235.57 962.185 1234.76 962.31 1233.95 962.372 1233.12 962.372 1232.29 962.372 1231.31 962.127 1230.63 961.638 1230.24 961.148 1229.86 960.372 1229.63 959.31 1229.57Z" fill-rule="evenodd"/><text fill="#000000" fill-opacity="0" font-family="Arial,Arial_MSFontService,sans-serif" font-size="42.6562" x="951.466" y="1265.36">𝑁</text><path d="M1003.98 1252.37 1005.63 1252.37C1004.68 1256.64 1003.81 1260.54 1003.03 1264.08 1002.24 1267.61 1001.38 1271.51 1000.44 1275.78 1000.23 1276.7 1000.08 1277.42 999.986 1277.95 999.894 1278.48 999.848 1278.95 999.848 1279.38 999.848 1279.96 999.967 1280.38 1000.2 1280.64 1000.44 1280.9 1000.8 1281.03 1001.29 1281.03 1001.57 1281.03 1001.84 1280.98 1002.12 1280.87 1002.4 1280.77 1002.69 1280.6 1002.99 1280.37 1003.3 1280.14 1003.64 1279.85 1004.01 1279.49 1004.39 1279.13 1004.81 1278.69 1005.29 1278.19L1006.78 1279.7C1006 1280.5 1005.29 1281.18 1004.66 1281.73 1004.02 1282.29 1003.42 1282.75 1002.84 1283.1 1002.27 1283.45 1001.7 1283.71 1001.14 1283.87 1000.59 1284.03 999.986 1284.11 999.343 1284.11 998.762 1284.11 998.238 1284 997.771 1283.79 997.305 1283.57 996.903 1283.28 996.567 1282.91 996.23 1282.53 995.97 1282.08 995.786 1281.56 995.603 1281.04 995.511 1280.47 995.511 1279.84 995.511 1279.28 995.568 1278.58 995.683 1277.74 995.798 1276.91 995.977 1275.96 996.222 1274.91 996.88 1271.97 997.534 1269.04 998.184 1266.12 998.835 1263.2 999.366 1260.95 999.779 1259.39 1000.15 1257.73 1000.33 1256.59 1000.33 1255.97 1000.33 1255.65 1000.29 1255.39 1000.2 1255.17 1000.12 1254.96 999.967 1254.78 999.745 1254.64 999.523 1254.51 999.221 1254.41 998.839 1254.34 998.456 1254.28 997.959 1254.24 997.347 1254.21L997.668 1252.65Z" fill-rule="evenodd"/><text fill="#000000" fill-opacity="0" font-family="Arial,Arial_MSFontService,sans-serif" font-size="31.7388" x="995.511" y="1280.14">𝑙</text><rect x="1338.5" y="1198.5" width="104" height="105" stroke="#00B050" stroke-width="9.16667" stroke-linejoin="round" stroke-miterlimit="10" fill="#F2F2F2"/><text font-family="Consolas,Consolas_MSFontService,sans-serif" font-weight="700" font-size="73" transform="matrix(1 0 0 1 1369.95 1276)">1</text><rect x="1442.5" y="1198.5" width="105" height="105" stroke="#00B050" stroke-width="9.16667" stroke-linejoin="round" stroke-miterlimit="10" fill="#F2F2F2"/><text font-family="Consolas,Consolas_MSFontService,sans-serif" font-weight="700" font-size="73" transform="matrix(1 0 0 1 1474.45 1276)">2</text><rect x="1932.5" y="1198.5" width="104" height="105" stroke="#00B050" stroke-width="9.16667" stroke-linejoin="round" stroke-miterlimit="10" fill="#F2F2F2"/><path d="M1547.5 1198.5 1931.28 1198.5" stroke="#00B050" stroke-width="9.16667" stroke-linejoin="round" stroke-miterlimit="10" stroke-dasharray="9.16667 9.16667" fill="none" fill-rule="evenodd"/><path d="M1547.5 1303.5 1931.28 1303.5" stroke="#00B050" stroke-width="9.16667" stroke-linejoin="round" stroke-miterlimit="10" stroke-dasharray="9.16667 9.16667" fill="none" fill-rule="evenodd"/><path d="M1968.03 1228.04 1978 1228.04 1986.25 1252.38C1987.43 1255.88 1988.35 1258.84 1989 1261.26L1989.34 1261.26C1989.51 1259.99 1989.89 1257.87 1990.48 1254.92 1991.07 1251.96 1991.62 1249.37 1992.12 1247.17L1994.31 1237.32C1994.77 1235.26 1995 1233.58 1995 1232.29 1995 1231.31 1994.75 1230.63 1994.26 1230.24 1993.77 1229.86 1993 1229.63 1991.93 1229.57L1992.28 1228.04 2003.21 1228.04 2002.87 1229.57C2002.08 1229.74 2001.51 1229.93 2001.17 1230.13 2000.82 1230.34 2000.52 1230.66 2000.25 1231.07 1999.97 1231.49 1999.69 1232.14 1999.4 1233.02 1999.11 1233.91 1998.75 1235.35 1998.31 1237.35L1990.96 1270.7 1986.71 1270.7 1977.59 1243.88C1976.49 1240.68 1975.52 1237.48 1974.68 1234.29L1974.28 1234.29C1974.15 1235.35 1973.81 1237.38 1973.25 1240.37 1972.68 1243.36 1972.09 1246.28 1971.46 1249.13L1968.71 1261.6C1968.28 1263.58 1968.06 1265.21 1968.06 1266.48 1968.06 1267.42 1968.29 1268.08 1968.76 1268.46 1969.23 1268.85 1970.02 1269.08 1971.12 1269.17L1970.78 1270.7 1959.84 1270.7 1960.18 1269.17C1960.97 1269.04 1961.57 1268.84 1961.96 1268.56 1962.36 1268.27 1962.69 1267.88 1962.96 1267.38 1963.24 1266.88 1963.49 1266.27 1963.71 1265.56 1963.94 1264.84 1964.29 1263.45 1964.75 1261.38L1970.06 1237.32C1970.27 1236.43 1970.43 1235.57 1970.56 1234.76 1970.68 1233.95 1970.75 1233.12 1970.75 1232.29 1970.75 1231.31 1970.5 1230.63 1970.01 1230.24 1969.52 1229.86 1968.75 1229.63 1967.68 1229.57Z" fill-rule="evenodd"/><text fill="#000000" fill-opacity="0" font-family="Arial,Arial_MSFontService,sans-serif" font-size="42.6562" x="1959.84" y="1265.36">𝑁</text><path d="M2012.35 1252.37 2014 1252.37C2013.06 1256.64 2012.19 1260.54 2011.4 1264.08 2010.61 1267.61 2009.75 1271.51 2008.82 1275.78 2008.6 1276.7 2008.45 1277.42 2008.36 1277.95 2008.27 1278.48 2008.22 1278.95 2008.22 1279.38 2008.22 1279.96 2008.34 1280.38 2008.58 1280.64 2008.81 1280.9 2009.18 1281.03 2009.67 1281.03 2009.94 1281.03 2010.22 1280.98 2010.49 1280.87 2010.77 1280.77 2011.06 1280.6 2011.37 1280.37 2011.67 1280.14 2012.01 1279.85 2012.39 1279.49 2012.76 1279.13 2013.19 1278.69 2013.66 1278.19L2015.15 1279.7C2014.37 1280.5 2013.66 1281.18 2013.03 1281.73 2012.39 1282.29 2011.79 1282.75 2011.22 1283.1 2010.64 1283.45 2010.08 1283.71 2009.52 1283.87 2008.96 1284.03 2008.36 1284.11 2007.72 1284.11 2007.14 1284.11 2006.61 1284 2006.14 1283.79 2005.68 1283.57 2005.28 1283.28 2004.94 1282.91 2004.6 1282.53 2004.34 1282.08 2004.16 1281.56 2003.98 1281.04 2003.88 1280.47 2003.88 1279.84 2003.88 1279.28 2003.94 1278.58 2004.06 1277.74 2004.17 1276.91 2004.35 1275.96 2004.6 1274.91 2005.25 1271.97 2005.91 1269.04 2006.56 1266.12 2007.21 1263.2 2007.74 1260.95 2008.15 1259.39 2008.52 1257.73 2008.7 1256.59 2008.7 1255.97 2008.7 1255.65 2008.66 1255.39 2008.58 1255.17 2008.49 1254.96 2008.34 1254.78 2008.12 1254.64 2007.9 1254.51 2007.59 1254.41 2007.21 1254.34 2006.83 1254.28 2006.33 1254.24 2005.72 1254.21L2006.04 1252.65Z" fill-rule="evenodd"/><text fill="#000000" fill-opacity="0" font-family="Arial,Arial_MSFontService,sans-serif" font-size="31.7388" x="2003.88" y="1280.14">𝑙</text><rect x="2280.5" y="1198.5" width="104" height="105" stroke="#00B050" stroke-width="9.16667" stroke-linejoin="round" stroke-miterlimit="10" fill="#F2F2F2"/><text font-family="Consolas,Consolas_MSFontService,sans-serif" font-weight="700" font-size="73" transform="matrix(1 0 0 1 2312.07 1276)">1</text><rect x="2384.5" y="1198.5" width="105" height="105" stroke="#00B050" stroke-width="9.16667" stroke-linejoin="round" stroke-miterlimit="10" fill="#F2F2F2"/><text font-family="Consolas,Consolas_MSFontService,sans-serif" font-weight="700" font-size="73" transform="matrix(1 0 0 1 2416.57 1276)">2</text><rect x="2874.5" y="1198.5" width="104" height="105" stroke="#00B050" stroke-width="9.16667" stroke-linejoin="round" stroke-miterlimit="10" fill="#F2F2F2"/><path d="M2489.5 1198.5 2873.28 1198.5" stroke="#00B050" stroke-width="9.16667" stroke-linejoin="round" stroke-miterlimit="10" stroke-dasharray="9.16667 9.16667" fill="none" fill-rule="evenodd"/><path d="M2489.5 1303.5 2873.28 1303.5" stroke="#00B050" stroke-width="9.16667" stroke-linejoin="round" stroke-miterlimit="10" stroke-dasharray="9.16667 9.16667" fill="none" fill-rule="evenodd"/><path d="M2910.14 1228.04 2920.11 1228.04 2928.36 1252.38C2929.55 1255.88 2930.47 1258.84 2931.11 1261.26L2931.46 1261.26C2931.62 1259.99 2932 1257.87 2932.6 1254.92 2933.19 1251.96 2933.74 1249.37 2934.24 1247.17L2936.42 1237.32C2936.88 1235.26 2937.11 1233.58 2937.11 1232.29 2937.11 1231.31 2936.87 1230.63 2936.38 1230.24 2935.89 1229.86 2935.11 1229.63 2934.05 1229.57L2934.39 1228.04 2945.33 1228.04 2944.99 1229.57C2944.2 1229.74 2943.63 1229.93 2943.28 1230.13 2942.94 1230.34 2942.63 1230.66 2942.36 1231.07 2942.09 1231.49 2941.81 1232.14 2941.52 1233.02 2941.23 1233.91 2940.86 1235.35 2940.42 1237.35L2933.08 1270.7 2928.83 1270.7 2919.71 1243.88C2918.6 1240.68 2917.63 1237.48 2916.8 1234.29L2916.39 1234.29C2916.27 1235.35 2915.92 1237.38 2915.36 1240.37 2914.8 1243.36 2914.21 1246.28 2913.58 1249.13L2910.83 1261.6C2910.39 1263.58 2910.17 1265.21 2910.17 1266.48 2910.17 1267.42 2910.41 1268.08 2910.88 1268.46 2911.35 1268.85 2912.13 1269.08 2913.24 1269.17L2912.89 1270.7 2901.96 1270.7 2902.3 1269.17C2903.09 1269.04 2903.69 1268.84 2904.08 1268.56 2904.48 1268.27 2904.81 1267.88 2905.08 1267.38 2905.35 1266.88 2905.6 1266.27 2905.83 1265.56 2906.06 1264.84 2906.4 1263.45 2906.86 1261.38L2912.17 1237.32C2912.38 1236.43 2912.55 1235.57 2912.67 1234.76 2912.8 1233.95 2912.86 1233.12 2912.86 1232.29 2912.86 1231.31 2912.62 1230.63 2912.13 1230.24 2911.64 1229.86 2910.86 1229.63 2909.8 1229.57Z" fill-rule="evenodd"/><text fill="#000000" fill-opacity="0" font-family="Arial,Arial_MSFontService,sans-serif" font-size="42.6562" x="2901.96" y="1265.36">𝑁</text><path d="M2954.47 1252.37 2956.12 1252.37C2955.17 1256.64 2954.3 1260.54 2953.52 1264.08 2952.73 1267.61 2951.87 1271.51 2950.94 1275.78 2950.72 1276.7 2950.57 1277.42 2950.48 1277.95 2950.38 1278.48 2950.34 1278.95 2950.34 1279.38 2950.34 1279.96 2950.46 1280.38 2950.69 1280.64 2950.93 1280.9 2951.29 1281.03 2951.78 1281.03 2952.06 1281.03 2952.33 1280.98 2952.61 1280.87 2952.89 1280.77 2953.18 1280.6 2953.48 1280.37 2953.79 1280.14 2954.13 1279.85 2954.5 1279.49 2954.88 1279.13 2955.3 1278.69 2955.78 1278.19L2957.27 1279.7C2956.49 1280.5 2955.78 1281.18 2955.15 1281.73 2954.51 1282.29 2953.91 1282.75 2953.33 1283.1 2952.76 1283.45 2952.19 1283.71 2951.64 1283.87 2951.08 1284.03 2950.48 1284.11 2949.83 1284.11 2949.25 1284.11 2948.73 1284 2948.26 1283.79 2947.79 1283.57 2947.39 1283.28 2947.06 1282.91 2946.72 1282.53 2946.46 1282.08 2946.28 1281.56 2946.09 1281.04 2946 1280.47 2946 1279.84 2946 1279.28 2946.06 1278.58 2946.17 1277.74 2946.29 1276.91 2946.47 1275.96 2946.71 1274.91 2947.37 1271.97 2948.02 1269.04 2948.67 1266.12 2949.32 1263.2 2949.86 1260.95 2950.27 1259.39 2950.64 1257.73 2950.82 1256.59 2950.82 1255.97 2950.82 1255.65 2950.78 1255.39 2950.69 1255.17 2950.61 1254.96 2950.46 1254.78 2950.24 1254.64 2950.01 1254.51 2949.71 1254.41 2949.33 1254.34 2948.95 1254.28 2948.45 1254.24 2947.84 1254.21L2948.16 1252.65Z" fill-rule="evenodd"/><text fill="#000000" fill-opacity="0" font-family="Arial,Arial_MSFontService,sans-serif" font-size="31.7388" x="2946" y="1280.14">𝑙</text><text fill="#1F497D" font-family="Courier New,Courier New_MSFontService,sans-serif" font-weight="700" font-size="64" transform="matrix(1 0 0 1 596.243 1387)">dot<tspan font-size="64" x="1053.26" y="0">dot</tspan><tspan font-size="64" x="2024.38" y="0">dot</tspan></text></g></svg>