<svg width="2746" height="1280" xmlns="http://www.w3.org/2000/svg" xmlns:xlink="http://www.w3.org/1999/xlink" overflow="hidden"><defs><clipPath id="clip0"><rect x="308" y="269" width="2746" height="1280"/></clipPath></defs><g clip-path="url(#clip0)" transform="translate(-308 -269)"><text fill="#C0504D" font-family="Courier New,Courier New_MSFontService,sans-serif" font-weight="700" font-size="83" transform="matrix(1 0 0 1 358.651 762)">recvbuf<tspan fill="#002060" font-size="83" x="26.5882" y="206">MPI_Gather</tspan><tspan fill="#002060" font-size="83" x="519.588" y="206">(</tspan><tspan fill="#002060" font-size="83" x="568.588" y="206">sendbuf</tspan><tspan fill="#002060" font-size="83" x="913.588" y="206">, 2, MPI_INT, </tspan><tspan fill="#002060" font-size="83" x="1603.59" y="206">recvbuf</tspan><tspan fill="#002060" font-size="83" x="1947.59" y="206">, 2, MPI_INT, </tspan><tspan fill="#002060" font-size="83" x="618.588" y="305">root, MPI_COMM_WORLD)</tspan><tspan fill="#002060" font-size="83" x="2496.41" y="-395">int</tspan></text><path d="M0 0 276.511 155.62" stroke="#215968" stroke-width="10.3125" stroke-linejoin="round" stroke-miterlimit="10" fill="none" fill-rule="evenodd" transform="matrix(1 0 0 -1 2652 549.62)"/><text font-family="Arial,Arial_MSFontService,sans-serif" font-weight="700" font-size="83" transform="matrix(1 0 0 1 970.827 433)">0<tspan font-size="83" x="747.969" y="0">1</tspan><tspan font-size="83" x="1611.49" y="0">2</tspan><tspan fill="#002060" font-family="Courier New,Courier New_MSFontService,sans-serif" font-size="83" x="-597.376" y="-7">rank</tspan><tspan fill="#002060" font-family="Courier New,Courier New_MSFontService,sans-serif" font-size="83" x="1003.23" y="-25">root</tspan></text><path d="M0 0 167.048 25.0142" stroke="#215968" stroke-width="10.3125" stroke-linejoin="round" stroke-miterlimit="10" fill="none" fill-rule="evenodd" transform="matrix(1 0 0 -1 1789 418.014)"/><text fill="#77933C" font-family="Courier New,Courier New_MSFontService,sans-serif" font-weight="700" font-size="83" transform="matrix(1 0 0 1 358.651 571)">sendbuf<tspan fill="#C0504D" font-size="83" x="1.28803" y="900">recvbuf</tspan><tspan font-size="83" x="1.28803" y="704">sendbuf</tspan></text><rect x="1391.5" y="1378.5" width="116" height="116" stroke="#000000" stroke-width="9.16667" stroke-linejoin="round" stroke-miterlimit="10" fill="#F2F2F2"/><text fill="#002060" font-family="Courier New,Courier New_MSFontService,sans-serif" font-weight="700" font-size="83" transform="matrix(1 0 0 1 1423.86 1459)">1</text><rect x="1507.5" y="1378.5" width="117" height="116" stroke="#000000" stroke-width="9.16667" stroke-linejoin="round" stroke-miterlimit="10" fill="#F2F2F2"/><text fill="#002060" font-family="Courier New,Courier New_MSFontService,sans-serif" font-weight="700" font-size="83" transform="matrix(1 0 0 1 1540.29 1459)">2</text><rect x="1625.5" y="1378.5" width="116" height="116" stroke="#000000" stroke-width="9.16667" stroke-linejoin="round" stroke-miterlimit="10" fill="#F2F2F2"/><text fill="#002060" font-family="Courier New,Courier New_MSFontService,sans-serif" font-weight="700" font-size="83" transform="matrix(1 0 0 1 1657.9 1459)">3</text><rect x="1740.5" y="1378.5" width="116" height="116" stroke="#000000" stroke-width="9.16667" stroke-linejoin="round" stroke-miterlimit="10" fill="#F2F2F2"/><text fill="#002060" font-family="Courier New,Courier New_MSFontService,sans-serif" font-weight="700" font-size="83" transform="matrix(1 0 0 1 1772.99 1459)">4</text><rect x="1856.5" y="1377.5" width="116" height="117" stroke="#000000" stroke-width="9.16667" stroke-linejoin="round" stroke-miterlimit="10" fill="#F2F2F2"/><text fill="#002060" font-family="Courier New,Courier New_MSFontService,sans-serif" font-weight="700" font-size="83" transform="matrix(1 0 0 1 1889.03 1459)">5</text><rect x="1972.5" y="1377.5" width="117" height="117" stroke="#000000" stroke-width="9.16667" stroke-linejoin="round" stroke-miterlimit="10" fill="#F2F2F2"/><text fill="#002060" font-family="Courier New,Courier New_MSFontService,sans-serif" font-weight="700" font-size="83" transform="matrix(1 0 0 1 2005.5 1459)">6</text><rect x="877.5" y="502.5" width="117" height="116" stroke="#000000" stroke-width="9.16667" stroke-linejoin="round" stroke-miterlimit="10" fill="#F2F2F2"/><text font-family="Arial,Arial_MSFontService,sans-serif" font-weight="400" font-size="83" transform="matrix(1 0 0 1 912.193 590)">1</text><rect x="992.5" y="502.5" width="116" height="116" stroke="#000000" stroke-width="9.16667" stroke-linejoin="round" stroke-miterlimit="10" fill="#F2F2F2"/><text font-family="Arial,Arial_MSFontService,sans-serif" font-weight="400" font-size="83" transform="matrix(1 0 0 1 1026.83 590)">2</text><rect x="1626.5" y="502.5" width="116" height="116" stroke="#000000" stroke-width="9.16667" stroke-linejoin="round" stroke-miterlimit="10" fill="#F2F2F2"/><text font-family="Arial,Arial_MSFontService,sans-serif" font-weight="400" font-size="83" transform="matrix(1 0 0 1 1660.93 590)">3</text><rect x="1741.5" y="502.5" width="116" height="116" stroke="#000000" stroke-width="9.16667" stroke-linejoin="round" stroke-miterlimit="10" fill="#F2F2F2"/><text font-family="Arial,Arial_MSFontService,sans-serif" font-weight="400" font-size="83" transform="matrix(1 0 0 1 1775.57 590)">4</text><rect x="2490.5" y="502.5" width="116" height="116" stroke="#000000" stroke-width="9.16667" stroke-linejoin="round" stroke-miterlimit="10" fill="#F2F2F2"/><text font-family="Arial,Arial_MSFontService,sans-serif" font-weight="400" font-size="83" transform="matrix(1 0 0 1 2524.78 590)">5</text><rect x="2604.5" y="502.5" width="117" height="116" stroke="#000000" stroke-width="9.16667" stroke-linejoin="round" stroke-miterlimit="10" fill="#F2F2F2"/><text font-family="Arial,Arial_MSFontService,sans-serif" font-weight="400" font-size="83" transform="matrix(1 0 0 1 2639.41 590)">6</text><rect x="1392.5" y="675.5" width="117" height="116" stroke="#000000" stroke-width="9.16667" stroke-linejoin="round" stroke-miterlimit="10" fill="#F2F2F2"/><rect x="1509.5" y="675.5" width="116" height="116" stroke="#000000" stroke-width="9.16667" stroke-linejoin="round" stroke-miterlimit="10" fill="#F2F2F2"/><rect x="1626.5" y="675.5" width="117" height="116" stroke="#000000" stroke-width="9.16667" stroke-linejoin="round" stroke-miterlimit="10" fill="#F2F2F2"/><rect x="1741.5" y="675.5" width="117" height="116" stroke="#000000" stroke-width="9.16667" stroke-linejoin="round" stroke-miterlimit="10" fill="#F2F2F2"/><rect x="1860.5" y="674.5" width="116" height="117" stroke="#000000" stroke-width="9.16667" stroke-linejoin="round" stroke-miterlimit="10" fill="#F2F2F2"/><rect x="1976.5" y="674.5" width="117" height="117" stroke="#000000" stroke-width="9.16667" stroke-linejoin="round" stroke-miterlimit="10" fill="#F2F2F2"/><rect x="876.5" y="1194.5" width="117" height="116" stroke="#000000" stroke-width="9.16667" stroke-linejoin="round" stroke-miterlimit="10" fill="#F2F2F2"/><text font-family="Arial,Arial_MSFontService,sans-serif" font-weight="400" font-size="83" transform="matrix(1 0 0 1 911.296 1283)">1</text><rect x="991.5" y="1194.5" width="116" height="116" stroke="#000000" stroke-width="9.16667" stroke-linejoin="round" stroke-miterlimit="10" fill="#F2F2F2"/><text font-family="Arial,Arial_MSFontService,sans-serif" font-weight="400" font-size="83" transform="matrix(1 0 0 1 1025.93 1283)">2</text><rect x="1625.5" y="1194.5" width="116" height="116" stroke="#000000" stroke-width="9.16667" stroke-linejoin="round" stroke-miterlimit="10" fill="#F2F2F2"/><text font-family="Arial,Arial_MSFontService,sans-serif" font-weight="400" font-size="83" transform="matrix(1 0 0 1 1660.03 1283)">3</text><rect x="1740.5" y="1194.5" width="116" height="116" stroke="#000000" stroke-width="9.16667" stroke-linejoin="round" stroke-miterlimit="10" fill="#F2F2F2"/><text font-family="Arial,Arial_MSFontService,sans-serif" font-weight="400" font-size="83" transform="matrix(1 0 0 1 1774.67 1283)">4</text><rect x="2489.5" y="1194.5" width="116" height="116" stroke="#000000" stroke-width="9.16667" stroke-linejoin="round" stroke-miterlimit="10" fill="#F2F2F2"/><text font-family="Arial,Arial_MSFontService,sans-serif" font-weight="400" font-size="83" transform="matrix(1 0 0 1 2523.88 1283)">5</text><rect x="2604.5" y="1194.5" width="116" height="116" stroke="#000000" stroke-width="9.16667" stroke-linejoin="round" stroke-miterlimit="10" fill="#F2F2F2"/><text font-family="Arial,Arial_MSFontService,sans-serif" font-weight="400" font-size="83" transform="matrix(1 0 0 1 2638.51 1283)">6</text></g></svg>