<svg width="1614" height="1176" xmlns="http://www.w3.org/2000/svg" xmlns:xlink="http://www.w3.org/1999/xlink" overflow="hidden"><defs><clipPath id="clip0"><rect x="-144" y="294" width="1614" height="1176"/></clipPath></defs><g clip-path="url(#clip0)" transform="translate(144 -294)"><rect x="932.5" y="710.5" width="432" height="347" stroke="#000000" stroke-width="9.16667" stroke-linejoin="round" stroke-miterlimit="10" stroke-dasharray="27.5 9.16667" fill="#F2F2F2"/><rect x="991.5" y="779.5" width="315" height="216" stroke="#000000" stroke-width="9.16667" stroke-linejoin="round" stroke-miterlimit="10" fill="#95B3D7"/><rect x="465.5" y="708.5" width="432" height="346" stroke="#000000" stroke-width="9.16667" stroke-linejoin="round" stroke-miterlimit="10" stroke-dasharray="27.5 9.16667" fill="#F2F2F2"/><rect x="524.5" y="777.5" width="316" height="216" stroke="#000000" stroke-width="9.16667" stroke-linejoin="round" stroke-miterlimit="10" fill="#95B3D7"/><rect x="991.5" y="779.5" width="315" height="216" stroke="#000000" stroke-width="9.16667" stroke-linejoin="round" stroke-miterlimit="10" fill="none"/><rect x="524.5" y="777.5" width="315" height="216" stroke="#000000" stroke-width="9.16667" stroke-linejoin="round" stroke-miterlimit="10" fill="none"/><path d="M839 778 897.227 778" stroke="#000000" stroke-width="10.3125" stroke-linejoin="round" stroke-miterlimit="10" stroke-dasharray="30.9375 10.3125" fill="none" fill-rule="evenodd"/><path d="M839 993 897.227 993" stroke="#000000" stroke-width="10.3125" stroke-linejoin="round" stroke-miterlimit="10" stroke-dasharray="30.9375 10.3125" fill="none" fill-rule="evenodd"/><path d="M195.435-4.21625 203.795-3.83849 220.306-2.25758 236.073-0.108843 251.049 2.61476 265.291 5.91481 278.588 9.66269 290.864 13.8738 302.087 18.4816 312.204 23.5875 321.085 29.0506 328.695 35.0154 332.068 38.2148 335.028 41.497 337.584 44.7896 339.796 48.4096 341.523 51.9562 342.829 55.7445 343.626 59.6512 343.954 63.5495 333.671 64.3255 333.499 61.5988 333.046 59.0055 332.227 56.4188 330.954 53.7154 329.416 51.0854 327.347 48.378 324.932 45.6602 322.305 43.1096 315.665 37.8244 307.546 32.7875 298.163 28.0184 287.511 23.6262 275.787 19.5873 262.959 15.9602 249.201 12.7602 234.677 10.1088 219.319 8.00758 203.33 6.46349 194.969 6.08574ZM199.794 16.5803 169.438 0 200.916-14.3369Z" fill="#C00000" transform="matrix(-0.920025 -0.391861 -0.391861 0.920025 1128.13 943.125)"/><path d="M195.435-4.21625 203.795-3.83849 220.306-2.25758 236.073-0.108843 251.049 2.61476 265.291 5.91481 278.588 9.66269 290.864 13.8738 302.087 18.4816 312.204 23.5875 321.085 29.0506 328.695 35.0154 332.068 38.2148 335.028 41.497 337.584 44.7896 339.796 48.4096 341.523 51.9562 342.829 55.7445 343.626 59.6512 343.954 63.5495 333.671 64.3255 333.499 61.5988 333.046 59.0055 332.227 56.4188 330.954 53.7154 329.416 51.0854 327.347 48.378 324.932 45.6602 322.305 43.1096 315.665 37.8244 307.546 32.7875 298.163 28.0184 287.511 23.6262 275.787 19.5873 262.959 15.9602 249.201 12.7602 234.677 10.1088 219.319 8.00758 203.33 6.46349 194.969 6.08574ZM199.794 16.5803 169.438 0 200.916-14.3369Z" fill="#C00000" transform="matrix(0.884464 0.466608 0.466608 -0.884464 723.673 817.386)"/><rect x="932.5" y="331.5" width="432" height="347" stroke="#000000" stroke-width="9.16667" stroke-linejoin="round" stroke-miterlimit="10" stroke-dasharray="27.5 9.16667" fill="#F2F2F2"/><rect x="991.5" y="400.5" width="315" height="216" stroke="#000000" stroke-width="9.16667" stroke-linejoin="round" stroke-miterlimit="10" fill="#95B3D7"/><rect x="991.5" y="400.5" width="315" height="216" stroke="#000000" stroke-width="9.16667" stroke-linejoin="round" stroke-miterlimit="10" fill="none"/><rect x="474.5" y="323.5" width="432" height="347" stroke="#000000" stroke-width="9.16667" stroke-linejoin="round" stroke-miterlimit="10" stroke-dasharray="27.5 9.16667" fill="#F2F2F2"/><rect x="532.5" y="392.5" width="316" height="216" stroke="#000000" stroke-width="9.16667" stroke-linejoin="round" stroke-miterlimit="10" fill="#95B3D7"/><rect x="532.5" y="392.5" width="316" height="216" stroke="#000000" stroke-width="9.16667" stroke-linejoin="round" stroke-miterlimit="10" fill="none"/><rect x="5.5" y="708.5" width="432" height="346" stroke="#000000" stroke-width="9.16667" stroke-linejoin="round" stroke-miterlimit="10" stroke-dasharray="27.5 9.16667" fill="#F2F2F2"/><rect x="63.5001" y="777.5" width="316" height="216" stroke="#000000" stroke-width="9.16667" stroke-linejoin="round" stroke-miterlimit="10" fill="#95B3D7"/><rect x="63.5001" y="777.5" width="316" height="216" stroke="#000000" stroke-width="9.16667" stroke-linejoin="round" stroke-miterlimit="10" fill="none"/><rect x="10.5002" y="331.5" width="432" height="347" stroke="#000000" stroke-width="9.16667" stroke-linejoin="round" stroke-miterlimit="10" stroke-dasharray="27.5 9.16667" fill="#F2F2F2"/><rect x="68.4999" y="400.5" width="316" height="216" stroke="#000000" stroke-width="9.16667" stroke-linejoin="round" stroke-miterlimit="10" fill="#95B3D7"/><rect x="68.4999" y="400.5" width="316" height="216" stroke="#000000" stroke-width="9.16667" stroke-linejoin="round" stroke-miterlimit="10" fill="none"/><rect x="932.5" y="1086.5" width="432" height="347" stroke="#000000" stroke-width="9.16667" stroke-linejoin="round" stroke-miterlimit="10" stroke-dasharray="27.5 9.16667" fill="#F2F2F2"/><rect x="991.5" y="1155.5" width="315" height="216" stroke="#000000" stroke-width="9.16667" stroke-linejoin="round" stroke-miterlimit="10" fill="#95B3D7"/><rect x="991.5" y="1155.5" width="315" height="216" stroke="#000000" stroke-width="9.16667" stroke-linejoin="round" stroke-miterlimit="10" fill="none"/><rect x="475.5" y="1085.5" width="432" height="347" stroke="#000000" stroke-width="9.16667" stroke-linejoin="round" stroke-miterlimit="10" stroke-dasharray="27.5 9.16667" fill="#F2F2F2"/><rect x="534.5" y="1154.5" width="316" height="216" stroke="#000000" stroke-width="9.16667" stroke-linejoin="round" stroke-miterlimit="10" fill="#95B3D7"/><rect x="534.5" y="1154.5" width="316" height="216" stroke="#000000" stroke-width="9.16667" stroke-linejoin="round" stroke-miterlimit="10" fill="none"/><rect x="11.4998" y="1085.5" width="432" height="347" stroke="#000000" stroke-width="9.16667" stroke-linejoin="round" stroke-miterlimit="10" stroke-dasharray="27.5 9.16667" fill="#F2F2F2"/><rect x="70.5" y="1154.5" width="315" height="216" stroke="#000000" stroke-width="9.16667" stroke-linejoin="round" stroke-miterlimit="10" fill="#95B3D7"/><rect x="70.5" y="1154.5" width="315" height="216" stroke="#000000" stroke-width="9.16667" stroke-linejoin="round" stroke-miterlimit="10" fill="none"/><path d="M195.435-4.21625 203.795-3.83849 220.306-2.25758 236.073-0.108843 251.049 2.61476 265.291 5.91481 278.588 9.66269 290.864 13.8738 302.087 18.4816 312.204 23.5875 321.085 29.0506 328.695 35.0154 332.068 38.2148 335.028 41.497 337.584 44.7896 339.796 48.4096 341.523 51.9562 342.829 55.7445 343.626 59.6512 343.954 63.5495 333.671 64.3255 333.499 61.5988 333.046 59.0055 332.227 56.4188 330.954 53.7154 329.416 51.0854 327.347 48.378 324.932 45.6602 322.305 43.1096 315.665 37.8244 307.546 32.7875 298.163 28.0184 287.511 23.6262 275.787 19.5873 262.959 15.9602 249.201 12.7602 234.677 10.1088 219.319 8.00758 203.33 6.46349 194.969 6.08574ZM199.794 16.5803 169.438 0 200.916-14.3369Z" fill="#C00000" transform="matrix(0.0699703 -0.997549 -0.997549 -0.0699703 747.842 1313.27)"/><path d="M195.435-4.21625 203.795-3.83849 220.306-2.25758 236.073-0.108843 251.049 2.61476 265.291 5.91481 278.588 9.66269 290.864 13.8738 302.087 18.4816 312.204 23.5875 321.085 29.0506 328.695 35.0154 332.068 38.2148 335.028 41.497 337.584 44.7896 339.796 48.4096 341.523 51.9562 342.829 55.7445 343.626 59.6512 343.954 63.5495 333.671 64.3255 333.499 61.5988 333.046 59.0055 332.227 56.4188 330.954 53.7154 329.416 51.0854 327.347 48.378 324.932 45.6602 322.305 43.1096 315.665 37.8244 307.546 32.7875 298.163 28.0184 287.511 23.6262 275.787 19.5873 262.959 15.9602 249.201 12.7602 234.677 10.1088 219.319 8.00758 203.33 6.46349 194.969 6.08574ZM199.794 16.5803 169.438 0 200.916-14.3369Z" fill="#C00000" transform="matrix(-0.0349969 0.999387 0.999387 0.0349969 679.994 846.472)"/><path d="M232.797-4.49421 248.712-3.83939 268.718-2.26529 287.886-0.1243 306.134 2.58739 323.402 5.87232 339.479 9.60247 354.394 13.7858 368.019 18.3629 374.407 20.8967 380.306 23.4589 385.888 26.1793 391.022 28.8722 395.849 31.7714 400.261 34.8323 404.17 37.8711 407.747 41.1487 410.824 44.4109 413.52 47.9953 415.648 51.6005 417.268 55.4117C417.363 55.6432 417.442 55.8816 417.502 56.1244L418.315 59.3744C418.386 59.6575 418.432 59.946 418.454 60.2369L418.704 63.5494 408.421 64.3256 408.171 61.0131 408.31 61.8756 407.498 58.6256 407.732 59.3383 406.727 56.7745 405.23 54.1297 403.301 51.4641 400.753 48.7263 397.83 46.0039 394.364 43.2927 390.526 40.6036 386.228 38.0028 381.362 35.4457 376.194 32.9161 370.593 30.4783 364.731 28.1371 351.606 23.7142 337.146 19.6475 321.473 16.0027 304.616 12.7876 286.739 10.1243 267.907 8.01529 248.288 6.46439 232.373 5.80957ZM237.345 16.2529 206.812 0 238.135-14.6745Z" fill="#C00000" transform="matrix(-0.473611 -0.880734 -0.880734 0.473611 1075.59 1295.84)"/><path d="M212.308-4.35662 224.101-3.83879 242.138-2.26153 259.447-0.117005 275.963 2.59983 291.566 5.89272 306.099 9.63181 319.595 13.8268 331.873 18.4221 342.965 23.5019 352.657 28.9459 357.11 31.8972 361.137 34.9705 364.692 38.0434 367.934 41.3301 370.711 44.6365 373.116 48.2222 375.037 51.7375 376.519 55.5749C376.608 55.8132 376.68 56.0591 376.732 56.3079L377.42 59.5579 377.767 63.5494 367.483 64.3256 367.33 61.6921 366.643 58.4421 366.856 59.1751 365.963 56.6375 364.509 53.9028 362.789 51.2385 360.566 48.5449 357.933 45.8316 354.863 43.1545 351.39 40.4778 347.593 37.9291 338.66 32.8731 328.252 28.0779 316.53 23.6732 303.526 19.6182 289.434 15.9823 274.287 12.7752 258.178 10.117 241.237 8.01153 223.649 6.46379 211.855 5.94595ZM216.759 16.415 186.312 0 217.712-14.5078Z" fill="#C00000" transform="matrix(0.489153 0.872198 0.872198 -0.489153 779.587 879.926)"/><path d="M195.435-4.21625 203.795-3.83849 220.306-2.25758 236.073-0.108843 251.049 2.61476 265.291 5.91481 278.588 9.66269 290.864 13.8738 302.087 18.4816 312.204 23.5875 321.085 29.0506 328.695 35.0154 332.068 38.2148 335.028 41.497 337.584 44.7896 339.796 48.4096 341.523 51.9562 342.829 55.7445 343.626 59.6512 343.954 63.5495 333.671 64.3255 333.499 61.5988 333.046 59.0055 332.227 56.4188 330.954 53.7154 329.416 51.0854 327.347 48.378 324.932 45.6602 322.305 43.1096 315.665 37.8244 307.546 32.7875 298.163 28.0184 287.511 23.6262 275.787 19.5873 262.959 15.9602 249.201 12.7602 234.677 10.1088 219.319 8.00758 203.33 6.46349 194.969 6.08574ZM199.794 16.5803 169.438 0 200.916-14.3369Z" fill="#C00000" transform="matrix(-0.920025 -0.391861 -0.391861 0.920025 653.747 940.114)"/><path d="M195.435-4.21625 203.795-3.83849 220.306-2.25758 236.073-0.108843 251.049 2.61476 265.291 5.91481 278.588 9.66269 290.864 13.8738 302.087 18.4816 312.204 23.5875 321.085 29.0506 328.695 35.0154 332.068 38.2148 335.028 41.497 337.584 44.7896 339.796 48.4096 341.523 51.9562 342.829 55.7445 343.626 59.6512 343.954 63.5495 333.671 64.3255 333.499 61.5988 333.046 59.0055 332.227 56.4188 330.954 53.7154 329.416 51.0854 327.347 48.378 324.932 45.6602 322.305 43.1096 315.665 37.8244 307.546 32.7875 298.163 28.0184 287.511 23.6262 275.787 19.5873 262.959 15.9602 249.201 12.7602 234.677 10.1088 219.319 8.00758 203.33 6.46349 194.969 6.08574ZM199.794 16.5803 169.438 0 200.916-14.3369Z" fill="#C00000" transform="matrix(0.884464 0.466608 0.466608 -0.884464 249.286 814.375)"/><path d="M195.435-4.21625 203.795-3.83849 220.306-2.25758 236.073-0.108843 251.049 2.61476 265.291 5.91481 278.588 9.66269 290.864 13.8738 302.087 18.4816 312.204 23.5875 321.085 29.0506 328.695 35.0154 332.068 38.2148 335.028 41.497 337.584 44.7896 339.796 48.4096 341.523 51.9562 342.829 55.7445 343.626 59.6512 343.954 63.5495 333.671 64.3255 333.499 61.5988 333.046 59.0055 332.227 56.4188 330.954 53.7154 329.416 51.0854 327.347 48.378 324.932 45.6602 322.305 43.1096 315.665 37.8244 307.546 32.7875 298.163 28.0184 287.511 23.6262 275.787 19.5873 262.959 15.9602 249.201 12.7602 234.677 10.1088 219.319 8.00758 203.33 6.46349 194.969 6.08574ZM199.794 16.5803 169.438 0 200.916-14.3369Z" fill="#C00000" transform="matrix(0.0699703 -0.997549 -0.997549 -0.0699703 711.214 921.93)"/><path d="M195.435-4.21625 203.795-3.83849 220.306-2.25758 236.073-0.108843 251.049 2.61476 265.291 5.91481 278.588 9.66269 290.864 13.8738 302.087 18.4816 312.204 23.5875 321.085 29.0506 328.695 35.0154 332.068 38.2148 335.028 41.497 337.584 44.7896 339.796 48.4096 341.523 51.9562 342.829 55.7445 343.626 59.6512 343.954 63.5495 333.671 64.3255 333.499 61.5988 333.046 59.0055 332.227 56.4188 330.954 53.7154 329.416 51.0854 327.347 48.378 324.932 45.6602 322.305 43.1096 315.665 37.8244 307.546 32.7875 298.163 28.0184 287.511 23.6262 275.787 19.5873 262.959 15.9602 249.201 12.7602 234.677 10.1088 219.319 8.00758 203.33 6.46349 194.969 6.08574ZM199.794 16.5803 169.438 0 200.916-14.3369Z" fill="#C00000" transform="matrix(-0.0349969 0.999387 0.999387 0.0349969 643.366 455.132)"/><path d="M232.797-4.49421 248.712-3.83939 268.718-2.26529 287.886-0.1243 306.134 2.58739 323.402 5.87232 339.479 9.60247 354.394 13.7858 368.019 18.3629 374.407 20.8967 380.306 23.4589 385.888 26.1793 391.022 28.8722 395.849 31.7714 400.261 34.8323 404.17 37.8711 407.747 41.1487 410.824 44.4109 413.52 47.9953 415.648 51.6005 417.268 55.4117C417.363 55.6432 417.442 55.8816 417.502 56.1244L418.315 59.3744C418.386 59.6575 418.432 59.946 418.454 60.2369L418.704 63.5494 408.421 64.3256 408.171 61.0131 408.31 61.8756 407.498 58.6256 407.732 59.3383 406.727 56.7745 405.23 54.1297 403.301 51.4641 400.753 48.7263 397.83 46.0039 394.364 43.2927 390.526 40.6036 386.228 38.0028 381.362 35.4457 376.194 32.9161 370.593 30.4783 364.731 28.1371 351.606 23.7142 337.146 19.6475 321.473 16.0027 304.616 12.7876 286.739 10.1243 267.907 8.01529 248.288 6.46439 232.373 5.80957ZM237.345 16.2529 206.812 0 238.135-14.6745Z" fill="#C00000" transform="matrix(-0.473611 -0.880734 -0.880734 0.473611 612.79 915.742)"/><path d="M212.308-4.35662 224.101-3.83879 242.138-2.26153 259.447-0.117005 275.963 2.59983 291.566 5.89272 306.099 9.63181 319.595 13.8268 331.873 18.4221 342.965 23.5019 352.657 28.9459 357.11 31.8972 361.137 34.9705 364.692 38.0434 367.934 41.3301 370.711 44.6365 373.116 48.2222 375.037 51.7375 376.519 55.5749C376.608 55.8132 376.68 56.0591 376.732 56.3079L377.42 59.5579 377.767 63.5494 367.483 64.3256 367.33 61.6921 366.643 58.4421 366.856 59.1751 365.963 56.6375 364.509 53.9028 362.789 51.2385 360.566 48.5449 357.933 45.8316 354.863 43.1545 351.39 40.4778 347.593 37.9291 338.66 32.8731 328.252 28.0779 316.53 23.6732 303.526 19.6182 289.434 15.9823 274.287 12.7752 258.178 10.117 241.237 8.01153 223.649 6.46379 211.855 5.94595ZM216.759 16.415 186.312 0 217.712-14.5078Z" fill="#C00000" transform="matrix(0.489153 0.872198 0.872198 -0.489153 316.788 499.827)"/><path d="M232.797-4.49421 248.712-3.83939 268.718-2.26529 287.886-0.1243 306.134 2.58739 323.402 5.87232 339.479 9.60247 354.394 13.7858 368.019 18.3629 374.407 20.8967 380.306 23.4589 385.888 26.1793 391.022 28.8722 395.849 31.7714 400.261 34.8323 404.17 37.8711 407.747 41.1487 410.824 44.4109 413.52 47.9953 415.648 51.6005 417.268 55.4117C417.363 55.6432 417.442 55.8816 417.502 56.1244L418.315 59.3744C418.386 59.6575 418.432 59.946 418.454 60.2369L418.704 63.5494 408.421 64.3256 408.171 61.0131 408.31 61.8756 407.498 58.6256 407.732 59.3383 406.727 56.7745 405.23 54.1297 403.301 51.4641 400.753 48.7263 397.83 46.0039 394.364 43.2927 390.526 40.6036 386.228 38.0028 381.362 35.4457 376.194 32.9161 370.593 30.4783 364.731 28.1371 351.606 23.7142 337.146 19.6475 321.473 16.0027 304.616 12.7876 286.739 10.1243 267.907 8.01529 248.288 6.46439 232.373 5.80957ZM237.345 16.2529 206.812 0 238.135-14.6745Z" fill="#C00000" transform="matrix(0.827488 -0.561484 -0.561484 -0.827488 249.162 1256.86)"/><path d="M212.308-4.35662 224.101-3.83879 242.138-2.26153 259.447-0.117005 275.963 2.59983 291.566 5.89272 306.099 9.63181 319.595 13.8268 331.873 18.4221 342.965 23.5019 352.657 28.9459 357.11 31.8972 361.137 34.9705 364.692 38.0434 367.934 41.3301 370.711 44.6365 373.116 48.2222 375.037 51.7375 376.519 55.5749C376.608 55.8132 376.68 56.0591 376.732 56.3079L377.42 59.5579 377.767 63.5494 367.483 64.3256 367.33 61.6921 366.643 58.4421 366.856 59.1751 365.963 56.6375 364.509 53.9028 362.789 51.2385 360.566 48.5449 357.933 45.8316 354.863 43.1545 351.39 40.4778 347.593 37.9291 338.66 32.8731 328.252 28.0779 316.53 23.6732 303.526 19.6182 289.434 15.9823 274.287 12.7752 258.178 10.117 241.237 8.01153 223.649 6.46379 211.855 5.94595ZM216.759 16.415 186.312 0 217.712-14.5078Z" fill="#C00000" transform="matrix(-0.817402 0.576068 0.576068 0.817402 632.507 919.739)"/><path d="M232.797-4.49421 248.712-3.83939 268.718-2.26529 287.886-0.1243 306.134 2.58739 323.402 5.87232 339.479 9.60247 354.394 13.7858 368.019 18.3629 374.407 20.8967 380.306 23.4589 385.888 26.1793 391.022 28.8722 395.849 31.7714 400.261 34.8323 404.17 37.8711 407.747 41.1487 410.824 44.4109 413.52 47.9953 415.648 51.6005 417.268 55.4117C417.363 55.6432 417.442 55.8816 417.502 56.1244L418.315 59.3744C418.386 59.6575 418.432 59.946 418.454 60.2369L418.704 63.5494 408.421 64.3256 408.171 61.0131 408.31 61.8756 407.498 58.6256 407.732 59.3383 406.727 56.7745 405.23 54.1297 403.301 51.4641 400.753 48.7263 397.83 46.0039 394.364 43.2927 390.526 40.6036 386.228 38.0028 381.362 35.4457 376.194 32.9161 370.593 30.4783 364.731 28.1371 351.606 23.7142 337.146 19.6475 321.473 16.0027 304.616 12.7876 286.739 10.1243 267.907 8.01529 248.288 6.46439 232.373 5.80957ZM237.345 16.2529 206.812 0 238.135-14.6745Z" fill="#C00000" transform="matrix(0.827488 -0.561484 -0.561484 -0.827488 706.955 882.654)"/><path d="M212.308-4.35662 224.101-3.83879 242.138-2.26153 259.447-0.117005 275.963 2.59983 291.566 5.89272 306.099 9.63181 319.595 13.8268 331.873 18.4221 342.965 23.5019 352.657 28.9459 357.11 31.8972 361.137 34.9705 364.692 38.0434 367.934 41.3301 370.711 44.6365 373.116 48.2222 375.037 51.7375 376.519 55.5749C376.608 55.8132 376.68 56.0591 376.732 56.3079L377.42 59.5579 377.767 63.5494 367.483 64.3256 367.33 61.6921 366.643 58.4421 366.856 59.1751 365.963 56.6375 364.509 53.9028 362.789 51.2385 360.566 48.5449 357.933 45.8316 354.863 43.1545 351.39 40.4778 347.593 37.9291 338.66 32.8731 328.252 28.0779 316.53 23.6732 303.526 19.6182 289.434 15.9823 274.287 12.7752 258.178 10.117 241.237 8.01153 223.649 6.46379 211.855 5.94595ZM216.759 16.415 186.312 0 217.712-14.5078Z" fill="#C00000" transform="matrix(-0.817402 0.576068 0.576068 0.817402 1090.3 545.536)"/><rect x="-67" y="294" width="1537" height="214" fill="#FFFFFF"/><rect x="-144" y="1295" width="1536" height="175" fill="#FFFFFF"/><rect x="1108" y="398" width="281" height="972" fill="#FFFFFF"/><rect x="-73.9999" y="417" width="281" height="972" fill="#FFFFFF"/></g></svg>