<svg width="876" height="688" xmlns="http://www.w3.org/2000/svg" xmlns:xlink="http://www.w3.org/1999/xlink" overflow="hidden"><defs><clipPath id="clip0"><rect x="1754" y="1090" width="876" height="688"/></clipPath></defs><g clip-path="url(#clip0)" transform="translate(-1754 -1090)"><rect x="2108.5" y="1474.5" width="54" height="202" stroke="#000000" stroke-width="9.16667" stroke-linejoin="round" stroke-miterlimit="10" fill="#F2F2F2"/><rect x="2220.5" y="1476.5" width="54" height="201" stroke="#000000" stroke-width="9.16667" stroke-linejoin="round" stroke-miterlimit="10" fill="#F2F2F2"/><rect x="2305.5" y="1475.5" width="54" height="201" stroke="#000000" stroke-width="9.16667" stroke-linejoin="round" stroke-miterlimit="10" fill="#95B3D7"/><rect x="2022.5" y="1474.5" width="53.9999" height="202" stroke="#000000" stroke-width="9.16667" stroke-linejoin="round" stroke-miterlimit="10" fill="#95B3D7"/><rect x="2222.5" y="1094.5" width="403" height="323" stroke="#000000" stroke-width="9.16667" stroke-linejoin="round" stroke-miterlimit="10" stroke-dasharray="27.5 9.16667" fill="#F2F2F2"/><rect x="2277.5" y="1158.5" width="294" height="202" stroke="#000000" stroke-width="9.16667" stroke-linejoin="round" stroke-miterlimit="10" fill="#95B3D7"/><text fill="#FFFFFF" font-family="Arial,Arial_MSFontService,sans-serif" font-weight="400" font-size="83" transform="matrix(1 0 0 1 2413.83 1289)">j</text><rect x="1758.5" y="1094.5" width="403" height="323" stroke="#000000" stroke-width="9.16667" stroke-linejoin="round" stroke-miterlimit="10" stroke-dasharray="27.5 9.16667" fill="#F2F2F2"/><rect x="1813.5" y="1158.5" width="294" height="202" stroke="#000000" stroke-width="9.16667" stroke-linejoin="round" stroke-miterlimit="10" fill="#95B3D7"/><text fill="#FFFFFF" font-family="Arial,Arial_MSFontService,sans-serif" font-weight="400" font-size="83" transform="matrix(1 0 0 1 1951.02 1289)">i</text><path d="M0 0 0.000360892 201.413" stroke="#000000" stroke-width="10.3125" stroke-linejoin="round" stroke-miterlimit="10" stroke-dasharray="30.9375 10.3125" fill="none" fill-rule="evenodd" transform="matrix(1 0 0 -1 2053 1359.41)"/><path d="M0 0 0.000360892 201.413" stroke="#000000" stroke-width="10.3125" stroke-linejoin="round" stroke-miterlimit="10" stroke-dasharray="30.9375 10.3125" fill="none" fill-rule="evenodd" transform="matrix(1 0 0 -1 2334 1359.41)"/><rect x="2277.5" y="1158.5" width="294" height="202" stroke="#000000" stroke-width="9.16667" stroke-linejoin="round" stroke-miterlimit="10" fill="none"/><rect x="1811.5" y="1158.5" width="295" height="202" stroke="#000000" stroke-width="9.16667" stroke-linejoin="round" stroke-miterlimit="10" fill="none"/><path d="M2107 1160 2161.27 1160" stroke="#000000" stroke-width="10.3125" stroke-linejoin="round" stroke-miterlimit="10" stroke-dasharray="30.9375 10.3125" fill="none" fill-rule="evenodd"/><path d="M2106 1360 2160.27 1360" stroke="#000000" stroke-width="10.3125" stroke-linejoin="round" stroke-miterlimit="10" stroke-dasharray="30.9375 10.3125" fill="none" fill-rule="evenodd"/><path d="M0 0 54.6727 0.000360892" stroke="#000000" stroke-width="10.3125" stroke-linejoin="round" stroke-miterlimit="10" stroke-dasharray="30.9375 10.3125" fill="none" fill-rule="evenodd" transform="matrix(-1 0 0 1 2277.67 1360)"/><path d="M0 0 54.6727 0.000360892" stroke="#000000" stroke-width="10.3125" stroke-linejoin="round" stroke-miterlimit="10" stroke-dasharray="30.9375 10.3125" fill="none" fill-rule="evenodd" transform="matrix(-1 0 0 1 2278.67 1160)"/><path d="M248.016-4.62032 266.99-3.96568 288.426-2.45595 309.002-0.444236 328.535 2.07365 347.021 5.09908 364.327 8.56959 380.276 12.426 387.814 14.6111 394.873 16.7536 401.61 19.06 407.973 21.4987 413.888 23.9143 419.445 26.522 424.563 29.1734 429.296 32.027 433.469 34.8662 437.248 37.8205 440.63 41.0273 443.453 44.2416 445.804 47.7235 447.569 51.2336C447.717 51.5361 447.835 51.8522 447.921 52.1778L448.734 55.2403C448.803 55.5025 448.852 55.7692 448.88 56.0391L449.192 59.1016 438.933 60.1484 438.62 57.0859 438.766 57.8847 437.954 54.8223 438.306 55.7664 437.196 53.4015 435.672 51.0084 433.495 48.4727 430.877 45.9295 427.656 43.3838 423.954 40.848 419.812 38.3266 415.054 35.853 409.987 33.4607 404.277 31.1263 398.265 28.815 391.877 26.6214 384.936 24.5139 377.849 22.449 362.298 18.6804 345.354 15.2759 327.215 12.3014 307.998 9.81924 287.699 7.83095 266.635 6.34068 247.66 5.68605ZM252.674 16.1049 222.062 0 253.313-14.826Z" fill="#F79646" transform="matrix(0.121913 -0.992541 -0.992541 -0.121913 2310.18 1758.75)"/><path d="M2042.52 1514.98 2040.86 1496.07 2039.75 1474.61 2039.23 1453.94 2039.35 1434.25 2040.1 1415.53 2041.44 1397.93 2043.32 1381.63 2044.57 1373.88 2045.84 1366.61 2047.3 1359.65 2048.95 1353.03 2050.62 1346.87 2052.54 1341.03 2054.54 1335.63 2056.8 1330.58 2059.11 1326.1 2061.58 1321.99 2064.35 1318.24 2067.2 1315.04 2070.36 1312.29 2073.63 1310.11C2073.92 1309.92 2074.22 1309.77 2074.53 1309.64L2077.47 1308.46C2077.72 1308.36 2077.98 1308.28 2078.24 1308.22L2081.25 1307.54 2083.53 1317.59 2080.53 1318.28 2081.31 1318.03 2078.37 1319.21 2079.26 1318.75 2077.05 1320.14 2074.86 1321.94 2072.61 1324.41 2070.4 1327.32 2068.27 1330.83 2066.2 1334.81 2064.21 1339.23 2062.33 1344.25 2060.58 1349.57 2058.95 1355.53 2057.39 1361.78 2055.99 1368.38 2054.75 1375.53 2053.56 1382.82 2051.72 1398.71 2050.41 1415.94 2049.66 1434.31 2049.54 1453.69 2050.04 1474.07 2051.13 1495.16 2052.8 1514.08ZM2062.53 1507.83 2050.27 1540.18 2031.75 1510.97Z" fill="#F79646"/><text font-family="Arial,Arial_MSFontService,sans-serif" font-weight="400" font-size="55" transform="matrix(1 0 0 1 1944.55 1594)">sb<tspan font-size="55" x="433.663" y="0">sb</tspan><tspan font-size="55" x="280.244" y="137">rb</tspan><tspan font-size="55" x="164.616" y="138">rb</tspan></text><path d="M2228.95 1643.23 2214.72 1645.94 2195.47 1648.81 2176.96 1650.99 2159.23 1652.48 2142.29 1653.26 2126.33 1653.36 2111.43 1652.82 2097.58 1651.55 2085.01 1649.58 2079.18 1648.38 2073.68 1646.97 2068.56 1645.4 2063.73 1643.56 2059.4 1641.63 2055.39 1639.48 2051.69 1637.02 2048.49 1634.45 2045.65 1631.54 2043.33 1628.42C2043.19 1628.22 2043.05 1628.01 2042.94 1627.8L2041.46 1624.99C2041.32 1624.72 2041.2 1624.44 2041.11 1624.15L2040.18 1621.22 2050.01 1618.1 2050.94 1621.03 2050.59 1620.18 2052.06 1622.99 2051.67 1622.36 2053.1 1624.41 2054.99 1626.44 2057.46 1628.47 2060.29 1630.41 2063.61 1632.22 2067.42 1633.93 2071.59 1635.54 2076.27 1636.98 2081.27 1638.28 2086.62 1639.39 2098.53 1641.28 2111.81 1642.51 2126.27 1643.05 2141.81 1642.96 2158.37 1642.2 2175.75 1640.75 2193.96 1638.61 2212.79 1635.81 2227.02 1633.1ZM2219.84 1624.03 2253.25 1633.02 2226.01 1654.35Z" fill="#77933C"/><path d="M225.403-4.50386 239.818-3.96515 259.153-2.45296 277.622-0.438271 295.232 2.08344 311.863 5.11504 327.379 8.59396 341.776 12.4579 354.929 16.7911 366.683 21.5323 372.084 23.9992 377.127 26.6118 381.731 29.3008 386.001 32.1576 389.793 35.0087 393.243 37.9709 396.329 41.2289 398.853 44.5028 400.93 47.9235 402.52 51.3965C402.647 51.6795 402.747 51.9725 402.821 52.2735L403.571 55.336C403.636 55.6012 403.679 55.8708 403.702 56.143L403.952 59.2055 393.673 60.0445 393.423 56.982 393.554 57.789 392.804 54.7265 393.105 55.6035 392.07 53.2015 390.647 50.7472 388.796 48.2711 386.507 45.7791 383.582 43.2413 380.249 40.7174 376.519 38.1992 372.373 35.7632 367.791 33.3758 362.817 31.0927 351.696 26.5839 339.099 22.4171 325.121 18.656 310.012 15.26 293.768 12.2916 276.503 9.81327 258.347 7.82796 239.432 6.34015 225.018 5.80145ZM229.976 16.2424 199.438 0 230.754-14.6853Z" fill="#77933C" transform="matrix(0.996133 0.0878616 0.0878616 -0.996133 1934.63 1590.31)"/><path d="M225.403-4.50386 239.818-3.96515 259.153-2.45296 277.622-0.438271 295.232 2.08344 311.863 5.11504 327.379 8.59396 341.776 12.4579 354.929 16.7911 366.683 21.5323 372.084 23.9992 377.127 26.6118 381.731 29.3008 386.001 32.1576 389.793 35.0087 393.243 37.9709 396.329 41.2289 398.853 44.5028 400.93 47.9235 402.52 51.3965C402.647 51.6795 402.747 51.9725 402.821 52.2735L403.571 55.336C403.636 55.6012 403.679 55.8708 403.702 56.143L403.952 59.2055 393.673 60.0445 393.423 56.982 393.554 57.789 392.804 54.7265 393.105 55.6035 392.07 53.2015 390.647 50.7472 388.796 48.2711 386.507 45.7791 383.582 43.2413 380.249 40.7174 376.519 38.1992 372.373 35.7632 367.791 33.3758 362.817 31.0927 351.696 26.5839 339.099 22.4171 325.121 18.656 310.012 15.26 293.768 12.2916 276.503 9.81327 258.347 7.82796 239.432 6.34015 225.018 5.80145ZM229.976 16.2424 199.438 0 230.754-14.6853Z" fill="#1F497D" transform="matrix(-0.273568 0.961853 0.961853 0.273568 2196.54 1124.76)"/><path d="M2252.63 1330.76 2257.84 1349.01 2262.99 1369.88 2267.39 1390.08 2270.99 1409.44 2273.79 1427.96 2275.81 1445.5 2277.04 1461.86 2277.27 1469.7 2277.4 1477.08 2277.28 1484.2 2276.91 1491 2276.43 1497.37 2275.65 1503.46 2274.7 1509.15 2273.44 1514.53 2272.02 1519.37 2270.37 1523.88 2268.36 1528.08 2266.16 1531.75 2263.57 1535.06 2260.77 1537.82C2260.53 1538.05 2260.27 1538.26 2259.98 1538.44L2257.32 1540.16C2257.09 1540.3 2256.85 1540.43 2256.6 1540.54L2253.79 1541.78 2249.64 1532.34 2252.46 1531.1 2251.74 1531.48 2254.41 1529.77 2253.62 1530.4 2255.52 1528.61 2257.33 1526.43 2259.08 1523.58 2260.69 1520.3 2262.13 1516.46 2263.4 1512.16 2264.53 1507.44 2265.42 1502.15 2266.14 1496.59 2266.61 1490.44 2266.96 1484.01 2267.09 1477.26 2266.96 1470.01 2266.75 1462.63 2265.56 1446.67 2263.6 1429.5 2260.86 1411.32 2257.32 1392.27 2252.97 1372.35 2247.92 1351.84 2242.72 1333.58ZM2234.34 1341.55 2240.26 1307.48 2263.97 1332.66Z" fill="#1F497D"/></g></svg>