<svg width="766" height="291" xmlns="http://www.w3.org/2000/svg" xmlns:xlink="http://www.w3.org/1999/xlink" overflow="hidden"><defs><clipPath id="clip0"><rect x="2465" y="374" width="766" height="291"/></clipPath></defs><g clip-path="url(#clip0)" transform="translate(-2465 -374)"><rect x="2874.5" y="378.5" width="352" height="282" stroke="#000000" stroke-width="9.16667" stroke-linejoin="round" stroke-miterlimit="10" stroke-dasharray="27.5 9.16667" fill="#F2F2F2"/><rect x="2922.5" y="434.5" width="257" height="176" stroke="#000000" stroke-width="9.16667" stroke-linejoin="round" stroke-miterlimit="10" fill="#95B3D7"/><rect x="2469.5" y="378.5" width="352" height="282" stroke="#000000" stroke-width="9.16667" stroke-linejoin="round" stroke-miterlimit="10" stroke-dasharray="27.5 9.16667" fill="#F2F2F2"/><rect x="2517.5" y="434.5" width="257" height="176" stroke="#000000" stroke-width="9.16667" stroke-linejoin="round" stroke-miterlimit="10" fill="#95B3D7"/><path d="M0 0 0.000360892 175.885" stroke="#000000" stroke-width="10.3125" stroke-linejoin="round" stroke-miterlimit="10" stroke-dasharray="30.9375 10.3125" fill="none" fill-rule="evenodd" transform="matrix(1 0 0 -1 2727 609.885)"/><path d="M0 0 0.000360892 175.885" stroke="#000000" stroke-width="10.3125" stroke-linejoin="round" stroke-miterlimit="10" stroke-dasharray="30.9375 10.3125" fill="none" fill-rule="evenodd" transform="matrix(1 0 0 -1 2972 609.885)"/><rect x="2922.5" y="434.5" width="257" height="176" stroke="#000000" stroke-width="9.16667" stroke-linejoin="round" stroke-miterlimit="10" fill="none"/><rect x="2516.5" y="434.5" width="257" height="176" stroke="#000000" stroke-width="9.16667" stroke-linejoin="round" stroke-miterlimit="10" fill="none"/><path d="M2773 436 2820.4 436" stroke="#000000" stroke-width="10.3125" stroke-linejoin="round" stroke-miterlimit="10" stroke-dasharray="30.9375 10.3125" fill="none" fill-rule="evenodd"/><path d="M2773 610 2820.4 610.001" stroke="#000000" stroke-width="10.3125" stroke-linejoin="round" stroke-miterlimit="10" stroke-dasharray="30.9375 10.3125" fill="none" fill-rule="evenodd"/><path d="M0 0 47.7432 0.000360892" stroke="#000000" stroke-width="10.3125" stroke-linejoin="round" stroke-miterlimit="10" stroke-dasharray="30.9375 10.3125" fill="none" fill-rule="evenodd" transform="matrix(-1 0 0 1 2923.74 610)"/><path d="M0 0 47.7432 0.000360892" stroke="#000000" stroke-width="10.3125" stroke-linejoin="round" stroke-miterlimit="10" stroke-dasharray="30.9375 10.3125" fill="none" fill-rule="evenodd" transform="matrix(-1 0 0 1 2923.74 436)"/><path d="M164.03-4.01089 179.274-2.8283 192.267-1.04539 204.57 1.24368 216.133 3.84481 226.971 6.91493 237.052 10.3741 246.228 14.1759 254.508 18.3329 261.847 22.8709 268.121 27.7565 273.257 32.9654C273.471 33.1853 273.665 33.4234 273.836 33.6777L277.211 38.6777C277.409 38.9699 277.575 39.2817 277.709 39.6079L279.834 44.7954C280.004 45.2096 280.119 45.6443 280.176 46.0882L280.864 51.4007 270.636 52.7243 269.949 47.4118 270.291 48.7046 268.166 43.5171 268.664 44.4473 265.289 39.4473 265.868 40.1596 261.754 35.8685 256.403 31.6291 249.867 27.5421 242.272 23.6991 233.698 20.1259 224.154 16.8351 213.867 13.9052 202.68 11.3813 190.858 9.17039 178.476 7.4533 163.233 6.27071ZM168.105 16.8098 137.875 0 169.461-14.098Z" fill="#C00000" transform="matrix(-0.920025 -0.391861 -0.391861 0.920025 3022.15 525.502)"/><path d="M164.03-4.01089 179.274-2.8283 192.267-1.04539 204.57 1.24368 216.133 3.84481 226.971 6.91493 237.052 10.3741 246.228 14.1759 254.508 18.3329 261.847 22.8709 268.121 27.7565 273.257 32.9654C273.471 33.1853 273.665 33.4234 273.836 33.6777L277.211 38.6777C277.409 38.9699 277.575 39.2817 277.709 39.6079L279.834 44.7954C280.004 45.2096 280.119 45.6443 280.176 46.0882L280.864 51.4007 270.636 52.7243 269.949 47.4118 270.291 48.7046 268.166 43.5171 268.664 44.4473 265.289 39.4473 265.868 40.1596 261.754 35.8685 256.403 31.6291 249.867 27.5421 242.272 23.6991 233.698 20.1259 224.154 16.8351 213.867 13.9052 202.68 11.3813 190.858 9.17039 178.476 7.4533 163.233 6.27071ZM168.105 16.8098 137.875 0 169.461-14.098Z" fill="#C00000" transform="matrix(0.884464 0.466608 0.466608 -0.884464 2679.28 467.479)"/></g></svg>