<svg width="1004" height="1383" xmlns="http://www.w3.org/2000/svg" xmlns:xlink="http://www.w3.org/1999/xlink" overflow="hidden"><defs><clipPath id="clip0"><rect x="2243" y="245" width="1004" height="1383"/></clipPath></defs><g clip-path="url(#clip0)" transform="translate(-2243 -245)"><text font-family="Arial,Arial_MSFontService,sans-serif" font-weight="700" font-size="83" transform="matrix(1 0 0 1 2641.24 472)">0<tspan font-size="83" x="0" y="159">1</tspan><tspan font-size="83" x="0" y="317">2</tspan><tspan font-size="83" x="0" y="475">3</tspan><tspan fill="#002060" font-family="Courier New,Courier New_MSFontService,sans-serif" font-size="83" x="-75.625" y="-128">rank</tspan><tspan fill="#002060" font-family="Courier New,Courier New_MSFontService,sans-serif" font-size="83" x="188.156" y="-128">sendbuf</tspan></text><rect x="2768.5" y="1433.5" width="114" height="115" stroke="#000000" stroke-width="9.16667" stroke-linejoin="round" stroke-miterlimit="10" fill="#F2DCDB"/><text fill="#002060" font-family="Courier New,Courier New_MSFontService,sans-serif" font-weight="700" font-size="83" transform="matrix(1 0 0 1 2800.29 1514)">8</text><rect x="2882.5" y="1433.5" width="115" height="115" stroke="#000000" stroke-width="9.16667" stroke-linejoin="round" stroke-miterlimit="10" fill="#DDD9C3"/><text fill="#002060" font-family="Courier New,Courier New_MSFontService,sans-serif" font-weight="700" font-size="83" transform="matrix(1 0 0 1 2915.07 1514)">9</text><rect x="2997.5" y="1433.5" width="115" height="115" stroke="#000000" stroke-width="9.16667" stroke-linejoin="round" stroke-miterlimit="10" fill="#EBF1DE"/><text fill="#002060" font-family="Courier New,Courier New_MSFontService,sans-serif" font-weight="700" font-size="83" transform="matrix(1 0 0 1 3029.84 1514)">6</text><rect x="3112.5" y="1433.5" width="114" height="115" stroke="#000000" stroke-width="9.16667" stroke-linejoin="round" stroke-miterlimit="10" fill="#EBF1DE"/><text fill="#002060" font-family="Courier New,Courier New_MSFontService,sans-serif" font-weight="700" font-size="83" transform="matrix(1 0 0 1 3144.33 1514)">8<tspan font-size="83" x="-780.471" y="-44">recvbuf</tspan><tspan font-size="73" x="-780.471" y="47">on </tspan><tspan font-size="73" x="-648.471" y="47">root</tspan><tspan font-size="64" x="-862.755" y="-391">MPI_Reduce</tspan><tspan font-size="64" x="-479.755" y="-391">()</tspan><tspan font-size="64" x="-862.755" y="-314">count</tspan><tspan font-size="64" x="-632.755" y="-314">= 4</tspan><tspan fill="#0000FF" font-size="64" x="-862.755" y="-237">op</tspan><tspan font-size="64" x="-747.755" y="-237">= MPI_MAX</tspan></text><path d="M2830.16 370 2830.16 1356.71 2819.84 1356.71 2819.84 370ZM2840.47 1351.55 2825 1382.49 2809.53 1351.55Z" fill="#215968"/><path d="M2945.16 384 2945.16 1357.15 2934.84 1357.15 2934.84 384ZM2955.47 1352 2940 1382.93 2924.53 1352Z" fill="#215968"/><path d="M3059.16 369.986 3061.87 1356.69 3051.56 1356.72 3048.84 370.014ZM3072.17 1351.51 3056.78 1382.49 3041.23 1351.59Z" fill="#215968"/><path d="M3174.16 383.964 3180.99 1357.12 3170.67 1357.19 3163.84 384.036ZM3191.26 1351.89 3176.01 1382.93 3160.33 1352.11Z" fill="#215968"/><rect x="2768.5" y="384.5" width="114" height="114" stroke="#000000" stroke-width="9.16667" stroke-linejoin="round" stroke-miterlimit="10" fill="#DDD9C3"/><text fill="#002060" font-family="Courier New,Courier New_MSFontService,sans-serif" font-weight="700" font-size="83" transform="matrix(1 0 0 1 2800.29 465)">0</text><rect x="2882.5" y="384.5" width="115" height="114" stroke="#000000" stroke-width="9.16667" stroke-linejoin="round" stroke-miterlimit="10" fill="#DDD9C3"/><text fill="#002060" font-family="Courier New,Courier New_MSFontService,sans-serif" font-weight="700" font-size="83" transform="matrix(1 0 0 1 2915.07 465)">9</text><rect x="2997.5" y="384.5" width="115" height="114" stroke="#000000" stroke-width="9.16667" stroke-linejoin="round" stroke-miterlimit="10" fill="#DDD9C3"/><text fill="#002060" font-family="Courier New,Courier New_MSFontService,sans-serif" font-weight="700" font-size="83" transform="matrix(1 0 0 1 3029.84 465)">2</text><rect x="3112.5" y="384.5" width="114" height="114" stroke="#000000" stroke-width="9.16667" stroke-linejoin="round" stroke-miterlimit="10" fill="#DDD9C3"/><text fill="#002060" font-family="Courier New,Courier New_MSFontService,sans-serif" font-weight="700" font-size="83" transform="matrix(1 0 0 1 3144.33 465)">6</text><rect x="2770.5" y="543.5" width="115" height="115" stroke="#000000" stroke-width="9.16667" stroke-linejoin="round" stroke-miterlimit="10" fill="#DCE6F2"/><text fill="#002060" font-family="Courier New,Courier New_MSFontService,sans-serif" font-weight="700" font-size="83" transform="matrix(1 0 0 1 2803.08 624)">5</text><rect x="2885.5" y="543.5" width="115" height="115" stroke="#000000" stroke-width="9.16667" stroke-linejoin="round" stroke-miterlimit="10" fill="#DCE6F2"/><text fill="#002060" font-family="Courier New,Courier New_MSFontService,sans-serif" font-weight="700" font-size="83" transform="matrix(1 0 0 1 2917.85 624)">1</text><rect x="3000.5" y="543.5" width="115" height="115" stroke="#000000" stroke-width="9.16667" stroke-linejoin="round" stroke-miterlimit="10" fill="#DCE6F2"/><text fill="#002060" font-family="Courier New,Courier New_MSFontService,sans-serif" font-weight="700" font-size="83" transform="matrix(1 0 0 1 3032.63 624)">0</text><rect x="3115.5" y="543.5" width="114" height="115" stroke="#000000" stroke-width="9.16667" stroke-linejoin="round" stroke-miterlimit="10" fill="#DCE6F2"/><text fill="#002060" font-family="Courier New,Courier New_MSFontService,sans-serif" font-weight="700" font-size="83" transform="matrix(1 0 0 1 3147.12 624)">4</text><rect x="2768.5" y="702.5" width="114" height="114" stroke="#000000" stroke-width="9.16667" stroke-linejoin="round" stroke-miterlimit="10" fill="#F2DCDB"/><text fill="#002060" font-family="Courier New,Courier New_MSFontService,sans-serif" font-weight="700" font-size="83" transform="matrix(1 0 0 1 2800.29 783)">8</text><rect x="2882.5" y="702.5" width="115" height="114" stroke="#000000" stroke-width="9.16667" stroke-linejoin="round" stroke-miterlimit="10" fill="#F2DCDB"/><text fill="#002060" font-family="Courier New,Courier New_MSFontService,sans-serif" font-weight="700" font-size="83" transform="matrix(1 0 0 1 2915.07 783)">3</text><rect x="2997.5" y="702.5" width="115" height="114" stroke="#000000" stroke-width="9.16667" stroke-linejoin="round" stroke-miterlimit="10" fill="#F2DCDB"/><text fill="#002060" font-family="Courier New,Courier New_MSFontService,sans-serif" font-weight="700" font-size="83" transform="matrix(1 0 0 1 3029.84 783)">4</text><rect x="3112.5" y="702.5" width="114" height="114" stroke="#000000" stroke-width="9.16667" stroke-linejoin="round" stroke-miterlimit="10" fill="#F2DCDB"/><text fill="#002060" font-family="Courier New,Courier New_MSFontService,sans-serif" font-weight="700" font-size="83" transform="matrix(1 0 0 1 3144.33 783)">5</text><rect x="2768.5" y="860.5" width="114" height="114" stroke="#000000" stroke-width="9.16667" stroke-linejoin="round" stroke-miterlimit="10" fill="#EBF1DE"/><text fill="#002060" font-family="Courier New,Courier New_MSFontService,sans-serif" font-weight="700" font-size="83" transform="matrix(1 0 0 1 2800.29 940)">1</text><rect x="2882.5" y="860.5" width="115" height="114" stroke="#000000" stroke-width="9.16667" stroke-linejoin="round" stroke-miterlimit="10" fill="#EBF1DE"/><text fill="#002060" font-family="Courier New,Courier New_MSFontService,sans-serif" font-weight="700" font-size="83" transform="matrix(1 0 0 1 2915.07 940)">0</text><rect x="2997.5" y="860.5" width="115" height="114" stroke="#000000" stroke-width="9.16667" stroke-linejoin="round" stroke-miterlimit="10" fill="#EBF1DE"/><text fill="#002060" font-family="Courier New,Courier New_MSFontService,sans-serif" font-weight="700" font-size="83" transform="matrix(1 0 0 1 3029.84 940)">6</text><rect x="3112.5" y="860.5" width="114" height="114" stroke="#000000" stroke-width="9.16667" stroke-linejoin="round" stroke-miterlimit="10" fill="#EBF1DE"/><text fill="#002060" font-family="Courier New,Courier New_MSFontService,sans-serif" font-weight="700" font-size="83" transform="matrix(1 0 0 1 3144.33 940)">8</text><rect x="2781" y="1062" width="78" height="165" fill="#FFFFFF"/><text font-family="Arial,Arial_MSFontService,sans-serif" font-weight="400" font-size="64" transform="matrix(-1.83697e-16 -1 1 -1.83697e-16 2843.48 1226)">max()</text><rect x="2892" y="1061" width="78" height="165" fill="#FFFFFF"/><text font-family="Arial,Arial_MSFontService,sans-serif" font-weight="400" font-size="64" transform="matrix(-1.83697e-16 -1 1 -1.83697e-16 2954.31 1225)">max()</text><rect x="3018" y="1061" width="78" height="165" fill="#FFFFFF"/><text font-family="Arial,Arial_MSFontService,sans-serif" font-weight="400" font-size="64" transform="matrix(-1.83697e-16 -1 1 -1.83697e-16 3080.29 1225)">max()</text><rect x="3130" y="1067" width="77" height="165" fill="#FFFFFF"/><text font-family="Arial,Arial_MSFontService,sans-serif" font-weight="400" font-size="64" transform="matrix(-1.83697e-16 -1 1 -1.83697e-16 3192.01 1231)">max()</text></g></svg>