<svg width="2347" height="656" xmlns="http://www.w3.org/2000/svg" xmlns:xlink="http://www.w3.org/1999/xlink" overflow="hidden"><defs><clipPath id="clip0"><rect x="431" y="972" width="2347" height="656"/></clipPath></defs><g clip-path="url(#clip0)" transform="translate(-431 -972)"><rect x="436.5" y="977.5" width="146" height="146" stroke="#000000" stroke-width="9.16667" stroke-linejoin="round" stroke-miterlimit="10" fill="#F2DCDB"/><rect x="582.5" y="977.5" width="146" height="146" stroke="#000000" stroke-width="9.16667" stroke-linejoin="round" stroke-miterlimit="10" fill="#F2DCDB"/><rect x="728.5" y="977.5" width="146" height="146" stroke="#000000" stroke-width="9.16667" stroke-linejoin="round" stroke-miterlimit="10" fill="#F2DCDB"/><rect x="874.5" y="977.5" width="146" height="146" stroke="#000000" stroke-width="9.16667" stroke-linejoin="round" stroke-miterlimit="10" fill="#F2F2F2"/><rect x="1020.5" y="977.5" width="146" height="146" stroke="#000000" stroke-width="9.16667" stroke-linejoin="round" stroke-miterlimit="10" fill="#F2F2F2"/><rect x="1166.5" y="977.5" width="146" height="146" stroke="#000000" stroke-width="9.16667" stroke-linejoin="round" stroke-miterlimit="10" fill="#F2DCDB"/><rect x="1312.5" y="977.5" width="146" height="146" stroke="#000000" stroke-width="9.16667" stroke-linejoin="round" stroke-miterlimit="10" fill="#F2DCDB"/><rect x="1458.5" y="977.5" width="146" height="146" stroke="#000000" stroke-width="9.16667" stroke-linejoin="round" stroke-miterlimit="10" fill="#F2DCDB"/><rect x="1604.5" y="976.5" width="147" height="146" stroke="#000000" stroke-width="9.16667" stroke-linejoin="round" stroke-miterlimit="10" fill="#F2DCDB"/><rect x="1751.5" y="976.5" width="146" height="146" stroke="#000000" stroke-width="9.16667" stroke-linejoin="round" stroke-miterlimit="10" fill="#F2DCDB"/><rect x="1897.5" y="976.5" width="146" height="146" stroke="#000000" stroke-width="9.16667" stroke-linejoin="round" stroke-miterlimit="10" fill="#F2DCDB"/><rect x="2043.5" y="976.5" width="146" height="146" stroke="#000000" stroke-width="9.16667" stroke-linejoin="round" stroke-miterlimit="10" fill="#F2F2F2"/><rect x="2189.5" y="976.5" width="146" height="146" stroke="#000000" stroke-width="9.16667" stroke-linejoin="round" stroke-miterlimit="10" fill="#F2F2F2"/><rect x="2335.5" y="976.5" width="146" height="146" stroke="#000000" stroke-width="9.16667" stroke-linejoin="round" stroke-miterlimit="10" fill="#F2DCDB"/><rect x="2481.5" y="976.5" width="146" height="146" stroke="#000000" stroke-width="9.16667" stroke-linejoin="round" stroke-miterlimit="10" fill="#F2DCDB"/><rect x="2627.5" y="976.5" width="146" height="146" stroke="#000000" stroke-width="9.16667" stroke-linejoin="round" stroke-miterlimit="10" fill="#F2DCDB"/><path d="M1604 1161C1604 1175.64 1592.15 1187.5 1577.52 1187.5L1046.48 1187.5C1031.85 1187.5 1020 1199.36 1020 1214 1020 1199.36 1008.15 1187.5 993.523 1187.5L462.476 1187.5C447.854 1187.5 436 1175.64 436 1161" stroke="#215968" stroke-width="10.3125" stroke-linejoin="round" stroke-miterlimit="10" fill="none" fill-rule="evenodd"/><path d="M2773 1162C2773 1176.64 2762.73 1188.5 2750.06 1188.5L2215.94 1188.5C2203.27 1188.5 2193 1200.36 2193 1215 2193 1200.36 2182.73 1188.5 2170.06 1188.5L1635.94 1188.5C1623.27 1188.5 1613 1176.64 1613 1162" stroke="#215968" stroke-width="10.3125" stroke-linejoin="round" stroke-miterlimit="10" fill="none" fill-rule="evenodd"/><path d="M1512.06 1078.5 1549.64 1220.09 1534.14 1236.78 1581.48 1358.11 1565.98 1378.37 1624.5 1581.5 1525.25 1425.83 1544.18 1404.22 1482.51 1304.5 1504.61 1273.69 1439.5 1169.09Z" stroke="#000000" stroke-width="9.16667" stroke-linejoin="round" stroke-miterlimit="10" fill="#FF0000" fill-rule="evenodd"/><text fill="#002060" font-family="Arial,Arial_MSFontService,sans-serif" font-weight="700" font-size="92" transform="matrix(1 0 0 1 1692.73 1443)">missing <tspan font-size="92" x="0" y="110">gap!</tspan></text></g></svg>