<svg width="3089" height="1251" xmlns="http://www.w3.org/2000/svg" xmlns:xlink="http://www.w3.org/1999/xlink" overflow="hidden"><defs><clipPath id="clip0"><rect x="129" y="564" width="3089" height="1251"/></clipPath></defs><g clip-path="url(#clip0)" transform="translate(-129 -564)"><text fill="#C0504D" font-family="Courier New,Courier New_MSFontService,sans-serif" font-weight="700" font-size="73" transform="matrix(1 0 0 1 173.137 1041)">oldtype<tspan fill="#000000" font-family="Arial,Arial_MSFontService,sans-serif" font-weight="400" font-size="55" x="1031.06" y="467">size</tspan><tspan fill="#000000" font-family="Arial,Arial_MSFontService,sans-serif" font-weight="400" font-size="55" x="1257.06" y="467">:= 6*size(</tspan><tspan fill="#000000" font-family="Arial,Arial_MSFontService,sans-serif" font-weight="400" font-size="55" x="1487.06" y="467">oldtype</tspan><tspan fill="#000000" font-family="Arial,Arial_MSFontService,sans-serif" font-weight="400" font-size="55" x="1664.06" y="467">)</tspan><tspan fill="#000000" font-family="Arial,Arial_MSFontService,sans-serif" font-weight="400" font-size="55" x="1031.06" y="533">extent</tspan><tspan fill="#000000" font-family="Arial,Arial_MSFontService,sans-serif" font-weight="400" font-size="55" x="1257.06" y="533">:= 8*extent(</tspan><tspan fill="#000000" font-family="Arial,Arial_MSFontService,sans-serif" font-weight="400" font-size="55" x="1540.06" y="533">oldtype</tspan><tspan fill="#000000" font-family="Arial,Arial_MSFontService,sans-serif" font-weight="400" font-size="55" x="1717.06" y="533">)</tspan></text><rect x="1284.5" y="962.5" width="146" height="146" stroke="#000000" stroke-width="9.16667" stroke-linejoin="round" stroke-miterlimit="10" fill="#F2DCDB"/><text fill="#C0504D" font-family="Courier New,Courier New_MSFontService,sans-serif" font-weight="700" font-size="73" transform="matrix(1 0 0 1 884 1041)">MPI_INT<tspan fill="#9BBB59" font-size="73" x="-701.414" y="-268">blocklength</tspan><tspan fill="#9BBB59" font-size="73" x="92.4599" y="-270">(no. of elements in each block)</tspan><tspan fill="#4BACC6" font-size="73" x="-710.862" y="-134">stride</tspan><tspan fill="#4BACC6" font-size="73" x="93.2409" y="-136">(no. of elements b/w start of each block)</tspan><tspan fill="#002060" font-size="73" x="-694.744" y="-390">count</tspan><tspan fill="#002060" font-size="73" x="91.684" y="-387">(no. of blocks)</tspan></text><rect x="349.5" y="1284.5" width="146" height="144" stroke="#000000" stroke-width="9.16667" stroke-linejoin="round" stroke-miterlimit="10" fill="#F2DCDB"/><rect x="495.5" y="1284.5" width="146" height="144" stroke="#000000" stroke-width="9.16667" stroke-linejoin="round" stroke-miterlimit="10" fill="#F2DCDB"/><rect x="641.5" y="1283.5" width="146" height="146" stroke="#000000" stroke-width="9.16667" stroke-linejoin="round" stroke-miterlimit="10" fill="#F2DCDB"/><rect x="787.5" y="1283.5" width="146" height="147" stroke="#000000" stroke-width="9.16667" stroke-linejoin="round" stroke-miterlimit="10" fill="#F2F2F2"/><rect x="933.5" y="1284.5" width="146" height="145" stroke="#000000" stroke-width="9.16667" stroke-linejoin="round" stroke-miterlimit="10" fill="#F2F2F2"/><rect x="1079.5" y="1283.5" width="146" height="146" stroke="#000000" stroke-width="9.16667" stroke-linejoin="round" stroke-miterlimit="10" fill="#F2DCDB"/><rect x="1225.5" y="1283.5" width="146" height="146" stroke="#000000" stroke-width="9.16667" stroke-linejoin="round" stroke-miterlimit="10" fill="#F2DCDB"/><rect x="1371.5" y="1284.5" width="146" height="145" stroke="#000000" stroke-width="9.16667" stroke-linejoin="round" stroke-miterlimit="10" fill="#F2DCDB"/><rect x="1517.5" y="1283.5" width="146" height="146" stroke="#000000" stroke-width="9.16667" stroke-linejoin="round" stroke-miterlimit="10" fill="#F2F2F2"/><rect x="1663.5" y="1282.5" width="147" height="147" stroke="#000000" stroke-width="9.16667" stroke-linejoin="round" stroke-miterlimit="10" fill="#F2F2F2"/><path d="M785.5 1464.5C785.5 1479.41 778.94 1491.5 770.848 1491.5L581.652 1491.5C573.56 1491.5 567 1503.59 567 1518.5 567 1503.59 560.44 1491.5 552.348 1491.5L363.152 1491.5C355.06 1491.5 348.5 1479.41 348.5 1464.5" stroke="#215968" stroke-width="4.58333" stroke-linejoin="round" stroke-miterlimit="10" fill="none" fill-rule="evenodd"/><path d="M1079.5 1611.5C1079.5 1630.83 1069.22 1646.5 1056.53 1646.5L739.469 1646.5C726.784 1646.5 716.5 1662.17 716.5 1681.5 716.5 1662.17 706.216 1646.5 693.531 1646.5L376.469 1646.5C363.784 1646.5 353.5 1630.83 353.5 1611.5" stroke="#215968" stroke-width="4.58333" stroke-linejoin="round" stroke-miterlimit="10" fill="none" fill-rule="evenodd"/><text fill="#9BBB59" font-family="Courier New,Courier New_MSFontService,sans-serif" font-weight="700" font-size="73" transform="matrix(1 0 0 1 319.114 1582)">blocklength<tspan fill="#4BACC6" font-size="73" x="266.232" y="165">stride</tspan></text><path d="M0 0C12.9787-3.4295e-15 23.5 9.93041 23.5 22.1802L23.5 193.32C23.5 205.57 34.0214 215.5 47.0001 215.5 34.0214 215.5 23.5 225.43 23.5 237.68L23.5 408.82C23.5 421.07 12.9787 431 0 431" stroke="#215968" stroke-width="4.58333" stroke-linejoin="round" stroke-miterlimit="10" fill="none" fill-rule="evenodd" transform="matrix(-1.83697e-16 -1 -1 1.83697e-16 785.5 1270.5)"/><text fill="#002060" font-family="Courier New,Courier New_MSFontService,sans-serif" font-weight="700" font-size="73" transform="matrix(1 0 0 1 810.844 1173)">count</text><rect x="2126" y="1015" width="1091" height="656" fill="#F2F2F2"/><text fill="#002060" font-family="Courier New,Courier New_MSFontService,sans-serif" font-weight="700" font-size="73" transform="matrix(1 0 0 1 2158.57 1097)">MPI_Datatype<tspan font-size="73" x="573" y="0">nt</tspan>;<tspan font-size="73" x="0" y="88">MPI_Type_vector</tspan><tspan font-size="73" x="661" y="88">(</tspan><tspan font-size="73" x="0" y="176">2, 3, 5, MPI_INT, &amp;</tspan><tspan font-size="73" x="837" y="176">nt</tspan>);<tspan font-size="73" x="0" y="352">MPI_Type_commit</tspan><tspan font-size="73" x="661" y="352">(&amp;</tspan>nt<tspan font-size="73" x="837" y="352">); </tspan><tspan font-size="73" x="0" y="440">// use </tspan><tspan font-size="73" x="308" y="440">nt</tspan><tspan font-size="73" x="396" y="440">…</tspan><tspan font-size="73" x="0" y="529">MPI_Type_free</tspan><tspan font-size="73" x="573" y="529">(&amp;</tspan>nt);</text><path d="M0 0C13.2549-3.4295e-15 24.0001 8.47156 24.0001 18.9218L24.0001 196.578C24.0001 207.028 34.7453 215.5 48.0001 215.5 34.7453 215.5 24.0001 223.972 24.0001 234.422L24.0001 412.078C24.0001 422.529 13.2549 431-3.4295e-15 431" stroke="#215968" stroke-width="4.58333" stroke-linejoin="round" stroke-miterlimit="10" fill="none" fill-rule="evenodd" transform="matrix(-1.83697e-16 -1 -1 1.83697e-16 1517.5 1270.5)"/><path d="M0 0 227.237 70.3845" stroke="#215968" stroke-width="4.58333" stroke-linejoin="round" stroke-miterlimit="10" fill="none" fill-rule="evenodd" transform="matrix(1 0 0 -1 570.5 1222.88)"/><path d="M1301.8 1222.63 1047.5 1152.5" stroke="#215968" stroke-width="4.58333" stroke-linejoin="round" stroke-miterlimit="10" fill="none" fill-rule="evenodd"/><text fill="#002060" font-family="Courier New,Courier New_MSFontService,sans-serif" font-weight="700" font-size="73" transform="matrix(1 0 0 1 885.484 651)">2<tspan fill="#9BBB59" font-size="73" x="5.48773" y="128">3</tspan><tspan fill="#4BACC6" font-size="73" x="5.48773" y="261">5</tspan></text></g></svg>