<svg width="1343" height="1344" xmlns="http://www.w3.org/2000/svg" xmlns:xlink="http://www.w3.org/1999/xlink" overflow="hidden"><defs><clipPath id="clip0"><rect x="1862" y="338" width="1343" height="1344"/></clipPath></defs><g clip-path="url(#clip0)" transform="translate(-1862 -338)"><path d="M1862 1010C1862 638.865 2162.64 338 2533.5 338 2904.36 338 3205 638.865 3205 1010 3205 1381.14 2904.36 1682 2533.5 1682 2162.64 1682 1862 1381.14 1862 1010Z" fill="#98A4AE" fill-rule="evenodd"/><text fill="#FFFFFF" font-family="Arial,Arial_MSFontService,sans-serif" font-weight="400" font-size="83" transform="matrix(1 0 0 1 2325.73 474)">Application</text><path d="M2035 1014.5C2035 738.081 2259.08 514 2535.5 514 2811.92 514 3036 738.081 3036 1014.5 3036 1290.92 2811.92 1515 2535.5 1515 2259.08 1515 2035 1290.92 2035 1014.5Z" fill="#00B050" fill-rule="evenodd"/><text fill="#FFFFFF" font-family="Arial,Arial_MSFontService,sans-serif" font-weight="400" font-size="83" transform="matrix(1 0 0 1 2459.46 647)">MPI</text><path d="M2205 1012.5C2205 831.074 2352.07 684 2533.5 684 2714.93 684 2862 831.074 2862 1012.5 2862 1193.93 2714.93 1341 2533.5 1341 2352.07 1341 2205 1193.93 2205 1012.5Z" fill="#EC9F14" fill-rule="evenodd"/><text font-family="Arial,Arial_MSFontService,sans-serif" font-weight="400" font-size="83" transform="matrix(1 0 0 1 2401.6 812)">Drivers<tspan font-size="55" x="-93" y="413">IB, Eth, </tspan><tspan font-size="55" x="104" y="413">shmem</tspan><tspan font-size="55" x="286" y="413">,…</tspan></text><path d="M2389 1012.5C2389 932.695 2453.69 868 2533.5 868 2613.31 868 2678 932.695 2678 1012.5 2678 1092.31 2613.31 1157 2533.5 1157 2453.69 1157 2389 1092.31 2389 1012.5Z" fill="#4F81BD" fill-rule="evenodd"/><text fill="#FFFFFF" font-family="Arial,Arial_MSFontService,sans-serif" font-weight="400" font-size="73" transform="matrix(1 0 0 1 2441.71 996)">Hard<tspan font-size="73" x="159" y="0">-</tspan><tspan font-size="73" x="12" y="88">ware</tspan></text></g></svg>