<svg width="2909" height="951" xmlns="http://www.w3.org/2000/svg" xmlns:xlink="http://www.w3.org/1999/xlink" overflow="hidden"><defs><clipPath id="clip0"><rect x="162" y="753" width="2909" height="951"/></clipPath></defs><g clip-path="url(#clip0)" transform="translate(-162 -753)"><path d="M184.5 983.5 3042.77 983.5" stroke="#000000" stroke-width="9.16667" stroke-linejoin="round" stroke-miterlimit="10" fill="none" fill-rule="evenodd"/><path d="M184.5 1040.5 3042.77 1040.5" stroke="#000000" stroke-width="9.16667" stroke-linejoin="round" stroke-miterlimit="10" fill="none" fill-rule="evenodd"/><text font-family="Arial,Arial_MSFontService,sans-serif" font-weight="400" font-size="41" transform="matrix(1 0 0 1 194.891 1025)">MPI</text><path d="M600.5 983.5 600.5 1039.93" stroke="#000000" stroke-width="9.16667" stroke-linejoin="round" stroke-miterlimit="10" fill="none" fill-rule="evenodd"/><rect x="604" y="987" width="2254" height="50.0002" fill="#B7DEE8"/><path d="M184.5 852.5 3042.77 852.5" stroke="#000000" stroke-width="9.16667" stroke-linejoin="round" stroke-miterlimit="10" fill="none" fill-rule="evenodd"/><path d="M184.5 947.5 3042.77 947.5" stroke="#000000" stroke-width="9.16667" stroke-linejoin="round" stroke-miterlimit="10" fill="none" fill-rule="evenodd"/><text font-family="Arial,Arial_MSFontService,sans-serif" font-weight="400" font-size="41" transform="matrix(1 0 0 1 194.891 908)">process<tspan font-size="41" x="156" y="0">A</tspan></text><path d="M601.5 853.5 601.5 947.553" stroke="#000000" stroke-width="9.16667" stroke-linejoin="round" stroke-miterlimit="10" fill="none" fill-rule="evenodd"/><path d="M656.5 853.5 656.5 947.553" stroke="#000000" stroke-width="9.16667" stroke-linejoin="round" stroke-miterlimit="10" fill="none" fill-rule="evenodd"/><rect x="605" y="856" width="48.0001" height="89.0001" fill="#B7DEE8"/><text font-family="Arial,Arial_MSFontService,sans-serif" font-weight="400" font-size="41" transform="matrix(1 0 0 1 508.804 809)">MPI_ISEND (nonblocking)</text><path d="M184.5 1311.5 3042.77 1311.5" stroke="#000000" stroke-width="9.16667" stroke-linejoin="round" stroke-miterlimit="10" fill="none" fill-rule="evenodd"/><path d="M184.5 1367.5 3042.77 1367.5" stroke="#000000" stroke-width="9.16667" stroke-linejoin="round" stroke-miterlimit="10" fill="none" fill-rule="evenodd"/><text font-family="Arial,Arial_MSFontService,sans-serif" font-weight="400" font-size="41" transform="matrix(1 0 0 1 194.891 1352)">MPI</text><path d="M1451.5 1311.5 1451.5 1367.93" stroke="#000000" stroke-width="9.16667" stroke-linejoin="round" stroke-miterlimit="10" fill="none" fill-rule="evenodd"/><path d="M2855.5 1308.5 2855.5 1364.93" stroke="#000000" stroke-width="9.16667" stroke-linejoin="round" stroke-miterlimit="10" fill="none" fill-rule="evenodd"/><rect x="1455" y="1314" width="1397" height="48.9998" fill="#B7DEE8"/><path d="M2860.5 983.5 2860.5 1039.93" stroke="#000000" stroke-width="9.16667" stroke-linejoin="round" stroke-miterlimit="10" fill="none" fill-rule="evenodd"/><path d="M184.5 1394.5 3042.77 1394.5" stroke="#000000" stroke-width="9.16667" stroke-linejoin="round" stroke-miterlimit="10" fill="none" fill-rule="evenodd"/><path d="M184.5 1488.5 3042.77 1488.5" stroke="#000000" stroke-width="9.16667" stroke-linejoin="round" stroke-miterlimit="10" fill="none" fill-rule="evenodd"/><text font-family="Arial,Arial_MSFontService,sans-serif" font-weight="400" font-size="41" transform="matrix(1 0 0 1 194.891 1450)">process<tspan font-size="41" x="156" y="0">B</tspan></text><path d="M1449.5 1394.5 1449.5 1488.55" stroke="#000000" stroke-width="9.16667" stroke-linejoin="round" stroke-miterlimit="10" fill="none" fill-rule="evenodd"/><path d="M1510.5 1394.5 1510.5 1488.55" stroke="#000000" stroke-width="9.16667" stroke-linejoin="round" stroke-miterlimit="10" fill="none" fill-rule="evenodd"/><rect x="1453" y="1397" width="51.9999" height="89" fill="#B7DEE8"/><text font-family="Arial,Arial_MSFontService,sans-serif" font-weight="400" font-size="41" transform="matrix(1 0 0 1 1398.45 1559)">MPI_IRECV (blocking)<tspan font-size="41" x="1344.97" y="-106">continues</tspan></text><path d="M184.5 1606.92 3019.87 1606.92 3019.87 1616.08 184.5 1616.08ZM3015.27 1597.75 3042.77 1611.5 3015.27 1625.25Z" fill="#49702E"/><text fill="#49702E" font-family="Arial,Arial_MSFontService,sans-serif" font-weight="400" font-size="41" transform="matrix(1 0 0 1 2123.46 1669)">time</text><path d="M599.753 902.921 563.086 902.921 563.086 898.337 599.753 898.337ZM549.336 902.921 525.5 902.921C524.234 902.921 523.208 901.895 523.208 900.629L523.208 887.799 527.792 887.799 527.792 900.629 525.5 898.337 549.336 898.337ZM523.208 874.049 523.208 837.417 527.792 837.417 527.792 874.049ZM511.75 842 525.5 814.5 539.25 842Z" fill="#1F497D"/><text font-family="Arial,Arial_MSFontService,sans-serif" font-weight="400" font-size="41" transform="matrix(1 0 0 1 603.495 913)">R1<tspan font-size="41" x="102.063" y="2">Computation</tspan></text><path d="M1051.5 853.5 1051.5 947.553" stroke="#000000" stroke-width="9.16667" stroke-linejoin="round" stroke-miterlimit="10" fill="none" fill-rule="evenodd"/><path d="M1114.5 853.5 1114.5 947.553" stroke="#000000" stroke-width="9.16667" stroke-linejoin="round" stroke-miterlimit="10" fill="none" fill-rule="evenodd"/><rect x="1055" y="856" width="56" height="88" fill="#B7DEE8"/><text font-family="Arial,Arial_MSFontService,sans-serif" font-weight="400" font-size="41" transform="matrix(1 0 0 1 1054.63 912)">R2</text><path d="M1120.21 895.736 1149.76 895.736 1147.47 898.028 1147.47 890.914 1152.06 890.914 1152.06 898.028C1152.06 899.294 1151.03 900.32 1149.76 900.32L1120.21 900.32ZM1147.47 877.164 1147.47 840.498 1152.06 840.498 1152.06 877.164ZM1147.47 826.748 1147.47 802.5 1149.76 804.792 1137.34 804.792 1137.34 800.208 1149.76 800.208C1151.03 800.208 1152.06 801.234 1152.06 802.5L1152.06 826.748ZM1123.59 804.792 1086.93 804.792 1086.93 800.208 1123.59 800.208ZM1073.18 804.792 1036.51 804.792 1036.51 800.208 1073.18 800.208ZM1022.76 804.792 1016.42 804.792 1016.42 800.208 1022.76 800.208ZM1021 816.25 993.5 802.5 1021 788.75Z" fill="#1F497D"/><path d="M0 194 178.565 0 196 0 17.4346 194Z" fill-rule="evenodd" transform="matrix(-1 0 0 1 1642 1101)"/><path d="M0 194 178.565 0 196 0 17.4346 194Z" fill-rule="evenodd" transform="matrix(-1 0 0 1 1683 1101)"/><path d="M0 194 178.565 0 196 0 17.4346 194Z" fill-rule="evenodd" transform="matrix(-1 0 0 1 1725 1101)"/><path d="M0 194 178.565 0 196 0 17.4346 194Z" fill-rule="evenodd" transform="matrix(-1 0 0 1 1766 1101)"/><path d="M0 194 178.565 0 195 0 16.4351 194Z" fill-rule="evenodd" transform="matrix(-1 0 0 1 1807 1101)"/><path d="M0 194 178.565 0 196 0 17.4346 194Z" fill-rule="evenodd" transform="matrix(-1 0 0 1 1849 1101)"/><path d="M0 193.999 178.565 0 195 0 16.4351 193.999Z" fill-rule="evenodd" transform="matrix(-1 0 0 1 1890 1101)"/><path d="M0 194 178.565 0 196 0 17.4346 194Z" fill-rule="evenodd" transform="matrix(-1 0 0 1 1932 1101)"/><path d="M0 194 178.565 0 195 0 16.4351 194Z" fill-rule="evenodd" transform="matrix(-1 0 0 1 1973 1101)"/><path d="M0 194 178.565 0 196 0 17.4346 194Z" fill-rule="evenodd" transform="matrix(-1 0 0 1 2015 1101)"/><path d="M0 194 178.565 0 196 0 17.4346 194Z" fill-rule="evenodd" transform="matrix(-1 0 0 1 2056 1101)"/><path d="M0 194 178.565 0 196 0 17.4346 194Z" fill-rule="evenodd" transform="matrix(-1 0 0 1 2098 1101)"/><path d="M1452.08 952.5 1452.08 961.667 1442.92 961.667 1442.92 952.5ZM1452.08 970.833 1452.08 980 1442.92 980 1442.92 970.833ZM1452.08 989.167 1452.08 998.333 1442.92 998.333 1442.92 989.167ZM1452.08 1007.5 1452.08 1016.67 1442.92 1016.67 1442.92 1007.5ZM1452.08 1025.83 1452.08 1035 1442.92 1035 1442.92 1025.83ZM1452.08 1044.17 1452.08 1053.33 1442.92 1053.33 1442.92 1044.17ZM1452.08 1062.5 1452.08 1070.66 1442.92 1070.66 1442.92 1062.5ZM1461.25 1066.08 1447.5 1093.58 1433.75 1066.08Z"/><path d="M1925.08 950.5 1925.08 959.667 1915.92 959.667 1915.92 950.5ZM1925.08 968.833 1925.08 978 1915.92 978 1915.92 968.833ZM1925.08 987.167 1925.08 996.333 1915.92 996.333 1915.92 987.167ZM1925.08 1005.5 1925.08 1014.67 1915.92 1014.67 1915.92 1005.5ZM1925.08 1023.83 1925.08 1033 1915.92 1033 1915.92 1023.83ZM1925.08 1042.17 1925.08 1051.33 1915.92 1051.33 1915.92 1042.17ZM1925.08 1060.5 1925.08 1061.14 1915.92 1061.14 1915.92 1060.5ZM1934.25 1056.55 1920.5 1084.05 1906.75 1056.55Z"/><path d="M2104.08 1044.5 2104.08 1053.67 2094.92 1053.67 2094.92 1044.5ZM2104.08 1062.83 2104.08 1072 2094.92 1072 2094.92 1062.83ZM2104.08 1081.17 2104.08 1090.33 2094.92 1090.33 2094.92 1081.17ZM2104.08 1099.5 2104.08 1108.67 2094.92 1108.67 2094.92 1099.5ZM2104.08 1117.83 2104.08 1127 2094.92 1127 2094.92 1117.83ZM2104.08 1136.17 2104.08 1145.33 2094.92 1145.33 2094.92 1136.17ZM2104.08 1154.5 2104.08 1163.67 2094.92 1163.67 2094.92 1154.5ZM2104.08 1172.83 2104.08 1182 2094.92 1182 2094.92 1172.83ZM2104.08 1191.17 2104.08 1200.33 2094.92 1200.33 2094.92 1191.17ZM2104.08 1209.5 2104.08 1218.67 2094.92 1218.67 2094.92 1209.5ZM2104.08 1227.83 2104.08 1237 2094.92 1237 2094.92 1227.83ZM2104.08 1246.17 2104.08 1255.33 2094.92 1255.33 2094.92 1246.17ZM2104.08 1264.5 2104.08 1266.12 2094.92 1266.12 2094.92 1264.5ZM2113.25 1261.54 2099.5 1289.04 2085.75 1261.54Z"/><text font-family="Arial,Arial_MSFontService,sans-serif" font-weight="400" font-size="41" transform="matrix(1 0 0 1 1379.03 1087)">R1</text><path d="M0 194 178.565 0 195 0 16.4351 194Z" fill-rule="evenodd" transform="matrix(-1 0 0 1 2402 1102)"/><path d="M0 194 178.565 0 196 0 17.4346 194Z" fill-rule="evenodd" transform="matrix(-1 0 0 1 2444 1102)"/><path d="M0 194 178.565 0 196 0 17.4346 194Z" fill-rule="evenodd" transform="matrix(-1 0 0 1 2485 1102)"/><path d="M0 194 178.565 0 196 0 17.4346 194Z" fill-rule="evenodd" transform="matrix(-1 0 0 1 2527 1102)"/><path d="M0 194 178.566 0 196 0 17.4347 194Z" fill-rule="evenodd" transform="matrix(-1 0 0 1 2568 1102)"/><path d="M0 193.999 178.565 0 195 0 16.4351 193.999Z" fill-rule="evenodd" transform="matrix(-1 0 0 1 2609 1102)"/><path d="M0 194 178.565 0 196 0 17.4346 194Z" fill-rule="evenodd" transform="matrix(-1 0 0 1 2651 1102)"/><path d="M0 193.999 178.565 0 195 0 16.4351 193.999Z" fill-rule="evenodd" transform="matrix(-1 0 0 1 2692 1102)"/><path d="M0 194 178.565 0 196 0 17.4346 194Z" fill-rule="evenodd" transform="matrix(-1 0 0 1 2734 1102)"/><path d="M0 194 178.565 0 195 0 16.4351 194Z" fill-rule="evenodd" transform="matrix(-1 0 0 1 2775 1102)"/><path d="M0 194 178.565 0 196 0 17.4346 194Z" fill-rule="evenodd" transform="matrix(-1 0 0 1 2817 1102)"/><path d="M0 194 178.565 0 196 0 17.4346 194Z" fill-rule="evenodd" transform="matrix(-1 0 0 1 2858 1102)"/><path d="M2212.08 952.5 2212.08 961.667 2202.92 961.667 2202.92 952.5ZM2212.08 970.833 2212.08 980 2202.92 980 2202.92 970.833ZM2212.08 989.167 2212.08 998.333 2202.92 998.333 2202.92 989.167ZM2212.08 1007.5 2212.08 1016.67 2202.92 1016.67 2202.92 1007.5ZM2212.08 1025.83 2212.08 1035 2202.92 1035 2202.92 1025.83ZM2212.08 1044.17 2212.08 1053.33 2202.92 1053.33 2202.92 1044.17ZM2212.08 1062.5 2212.08 1070.66 2202.92 1070.66 2202.92 1062.5ZM2221.25 1066.08 2207.5 1093.58 2193.75 1066.08Z"/><path d="M2686.08 951.5 2686.08 960.667 2676.92 960.667 2676.92 951.5ZM2686.08 969.833 2686.08 979 2676.92 979 2676.92 969.833ZM2686.08 988.167 2686.08 997.333 2676.92 997.333 2676.92 988.167ZM2686.08 1006.5 2686.08 1015.67 2676.92 1015.67 2676.92 1006.5ZM2686.08 1024.83 2686.08 1034 2676.92 1034 2676.92 1024.83ZM2686.08 1043.17 2686.08 1052.33 2676.92 1052.33 2676.92 1043.17ZM2686.08 1061.5 2686.08 1062.14 2676.92 1062.14 2676.92 1061.5ZM2695.25 1057.55 2681.5 1085.05 2667.75 1057.55Z"/><path d="M2864.08 1045.5 2864.08 1054.67 2854.92 1054.67 2854.92 1045.5ZM2864.08 1063.83 2864.08 1073 2854.92 1073 2854.92 1063.83ZM2864.08 1082.17 2864.08 1091.33 2854.92 1091.33 2854.92 1082.17ZM2864.08 1100.5 2864.08 1109.67 2854.92 1109.67 2854.92 1100.5ZM2864.08 1118.83 2864.08 1128 2854.92 1128 2854.92 1118.83ZM2864.08 1137.17 2864.08 1146.33 2854.92 1146.33 2854.92 1137.17ZM2864.08 1155.5 2864.08 1164.67 2854.92 1164.67 2854.92 1155.5ZM2864.08 1173.83 2864.08 1183 2854.92 1183 2854.92 1173.83ZM2864.08 1192.17 2864.08 1201.33 2854.92 1201.33 2854.92 1192.17ZM2864.08 1210.5 2864.08 1219.67 2854.92 1219.67 2854.92 1210.5ZM2864.08 1228.83 2864.08 1238 2854.92 1238 2854.92 1228.83ZM2864.08 1247.17 2864.08 1256.33 2854.92 1256.33 2854.92 1247.17ZM2864.08 1265.5 2864.08 1267.12 2854.92 1267.12 2854.92 1265.5ZM2873.25 1262.54 2859.5 1290.04 2845.75 1262.54Z"/><text font-family="Arial,Arial_MSFontService,sans-serif" font-weight="400" font-size="41" transform="matrix(1 0 0 1 2135.89 1088)">R2<tspan font-size="41" x="-790.449" y="-174">continues</tspan><tspan font-size="41" x="-682.161" y="367">R1</tspan></text><path d="M1931.5 1395.5 1931.5 1489.55" stroke="#000000" stroke-width="9.16667" stroke-linejoin="round" stroke-miterlimit="10" fill="none" fill-rule="evenodd"/><path d="M1995.5 1395.5 1995.5 1489.55" stroke="#000000" stroke-width="9.16667" stroke-linejoin="round" stroke-miterlimit="10" fill="none" fill-rule="evenodd"/><rect x="1935" y="1398" width="56" height="89" fill="#B7DEE8"/><text font-family="Arial,Arial_MSFontService,sans-serif" font-weight="400" font-size="41" transform="matrix(1 0 0 1 1934.93 1456)">R2<tspan font-size="41" x="-321.05" y="-1">Computation</tspan></text></g></svg>