<svg width="958" height="1353" xmlns="http://www.w3.org/2000/svg" xmlns:xlink="http://www.w3.org/1999/xlink" overflow="hidden"><defs><clipPath id="clip0"><rect x="74" y="303" width="958" height="1353"/></clipPath></defs><g clip-path="url(#clip0)" transform="translate(-74 -303)"><path d="M179.399 434.003 178.896 1448.58 165.146 1448.57 165.649 433.997ZM172.021 1448.58 206.409 1421.09 172 1489.83 137.659 1421.06Z"/><path d="M368.399 434.004 367.895 1448.98 354.145 1448.98 354.649 433.997ZM361.02 1448.98 395.409 1421.5 361 1490.23 326.659 1421.46Z"/><path d="M557.4 434.003 556.896 1448.98 543.146 1448.98 543.65 433.997ZM550.021 1448.98 584.409 1421.5 550 1490.23 515.659 1421.46Z"/><path d="M746.4 434.003 745.896 1448.98 732.146 1448.98 732.65 433.997ZM739.021 1448.98 773.409 1421.5 739 1490.23 704.659 1421.46Z"/><path d="M937.4 434.003 936.896 1448.98 923.146 1448.98 923.65 433.997ZM930.021 1448.98 964.409 1421.5 930 1490.23 895.659 1421.46Z"/><path d="M174.414 580.563 513.485 707.715 508.657 720.589 169.586 593.437ZM511.071 714.152 497.392 672.31 549.695 728.636 473.253 736.682Z" fill="#0000FF"/><path d="M126.5 1000.5C126.5 974.543 327.3 953.5 575 953.5 822.7 953.5 1023.5 974.543 1023.5 1000.5 1023.5 1026.46 822.7 1047.5 575 1047.5 327.3 1047.5 126.5 1026.46 126.5 1000.5Z" stroke="#385D8A" stroke-width="4.58333" stroke-linejoin="round" stroke-miterlimit="10" fill="#FFFF00" fill-rule="evenodd"/><text fill="#C000C0" font-family="Calibri,Calibri_MSFontService,sans-serif" font-weight="700" font-size="147" transform="matrix(1 0 0 1 537.227 1049)">+</text><rect x="73.9999" y="313" width="958" height="122" fill="#92D050"/><text font-family="Arial,Arial_MSFontService,sans-serif" font-weight="400" font-size="83" transform="matrix(1 0 0 1 256.536 409)">Program startup</text><rect x="73.9999" y="1490" width="958" height="122" fill="#92D050"/><text font-family="Arial,Arial_MSFontService,sans-serif" font-weight="400" font-size="83" transform="matrix(1 0 0 1 206.536 1586)">Program shutdown</text></g></svg>