<svg width="998" height="1469" xmlns="http://www.w3.org/2000/svg" xmlns:xlink="http://www.w3.org/1999/xlink" overflow="hidden"><defs><clipPath id="clip0"><rect x="2242" y="231" width="998" height="1469"/></clipPath></defs><g clip-path="url(#clip0)" transform="translate(-2242 -231)"><path d="M2418 393 2418 1692.21" stroke="#4A7EBB" stroke-width="13.75" stroke-linejoin="round" stroke-miterlimit="10" fill="none" fill-rule="evenodd"/><path d="M3054 393 3054 1692.21" stroke="#4A7EBB" stroke-width="13.75" stroke-linejoin="round" stroke-miterlimit="10" fill="none" fill-rule="evenodd"/><text font-family="Arial,Arial_MSFontService,sans-serif" font-weight="400" font-size="92" transform="matrix(1 0 0 1 2297.64 349)">rank 0<tspan font-size="92" x="632.863" y="0">rank 1</tspan></text><path d="M2400.5 583C2400.5 572.23 2409.23 563.5 2420 563.5 2430.77 563.5 2439.5 572.23 2439.5 583 2439.5 593.77 2430.77 602.5 2420 602.5 2409.23 602.5 2400.5 593.77 2400.5 583Z" stroke="#385D8A" stroke-width="9.16667" stroke-linejoin="round" stroke-miterlimit="10" fill="#FF0000" fill-rule="evenodd"/><path d="M3025.91 831.662 2478.27 1027.88 2473.63 1014.94 3021.27 818.718ZM2489.38 1038.51 2443.59 1033.01 2475.47 999.677Z" fill="#00B050"/><path d="M2451.27 584.511 3000.35 776.655 2995.81 789.633 2446.73 597.489ZM2998.4 761.405 3030.52 794.498 2984.78 800.34Z" fill="#00B050"/><path d="M3035.5 807C3035.5 796.23 3044.23 787.5 3055 787.5 3065.77 787.5 3074.5 796.23 3074.5 807 3074.5 817.769 3065.77 826.5 3055 826.5 3044.23 826.5 3035.5 817.769 3035.5 807Z" stroke="#385D8A" stroke-width="9.16667" stroke-linejoin="round" stroke-miterlimit="10" fill="#FF0000" fill-rule="evenodd"/><path d="M2397.5 1036C2397.5 1025.23 2406.23 1016.5 2417 1016.5 2427.77 1016.5 2436.5 1025.23 2436.5 1036 2436.5 1046.77 2427.77 1055.5 2417 1055.5 2406.23 1055.5 2397.5 1046.77 2397.5 1036Z" stroke="#385D8A" stroke-width="9.16667" stroke-linejoin="round" stroke-miterlimit="10" fill="#FF0000" fill-rule="evenodd"/><path d="M3024.95 1288.4 2477.31 1484.63 2472.67 1471.68 3020.31 1275.46ZM2488.42 1495.25 2442.63 1489.75 2474.51 1456.42Z" fill="#00B050"/><path d="M2450.27 1041.51 2999.35 1233.65 2994.81 1246.63 2445.73 1054.49ZM2997.4 1218.41 3029.52 1251.5 2983.78 1257.34Z" fill="#00B050"/><path d="M3034.5 1264C3034.5 1253.23 3043.23 1244.5 3054 1244.5 3064.77 1244.5 3073.5 1253.23 3073.5 1264 3073.5 1274.77 3064.77 1283.5 3054 1283.5 3043.23 1283.5 3034.5 1274.77 3034.5 1264Z" stroke="#385D8A" stroke-width="9.16667" stroke-linejoin="round" stroke-miterlimit="10" fill="#FF0000" fill-rule="evenodd"/><path d="M2396.5 1493C2396.5 1482.23 2405.23 1473.5 2416 1473.5 2426.77 1473.5 2435.5 1482.23 2435.5 1493 2435.5 1503.77 2426.77 1512.5 2416 1512.5 2405.23 1512.5 2396.5 1503.77 2396.5 1493Z" stroke="#385D8A" stroke-width="9.16667" stroke-linejoin="round" stroke-miterlimit="10" fill="#FF0000" fill-rule="evenodd"/><text fill="#1F497D" font-family="Arial,Arial_MSFontService,sans-serif" font-weight="400" font-size="92" transform="matrix(1 0 0 1 2628.8 621)">ping<tspan font-size="92" x="-0.000244141" y="245">pong</tspan><tspan font-size="92" x="6.8396" y="463">ping</tspan><tspan font-size="92" x="0" y="701">pong</tspan></text></g></svg>