<svg width="2999" height="580" xmlns="http://www.w3.org/2000/svg" xmlns:xlink="http://www.w3.org/1999/xlink" overflow="hidden"><defs><clipPath id="clip0"><rect x="145" y="1149" width="2999" height="580"/></clipPath></defs><g clip-path="url(#clip0)" transform="translate(-145 -1149)"><rect x="2450.5" y="1292.5" width="650" height="379" stroke="#000000" stroke-width="9.16667" stroke-linejoin="round" stroke-miterlimit="10" fill="#F2F2F2"/><rect x="2489.5" y="1337.5" width="567" height="124" stroke="#000000" stroke-width="9.16667" stroke-linejoin="round" stroke-miterlimit="10" fill="#77933C"/><text fill="#FFFFFF" font-family="Arial,Arial_MSFontService,sans-serif" font-weight="400" font-size="83" transform="matrix(1 0 0 1 2564.21 1430)">send buffer</text><rect x="2489.5" y="1506.5" width="567" height="124" stroke="#000000" stroke-width="9.16667" stroke-linejoin="round" stroke-miterlimit="10" fill="#C0504D"/><text fill="#FFFFFF" font-family="Arial,Arial_MSFontService,sans-serif" font-weight="400" font-size="83" transform="matrix(1 0 0 1 2522.21 1599)">receive buffer</text><rect x="194.5" y="1296.5" width="650" height="380" stroke="#000000" stroke-width="9.16667" stroke-linejoin="round" stroke-miterlimit="10" fill="#F2F2F2"/><rect x="233.5" y="1342.5" width="567" height="124" stroke="#000000" stroke-width="9.16667" stroke-linejoin="round" stroke-miterlimit="10" fill="#77933C"/><text fill="#FFFFFF" font-family="Arial,Arial_MSFontService,sans-serif" font-weight="400" font-size="83" transform="matrix(1 0 0 1 308.182 1434)">send buffer</text><rect x="233.5" y="1511.5" width="567" height="124" stroke="#000000" stroke-width="9.16667" stroke-linejoin="round" stroke-miterlimit="10" fill="#C0504D"/><text fill="#FFFFFF" font-family="Arial,Arial_MSFontService,sans-serif" font-weight="400" font-size="83" transform="matrix(1 0 0 1 266.182 1603)">receive buffer</text><rect x="940.5" y="1298.5" width="649" height="379" stroke="#000000" stroke-width="9.16667" stroke-linejoin="round" stroke-miterlimit="10" fill="#F2F2F2"/><rect x="978.5" y="1343.5" width="568" height="124" stroke="#000000" stroke-width="9.16667" stroke-linejoin="round" stroke-miterlimit="10" fill="#77933C"/><text fill="#FFFFFF" font-family="Arial,Arial_MSFontService,sans-serif" font-weight="400" font-size="83" transform="matrix(1 0 0 1 1053.63 1436)">send buffer</text><rect x="978.5" y="1513.5" width="568" height="123" stroke="#000000" stroke-width="9.16667" stroke-linejoin="round" stroke-miterlimit="10" fill="#C0504D"/><text fill="#FFFFFF" font-family="Arial,Arial_MSFontService,sans-serif" font-weight="400" font-size="83" transform="matrix(1 0 0 1 1011.63 1605)">receive buffer</text><rect x="1688.5" y="1294.5" width="650" height="379" stroke="#000000" stroke-width="9.16667" stroke-linejoin="round" stroke-miterlimit="10" fill="#F2F2F2"/><rect x="1727.5" y="1339.5" width="567" height="124" stroke="#000000" stroke-width="9.16667" stroke-linejoin="round" stroke-miterlimit="10" fill="#77933C"/><text fill="#FFFFFF" font-family="Arial,Arial_MSFontService,sans-serif" font-weight="400" font-size="83" transform="matrix(1 0 0 1 1802.16 1432)">send buffer</text><rect x="1727.5" y="1508.5" width="567" height="124" stroke="#000000" stroke-width="9.16667" stroke-linejoin="round" stroke-miterlimit="10" fill="#C0504D"/><text fill="#FFFFFF" font-family="Arial,Arial_MSFontService,sans-serif" font-weight="400" font-size="83" transform="matrix(1 0 0 1 1760.16 1601)">receive buffer<tspan fill="#000000" font-weight="700" font-size="83" x="-784.578" y="-331">1</tspan></text><path d="M1546 1399.84 1636.66 1399.84C1639.51 1399.84 1641.82 1402.15 1641.82 1405L1641.82 1570.04 1636.66 1564.88 1701.55 1564.88 1701.55 1575.2 1636.66 1575.2C1633.82 1575.2 1631.51 1572.89 1631.51 1570.04L1631.51 1405 1636.66 1410.16 1546 1410.16ZM1696.39 1554.57 1727.33 1570.04 1696.39 1585.51Z" fill="#215968"/><path d="M0 5.15625-82.4952 5.15625-77.3389 0-77.3389 324.769-82.4952 319.613 2905.71 319.613 2900.56 324.769 2900.56 173.727 2905.71 178.883 2849 178.883 2849 168.57 2905.71 168.57C2908.56 168.57 2910.87 170.879 2910.87 173.727L2910.87 324.769C2910.87 327.617 2908.56 329.926 2905.71 329.926L-82.4952 329.926C-85.3429 329.926-87.6514 327.617-87.6514 324.769L-87.6514 0C-87.6514-2.84772-85.3429-5.15625-82.4952-5.15625L0-5.15625ZM2854.16 189.195 2823.22 173.727 2854.16 158.258Z" fill="#215968" transform="matrix(-1 0 0 1 3056.22 1399)"/><path d="M800 1398.84 889.13 1398.84C891.978 1398.84 894.286 1401.15 894.286 1404L894.286 1574.66 889.13 1569.5 952.479 1569.5 952.479 1579.82 889.13 1579.82C886.282 1579.82 883.974 1577.51 883.974 1574.66L883.974 1404 889.13 1409.16 800 1409.16ZM947.323 1559.19 978.26 1574.66 947.323 1590.13Z" fill="#215968"/><path d="M2294 1395.84 2391.43 1395.84C2394.28 1395.84 2396.59 1398.15 2396.59 1401L2396.59 1567.81 2391.43 1562.65 2463.08 1562.65 2463.08 1572.96 2391.43 1572.96C2388.58 1572.96 2386.27 1570.66 2386.27 1567.81L2386.27 1401 2391.43 1406.16 2294 1406.16ZM2457.92 1552.34 2488.86 1567.81 2457.92 1583.28Z" fill="#215968"/><text font-family="Arial,Arial_MSFontService,sans-serif" font-weight="700" font-size="83" transform="matrix(1 0 0 1 210.099 1265)">0<tspan font-size="83" x="1510.93" y="-7">2</tspan><tspan font-size="83" x="2272.99" y="-10">3</tspan></text></g></svg>