<svg width="2946" height="533" xmlns="http://www.w3.org/2000/svg" xmlns:xlink="http://www.w3.org/1999/xlink" overflow="hidden"><defs><clipPath id="clip0"><rect x="164" y="679" width="2946" height="533"/></clipPath></defs><g clip-path="url(#clip0)" transform="translate(-164 -679)"><rect x="2455.5" y="822.5" width="650" height="379" stroke="#000000" stroke-width="9.16667" stroke-linejoin="round" stroke-miterlimit="10" fill="#F2F2F2"/><rect x="2493.5" y="1036.5" width="568" height="124" stroke="#000000" stroke-width="9.16667" stroke-linejoin="round" stroke-miterlimit="10" fill="#C0504D"/><text fill="#FFFFFF" font-family="Arial,Arial_MSFontService,sans-serif" font-weight="400" font-size="83" transform="matrix(1 0 0 1 2526.69 1129)">receive buffer</text><rect x="199.5" y="827.5" width="650" height="379" stroke="#000000" stroke-width="9.16667" stroke-linejoin="round" stroke-miterlimit="10" fill="#F2F2F2"/><rect x="237.5" y="872.5" width="568" height="124" stroke="#000000" stroke-width="9.16667" stroke-linejoin="round" stroke-miterlimit="10" fill="#77933C"/><text fill="#FFFFFF" font-family="Arial,Arial_MSFontService,sans-serif" font-weight="400" font-size="83" transform="matrix(1 0 0 1 312.667 964)">send buffer</text><rect x="944.5" y="828.5" width="650" height="379" stroke="#000000" stroke-width="9.16667" stroke-linejoin="round" stroke-miterlimit="10" fill="#F2F2F2"/><rect x="983.5" y="874.5" width="567" height="123" stroke="#000000" stroke-width="9.16667" stroke-linejoin="round" stroke-miterlimit="10" fill="#77933C"/><text fill="#FFFFFF" font-family="Arial,Arial_MSFontService,sans-serif" font-weight="400" font-size="83" transform="matrix(1 0 0 1 1058.12 966)">send buffer</text><rect x="983.5" y="1043.5" width="567" height="123" stroke="#000000" stroke-width="9.16667" stroke-linejoin="round" stroke-miterlimit="10" fill="#C0504D"/><text fill="#FFFFFF" font-family="Arial,Arial_MSFontService,sans-serif" font-weight="400" font-size="83" transform="matrix(1 0 0 1 1016.12 1135)">receive buffer</text><rect x="1693.5" y="824.5" width="649" height="379" stroke="#000000" stroke-width="9.16667" stroke-linejoin="round" stroke-miterlimit="10" fill="#F2F2F2"/><rect x="1731.5" y="869.5" width="568" height="124" stroke="#000000" stroke-width="9.16667" stroke-linejoin="round" stroke-miterlimit="10" fill="#77933C"/><text fill="#FFFFFF" font-family="Arial,Arial_MSFontService,sans-serif" font-weight="400" font-size="83" transform="matrix(1 0 0 1 1806.64 962)">send buffer</text><rect x="1731.5" y="1039.5" width="568" height="123" stroke="#000000" stroke-width="9.16667" stroke-linejoin="round" stroke-miterlimit="10" fill="#C0504D"/><text fill="#FFFFFF" font-family="Arial,Arial_MSFontService,sans-serif" font-weight="400" font-size="83" transform="matrix(1 0 0 1 1764.64 1131)">receive buffer<tspan fill="#000000" font-weight="700" font-size="83" x="-784.578" y="-331">1</tspan></text><path d="M1550 929.844 1640.66 929.844C1643.51 929.844 1645.82 932.152 1645.82 935L1645.82 1100.04 1640.66 1094.88 1705.55 1094.88 1705.55 1105.2 1640.66 1105.2C1637.82 1105.2 1635.51 1102.89 1635.51 1100.04L1635.51 935 1640.66 940.156 1550 940.156ZM1700.39 1084.57 1731.33 1100.04 1700.39 1115.51Z" fill="#215968"/><path d="M805 928.844 894.13 928.844C896.978 928.844 899.286 931.152 899.286 934L899.286 1104.66 894.13 1099.5 957.479 1099.5 957.479 1109.82 894.13 1109.82C891.282 1109.82 888.974 1107.51 888.974 1104.66L888.974 934 894.13 939.156 805 939.156ZM952.323 1089.19 983.26 1104.66 952.323 1120.13Z" fill="#215968"/><path d="M2299 925.844 2396.43 925.844C2399.28 925.844 2401.59 928.152 2401.59 931L2401.59 1097.81 2396.43 1092.65 2468.08 1092.65 2468.08 1102.96 2396.43 1102.96C2393.58 1102.96 2391.27 1100.66 2391.27 1097.81L2391.27 931 2396.43 936.156 2299 936.156ZM2462.92 1082.34 2493.86 1097.81 2462.92 1113.28Z" fill="#215968"/><text font-family="Arial,Arial_MSFontService,sans-serif" font-weight="700" font-size="83" transform="matrix(1 0 0 1 214.584 795)">0<tspan font-size="83" x="1510.93" y="-7">2</tspan><tspan font-size="83" x="2272.99" y="-10">3</tspan></text></g></svg>