<svg width="2999" height="752" xmlns="http://www.w3.org/2000/svg" xmlns:xlink="http://www.w3.org/1999/xlink" overflow="hidden"><defs><clipPath id="clip0"><rect x="148" y="171" width="2999" height="752"/></clipPath></defs><g clip-path="url(#clip0)" transform="translate(-148 -171)"><rect x="2453.5" y="314.5" width="650" height="379" stroke="#000000" stroke-width="9.16667" stroke-linejoin="round" stroke-miterlimit="10" stroke-dasharray="36.6667 27.5" fill="#F2F2F2"/><rect x="2492.5" y="359.5" width="567" height="124" stroke="#000000" stroke-width="9.16667" stroke-linejoin="round" stroke-miterlimit="10" fill="#77933C"/><text fill="#FFFFFF" font-family="Arial,Arial_MSFontService,sans-serif" font-weight="400" font-size="83" transform="matrix(1 0 0 1 2567.15 452)">send buffer</text><rect x="2492.5" y="529.5" width="567" height="123" stroke="#000000" stroke-width="9.16667" stroke-linejoin="round" stroke-miterlimit="10" fill="#C0504D"/><text fill="#FFFFFF" font-family="Arial,Arial_MSFontService,sans-serif" font-weight="400" font-size="83" transform="matrix(1 0 0 1 2525.15 621)">receive buffer</text><rect x="197.5" y="319.5" width="650" height="379" stroke="#000000" stroke-width="9.16667" stroke-linejoin="round" stroke-miterlimit="10" stroke-dasharray="36.6667 27.5" fill="#F2F2F2"/><rect x="236.5" y="364.5" width="567" height="124" stroke="#000000" stroke-width="9.16667" stroke-linejoin="round" stroke-miterlimit="10" fill="#77933C"/><text fill="#FFFFFF" font-family="Arial,Arial_MSFontService,sans-serif" font-weight="400" font-size="83" transform="matrix(1 0 0 1 311.125 457)">send buffer</text><rect x="236.5" y="533.5" width="567" height="124" stroke="#000000" stroke-width="9.16667" stroke-linejoin="round" stroke-miterlimit="10" fill="#C0504D"/><text fill="#FFFFFF" font-family="Arial,Arial_MSFontService,sans-serif" font-weight="400" font-size="83" transform="matrix(1 0 0 1 269.126 626)">receive buffer</text><rect x="942.5" y="320.5" width="650" height="380" stroke="#000000" stroke-width="9.16667" stroke-linejoin="round" stroke-miterlimit="10" stroke-dasharray="36.6667 27.5" fill="#F2F2F2"/><rect x="981.5" y="366.5" width="568" height="123" stroke="#000000" stroke-width="9.16667" stroke-linejoin="round" stroke-miterlimit="10" fill="#77933C"/><text fill="#FFFFFF" font-family="Arial,Arial_MSFontService,sans-serif" font-weight="400" font-size="83" transform="matrix(1 0 0 1 1056.58 458)">send buffer</text><rect x="981.5" y="535.5" width="568" height="124" stroke="#000000" stroke-width="9.16667" stroke-linejoin="round" stroke-miterlimit="10" fill="#C0504D"/><text fill="#FFFFFF" font-family="Arial,Arial_MSFontService,sans-serif" font-weight="400" font-size="83" transform="matrix(1 0 0 1 1014.58 627)">receive buffer</text><rect x="1691.5" y="316.5" width="650" height="380" stroke="#000000" stroke-width="9.16667" stroke-linejoin="round" stroke-miterlimit="10" stroke-dasharray="36.6667 27.5" fill="#F2F2F2"/><rect x="1730.5" y="362.5" width="567" height="123" stroke="#000000" stroke-width="9.16667" stroke-linejoin="round" stroke-miterlimit="10" fill="#77933C"/><text fill="#FFFFFF" font-family="Arial,Arial_MSFontService,sans-serif" font-weight="400" font-size="83" transform="matrix(1 0 0 1 1805.1 454)">send buffer</text><rect x="1730.5" y="531.5" width="567" height="123" stroke="#000000" stroke-width="9.16667" stroke-linejoin="round" stroke-miterlimit="10" fill="#C0504D"/><text fill="#FFFFFF" font-family="Arial,Arial_MSFontService,sans-serif" font-weight="400" font-size="83" transform="matrix(1 0 0 1 1763.1 623)">receive buffer<tspan fill="#000000" font-size="83" x="-671.14" y="-331">Rank 1</tspan></text><path d="M1549 422.844 1639.66 422.844C1642.51 422.844 1644.82 425.152 1644.82 428L1644.82 593.04 1639.66 587.883 1704.55 587.883 1704.55 598.196 1639.66 598.196C1636.82 598.196 1634.51 595.887 1634.51 593.04L1634.51 428 1639.66 433.156 1549 433.156ZM1699.39 577.571 1730.33 593.04 1699.39 608.508Z" fill="#215968"/><path d="M0 5.15625-82.4952 5.15625-77.3389 0-77.3389 455.138-82.4952 449.981 2905.71 449.981 2900.56 455.138 2900.56 173.727 2905.71 178.883 2849 178.883 2849 168.57 2905.71 168.57C2908.56 168.57 2910.87 170.879 2910.87 173.727L2910.87 455.138C2910.87 457.985 2908.56 460.294 2905.71 460.294L-82.4952 460.294C-85.3429 460.294-87.6514 457.985-87.6514 455.138L-87.6514 0C-87.6514-2.84772-85.3429-5.15625-82.4952-5.15625L0-5.15625ZM2854.16 189.195 2823.22 173.727 2854.16 158.258Z" fill="#215968" transform="matrix(-1 0 0 1 3059.22 421)"/><path d="M803 420.844 892.13 420.844C894.978 420.844 897.286 423.152 897.286 426L897.286 596.659 892.13 591.503 955.479 591.503 955.479 601.816 892.13 601.816C889.282 601.816 886.974 599.507 886.974 596.659L886.974 426 892.13 431.156 803 431.156ZM950.323 581.191 981.26 596.659 950.323 612.128Z" fill="#215968"/><path d="M2297 418.844 2394.43 418.844C2397.28 418.844 2399.59 421.152 2399.59 424L2399.59 590.808 2394.43 585.652 2466.08 585.652 2466.08 595.965 2394.43 595.965C2391.58 595.965 2389.27 593.656 2389.27 590.808L2389.27 424 2394.43 429.156 2297 429.156ZM2460.92 575.34 2491.86 590.808 2460.92 606.277Z" fill="#215968"/><text font-family="Arial,Arial_MSFontService,sans-serif" font-weight="400" font-size="83" transform="matrix(1 0 0 1 398.667 287)">Rank 0<tspan font-size="83" x="1473.12" y="-7">Rank 2</tspan><tspan font-size="83" x="2221.42" y="-10">Rank 3</tspan><tspan font-size="83" x="983.125" y="567">circular chain</tspan></text></g></svg>