<svg width="2873" height="1317" xmlns="http://www.w3.org/2000/svg" xmlns:xlink="http://www.w3.org/1999/xlink" overflow="hidden"><defs><clipPath id="clip0"><rect x="254" y="307" width="2873" height="1317"/></clipPath></defs><g clip-path="url(#clip0)" transform="translate(-254 -307)"><text fill="#77933C" font-family="Courier New,Courier New_MSFontService,sans-serif" font-weight="700" font-size="83" transform="matrix(1 0 0 1 305.717 622)">sendbuf<tspan fill="#002060" font-size="83" x="12.8252" y="410">MPI_Scatter</tspan><tspan fill="#002060" font-size="83" x="554.825" y="410">(</tspan><tspan fill="#002060" font-size="83" x="604.825" y="410">sendbuf</tspan><tspan fill="#002060" font-size="83" x="948.825" y="410">, 2, MPI_INT, </tspan><tspan fill="#002060" font-size="83" x="1638.83" y="410">recvbuf</tspan><tspan fill="#002060" font-size="83" x="1982.83" y="410">, 2, MPI_INT, </tspan><tspan fill="#002060" font-size="83" x="604.825" y="509">root, MPI_COMM_WORLD)</tspan><tspan fill="#002060" font-size="83" x="2622.78" y="-217">int</tspan><tspan fill="#000000" font-family="Arial,Arial_MSFontService,sans-serif" font-size="83" x="663" y="-150">0</tspan><tspan fill="#000000" font-family="Arial,Arial_MSFontService,sans-serif" font-size="83" x="1413.47" y="-150">1</tspan><tspan fill="#000000" font-family="Arial,Arial_MSFontService,sans-serif" font-size="83" x="2280.51" y="-150">2</tspan><tspan fill="#002060" font-size="83" x="-0.721802" y="-157">rank</tspan><tspan fill="#002060" font-size="83" x="1699.82" y="-217">root</tspan></text><path d="M0 0 160.344 61.3492" stroke="#215968" stroke-width="10.3125" stroke-linejoin="round" stroke-miterlimit="10" fill="none" fill-rule="evenodd" transform="matrix(1 0 0 -1 1810 452.349)"/><rect x="880.5" y="724.5" width="117" height="117" stroke="#000000" stroke-width="9.16667" stroke-linejoin="round" stroke-miterlimit="10" fill="#F2F2F2"/><rect x="995.5" y="724.5" width="116" height="117" stroke="#000000" stroke-width="9.16667" stroke-linejoin="round" stroke-miterlimit="10" fill="#F2F2F2"/><text fill="#C0504D" font-family="Courier New,Courier New_MSFontService,sans-serif" font-weight="700" font-size="83" transform="matrix(1 0 0 1 307.893 805)">recvbuf<tspan fill="#77933C" font-size="83" x="-1.91455" y="528">sendbuf</tspan><tspan font-size="83" x="0.261993" y="716">recvbuf</tspan></text><rect x="1391.5" y="534.5" width="117" height="116" stroke="#000000" stroke-width="9.16667" stroke-linejoin="round" stroke-miterlimit="10" fill="#F2F2F2"/><text fill="#002060" font-family="Courier New,Courier New_MSFontService,sans-serif" font-weight="700" font-size="83" transform="matrix(1 0 0 1 1424.14 615)">1</text><rect x="1508.5" y="534.5" width="116" height="116" stroke="#000000" stroke-width="9.16667" stroke-linejoin="round" stroke-miterlimit="10" fill="#F2F2F2"/><text fill="#002060" font-family="Courier New,Courier New_MSFontService,sans-serif" font-weight="700" font-size="83" transform="matrix(1 0 0 1 1540.57 615)">2</text><rect x="1625.5" y="534.5" width="117" height="116" stroke="#000000" stroke-width="9.16667" stroke-linejoin="round" stroke-miterlimit="10" fill="#F2F2F2"/><text fill="#002060" font-family="Courier New,Courier New_MSFontService,sans-serif" font-weight="700" font-size="83" transform="matrix(1 0 0 1 1658.18 615)">3</text><rect x="1740.5" y="534.5" width="117" height="116" stroke="#000000" stroke-width="9.16667" stroke-linejoin="round" stroke-miterlimit="10" fill="#F2F2F2"/><text fill="#002060" font-family="Courier New,Courier New_MSFontService,sans-serif" font-weight="700" font-size="83" transform="matrix(1 0 0 1 1773.27 615)">4</text><rect x="1859.5" y="533.5" width="116" height="117" stroke="#000000" stroke-width="9.16667" stroke-linejoin="round" stroke-miterlimit="10" fill="#F2F2F2"/><text fill="#002060" font-family="Courier New,Courier New_MSFontService,sans-serif" font-weight="700" font-size="83" transform="matrix(1 0 0 1 1892.05 615)">5</text><rect x="1976.5" y="533.5" width="116" height="117" stroke="#000000" stroke-width="9.16667" stroke-linejoin="round" stroke-miterlimit="10" fill="#F2F2F2"/><text fill="#002060" font-family="Courier New,Courier New_MSFontService,sans-serif" font-weight="700" font-size="83" transform="matrix(1 0 0 1 2008.52 615)">6</text><rect x="1629.5" y="724.5" width="116" height="116" stroke="#000000" stroke-width="9.16667" stroke-linejoin="round" stroke-miterlimit="10" fill="#F2F2F2"/><rect x="1743.5" y="724.5" width="117" height="116" stroke="#000000" stroke-width="9.16667" stroke-linejoin="round" stroke-miterlimit="10" fill="#F2F2F2"/><rect x="2494.5" y="724.5" width="116" height="116" stroke="#000000" stroke-width="9.16667" stroke-linejoin="round" stroke-miterlimit="10" fill="#F2F2F2"/><rect x="2609.5" y="724.5" width="116" height="116" stroke="#000000" stroke-width="9.16667" stroke-linejoin="round" stroke-miterlimit="10" fill="#F2F2F2"/><path d="M0 0 339.262 340.757" stroke="#215968" stroke-width="10.3125" stroke-linejoin="round" stroke-miterlimit="10" fill="none" fill-rule="evenodd" transform="matrix(1 0 0 -1 2663 772.758)"/><rect x="1396.5" y="1249.5" width="117" height="116" stroke="#000000" stroke-width="9.16667" stroke-linejoin="round" stroke-miterlimit="10" fill="#F2F2F2"/><text fill="#002060" font-family="Courier New,Courier New_MSFontService,sans-serif" font-weight="700" font-size="83" transform="matrix(1 0 0 1 1429.22 1330)">1</text><rect x="1513.5" y="1249.5" width="116" height="116" stroke="#000000" stroke-width="9.16667" stroke-linejoin="round" stroke-miterlimit="10" fill="#F2F2F2"/><text fill="#002060" font-family="Courier New,Courier New_MSFontService,sans-serif" font-weight="700" font-size="83" transform="matrix(1 0 0 1 1545.65 1330)">2</text><rect x="1627.5" y="1249.5" width="117" height="116" stroke="#000000" stroke-width="9.16667" stroke-linejoin="round" stroke-miterlimit="10" fill="#F2F2F2"/><text fill="#002060" font-family="Courier New,Courier New_MSFontService,sans-serif" font-weight="700" font-size="83" transform="matrix(1 0 0 1 1660.49 1330)">3</text><rect x="1743.5" y="1249.5" width="116" height="116" stroke="#000000" stroke-width="9.16667" stroke-linejoin="round" stroke-miterlimit="10" fill="#F2F2F2"/><text fill="#002060" font-family="Courier New,Courier New_MSFontService,sans-serif" font-weight="700" font-size="83" transform="matrix(1 0 0 1 1775.58 1330)">4</text><rect x="1859.5" y="1248.5" width="116" height="117" stroke="#000000" stroke-width="9.16667" stroke-linejoin="round" stroke-miterlimit="10" fill="#F2F2F2"/><text fill="#002060" font-family="Courier New,Courier New_MSFontService,sans-serif" font-weight="700" font-size="83" transform="matrix(1 0 0 1 1891.59 1330)">5</text><rect x="1975.5" y="1248.5" width="116" height="117" stroke="#000000" stroke-width="9.16667" stroke-linejoin="round" stroke-miterlimit="10" fill="#F2F2F2"/><text fill="#002060" font-family="Courier New,Courier New_MSFontService,sans-serif" font-weight="700" font-size="83" transform="matrix(1 0 0 1 2008.06 1330)">6</text><rect x="880.5" y="1453.5" width="116" height="117" stroke="#000000" stroke-width="9.16667" stroke-linejoin="round" stroke-miterlimit="10" fill="#F2F2F2"/><text font-family="Arial,Arial_MSFontService,sans-serif" font-weight="400" font-size="83" transform="matrix(1 0 0 1 914.943 1542)">1</text><rect x="995.5" y="1453.5" width="116" height="117" stroke="#000000" stroke-width="9.16667" stroke-linejoin="round" stroke-miterlimit="10" fill="#F2F2F2"/><text font-family="Arial,Arial_MSFontService,sans-serif" font-weight="400" font-size="83" transform="matrix(1 0 0 1 1029.58 1542)">2</text><rect x="1629.5" y="1466.5" width="116" height="116" stroke="#000000" stroke-width="9.16667" stroke-linejoin="round" stroke-miterlimit="10" fill="#F2F2F2"/><text font-family="Arial,Arial_MSFontService,sans-serif" font-weight="400" font-size="83" transform="matrix(1 0 0 1 1663.68 1554)">3</text><rect x="1743.5" y="1466.5" width="117" height="116" stroke="#000000" stroke-width="9.16667" stroke-linejoin="round" stroke-miterlimit="10" fill="#F2F2F2"/><text font-family="Arial,Arial_MSFontService,sans-serif" font-weight="400" font-size="83" transform="matrix(1 0 0 1 1778.32 1554)">4</text><rect x="2493.5" y="1453.5" width="116" height="117" stroke="#000000" stroke-width="9.16667" stroke-linejoin="round" stroke-miterlimit="10" fill="#F2F2F2"/><text font-family="Arial,Arial_MSFontService,sans-serif" font-weight="400" font-size="83" transform="matrix(1 0 0 1 2527.53 1542)">5</text><rect x="2607.5" y="1453.5" width="117" height="117" stroke="#000000" stroke-width="9.16667" stroke-linejoin="round" stroke-miterlimit="10" fill="#F2F2F2"/><text font-family="Arial,Arial_MSFontService,sans-serif" font-weight="400" font-size="83" transform="matrix(1 0 0 1 2642.16 1542)">6</text></g></svg>