<svg width="2921" height="1563" xmlns="http://www.w3.org/2000/svg" xmlns:xlink="http://www.w3.org/1999/xlink" overflow="hidden"><defs><clipPath id="clip0"><rect x="141" y="168" width="2921" height="1563"/></clipPath></defs><g clip-path="url(#clip0)" transform="translate(-141 -168)"><text fill="#4BACC6" font-family="Courier New,Courier New_MSFontService,sans-serif" font-weight="700" font-size="64" transform="matrix(1 0 0 1 186.326 803)">displs<tspan fill="#002060" font-size="73" x="4.23254" y="488">MPI_Scatterv</tspan><tspan fill="#002060" font-size="73" x="532.233" y="488">() </tspan><tspan fill="#000000" font-family="Arial,Arial_MSFontService,sans-serif" font-size="73" x="666.233" y="488">with root = 1</tspan><tspan fill="#000000" font-family="Arial,Arial_MSFontService,sans-serif" font-size="83" x="517.88" y="-529">0</tspan><tspan fill="#000000" font-family="Arial,Arial_MSFontService,sans-serif" font-size="83" x="925.644" y="-529">1</tspan><tspan fill="#000000" font-family="Arial,Arial_MSFontService,sans-serif" font-size="83" x="2075.72" y="-529">2</tspan><tspan fill="#000000" font-family="Arial,Arial_MSFontService,sans-serif" font-size="83" x="2599.32" y="-529">3</tspan><tspan fill="#002060" font-size="64" x="0.986862" y="-419">rank</tspan><tspan fill="#002060" font-size="64" x="0.187485" y="-291">sendbuf</tspan><tspan fill="#C0504D" font-size="64" x="-5.28616" y="-128">sendcounts</tspan><tspan fill="#002060" font-size="64" x="-5.84843" y="144">recvbuf</tspan><tspan fill="#002060" font-size="64" x="0.562271" y="290">recvcount</tspan></text><rect x="1103.5" y="863.5" width="114" height="115" stroke="#000000" stroke-width="9.16667" stroke-linejoin="round" stroke-miterlimit="10" fill="#F2F2F2"/><rect x="815.5" y="863.5" width="114" height="115" stroke="#000000" stroke-width="9.16667" stroke-linejoin="round" stroke-miterlimit="10" fill="#F2F2F2"/><rect x="706.5" y="863.5" width="115" height="115" stroke="#000000" stroke-width="9.16667" stroke-linejoin="round" stroke-miterlimit="10" fill="#F2F2F2"/><rect x="1111.5" y="427.5" width="114" height="115" stroke="#000000" stroke-width="9.16667" stroke-linejoin="round" stroke-miterlimit="10" fill="#E6E0EC"/><text fill="#8064A2" font-family="Courier New,Courier New_MSFontService,sans-serif" font-weight="700" font-size="83" transform="matrix(1 0 0 1 1143.42 508)">1</text><rect x="1226.5" y="427.5" width="114" height="115" stroke="#000000" stroke-width="9.16667" stroke-linejoin="round" stroke-miterlimit="10" fill="#DCE6F2"/><text fill="#4F81BD" font-family="Courier New,Courier New_MSFontService,sans-serif" font-weight="700" font-size="83" transform="matrix(1 0 0 1 1258.48 508)">2</text><rect x="1340.5" y="427.5" width="115" height="115" stroke="#000000" stroke-width="9.16667" stroke-linejoin="round" stroke-miterlimit="10" fill="#DCE6F2"/><text fill="#4F81BD" font-family="Courier New,Courier New_MSFontService,sans-serif" font-weight="700" font-size="83" transform="matrix(1 0 0 1 1372.97 508)">3</text><rect x="1455.5" y="427.5" width="114" height="115" stroke="#000000" stroke-width="9.16667" stroke-linejoin="round" stroke-miterlimit="10" fill="#DCE6F2"/><text fill="#4F81BD" font-family="Courier New,Courier New_MSFontService,sans-serif" font-weight="700" font-size="83" transform="matrix(1 0 0 1 1487.46 508)">4</text><rect x="1565.5" y="427.5" width="115" height="115" stroke="#000000" stroke-width="9.16667" stroke-linejoin="round" stroke-miterlimit="10" fill="#EBF1DE"/><text fill="#9BBB59" font-family="Courier New,Courier New_MSFontService,sans-serif" font-weight="700" font-size="83" transform="matrix(1 0 0 1 1597.97 508)">5</text><rect x="1682.5" y="427.5" width="115" height="115" stroke="#000000" stroke-width="9.16667" stroke-linejoin="round" stroke-miterlimit="10" fill="#DDD9C3"/><text fill="#948A54" font-family="Courier New,Courier New_MSFontService,sans-serif" font-weight="700" font-size="83" transform="matrix(1 0 0 1 1714.84 508)">6</text><rect x="1797.5" y="427.5" width="114" height="115" stroke="#000000" stroke-width="9.16667" stroke-linejoin="round" stroke-miterlimit="10" fill="#DDD9C3"/><text fill="#948A54" font-family="Courier New,Courier New_MSFontService,sans-serif" font-weight="700" font-size="83" transform="matrix(1 0 0 1 1829.32 508)">7</text><rect x="1111.5" y="573.5" width="114" height="114" stroke="#000000" stroke-width="9.16667" stroke-linejoin="round" stroke-miterlimit="10" fill="#F2F2F2"/><text fill="#948A54" font-family="Courier New,Courier New_MSFontService,sans-serif" font-weight="700" font-size="83" transform="matrix(1 0 0 1 1143.42 654)">2</text><rect x="1226.5" y="573.5" width="114" height="114" stroke="#000000" stroke-width="9.16667" stroke-linejoin="round" stroke-miterlimit="10" fill="#F2F2F2"/><text fill="#9BBB59" font-family="Courier New,Courier New_MSFontService,sans-serif" font-weight="700" font-size="83" transform="matrix(1 0 0 1 1258.2 654)">1</text><rect x="1340.5" y="573.5" width="115" height="114" stroke="#000000" stroke-width="9.16667" stroke-linejoin="round" stroke-miterlimit="10" fill="#F2F2F2"/><text fill="#4F81BD" font-family="Courier New,Courier New_MSFontService,sans-serif" font-weight="700" font-size="83" transform="matrix(1 0 0 1 1372.97 654)">3</text><rect x="1455.5" y="573.5" width="114" height="114" stroke="#000000" stroke-width="9.16667" stroke-linejoin="round" stroke-miterlimit="10" fill="#F2F2F2"/><text fill="#8064A2" font-family="Courier New,Courier New_MSFontService,sans-serif" font-weight="700" font-size="83" transform="matrix(1 0 0 1 1487.46 654)">1</text><rect x="1105.5" y="719.5" width="114" height="115" stroke="#000000" stroke-width="9.16667" stroke-linejoin="round" stroke-miterlimit="10" fill="#F2F2F2"/><text fill="#948A54" font-family="Courier New,Courier New_MSFontService,sans-serif" font-weight="700" font-size="83" transform="matrix(1 0 0 1 1137.5 800)">5</text><rect x="1220.5" y="719.5" width="114" height="115" stroke="#000000" stroke-width="9.16667" stroke-linejoin="round" stroke-miterlimit="10" fill="#F2F2F2"/><text fill="#9BBB59" font-family="Courier New,Courier New_MSFontService,sans-serif" font-weight="700" font-size="83" transform="matrix(1 0 0 1 1252.28 800)">4</text><rect x="1334.5" y="719.5" width="115" height="115" stroke="#000000" stroke-width="9.16667" stroke-linejoin="round" stroke-miterlimit="10" fill="#F2F2F2"/><text fill="#4F81BD" font-family="Courier New,Courier New_MSFontService,sans-serif" font-weight="700" font-size="83" transform="matrix(1 0 0 1 1367.05 800)">1</text><rect x="1449.5" y="719.5" width="114" height="115" stroke="#000000" stroke-width="9.16667" stroke-linejoin="round" stroke-miterlimit="10" fill="#F2F2F2"/><text fill="#8064A2" font-family="Courier New,Courier New_MSFontService,sans-serif" font-weight="700" font-size="83" transform="matrix(1 0 0 1 1481.54 800)">0</text><rect x="2264.5" y="861.5" width="114" height="115" stroke="#000000" stroke-width="9.16667" stroke-linejoin="round" stroke-miterlimit="10" fill="#F2F2F2"/><rect x="2378.5" y="861.5" width="115" height="115" stroke="#000000" stroke-width="9.16667" stroke-linejoin="round" stroke-miterlimit="10" fill="#F2F2F2"/><rect x="2787.5" y="861.5" width="115" height="115" stroke="#000000" stroke-width="9.16667" stroke-linejoin="round" stroke-miterlimit="10" fill="#F2F2F2"/><rect x="2495.5" y="861.5" width="114" height="115" stroke="#000000" stroke-width="9.16667" stroke-linejoin="round" stroke-miterlimit="10" fill="#F2F2F2"/><rect x="1101.5" y="1009.5" width="114" height="115" stroke="#000000" stroke-width="9.16667" stroke-linejoin="round" stroke-miterlimit="10" fill="#F2F2F2"/><text fill="#002060" font-family="Courier New,Courier New_MSFontService,sans-serif" font-weight="700" font-size="83" transform="matrix(1 0 0 1 1133.39 1090)">1</text><rect x="704.5" y="1009.5" width="114" height="115" stroke="#000000" stroke-width="9.16667" stroke-linejoin="round" stroke-miterlimit="10" fill="#F2F2F2"/><text fill="#002060" font-family="Courier New,Courier New_MSFontService,sans-serif" font-weight="700" font-size="83" transform="matrix(1 0 0 1 736.592 1090)">2</text><rect x="2262.5" y="1007.5" width="114" height="115" stroke="#000000" stroke-width="9.16667" stroke-linejoin="round" stroke-miterlimit="10" fill="#F2F2F2"/><text fill="#002060" font-family="Courier New,Courier New_MSFontService,sans-serif" font-weight="700" font-size="83" transform="matrix(1 0 0 1 2294.44 1088)">3</text><rect x="2785.5" y="1007.5" width="115" height="115" stroke="#000000" stroke-width="9.16667" stroke-linejoin="round" stroke-miterlimit="10" fill="#F2F2F2"/><text fill="#002060" font-family="Courier New,Courier New_MSFontService,sans-serif" font-weight="700" font-size="83" transform="matrix(1 0 0 1 2818.03 1088)">1</text><rect x="1104.5" y="1427.5" width="114" height="114" stroke="#000000" stroke-width="9.16667" stroke-linejoin="round" stroke-miterlimit="10" fill="#EBF1DE"/><text fill="#9BBB59" font-family="Courier New,Courier New_MSFontService,sans-serif" font-weight="700" font-size="83" transform="matrix(1 0 0 1 1136.59 1508)">5</text><rect x="816.5" y="1427.5" width="115" height="114" stroke="#000000" stroke-width="9.16667" stroke-linejoin="round" stroke-miterlimit="10" fill="#DDD9C3"/><text fill="#948A54" font-family="Courier New,Courier New_MSFontService,sans-serif" font-weight="700" font-size="83" transform="matrix(1 0 0 1 848.715 1508)">7</text><rect x="707.5" y="1427.5" width="115" height="114" stroke="#000000" stroke-width="9.16667" stroke-linejoin="round" stroke-miterlimit="10" fill="#DDD9C3"/><text fill="#948A54" font-family="Courier New,Courier New_MSFontService,sans-serif" font-weight="700" font-size="83" transform="matrix(1 0 0 1 739.789 1508)">6</text><rect x="2265.5" y="1425.5" width="115" height="114" stroke="#000000" stroke-width="9.16667" stroke-linejoin="round" stroke-miterlimit="10" fill="#DCE6F2"/><text fill="#4F81BD" font-family="Courier New,Courier New_MSFontService,sans-serif" font-weight="700" font-size="83" transform="matrix(1 0 0 1 2297.63 1505)">2</text><rect x="2379.5" y="1425.5" width="115" height="114" stroke="#000000" stroke-width="9.16667" stroke-linejoin="round" stroke-miterlimit="10" fill="#DCE6F2"/><text fill="#4F81BD" font-family="Courier New,Courier New_MSFontService,sans-serif" font-weight="700" font-size="83" transform="matrix(1 0 0 1 2412.01 1505)">3</text><rect x="2789.5" y="1425.5" width="114" height="114" stroke="#000000" stroke-width="9.16667" stroke-linejoin="round" stroke-miterlimit="10" fill="#E6E0EC"/><text fill="#8064A2" font-family="Courier New,Courier New_MSFontService,sans-serif" font-weight="700" font-size="83" transform="matrix(1 0 0 1 2821.23 1505)">1</text><rect x="2496.5" y="1425.5" width="114" height="114" stroke="#000000" stroke-width="9.16667" stroke-linejoin="round" stroke-miterlimit="10" fill="#DCE6F2"/><text fill="#4F81BD" font-family="Courier New,Courier New_MSFontService,sans-serif" font-weight="700" font-size="83" transform="matrix(1 0 0 1 2528.26 1505)">4</text><rect x="1102.5" y="1573.5" width="114" height="114" stroke="#000000" stroke-width="9.16667" stroke-linejoin="round" stroke-miterlimit="10" fill="#F2F2F2"/><text font-family="Courier New,Courier New_MSFontService,sans-serif" font-weight="700" font-size="83" transform="matrix(1 0 0 1 1134.53 1654)">1</text><rect x="705.5" y="1573.5" width="115" height="114" stroke="#000000" stroke-width="9.16667" stroke-linejoin="round" stroke-miterlimit="10" fill="#F2F2F2"/><text font-family="Courier New,Courier New_MSFontService,sans-serif" font-weight="700" font-size="83" transform="matrix(1 0 0 1 737.731 1654)">2</text><rect x="2263.5" y="1571.5" width="114" height="114" stroke="#000000" stroke-width="9.16667" stroke-linejoin="round" stroke-miterlimit="10" fill="#F2F2F2"/><text font-family="Courier New,Courier New_MSFontService,sans-serif" font-weight="700" font-size="83" transform="matrix(1 0 0 1 2295.57 1651)">3</text><rect x="2787.5" y="1571.5" width="114" height="114" stroke="#000000" stroke-width="9.16667" stroke-linejoin="round" stroke-miterlimit="10" fill="#F2F2F2"/><text font-family="Courier New,Courier New_MSFontService,sans-serif" font-weight="700" font-size="83" transform="matrix(1 0 0 1 2819.17 1651)">1<tspan fill="#002060" font-size="64" x="-2632.66" y="-134">recvbuf</tspan><tspan fill="#002060" font-size="64" x="-2633.84" y="2">recvcount</tspan><tspan font-size="64" x="-1672.5" y="-1261">0</tspan><tspan font-size="64" x="-1557.45" y="-1261">1</tspan><tspan font-size="64" x="-1442.96" y="-1262">2</tspan><tspan font-size="64" x="-1328.47" y="-1262">3</tspan><tspan font-size="64" x="-1213.55" y="-1262">4</tspan><tspan font-size="64" x="-1101.09" y="-1262">5</tspan><tspan font-size="64" x="-986.601" y="-1262">6</tspan><tspan font-size="55" x="-1906.86" y="-1266">index</tspan></text><path d="M184 1180 3053.46 1180" stroke="#A6A6A6" stroke-width="10.3125" stroke-linejoin="round" stroke-miterlimit="10" fill="none" fill-rule="evenodd"/><path d="M187 1363 3056.46 1363" stroke="#A6A6A6" stroke-width="10.3125" stroke-linejoin="round" stroke-miterlimit="10" fill="none" fill-rule="evenodd"/></g></svg>