<svg width="2294" height="770" xmlns="http://www.w3.org/2000/svg" xmlns:xlink="http://www.w3.org/1999/xlink" overflow="hidden"><defs><clipPath id="clip0"><rect x="455" y="990" width="2294" height="770"/></clipPath></defs><g clip-path="url(#clip0)" transform="translate(-455 -990)"><path d="M707.5 1631.06 2697.58 1631.06 2697.58 1637.94 707.5 1637.94ZM2693 1620.75 2720.5 1634.5 2693 1648.25Z"/><text font-family="Arial,Arial_MSFontService,sans-serif" font-weight="400" font-size="64" transform="matrix(1 0 0 1 2530.79 1706)">time</text><rect x="707.5" y="1469.5" width="1916" height="123" stroke="#000000" stroke-width="4.58333" stroke-linejoin="round" stroke-miterlimit="10" fill="#77933C"/><text fill="#FFFFFF" font-family="Consolas,Consolas_MSFontService,sans-serif" font-weight="400" font-size="64" transform="matrix(1 0 0 1 1592.94 1553)">Send</text><path d="M641 1531 707 1531" stroke="#000000" stroke-width="5.72917" stroke-linejoin="round" stroke-miterlimit="10" fill="none" fill-rule="evenodd"/><path d="M643 1053 709 1053" stroke="#000000" stroke-width="5.72917" stroke-linejoin="round" stroke-miterlimit="10" fill="none" fill-rule="evenodd"/><rect x="709.5" y="992.5" width="594" height="123" stroke="#000000" stroke-width="4.58333" stroke-linejoin="round" stroke-miterlimit="10" fill="#C0504D"/><text fill="#FFFFFF" font-family="Consolas,Consolas_MSFontService,sans-serif" font-weight="400" font-size="64" transform="matrix(1 0 0 1 931.84 1075)">Recv</text><rect x="709.5" y="1151.5" width="594" height="123" stroke="#000000" stroke-width="4.58333" stroke-linejoin="round" stroke-miterlimit="10" fill="#77933C"/><text fill="#FFFFFF" font-family="Consolas,Consolas_MSFontService,sans-serif" font-weight="400" font-size="64" transform="matrix(1 0 0 1 932.153 1234)">Send</text><path d="M643 1212 709 1212" stroke="#000000" stroke-width="5.72917" stroke-linejoin="round" stroke-miterlimit="10" fill="none" fill-rule="evenodd"/><rect x="1368.5" y="1151.5" width="594" height="123" stroke="#000000" stroke-width="4.58333" stroke-linejoin="round" stroke-miterlimit="10" fill="#C0504D"/><text fill="#FFFFFF" font-family="Consolas,Consolas_MSFontService,sans-serif" font-weight="400" font-size="64" transform="matrix(1 0 0 1 1591.43 1234)">Recv</text><path d="M1304 1212 1370 1212" stroke="#000000" stroke-width="5.72917" stroke-linejoin="round" stroke-miterlimit="10" fill="none" fill-rule="evenodd"/><rect x="709.5" y="1310.5" width="1253" height="123" stroke="#000000" stroke-width="4.58333" stroke-linejoin="round" stroke-miterlimit="10" fill="#77933C"/><text fill="#FFFFFF" font-family="Consolas,Consolas_MSFontService,sans-serif" font-weight="400" font-size="64" transform="matrix(1 0 0 1 1261.79 1393)">Send</text><path d="M643 1372 709 1372" stroke="#000000" stroke-width="5.72917" stroke-linejoin="round" stroke-miterlimit="10" fill="none" fill-rule="evenodd"/><rect x="2029.5" y="1310.5" width="594" height="123" stroke="#000000" stroke-width="4.58333" stroke-linejoin="round" stroke-miterlimit="10" fill="#C0504D"/><text fill="#FFFFFF" font-family="Consolas,Consolas_MSFontService,sans-serif" font-weight="400" font-size="64" transform="matrix(1 0 0 1 2252.55 1393)">Recv</text><path d="M1962 1370 2028 1370" stroke="#000000" stroke-width="5.72917" stroke-linejoin="round" stroke-miterlimit="10" fill="none" fill-rule="evenodd"/><text font-family="Arial,Arial_MSFontService,sans-serif" font-weight="700" font-size="64" transform="matrix(1 0 0 1 590.656 1081)">3<tspan font-size="64" x="0" y="153">2</tspan><tspan font-size="64" x="0" y="314">1</tspan><tspan font-size="64" x="0" y="473">0</tspan></text><path d="M557.063 1556.5 557.063 1150.42 563.938 1150.42 563.938 1556.5ZM546.751 1155 560.501 1127.5 574.251 1155Z"/><text font-family="Arial,Arial_MSFontService,sans-serif" font-weight="400" font-size="64" transform="matrix(1 0 0 1 494.154 1638)">Rank</text></g></svg>