<svg width="2120" height="773" xmlns="http://www.w3.org/2000/svg" xmlns:xlink="http://www.w3.org/1999/xlink" overflow="hidden"><defs><clipPath id="clip0"><rect x="1093" y="868" width="2120" height="773"/></clipPath><linearGradient x1="2325" y1="919.5" x2="1426" y2="919.5" gradientUnits="userSpaceOnUse" spreadMethod="reflect" id="fill1"><stop offset="0" stop-color="#FFFFFF"/><stop offset="0.15044" stop-color="#FFFFFF"/><stop offset="0.61" stop-color="#B7DEE8"/><stop offset="1" stop-color="#B7DEE8"/></linearGradient></defs><g clip-path="url(#clip0)" transform="translate(-1093 -868)"><path d="M1115.5 1002.5 3184.66 1002.5" stroke="#000000" stroke-width="9.16667" stroke-linejoin="round" stroke-miterlimit="10" fill="none" fill-rule="evenodd"/><path d="M1115.5 1059.5 3184.66 1059.5" stroke="#000000" stroke-width="9.16667" stroke-linejoin="round" stroke-miterlimit="10" fill="none" fill-rule="evenodd"/><text font-family="Arial,Arial_MSFontService,sans-serif" font-weight="400" font-size="41" transform="matrix(1 0 0 1 1125.85 1044)">MPI</text><path d="M1115.5 872.5 3184.66 872.5" stroke="#000000" stroke-width="9.16667" stroke-linejoin="round" stroke-miterlimit="10" fill="none" fill-rule="evenodd"/><path d="M1115.5 966.5 3184.66 966.5" stroke="#000000" stroke-width="9.16667" stroke-linejoin="round" stroke-miterlimit="10" fill="none" fill-rule="evenodd"/><text font-family="Arial,Arial_MSFontService,sans-serif" font-weight="400" font-size="41" transform="matrix(1 0 0 1 1125.85 928)">process<tspan font-size="41" x="156" y="0">A</tspan></text><path d="M1423.5 872.5 1423.5 966.552" stroke="#000000" stroke-width="9.16667" stroke-linejoin="round" stroke-miterlimit="10" fill="none" fill-rule="evenodd"/><rect x="1426" y="878" width="899" height="83.0002" fill="url(#fill1)"/><text font-family="Arial,Arial_MSFontService,sans-serif" font-weight="400" font-size="41" transform="matrix(1 0 0 1 1472.29 931)">MPI_SEND (blocking)<tspan font-size="41" x="1224.55" y="-2">Continues</tspan></text><path d="M1115.5 1330.5 3184.66 1330.5" stroke="#000000" stroke-width="9.16667" stroke-linejoin="round" stroke-miterlimit="10" fill="none" fill-rule="evenodd"/><path d="M1115.5 1386.5 3184.66 1386.5" stroke="#000000" stroke-width="9.16667" stroke-linejoin="round" stroke-miterlimit="10" fill="none" fill-rule="evenodd"/><text font-family="Arial,Arial_MSFontService,sans-serif" font-weight="400" font-size="41" transform="matrix(1 0 0 1 1125.85 1371)">MPI</text><path d="M1115.5 1413.5 3184.66 1413.5" stroke="#000000" stroke-width="9.16667" stroke-linejoin="round" stroke-miterlimit="10" fill="none" fill-rule="evenodd"/><path d="M1115.5 1507.5 3184.66 1507.5" stroke="#000000" stroke-width="9.16667" stroke-linejoin="round" stroke-miterlimit="10" fill="none" fill-rule="evenodd"/><text font-family="Arial,Arial_MSFontService,sans-serif" font-weight="400" font-size="41" transform="matrix(1 0 0 1 1125.85 1469)">process<tspan font-size="41" x="156" y="0">B</tspan></text><path d="M1423.5 1062.5 1423.5 1156.55" stroke="#000000" stroke-width="9.16667" stroke-linejoin="round" stroke-miterlimit="10" fill="none" fill-rule="evenodd"/><path d="M1733.5 1063.5 1733.5 1157.55" stroke="#000000" stroke-width="9.16667" stroke-linejoin="round" stroke-miterlimit="10" fill="none" fill-rule="evenodd"/><text font-family="Arial,Arial_MSFontService,sans-serif" font-weight="400" font-size="41" transform="matrix(1 0 0 1 1270.64 1125)">Match?<tspan font-size="41" x="316.352" y="-3">Buffer?</tspan></text><path d="M1424.5 1002.5 1424.5 1058.93" stroke="#000000" stroke-width="9.16667" stroke-linejoin="round" stroke-miterlimit="10" fill="none" fill-rule="evenodd"/><path d="M2890.5 1002.5 2890.5 1058.93" stroke="#000000" stroke-width="9.16667" stroke-linejoin="round" stroke-miterlimit="10" fill="none" fill-rule="evenodd"/><rect x="1426" y="1006" width="1461" height="49.9998" fill="#B7DEE8"/><path d="M2111.5 1330.5 2111.5 1386.93" stroke="#000000" stroke-width="9.16667" stroke-linejoin="round" stroke-miterlimit="10" fill="none" fill-rule="evenodd"/><path d="M2891.5 1327.5 2891.5 1383.93" stroke="#000000" stroke-width="9.16667" stroke-linejoin="round" stroke-miterlimit="10" fill="none" fill-rule="evenodd"/><rect x="2114" y="1333" width="774" height="49.9999" fill="#B7DEE8"/><path d="M2110.5 1413.5 2110.5 1507.55" stroke="#000000" stroke-width="9.16667" stroke-linejoin="round" stroke-miterlimit="10" fill="none" fill-rule="evenodd"/><path d="M2891.5 1413.5 2891.5 1507.55" stroke="#000000" stroke-width="9.16667" stroke-linejoin="round" stroke-miterlimit="10" fill="none" fill-rule="evenodd"/><rect x="2113" y="1417" width="774" height="88" fill="#B7DEE8"/><text font-family="Arial,Arial_MSFontService,sans-serif" font-weight="400" font-size="41" transform="matrix(1 0 0 1 2273.49 1474)">MPI_RECV (blocking)<tspan font-size="41" x="656.688" y="-1">continues</tspan></text><path d="M1115.5 1542.92 3161.74 1542.92 3161.74 1552.08 1115.5 1552.08ZM3157.16 1533.75 3184.66 1547.5 3157.16 1561.25Z" fill="#49702E"/><text fill="#49702E" font-family="Arial,Arial_MSFontService,sans-serif" font-weight="400" font-size="41" transform="matrix(1 0 0 1 3054.41 1606)">time</text><path d="M2245.5 1058.5 2245.5 1152.55" stroke="#000000" stroke-width="9.16667" stroke-linejoin="round" stroke-miterlimit="10" fill="none" fill-rule="evenodd"/><text font-family="Arial,Arial_MSFontService,sans-serif" font-weight="400" font-size="41" transform="matrix(1 0 0 1 1945.38 1118)">Synchronous?</text></g></svg>