<?xml version="1.0" encoding="UTF-8" standalone="no"?>
<svg
   width="1650"
   height="1065"
   overflow="hidden"
   version="1.1"
   id="svg13"
   sodipodi:docname="subcommunicator.svg"
   inkscape:version="1.3.2 (1:1.3.2+202311252150+091e20ef0f)"
   xmlns:inkscape="http://www.inkscape.org/namespaces/inkscape"
   xmlns:sodipodi="http://sodipodi.sourceforge.net/DTD/sodipodi-0.dtd"
   xmlns="http://www.w3.org/2000/svg"
   xmlns:svg="http://www.w3.org/2000/svg"
   xmlns:ns8="http://www.iki.fi/pav/software/textext/">
  <sodipodi:namedview
     id="namedview13"
     pagecolor="#ffffff"
     bordercolor="#666666"
     borderopacity="1.0"
     inkscape:showpageshadow="2"
     inkscape:pageopacity="0.0"
     inkscape:pagecheckerboard="0"
     inkscape:deskcolor="#d1d1d1"
     inkscape:zoom="1.1476306"
     inkscape:cx="824.74275"
     inkscape:cy="639.14296"
     inkscape:window-width="2504"
     inkscape:window-height="1369"
     inkscape:window-x="56"
     inkscape:window-y="34"
     inkscape:window-maximized="1"
     inkscape:current-layer="g13" />
  <defs
     id="defs1">
    <rect
       x="65.715544"
       y="805.28179"
       width="1051.8561"
       height="82.734968"
       id="rect17" />
    <clipPath
       id="clip0">
      <rect
         x="1584"
         y="446"
         width="1650"
         height="1065"
         id="rect1" />
    </clipPath>
    <g
       id="id-8e1c9c13-e2fa-4c50-b03d-d123aef3998c-5">
      <symbol
         overflow="visible"
         id="id-5f778aa2-0951-42a3-9eb1-d6ce3217523a-3">
        <path
           style="stroke:none"
           d=""
           id="id-16e3a848-db1e-490c-b2c5-29c3e9c3f8d8-5" />
      </symbol>
      <symbol
         overflow="visible"
         id="id-a497a576-2e96-4d67-bd66-0a1483507443-6">
        <path
           style="stroke:none"
           d="m 4.578125,-3.1875 c 0,-0.796875 -0.046875,-1.59375 -0.390625,-2.328125 -0.453125,-0.96875 -1.28125,-1.125 -1.6875,-1.125 -0.609375,0 -1.328125,0.265625 -1.75,1.1875 -0.3125,0.6875 -0.359375,1.46875 -0.359375,2.265625 0,0.75 0.03125,1.640625 0.453125,2.40625 0.421875,0.796875 1.15625,1 1.640625,1 0.53125,0 1.296875,-0.203125 1.734375,-1.15625 0.3125,-0.6875 0.359375,-1.46875 0.359375,-2.25 z M 2.484375,0 C 2.09375,0 1.5,-0.25 1.328125,-1.203125 1.21875,-1.796875 1.21875,-2.71875 1.21875,-3.3125 c 0,-0.640625 0,-1.296875 0.078125,-1.828125 0.1875,-1.1875 0.9375,-1.28125 1.1875,-1.28125 0.328125,0 0.984375,0.1875 1.171875,1.171875 0.109375,0.5625 0.109375,1.3125 0.109375,1.9375 0,0.75 0,1.421875 -0.109375,2.0625 C 3.5,-0.296875 2.9375,0 2.484375,0 Z m 0,0"
           id="id-c6df9515-b388-440d-acae-598c1698c343-2" />
      </symbol>
      <symbol
         overflow="visible"
         id="id-0d343ffa-539f-4090-934b-d6a5e0c6395d-9">
        <path
           style="stroke:none"
           d="m 2.9375,-6.375 c 0,-0.25 0,-0.265625 -0.234375,-0.265625 C 2.078125,-6 1.203125,-6 0.890625,-6 v 0.3125 c 0.203125,0 0.78125,0 1.296875,-0.265625 v 5.171875 c 0,0.359375 -0.03125,0.46875 -0.921875,0.46875 h -0.3125 V 0 c 0.34375,-0.03125 1.203125,-0.03125 1.609375,-0.03125 0.390625,0 1.265625,0 1.609375,0.03125 v -0.3125 h -0.3125 c -0.90625,0 -0.921875,-0.109375 -0.921875,-0.46875 z m 0,0"
           id="id-62bc80c3-57b8-43d7-94da-db032c3c7732-1" />
      </symbol>
      <symbol
         overflow="visible"
         id="id-d13a373a-4264-4743-92ae-45b49de5a3aa-2">
        <path
           style="stroke:none"
           d="m 1.265625,-0.765625 1.0625,-1.03125 c 1.546875,-1.375 2.140625,-1.90625 2.140625,-2.90625 0,-1.140625 -0.890625,-1.9375 -2.109375,-1.9375 -1.125,0 -1.859375,0.921875 -1.859375,1.8125 0,0.546875 0.5,0.546875 0.53125,0.546875 0.171875,0 0.515625,-0.109375 0.515625,-0.53125 0,-0.25 -0.1875,-0.515625 -0.53125,-0.515625 -0.078125,0 -0.09375,0 -0.125,0.015625 0.21875,-0.65625 0.765625,-1.015625 1.34375,-1.015625 0.90625,0 1.328125,0.8125 1.328125,1.625 C 3.5625,-3.90625 3.078125,-3.125 2.515625,-2.5 l -1.90625,2.125 C 0.5,-0.265625 0.5,-0.234375 0.5,0 H 4.203125 L 4.46875,-1.734375 H 4.234375 C 4.171875,-1.4375 4.109375,-1 4,-0.84375 3.9375,-0.765625 3.28125,-0.765625 3.0625,-0.765625 Z m 0,0"
           id="id-ce4c3312-716b-49a2-a07f-72a7a47e5fa7-7" />
      </symbol>
      <symbol
         overflow="visible"
         id="id-5e722325-bb0a-4004-b909-3a000acf2a35-0">
        <path
           style="stroke:none"
           d="m 2.890625,-3.515625 c 0.8125,-0.265625 1.390625,-0.953125 1.390625,-1.75 0,-0.8125 -0.875,-1.375 -1.828125,-1.375 -1,0 -1.765625,0.59375 -1.765625,1.359375 0,0.328125 0.21875,0.515625 0.515625,0.515625 0.296875,0 0.5,-0.21875 0.5,-0.515625 0,-0.484375 -0.46875,-0.484375 -0.609375,-0.484375 0.296875,-0.5 0.953125,-0.625 1.3125,-0.625 0.421875,0 0.96875,0.21875 0.96875,1.109375 0,0.125 -0.03125,0.703125 -0.28125,1.140625 C 2.796875,-3.65625 2.453125,-3.625 2.203125,-3.625 2.125,-3.609375 1.890625,-3.59375 1.8125,-3.59375 c -0.078125,0.015625 -0.140625,0.03125 -0.140625,0.125 0,0.109375 0.0625,0.109375 0.234375,0.109375 h 0.4375 c 0.8125,0 1.1875,0.671875 1.1875,1.65625 0,1.359375 -0.6875,1.640625 -1.125,1.640625 -0.4375,0 -1.1875,-0.171875 -1.53125,-0.75 0.34375,0.046875 0.65625,-0.171875 0.65625,-0.546875 0,-0.359375 -0.265625,-0.5625 -0.546875,-0.5625 -0.25,0 -0.5625,0.140625 -0.5625,0.578125 0,0.90625 0.921875,1.5625 2.015625,1.5625 1.21875,0 2.125,-0.90625 2.125,-1.921875 0,-0.8125 -0.640625,-1.59375 -1.671875,-1.8125 z m 0,0"
           id="id-1b310e1e-5b03-4735-8320-c610fae2f886-9" />
      </symbol>
    </g>
    <g
       id="id-8e1c9c13-e2fa-4c50-b03d-d123aef3998c-9">
      <symbol
         overflow="visible"
         id="id-5f778aa2-0951-42a3-9eb1-d6ce3217523a-2">
        <path
           style="stroke:none"
           d=""
           id="id-16e3a848-db1e-490c-b2c5-29c3e9c3f8d8-2" />
      </symbol>
      <symbol
         overflow="visible"
         id="id-a497a576-2e96-4d67-bd66-0a1483507443-8">
        <path
           style="stroke:none"
           d="m 4.578125,-3.1875 c 0,-0.796875 -0.046875,-1.59375 -0.390625,-2.328125 -0.453125,-0.96875 -1.28125,-1.125 -1.6875,-1.125 -0.609375,0 -1.328125,0.265625 -1.75,1.1875 -0.3125,0.6875 -0.359375,1.46875 -0.359375,2.265625 0,0.75 0.03125,1.640625 0.453125,2.40625 0.421875,0.796875 1.15625,1 1.640625,1 0.53125,0 1.296875,-0.203125 1.734375,-1.15625 0.3125,-0.6875 0.359375,-1.46875 0.359375,-2.25 z M 2.484375,0 C 2.09375,0 1.5,-0.25 1.328125,-1.203125 1.21875,-1.796875 1.21875,-2.71875 1.21875,-3.3125 c 0,-0.640625 0,-1.296875 0.078125,-1.828125 0.1875,-1.1875 0.9375,-1.28125 1.1875,-1.28125 0.328125,0 0.984375,0.1875 1.171875,1.171875 0.109375,0.5625 0.109375,1.3125 0.109375,1.9375 0,0.75 0,1.421875 -0.109375,2.0625 C 3.5,-0.296875 2.9375,0 2.484375,0 Z m 0,0"
           id="id-c6df9515-b388-440d-acae-598c1698c343-9" />
      </symbol>
      <symbol
         overflow="visible"
         id="id-0d343ffa-539f-4090-934b-d6a5e0c6395d-7">
        <path
           style="stroke:none"
           d="m 2.9375,-6.375 c 0,-0.25 0,-0.265625 -0.234375,-0.265625 C 2.078125,-6 1.203125,-6 0.890625,-6 v 0.3125 c 0.203125,0 0.78125,0 1.296875,-0.265625 v 5.171875 c 0,0.359375 -0.03125,0.46875 -0.921875,0.46875 h -0.3125 V 0 c 0.34375,-0.03125 1.203125,-0.03125 1.609375,-0.03125 0.390625,0 1.265625,0 1.609375,0.03125 v -0.3125 h -0.3125 c -0.90625,0 -0.921875,-0.109375 -0.921875,-0.46875 z m 0,0"
           id="id-62bc80c3-57b8-43d7-94da-db032c3c7732-3" />
      </symbol>
      <symbol
         overflow="visible"
         id="id-d13a373a-4264-4743-92ae-45b49de5a3aa-6">
        <path
           style="stroke:none"
           d="m 1.265625,-0.765625 1.0625,-1.03125 c 1.546875,-1.375 2.140625,-1.90625 2.140625,-2.90625 0,-1.140625 -0.890625,-1.9375 -2.109375,-1.9375 -1.125,0 -1.859375,0.921875 -1.859375,1.8125 0,0.546875 0.5,0.546875 0.53125,0.546875 0.171875,0 0.515625,-0.109375 0.515625,-0.53125 0,-0.25 -0.1875,-0.515625 -0.53125,-0.515625 -0.078125,0 -0.09375,0 -0.125,0.015625 0.21875,-0.65625 0.765625,-1.015625 1.34375,-1.015625 0.90625,0 1.328125,0.8125 1.328125,1.625 C 3.5625,-3.90625 3.078125,-3.125 2.515625,-2.5 l -1.90625,2.125 C 0.5,-0.265625 0.5,-0.234375 0.5,0 H 4.203125 L 4.46875,-1.734375 H 4.234375 C 4.171875,-1.4375 4.109375,-1 4,-0.84375 3.9375,-0.765625 3.28125,-0.765625 3.0625,-0.765625 Z m 0,0"
           id="id-ce4c3312-716b-49a2-a07f-72a7a47e5fa7-1" />
      </symbol>
      <symbol
         overflow="visible"
         id="id-5e722325-bb0a-4004-b909-3a000acf2a35-2">
        <path
           style="stroke:none"
           d="m 2.890625,-3.515625 c 0.8125,-0.265625 1.390625,-0.953125 1.390625,-1.75 0,-0.8125 -0.875,-1.375 -1.828125,-1.375 -1,0 -1.765625,0.59375 -1.765625,1.359375 0,0.328125 0.21875,0.515625 0.515625,0.515625 0.296875,0 0.5,-0.21875 0.5,-0.515625 0,-0.484375 -0.46875,-0.484375 -0.609375,-0.484375 0.296875,-0.5 0.953125,-0.625 1.3125,-0.625 0.421875,0 0.96875,0.21875 0.96875,1.109375 0,0.125 -0.03125,0.703125 -0.28125,1.140625 C 2.796875,-3.65625 2.453125,-3.625 2.203125,-3.625 2.125,-3.609375 1.890625,-3.59375 1.8125,-3.59375 c -0.078125,0.015625 -0.140625,0.03125 -0.140625,0.125 0,0.109375 0.0625,0.109375 0.234375,0.109375 h 0.4375 c 0.8125,0 1.1875,0.671875 1.1875,1.65625 0,1.359375 -0.6875,1.640625 -1.125,1.640625 -0.4375,0 -1.1875,-0.171875 -1.53125,-0.75 0.34375,0.046875 0.65625,-0.171875 0.65625,-0.546875 0,-0.359375 -0.265625,-0.5625 -0.546875,-0.5625 -0.25,0 -0.5625,0.140625 -0.5625,0.578125 0,0.90625 0.921875,1.5625 2.015625,1.5625 1.21875,0 2.125,-0.90625 2.125,-1.921875 0,-0.8125 -0.640625,-1.59375 -1.671875,-1.8125 z m 0,0"
           id="id-1b310e1e-5b03-4735-8320-c610fae2f886-93" />
      </symbol>
    </g>
    <g
       id="id-8e1c9c13-e2fa-4c50-b03d-d123aef3998c-1">
      <symbol
         overflow="visible"
         id="id-5f778aa2-0951-42a3-9eb1-d6ce3217523a-5">
        <path
           style="stroke:none"
           d=""
           id="id-16e3a848-db1e-490c-b2c5-29c3e9c3f8d8-54" />
      </symbol>
      <symbol
         overflow="visible"
         id="id-a497a576-2e96-4d67-bd66-0a1483507443-7">
        <path
           style="stroke:none"
           d="m 4.578125,-3.1875 c 0,-0.796875 -0.046875,-1.59375 -0.390625,-2.328125 -0.453125,-0.96875 -1.28125,-1.125 -1.6875,-1.125 -0.609375,0 -1.328125,0.265625 -1.75,1.1875 -0.3125,0.6875 -0.359375,1.46875 -0.359375,2.265625 0,0.75 0.03125,1.640625 0.453125,2.40625 0.421875,0.796875 1.15625,1 1.640625,1 0.53125,0 1.296875,-0.203125 1.734375,-1.15625 0.3125,-0.6875 0.359375,-1.46875 0.359375,-2.25 z M 2.484375,0 C 2.09375,0 1.5,-0.25 1.328125,-1.203125 1.21875,-1.796875 1.21875,-2.71875 1.21875,-3.3125 c 0,-0.640625 0,-1.296875 0.078125,-1.828125 0.1875,-1.1875 0.9375,-1.28125 1.1875,-1.28125 0.328125,0 0.984375,0.1875 1.171875,1.171875 0.109375,0.5625 0.109375,1.3125 0.109375,1.9375 0,0.75 0,1.421875 -0.109375,2.0625 C 3.5,-0.296875 2.9375,0 2.484375,0 Z m 0,0"
           id="id-c6df9515-b388-440d-acae-598c1698c343-6" />
      </symbol>
      <symbol
         overflow="visible"
         id="id-0d343ffa-539f-4090-934b-d6a5e0c6395d-5">
        <path
           style="stroke:none"
           d="m 2.9375,-6.375 c 0,-0.25 0,-0.265625 -0.234375,-0.265625 C 2.078125,-6 1.203125,-6 0.890625,-6 v 0.3125 c 0.203125,0 0.78125,0 1.296875,-0.265625 v 5.171875 c 0,0.359375 -0.03125,0.46875 -0.921875,0.46875 h -0.3125 V 0 c 0.34375,-0.03125 1.203125,-0.03125 1.609375,-0.03125 0.390625,0 1.265625,0 1.609375,0.03125 v -0.3125 h -0.3125 c -0.90625,0 -0.921875,-0.109375 -0.921875,-0.46875 z m 0,0"
           id="id-62bc80c3-57b8-43d7-94da-db032c3c7732-6" />
      </symbol>
      <symbol
         overflow="visible"
         id="id-d13a373a-4264-4743-92ae-45b49de5a3aa-9">
        <path
           style="stroke:none"
           d="m 1.265625,-0.765625 1.0625,-1.03125 c 1.546875,-1.375 2.140625,-1.90625 2.140625,-2.90625 0,-1.140625 -0.890625,-1.9375 -2.109375,-1.9375 -1.125,0 -1.859375,0.921875 -1.859375,1.8125 0,0.546875 0.5,0.546875 0.53125,0.546875 0.171875,0 0.515625,-0.109375 0.515625,-0.53125 0,-0.25 -0.1875,-0.515625 -0.53125,-0.515625 -0.078125,0 -0.09375,0 -0.125,0.015625 0.21875,-0.65625 0.765625,-1.015625 1.34375,-1.015625 0.90625,0 1.328125,0.8125 1.328125,1.625 C 3.5625,-3.90625 3.078125,-3.125 2.515625,-2.5 l -1.90625,2.125 C 0.5,-0.265625 0.5,-0.234375 0.5,0 H 4.203125 L 4.46875,-1.734375 H 4.234375 C 4.171875,-1.4375 4.109375,-1 4,-0.84375 3.9375,-0.765625 3.28125,-0.765625 3.0625,-0.765625 Z m 0,0"
           id="id-ce4c3312-716b-49a2-a07f-72a7a47e5fa7-3" />
      </symbol>
      <symbol
         overflow="visible"
         id="id-5e722325-bb0a-4004-b909-3a000acf2a35-7">
        <path
           style="stroke:none"
           d="m 2.890625,-3.515625 c 0.8125,-0.265625 1.390625,-0.953125 1.390625,-1.75 0,-0.8125 -0.875,-1.375 -1.828125,-1.375 -1,0 -1.765625,0.59375 -1.765625,1.359375 0,0.328125 0.21875,0.515625 0.515625,0.515625 0.296875,0 0.5,-0.21875 0.5,-0.515625 0,-0.484375 -0.46875,-0.484375 -0.609375,-0.484375 0.296875,-0.5 0.953125,-0.625 1.3125,-0.625 0.421875,0 0.96875,0.21875 0.96875,1.109375 0,0.125 -0.03125,0.703125 -0.28125,1.140625 C 2.796875,-3.65625 2.453125,-3.625 2.203125,-3.625 2.125,-3.609375 1.890625,-3.59375 1.8125,-3.59375 c -0.078125,0.015625 -0.140625,0.03125 -0.140625,0.125 0,0.109375 0.0625,0.109375 0.234375,0.109375 h 0.4375 c 0.8125,0 1.1875,0.671875 1.1875,1.65625 0,1.359375 -0.6875,1.640625 -1.125,1.640625 -0.4375,0 -1.1875,-0.171875 -1.53125,-0.75 0.34375,0.046875 0.65625,-0.171875 0.65625,-0.546875 0,-0.359375 -0.265625,-0.5625 -0.546875,-0.5625 -0.25,0 -0.5625,0.140625 -0.5625,0.578125 0,0.90625 0.921875,1.5625 2.015625,1.5625 1.21875,0 2.125,-0.90625 2.125,-1.921875 0,-0.8125 -0.640625,-1.59375 -1.671875,-1.8125 z m 0,0"
           id="id-1b310e1e-5b03-4735-8320-c610fae2f886-4" />
      </symbol>
    </g>
    <g
       id="id-7bee1257-54db-49e6-95f1-d8d4496e3be9-0">
      <symbol
         overflow="visible"
         id="id-ea795d75-b5b0-4e9b-b973-4961f407d9c0-6">
        <path
           style="stroke:none"
           d=""
           id="id-1f85a053-509c-4b92-855d-e76e18df933f-8" />
      </symbol>
      <symbol
         overflow="visible"
         id="id-0fade67a-e0dd-41df-a5e2-981c7c52f2c1-9">
        <path
           style="stroke:none"
           d="m 4.578125,-3.1875 c 0,-0.796875 -0.046875,-1.59375 -0.390625,-2.328125 -0.453125,-0.96875 -1.28125,-1.125 -1.6875,-1.125 -0.609375,0 -1.328125,0.265625 -1.75,1.1875 -0.3125,0.6875 -0.359375,1.46875 -0.359375,2.265625 0,0.75 0.03125,1.640625 0.453125,2.40625 0.421875,0.796875 1.15625,1 1.640625,1 0.53125,0 1.296875,-0.203125 1.734375,-1.15625 0.3125,-0.6875 0.359375,-1.46875 0.359375,-2.25 z M 2.484375,0 C 2.09375,0 1.5,-0.25 1.328125,-1.203125 1.21875,-1.796875 1.21875,-2.71875 1.21875,-3.3125 c 0,-0.640625 0,-1.296875 0.078125,-1.828125 0.1875,-1.1875 0.9375,-1.28125 1.1875,-1.28125 0.328125,0 0.984375,0.1875 1.171875,1.171875 0.109375,0.5625 0.109375,1.3125 0.109375,1.9375 0,0.75 0,1.421875 -0.109375,2.0625 C 3.5,-0.296875 2.9375,0 2.484375,0 Z m 0,0"
           id="id-4c241aed-0b66-4cc7-b167-82db8b019159-2" />
      </symbol>
    </g>
    <g
       id="id-7bee1257-54db-49e6-95f1-d8d4496e3be9-8">
      <symbol
         overflow="visible"
         id="id-ea795d75-b5b0-4e9b-b973-4961f407d9c0-7">
        <path
           style="stroke:none"
           d=""
           id="id-1f85a053-509c-4b92-855d-e76e18df933f-1" />
      </symbol>
      <symbol
         overflow="visible"
         id="id-0fade67a-e0dd-41df-a5e2-981c7c52f2c1-7">
        <path
           style="stroke:none"
           d="m 4.578125,-3.1875 c 0,-0.796875 -0.046875,-1.59375 -0.390625,-2.328125 -0.453125,-0.96875 -1.28125,-1.125 -1.6875,-1.125 -0.609375,0 -1.328125,0.265625 -1.75,1.1875 -0.3125,0.6875 -0.359375,1.46875 -0.359375,2.265625 0,0.75 0.03125,1.640625 0.453125,2.40625 0.421875,0.796875 1.15625,1 1.640625,1 0.53125,0 1.296875,-0.203125 1.734375,-1.15625 0.3125,-0.6875 0.359375,-1.46875 0.359375,-2.25 z M 2.484375,0 C 2.09375,0 1.5,-0.25 1.328125,-1.203125 1.21875,-1.796875 1.21875,-2.71875 1.21875,-3.3125 c 0,-0.640625 0,-1.296875 0.078125,-1.828125 0.1875,-1.1875 0.9375,-1.28125 1.1875,-1.28125 0.328125,0 0.984375,0.1875 1.171875,1.171875 0.109375,0.5625 0.109375,1.3125 0.109375,1.9375 0,0.75 0,1.421875 -0.109375,2.0625 C 3.5,-0.296875 2.9375,0 2.484375,0 Z m 0,0"
           id="id-4c241aed-0b66-4cc7-b167-82db8b019159-27" />
      </symbol>
    </g>
    <g
       id="id-7bee1257-54db-49e6-95f1-d8d4496e3be9-5">
      <symbol
         overflow="visible"
         id="id-ea795d75-b5b0-4e9b-b973-4961f407d9c0-9">
        <path
           style="stroke:none"
           d=""
           id="id-1f85a053-509c-4b92-855d-e76e18df933f-4" />
      </symbol>
      <symbol
         overflow="visible"
         id="id-0fade67a-e0dd-41df-a5e2-981c7c52f2c1-90">
        <path
           style="stroke:none"
           d="m 4.578125,-3.1875 c 0,-0.796875 -0.046875,-1.59375 -0.390625,-2.328125 -0.453125,-0.96875 -1.28125,-1.125 -1.6875,-1.125 -0.609375,0 -1.328125,0.265625 -1.75,1.1875 -0.3125,0.6875 -0.359375,1.46875 -0.359375,2.265625 0,0.75 0.03125,1.640625 0.453125,2.40625 0.421875,0.796875 1.15625,1 1.640625,1 0.53125,0 1.296875,-0.203125 1.734375,-1.15625 0.3125,-0.6875 0.359375,-1.46875 0.359375,-2.25 z M 2.484375,0 C 2.09375,0 1.5,-0.25 1.328125,-1.203125 1.21875,-1.796875 1.21875,-2.71875 1.21875,-3.3125 c 0,-0.640625 0,-1.296875 0.078125,-1.828125 0.1875,-1.1875 0.9375,-1.28125 1.1875,-1.28125 0.328125,0 0.984375,0.1875 1.171875,1.171875 0.109375,0.5625 0.109375,1.3125 0.109375,1.9375 0,0.75 0,1.421875 -0.109375,2.0625 C 3.5,-0.296875 2.9375,0 2.484375,0 Z m 0,0"
           id="id-4c241aed-0b66-4cc7-b167-82db8b019159-9" />
      </symbol>
    </g>
    <g
       id="id-3200498e-8a66-4e2a-9a03-c33032316a00-7">
      <symbol
         overflow="visible"
         id="id-f7701148-7b7d-4d39-8c72-1d77d95e6146-6">
        <path
           style="stroke:none"
           d=""
           id="id-e46b15d5-a58d-42bf-ad5c-b84657afdac8-7" />
      </symbol>
      <symbol
         overflow="visible"
         id="id-9ee4db8c-a416-4806-97df-62d9800c1033-3">
        <path
           style="stroke:none"
           d="m 2.9375,-6.375 c 0,-0.25 0,-0.265625 -0.234375,-0.265625 C 2.078125,-6 1.203125,-6 0.890625,-6 v 0.3125 c 0.203125,0 0.78125,0 1.296875,-0.265625 v 5.171875 c 0,0.359375 -0.03125,0.46875 -0.921875,0.46875 h -0.3125 V 0 c 0.34375,-0.03125 1.203125,-0.03125 1.609375,-0.03125 0.390625,0 1.265625,0 1.609375,0.03125 v -0.3125 h -0.3125 c -0.90625,0 -0.921875,-0.109375 -0.921875,-0.46875 z m 0,0"
           id="id-03098542-590a-451f-8b5d-cb0ca728cb0e-6" />
      </symbol>
    </g>
    <g
       id="id-3200498e-8a66-4e2a-9a03-c33032316a00-2">
      <symbol
         overflow="visible"
         id="id-f7701148-7b7d-4d39-8c72-1d77d95e6146-9">
        <path
           style="stroke:none"
           d=""
           id="id-e46b15d5-a58d-42bf-ad5c-b84657afdac8-3" />
      </symbol>
      <symbol
         overflow="visible"
         id="id-9ee4db8c-a416-4806-97df-62d9800c1033-9">
        <path
           style="stroke:none"
           d="m 2.9375,-6.375 c 0,-0.25 0,-0.265625 -0.234375,-0.265625 C 2.078125,-6 1.203125,-6 0.890625,-6 v 0.3125 c 0.203125,0 0.78125,0 1.296875,-0.265625 v 5.171875 c 0,0.359375 -0.03125,0.46875 -0.921875,0.46875 h -0.3125 V 0 c 0.34375,-0.03125 1.203125,-0.03125 1.609375,-0.03125 0.390625,0 1.265625,0 1.609375,0.03125 v -0.3125 h -0.3125 c -0.90625,0 -0.921875,-0.109375 -0.921875,-0.46875 z m 0,0"
           id="id-03098542-590a-451f-8b5d-cb0ca728cb0e-0" />
      </symbol>
    </g>
  </defs>
  <g
     clip-path="url(#clip0)"
     transform="translate(-1584 -446)"
     id="g13">
    <path
       d="M2124.36 650.292C2118.98 648.31 2115.32 648.989 2110.77 648.593 2070.88 645.126 2032.72 645.939 1991.82 645.196 1947.76 642.75 1945.55 641.822 1888.17 645.196 1873.93 646.033 1859.85 648.593 1845.68 650.292 1798.98 665.851 1871.44 642.338 1806.6 660.482 1800.22 662.269 1793.93 664.509 1787.91 667.276 1754.16 682.777 1698.44 710.531 1679.16 740.309 1672.93 749.933 1665.49 758.879 1660.47 769.182 1654.1 782.225 1653.23 797.87 1645.17 809.945 1644.04 811.643 1642.77 813.256 1641.77 815.04 1639.93 818.36 1638.91 822.159 1636.68 825.231 1634.32 828.468 1630.68 830.597 1628.18 833.723 1611.05 855.13 1636.31 828.869 1616.29 850.707 1612.5 854.839 1608.16 858.449 1604.39 862.596 1599.96 867.467 1593.48 878.68 1590.8 882.978 1590.23 887.507 1590.05 892.102 1589.1 896.565 1588.35 900.066 1586.64 903.302 1585.7 906.756 1584.94 909.541 1584.57 912.417 1584 915.248 1584.57 924.873 1583.89 934.651 1585.7 944.121 1586.23 946.902 1589.15 948.612 1590.8 950.915 1591.98 952.576 1592.65 954.682 1594.2 956.01 1600.22 961.169 1625.44 971.229 1626.48 971.297 1688.1 975.302 1749.96 973.561 1811.7 974.693 1824.73 979.223 1839.75 980.009 1850.78 988.281 1853.05 989.979 1855.18 991.876 1857.58 993.376 1859.73 994.718 1862.37 995.229 1864.38 996.773 1869.78 1000.93 1874.49 1005.92 1879.67 1010.36 1881.97 1012.33 1890.95 1018.78 1893.26 1022.25 1895.37 1025.41 1896.41 1029.18 1898.36 1032.44 1902.35 1039.09 1908.23 1044 1913.66 1049.42 1914.79 1052.26 1915.79 1055.14 1917.05 1057.92 1922.23 1069.31 1922.75 1067.63 1927.25 1080 1928.05 1082.19 1928.31 1084.55 1928.95 1086.79 1929.93 1090.22 1932.85 1097.98 1934.05 1100.38 1938.09 1108.47 1946.9 1119.42 1951.04 1125.85 1952.41 1127.98 1953.03 1130.54 1954.44 1132.65 1956.45 1135.66 1958.75 1138.5 1961.23 1141.14 1979.18 1160.2 1985 1164.72 2005.41 1181.9 2017.55 1192.12 2010.66 1186.18 2025.81 1195.49 2035.32 1201.34 2036.76 1204.2 2047.9 1207.38 2055.69 1209.61 2063.69 1211.1 2071.69 1212.47 2111.52 1219.34 2134 1216.61 2182.14 1217.57 2186.67 1218.7 2191.1 1220.37 2195.73 1220.97 2241.24 1226.84 2253.19 1223.93 2306.18 1222.67 2338.53 1200.28 2319.73 1216.41 2335.07 1198.89 2336.65 1197.08 2338.93 1195.85 2340.17 1193.79 2344.08 1187.28 2350.36 1173.41 2350.36 1173.41 2354.19 1154.3 2349.26 1177.56 2357.16 1147.93 2363.56 1123.93 2352.98 1157.07 2362.26 1129.25 2362.82 1124.16 2363.11 1119.02 2363.96 1113.97 2364.25 1112.2 2364.66 1110.36 2365.66 1108.87 2366.99 1106.87 2368.69 1105.01 2370.75 1103.77 2386.51 1094.33 2397.91 1097.95 2418.33 1096.98L2533.88 1098.68C2566.34 1101.2 2575.75 1114.09 2605.25 1124.16 2616.82 1128.11 2629.34 1128.78 2640.94 1132.65 2672.33 1143.11 2664.01 1142.86 2685.12 1154.73 2703.69 1165.17 2694.55 1157.86 2714 1170.01 2722.66 1175.42 2732.27 1179.78 2739.49 1187 2778.14 1225.63 2728.82 1179.36 2795.57 1226.06 2801.23 1230.03 2806.32 1234.98 2812.56 1237.95 2818.39 1240.73 2825.26 1240.65 2831.25 1243.05 2842.31 1247.47 2852.39 1254.15 2863.54 1258.33 2891.09 1268.66 2949.13 1278.81 2970.59 1283.81 3021.12 1295.59 2980.86 1291.17 3031.76 1294L3115.03 1292.3C3118.22 1292 3119.41 1287.62 3121.82 1285.51 3128.48 1279.68 3136.3 1275.1 3142.21 1268.52 3171.32 1236.2 3161.82 1242.1 3179.6 1212.47 3182.1 1208.3 3185.59 1204.76 3188.09 1200.59 3192.4 1193.42 3195.42 1185.51 3199.99 1178.51 3203.95 1172.43 3209.05 1167.18 3213.58 1161.52 3215.28 1156.43 3216.73 1151.24 3218.68 1146.24 3220.7 1141.04 3223.35 1136.11 3225.48 1130.95 3227.32 1126.48 3228.88 1121.89 3230.58 1117.36 3231.1 1109.06 3236.78 1055.55 3232.27 1037.54 3230.86 1031.88 3226.39 1027.46 3223.78 1022.25 3222.41 1019.52 3222 1016.34 3220.38 1013.76 3219.11 1011.72 3216.9 1010.44 3215.28 1008.66 3191.09 982.064 3214.1 1003.94 3194.89 989.979 3191.31 987.379 3188.61 983.556 3184.7 981.487 3178.84 978.387 3172.23 976.958 3166 974.693 3145.47 954.173 3162.72 967.728 3126.92 954.312 3122.18 952.534 3118.31 948.417 3113.33 947.518 3083.53 942.147 3052.72 942.64 3023.27 935.629 2932.47 914.021 3045.1 938.985 2948.5 923.74 2909.48 917.582 2927.07 919.549 2895.82 916.947 2890.73 914.116 2885.75 911.061 2880.53 908.454 2876.67 906.526 2872.27 905.674 2868.63 903.359 2865.93 901.64 2864.1 898.83 2861.84 896.565 2856.74 886.375 2850.78 876.572 2846.54 865.993 2845.41 863.162 2844.51 860.228 2843.15 857.501 2838.84 848.893 2835.57 839.54 2829.55 832.025 2827.29 829.194 2824.82 826.513 2822.75 823.532 2814.48 811.58 2815.55 808.586 2804.06 799.754 2794.92 792.724 2790.84 792.582 2780.27 789.564 2774.61 784.468 2769.84 778.152 2763.28 774.278 2757.11 770.635 2742.89 767.484 2742.89 767.484 2741.19 765.785 2739.88 763.58 2737.79 762.389 2735.76 761.23 2733.21 761.428 2731 760.69 2721.31 757.463 2711.76 753.827 2702.11 750.5 2676.19 741.565 2675.47 741.368 2642.63 735.214 2632.88 733.385 2604.56 727.771 2593.36 726.721 2582.63 725.716 2571.81 725.87 2561.07 725.023 2550.28 724.172 2539.5 723.104 2528.78 721.626 2523.06 720.837 2517.53 718.904 2511.79 718.229 2498.24 716.636 2471.01 714.832 2471.01 714.832 2429.78 703.592 2457.16 709.604 2380.95 706.34L2333.37 704.642C2326.01 702.943 2318.72 700.868 2311.28 699.546 2293.22 696.337 2275.01 693.989 2256.9 691.054 2254.05 690.592 2251.24 689.922 2248.41 689.356 2243.88 687.091 2239.58 684.265 2234.81 682.562 2231.57 681.403 2228 681.539 2224.62 680.863 2222.33 680.406 2220.09 679.731 2217.82 679.165 2200.14 668.56 2218.43 678.236 2200.83 672.371 2181.24 665.845 2212.24 671.249 2180.44 667.276 2162.87 660.254 2179.38 665.852 2148.15 662.181 2146.37 661.972 2144.7 661.188 2143.05 660.482 2143.05 660.48 2129.74 652.273 2124.36 650.292Z"
       fill="#A6A6A6"
       fill-rule="evenodd"
       id="path1" />
    <path
       d="M1695.5 845.5C1695.5 806.84 1728.41 775.5 1769 775.5 1809.59 775.5 1842.5 806.84 1842.5 845.5 1842.5 884.16 1809.59 915.5 1769 915.5 1728.41 915.5 1695.5 884.16 1695.5 845.5Z"
       stroke="#000000"
       stroke-width="3.4375"
       stroke-linejoin="round"
       stroke-miterlimit="10"
       fill="#FFFF00"
       fill-rule="evenodd"
       id="path2" />
    <text
       font-family="Courier New,Courier New_MSFontService,sans-serif"
       font-weight="700"
       font-size="124"
       transform="matrix(1 0 0 1 1731.31 880)"
       id="text2">0</text>
    <path
       d="M1971.5 798C1971.5 759.064 2004.41 727.5 2045 727.5 2085.59 727.5 2118.5 759.064 2118.5 798 2118.5 836.936 2085.59 868.5 2045 868.5 2004.41 868.5 1971.5 836.936 1971.5 798Z"
       stroke="#000000"
       stroke-width="3.4375"
       stroke-linejoin="round"
       stroke-miterlimit="10"
       fill="#FFFF00"
       fill-rule="evenodd"
       id="path3" />
    <text
       font-family="Courier New,Courier New_MSFontService,sans-serif"
       font-weight="700"
       font-size="124"
       transform="matrix(1 0 0 1 2007.51 832)"
       id="text3">1</text>
    <path
       d="M2092.5 1084C2092.5 1045.06 2125.41 1013.5 2166 1013.5 2206.59 1013.5 2239.5 1045.06 2239.5 1084 2239.5 1122.94 2206.59 1154.5 2166 1154.5 2125.41 1154.5 2092.5 1122.94 2092.5 1084Z"
       stroke="#000000"
       stroke-width="3.4375"
       stroke-linejoin="round"
       stroke-miterlimit="10"
       fill="#FFFF00"
       fill-rule="evenodd"
       id="path4" />
    <text
       font-family="Courier New,Courier New_MSFontService,sans-serif"
       font-weight="700"
       font-size="124"
       transform="matrix(1 0 0 1 2128.76 1119)"
       id="text4">2</text>
    <path
       d="M2208.5 901C2208.5 862.064 2241.41 830.5 2282 830.5 2322.59 830.5 2355.5 862.064 2355.5 901 2355.5 939.936 2322.59 971.5 2282 971.5 2241.41 971.5 2208.5 939.936 2208.5 901Z"
       stroke="#000000"
       stroke-width="3.4375"
       stroke-linejoin="round"
       stroke-miterlimit="10"
       fill="#FFFF00"
       fill-rule="evenodd"
       id="path5" />
    <text
       font-family="Courier New,Courier New_MSFontService,sans-serif"
       font-weight="700"
       font-size="124"
       transform="matrix(1 0 0 1 2244.47 935)"
       id="text5">3</text>
    <path
       d="M2421.5 916C2421.5 877.064 2454.63 845.5 2495.5 845.5 2536.37 845.5 2569.5 877.064 2569.5 916 2569.5 954.936 2536.37 986.5 2495.5 986.5 2454.63 986.5 2421.5 954.936 2421.5 916Z"
       stroke="#000000"
       stroke-width="3.4375"
       stroke-linejoin="round"
       stroke-miterlimit="10"
       fill="#FFFF00"
       fill-rule="evenodd"
       id="path6" />
    <text
       font-family="Courier New,Courier New_MSFontService,sans-serif"
       font-weight="700"
       font-size="124"
       transform="matrix(1 0 0 1 2458.2 950)"
       id="text6">4</text>
    <path
       d="M2828.5 1027C2828.5 988.064 2861.41 956.5 2902 956.5 2942.59 956.5 2975.5 988.064 2975.5 1027 2975.5 1065.94 2942.59 1097.5 2902 1097.5 2861.41 1097.5 2828.5 1065.94 2828.5 1027Z"
       stroke="#000000"
       stroke-width="3.4375"
       stroke-linejoin="round"
       stroke-miterlimit="10"
       fill="#FFFF00"
       fill-rule="evenodd"
       id="path7" />
    <text
       font-family="Courier New,Courier New_MSFontService,sans-serif"
       font-weight="700"
       font-size="124"
       transform="matrix(1 0 0 1 2864.57 1062)"
       id="text7">5</text>
    <path
       d="M2600.5 1028C2600.5 989.064 2633.41 957.5 2674 957.5 2714.59 957.5 2747.5 989.064 2747.5 1028 2747.5 1066.94 2714.59 1098.5 2674 1098.5 2633.41 1098.5 2600.5 1066.94 2600.5 1028Z"
       stroke="#000000"
       stroke-width="3.4375"
       stroke-linejoin="round"
       stroke-miterlimit="10"
       fill="#FFFF00"
       fill-rule="evenodd"
       id="path8" />
    <text
       font-family="Courier New,Courier New_MSFontService,sans-serif"
       font-weight="700"
       font-size="124"
       transform="matrix(1 0 0 1 2636.39 1062)"
       id="text8">6</text>
    <path
       d="M2955.5 1189C2955.5 1150.06 2988.41 1118.5 3029 1118.5 3069.59 1118.5 3102.5 1150.06 3102.5 1189 3102.5 1227.94 3069.59 1259.5 3029 1259.5 2988.41 1259.5 2955.5 1227.94 2955.5 1189Z"
       stroke="#000000"
       stroke-width="3.4375"
       stroke-linejoin="round"
       stroke-miterlimit="10"
       fill="#FFFF00"
       fill-rule="evenodd"
       id="path9" />
    <text
       font-family="Courier New,Courier New_MSFontService,sans-serif"
       font-weight="700"
       font-size="124"
       transform="matrix(1 0 0 1 2991.51 1223)"
       id="text9">7</text>
    <rect
       x="1797.5"
       y="448.5"
       width="738"
       height="116"
       fill="#FFFF00"
       id="rect9" />
    <path
       d="M2564.75 448.5 2564.75 564.5Z"
       stroke="#385D8A"
       stroke-width="4.58333"
       stroke-linejoin="round"
       stroke-miterlimit="10"
       fill="none"
       fill-rule="evenodd"
       id="path10" />
    <path
       d="M2564.75 498.289 2733.87 858.898"
       stroke="#385D8A"
       stroke-width="4.58333"
       stroke-linejoin="round"
       stroke-miterlimit="10"
       fill="none"
       fill-rule="evenodd"
       id="path11" />
    <text
       font-family="Courier New,Courier New_MSFontService,sans-serif"
       font-weight="700"
       font-size="64"
       transform="matrix(1 0 0 1 1896.76 524)"
       id="text11">MPI_COMM_WORLD</text>
    <rect
       x="1971.5"
       y="1378.5"
       width="655"
       height="112"
       fill="#FFFF00"
       id="rect11" />
    <path
       d="M2671.58 1378.5 2671.58 1490.5Z"
       stroke="#385D8A"
       stroke-width="4.58333"
       stroke-linejoin="round"
       stroke-miterlimit="10"
       fill="none"
       fill-rule="evenodd"
       id="path12" />
    <path
       d="M2671.58 1433.45 2983.43 1244.77"
       stroke="#385D8A"
       stroke-width="4.58333"
       stroke-linejoin="round"
       stroke-miterlimit="10"
       fill="none"
       fill-rule="evenodd"
       id="path13" />
    <path
       d="M 2581.3316,1232.6891 V 1342.945 Z"
       stroke="#385d8a"
       stroke-width="4.25528"
       stroke-linejoin="round"
       stroke-miterlimit="10"
       fill="none"
       fill-rule="evenodd"
       id="path12-7" />
    <path
       d="m 2580.9467,1290.1199 335.7924,-136.855"
       stroke="#385d8a"
       stroke-width="4.05053"
       stroke-linejoin="round"
       stroke-miterlimit="10"
       fill="none"
       fill-rule="evenodd"
       id="path13-5" />
    <text
       font-family="Arial, Arial_MSFontService, sans-serif"
       font-weight="400"
       font-size="64px"
       id="text13"
       style="font-size:37.3333px"
       x="1982.1047"
       y="1448.6543">Process rank in MPI_COMM_WORLD</text>
    <rect
       x="1879.9722"
       y="1231.1143"
       width="655"
       height="112"
       fill="#ffff00"
       id="rect11-2"
       style="fill:#fb0404;fill-opacity:1" />
    <text
       font-family="Arial, Arial_MSFontService, sans-serif"
       font-weight="400"
       font-size="64px"
       id="text13-9"
       style="font-size:37.3333px"
       x="1930.5769"
       y="1301.2686">Process rank in subcommunicator</text>
  </g>
  <path
     style="fill:none;stroke:#000000;stroke-width:3;stroke-linecap:butt;stroke-linejoin:miter;stroke-opacity:1;stroke-dasharray:none"
     d="M 791.7841,344.3804 779.99243,554.0986 77.190969,464.16216 125.29661,300.01904 462.78302,261.67994 Z"
     id="path14" />
  <path
     style="fill:none;stroke:#000000;stroke-width:3;stroke-linecap:butt;stroke-linejoin:miter;stroke-opacity:1;stroke-dasharray:none"
     d="M 1220.6182,522.23231 1117.8534,688.30604 792.41782,488.81611 915.05123,340.36236 Z"
     id="path16" />
  <path
     style="fill:none;stroke:#000000;stroke-width:3;stroke-linecap:butt;stroke-linejoin:miter;stroke-opacity:1;stroke-dasharray:none"
     d="m 1597.6108,748.74931 -173.3332,93.24088 -220.8029,-275.10422 121.0385,-87.11623 z"
     id="path17" />
  <g
     transform="matrix(8.60987,0,0,8.60987,547.45687,318.92128)"
     ns8:version="1.9.0"
     ns8:texconverter="pdflatex"
     ns8:pdfconverter="inkscape"
     ns8:text="\\color{red}$0$"
     ns8:preamble="/home/ghasemi/.config/inkscape/extensions/textext/default_packages.tex"
     ns8:scale="0.75"
     ns8:alignment="middle center"
     ns8:stroke-to-path="0"
     ns8:inkscapeversion="1.3.2"
     id="g2200-6"
     ns8:jacobian_sqrt="8.60987">
    <defs
       id="id-5ba76334-379c-4fa4-8bf3-bea60d35e2e4">
      <g
         id="id-7bee1257-54db-49e6-95f1-d8d4496e3be9">
        <symbol
           overflow="visible"
           id="id-ea795d75-b5b0-4e9b-b973-4961f407d9c0">
          <path
             style="stroke:none"
             d=""
             id="id-1f85a053-509c-4b92-855d-e76e18df933f" />
        </symbol>
        <symbol
           overflow="visible"
           id="id-0fade67a-e0dd-41df-a5e2-981c7c52f2c1">
          <path
             style="stroke:none"
             d="m 4.578125,-3.1875 c 0,-0.796875 -0.046875,-1.59375 -0.390625,-2.328125 -0.453125,-0.96875 -1.28125,-1.125 -1.6875,-1.125 -0.609375,0 -1.328125,0.265625 -1.75,1.1875 -0.3125,0.6875 -0.359375,1.46875 -0.359375,2.265625 0,0.75 0.03125,1.640625 0.453125,2.40625 0.421875,0.796875 1.15625,1 1.640625,1 0.53125,0 1.296875,-0.203125 1.734375,-1.15625 0.3125,-0.6875 0.359375,-1.46875 0.359375,-2.25 z M 2.484375,0 C 2.09375,0 1.5,-0.25 1.328125,-1.203125 1.21875,-1.796875 1.21875,-2.71875 1.21875,-3.3125 c 0,-0.640625 0,-1.296875 0.078125,-1.828125 0.1875,-1.1875 0.9375,-1.28125 1.1875,-1.28125 0.328125,0 0.984375,0.1875 1.171875,1.171875 0.109375,0.5625 0.109375,1.3125 0.109375,1.9375 0,0.75 0,1.421875 -0.109375,2.0625 C 3.5,-0.296875 2.9375,0 2.484375,0 Z m 0,0"
             id="id-4c241aed-0b66-4cc7-b167-82db8b019159" />
        </symbol>
      </g>
    </defs>
    <g
       id="id-ef8373a3-4339-41b6-9350-15fc14464f28"
       transform="translate(-149.103,-128.124)">
      <g
         style="fill:#ff0000;fill-opacity:1"
         id="id-45620bcc-e0a4-4f0e-83f4-99631f1b192b">
        <g
           transform="translate(148.712,134.765)"
           id="g7180">
          <path
             style="stroke:none"
             d="m 4.578125,-3.1875 c 0,-0.796875 -0.046875,-1.59375 -0.390625,-2.328125 -0.453125,-0.96875 -1.28125,-1.125 -1.6875,-1.125 -0.609375,0 -1.328125,0.265625 -1.75,1.1875 -0.3125,0.6875 -0.359375,1.46875 -0.359375,2.265625 0,0.75 0.03125,1.640625 0.453125,2.40625 0.421875,0.796875 1.15625,1 1.640625,1 0.53125,0 1.296875,-0.203125 1.734375,-1.15625 0.3125,-0.6875 0.359375,-1.46875 0.359375,-2.25 z M 2.484375,0 C 2.09375,0 1.5,-0.25 1.328125,-1.203125 1.21875,-1.796875 1.21875,-2.71875 1.21875,-3.3125 c 0,-0.640625 0,-1.296875 0.078125,-1.828125 0.1875,-1.1875 0.9375,-1.28125 1.1875,-1.28125 0.328125,0 0.984375,0.1875 1.171875,1.171875 0.109375,0.5625 0.109375,1.3125 0.109375,1.9375 0,0.75 0,1.421875 -0.109375,2.0625 C 3.5,-0.296875 2.9375,0 2.484375,0 Z m 0,0"
             id="id-1b27ee68-dc7b-43df-8dd2-a1fc2580afeb" />
        </g>
      </g>
    </g>
  </g>
  <g
     transform="matrix(8.60987,0,0,8.60987,461.15501,578.52467)"
     ns8:version="1.9.0"
     ns8:texconverter="pdflatex"
     ns8:pdfconverter="inkscape"
     ns8:text="\\color{red}$0$"
     ns8:preamble="/home/ghasemi/.config/inkscape/extensions/textext/default_packages.tex"
     ns8:scale="0.75"
     ns8:alignment="middle center"
     ns8:stroke-to-path="0"
     ns8:inkscapeversion="1.3.2"
     id="g2200-6-9"
     ns8:jacobian_sqrt="8.60987">
    <defs
       id="id-5ba76334-379c-4fa4-8bf3-bea60d35e2e4-2">
      <g
         id="g33">
        <symbol
           overflow="visible"
           id="symbol32">
          <path
             style="stroke:none"
             d=""
             id="path32" />
        </symbol>
        <symbol
           overflow="visible"
           id="symbol33">
          <path
             style="stroke:none"
             d="m 4.578125,-3.1875 c 0,-0.796875 -0.046875,-1.59375 -0.390625,-2.328125 -0.453125,-0.96875 -1.28125,-1.125 -1.6875,-1.125 -0.609375,0 -1.328125,0.265625 -1.75,1.1875 -0.3125,0.6875 -0.359375,1.46875 -0.359375,2.265625 0,0.75 0.03125,1.640625 0.453125,2.40625 0.421875,0.796875 1.15625,1 1.640625,1 0.53125,0 1.296875,-0.203125 1.734375,-1.15625 0.3125,-0.6875 0.359375,-1.46875 0.359375,-2.25 z M 2.484375,0 C 2.09375,0 1.5,-0.25 1.328125,-1.203125 1.21875,-1.796875 1.21875,-2.71875 1.21875,-3.3125 c 0,-0.640625 0,-1.296875 0.078125,-1.828125 0.1875,-1.1875 0.9375,-1.28125 1.1875,-1.28125 0.328125,0 0.984375,0.1875 1.171875,1.171875 0.109375,0.5625 0.109375,1.3125 0.109375,1.9375 0,0.75 0,1.421875 -0.109375,2.0625 C 3.5,-0.296875 2.9375,0 2.484375,0 Z m 0,0"
             id="path33" />
        </symbol>
      </g>
    </defs>
    <g
       id="id-ef8373a3-4339-41b6-9350-15fc14464f28-6"
       transform="translate(-149.103,-128.124)">
      <g
         style="fill:#ff0000;fill-opacity:1"
         id="id-45620bcc-e0a4-4f0e-83f4-99631f1b192b-6">
        <g
           transform="translate(148.712,134.765)"
           id="g7180-4">
          <path
             style="stroke:none"
             d="m 4.578125,-3.1875 c 0,-0.796875 -0.046875,-1.59375 -0.390625,-2.328125 -0.453125,-0.96875 -1.28125,-1.125 -1.6875,-1.125 -0.609375,0 -1.328125,0.265625 -1.75,1.1875 -0.3125,0.6875 -0.359375,1.46875 -0.359375,2.265625 0,0.75 0.03125,1.640625 0.453125,2.40625 0.421875,0.796875 1.15625,1 1.640625,1 0.53125,0 1.296875,-0.203125 1.734375,-1.15625 0.3125,-0.6875 0.359375,-1.46875 0.359375,-2.25 z M 2.484375,0 C 2.09375,0 1.5,-0.25 1.328125,-1.203125 1.21875,-1.796875 1.21875,-2.71875 1.21875,-3.3125 c 0,-0.640625 0,-1.296875 0.078125,-1.828125 0.1875,-1.1875 0.9375,-1.28125 1.1875,-1.28125 0.328125,0 0.984375,0.1875 1.171875,1.171875 0.109375,0.5625 0.109375,1.3125 0.109375,1.9375 0,0.75 0,1.421875 -0.109375,2.0625 C 3.5,-0.296875 2.9375,0 2.484375,0 Z m 0,0"
             id="id-1b27ee68-dc7b-43df-8dd2-a1fc2580afeb-9" />
        </g>
      </g>
    </g>
  </g>
  <g
     transform="matrix(8.60987,0,0,8.60987,990.33978,409.4365)"
     ns8:version="1.9.0"
     ns8:texconverter="pdflatex"
     ns8:pdfconverter="inkscape"
     ns8:text="\\color{red}$0$"
     ns8:preamble="/home/ghasemi/.config/inkscape/extensions/textext/default_packages.tex"
     ns8:scale="0.75"
     ns8:alignment="middle center"
     ns8:stroke-to-path="0"
     ns8:inkscapeversion="1.3.2"
     id="g2200-6-0"
     ns8:jacobian_sqrt="8.60987">
    <defs
       id="id-5ba76334-379c-4fa4-8bf3-bea60d35e2e4-4">
      <g
         id="g35">
        <symbol
           overflow="visible"
           id="symbol34">
          <path
             style="stroke:none"
             d=""
             id="path34" />
        </symbol>
        <symbol
           overflow="visible"
           id="symbol35">
          <path
             style="stroke:none"
             d="m 4.578125,-3.1875 c 0,-0.796875 -0.046875,-1.59375 -0.390625,-2.328125 -0.453125,-0.96875 -1.28125,-1.125 -1.6875,-1.125 -0.609375,0 -1.328125,0.265625 -1.75,1.1875 -0.3125,0.6875 -0.359375,1.46875 -0.359375,2.265625 0,0.75 0.03125,1.640625 0.453125,2.40625 0.421875,0.796875 1.15625,1 1.640625,1 0.53125,0 1.296875,-0.203125 1.734375,-1.15625 0.3125,-0.6875 0.359375,-1.46875 0.359375,-2.25 z M 2.484375,0 C 2.09375,0 1.5,-0.25 1.328125,-1.203125 1.21875,-1.796875 1.21875,-2.71875 1.21875,-3.3125 c 0,-0.640625 0,-1.296875 0.078125,-1.828125 0.1875,-1.1875 0.9375,-1.28125 1.1875,-1.28125 0.328125,0 0.984375,0.1875 1.171875,1.171875 0.109375,0.5625 0.109375,1.3125 0.109375,1.9375 0,0.75 0,1.421875 -0.109375,2.0625 C 3.5,-0.296875 2.9375,0 2.484375,0 Z m 0,0"
             id="path35" />
        </symbol>
      </g>
    </defs>
    <g
       id="id-ef8373a3-4339-41b6-9350-15fc14464f28-2"
       transform="translate(-149.103,-128.124)">
      <g
         style="fill:#ff0000;fill-opacity:1"
         id="id-45620bcc-e0a4-4f0e-83f4-99631f1b192b-2">
        <g
           transform="translate(148.712,134.765)"
           id="g7180-6">
          <path
             style="stroke:none"
             d="m 4.578125,-3.1875 c 0,-0.796875 -0.046875,-1.59375 -0.390625,-2.328125 -0.453125,-0.96875 -1.28125,-1.125 -1.6875,-1.125 -0.609375,0 -1.328125,0.265625 -1.75,1.1875 -0.3125,0.6875 -0.359375,1.46875 -0.359375,2.265625 0,0.75 0.03125,1.640625 0.453125,2.40625 0.421875,0.796875 1.15625,1 1.640625,1 0.53125,0 1.296875,-0.203125 1.734375,-1.15625 0.3125,-0.6875 0.359375,-1.46875 0.359375,-2.25 z M 2.484375,0 C 2.09375,0 1.5,-0.25 1.328125,-1.203125 1.21875,-1.796875 1.21875,-2.71875 1.21875,-3.3125 c 0,-0.640625 0,-1.296875 0.078125,-1.828125 0.1875,-1.1875 0.9375,-1.28125 1.1875,-1.28125 0.328125,0 0.984375,0.1875 1.171875,1.171875 0.109375,0.5625 0.109375,1.3125 0.109375,1.9375 0,0.75 0,1.421875 -0.109375,2.0625 C 3.5,-0.296875 2.9375,0 2.484375,0 Z m 0,0"
             id="id-1b27ee68-dc7b-43df-8dd2-a1fc2580afeb-1" />
        </g>
      </g>
    </g>
  </g>
  <g
     transform="matrix(8.60987,0,0,8.60987,1334.3568,677.62669)"
     ns8:version="1.9.0"
     ns8:texconverter="pdflatex"
     ns8:pdfconverter="inkscape"
     ns8:text="\\color{red}$0$"
     ns8:preamble="/home/ghasemi/.config/inkscape/extensions/textext/default_packages.tex"
     ns8:scale="0.75"
     ns8:alignment="middle center"
     ns8:stroke-to-path="0"
     ns8:inkscapeversion="1.3.2"
     id="g2200-6-6"
     ns8:jacobian_sqrt="8.60987">
    <defs
       id="id-5ba76334-379c-4fa4-8bf3-bea60d35e2e4-1">
      <g
         id="g37">
        <symbol
           overflow="visible"
           id="symbol36">
          <path
             style="stroke:none"
             d=""
             id="path36" />
        </symbol>
        <symbol
           overflow="visible"
           id="symbol37">
          <path
             style="stroke:none"
             d="m 4.578125,-3.1875 c 0,-0.796875 -0.046875,-1.59375 -0.390625,-2.328125 -0.453125,-0.96875 -1.28125,-1.125 -1.6875,-1.125 -0.609375,0 -1.328125,0.265625 -1.75,1.1875 -0.3125,0.6875 -0.359375,1.46875 -0.359375,2.265625 0,0.75 0.03125,1.640625 0.453125,2.40625 0.421875,0.796875 1.15625,1 1.640625,1 0.53125,0 1.296875,-0.203125 1.734375,-1.15625 0.3125,-0.6875 0.359375,-1.46875 0.359375,-2.25 z M 2.484375,0 C 2.09375,0 1.5,-0.25 1.328125,-1.203125 1.21875,-1.796875 1.21875,-2.71875 1.21875,-3.3125 c 0,-0.640625 0,-1.296875 0.078125,-1.828125 0.1875,-1.1875 0.9375,-1.28125 1.1875,-1.28125 0.328125,0 0.984375,0.1875 1.171875,1.171875 0.109375,0.5625 0.109375,1.3125 0.109375,1.9375 0,0.75 0,1.421875 -0.109375,2.0625 C 3.5,-0.296875 2.9375,0 2.484375,0 Z m 0,0"
             id="path37" />
        </symbol>
      </g>
    </defs>
    <g
       id="id-ef8373a3-4339-41b6-9350-15fc14464f28-1"
       transform="translate(-149.103,-128.124)">
      <g
         style="fill:#ff0000;fill-opacity:1"
         id="id-45620bcc-e0a4-4f0e-83f4-99631f1b192b-7">
        <g
           transform="translate(148.712,134.765)"
           id="g7180-7">
          <path
             style="stroke:none"
             d="m 4.578125,-3.1875 c 0,-0.796875 -0.046875,-1.59375 -0.390625,-2.328125 -0.453125,-0.96875 -1.28125,-1.125 -1.6875,-1.125 -0.609375,0 -1.328125,0.265625 -1.75,1.1875 -0.3125,0.6875 -0.359375,1.46875 -0.359375,2.265625 0,0.75 0.03125,1.640625 0.453125,2.40625 0.421875,0.796875 1.15625,1 1.640625,1 0.53125,0 1.296875,-0.203125 1.734375,-1.15625 0.3125,-0.6875 0.359375,-1.46875 0.359375,-2.25 z M 2.484375,0 C 2.09375,0 1.5,-0.25 1.328125,-1.203125 1.21875,-1.796875 1.21875,-2.71875 1.21875,-3.3125 c 0,-0.640625 0,-1.296875 0.078125,-1.828125 0.1875,-1.1875 0.9375,-1.28125 1.1875,-1.28125 0.328125,0 0.984375,0.1875 1.171875,1.171875 0.109375,0.5625 0.109375,1.3125 0.109375,1.9375 0,0.75 0,1.421875 -0.109375,2.0625 C 3.5,-0.296875 2.9375,0 2.484375,0 Z m 0,0"
             id="id-1b27ee68-dc7b-43df-8dd2-a1fc2580afeb-11" />
        </g>
      </g>
    </g>
  </g>
  <g
     transform="matrix(8.60987,0,0,8.60987,982.89018,541.06417)"
     ns8:version="1.9.0"
     ns8:texconverter="pdflatex"
     ns8:pdfconverter="inkscape"
     ns8:text="\\color{red}$1$"
     ns8:preamble="/home/ghasemi/.config/inkscape/extensions/textext/default_packages.tex"
     ns8:scale="0.75"
     ns8:alignment="middle center"
     ns8:stroke-to-path="0"
     ns8:inkscapeversion="1.3.2"
     id="g2200-7"
     ns8:jacobian_sqrt="8.60987">
    <defs
       id="id-c3724ecd-f16b-4c5e-9f16-c8eb75223832">
      <g
         id="id-3200498e-8a66-4e2a-9a03-c33032316a00">
        <symbol
           overflow="visible"
           id="id-f7701148-7b7d-4d39-8c72-1d77d95e6146">
          <path
             style="stroke:none"
             d=""
             id="id-e46b15d5-a58d-42bf-ad5c-b84657afdac8" />
        </symbol>
        <symbol
           overflow="visible"
           id="id-9ee4db8c-a416-4806-97df-62d9800c1033">
          <path
             style="stroke:none"
             d="m 2.9375,-6.375 c 0,-0.25 0,-0.265625 -0.234375,-0.265625 C 2.078125,-6 1.203125,-6 0.890625,-6 v 0.3125 c 0.203125,0 0.78125,0 1.296875,-0.265625 v 5.171875 c 0,0.359375 -0.03125,0.46875 -0.921875,0.46875 h -0.3125 V 0 c 0.34375,-0.03125 1.203125,-0.03125 1.609375,-0.03125 0.390625,0 1.265625,0 1.609375,0.03125 v -0.3125 h -0.3125 c -0.90625,0 -0.921875,-0.109375 -0.921875,-0.46875 z m 0,0"
             id="id-03098542-590a-451f-8b5d-cb0ca728cb0e" />
        </symbol>
      </g>
    </defs>
    <g
       id="id-d8ac195f-88d5-4e4a-89ef-7d8631a07ad4"
       transform="translate(-149.603,-128.124)">
      <g
         style="fill:#ff0000;fill-opacity:1"
         id="id-47294bfd-dd72-4f65-b101-731a579e6d51">
        <g
           transform="translate(148.712,134.765)"
           id="g3505">
          <path
             style="stroke:none"
             d="m 2.9375,-6.375 c 0,-0.25 0,-0.265625 -0.234375,-0.265625 C 2.078125,-6 1.203125,-6 0.890625,-6 v 0.3125 c 0.203125,0 0.78125,0 1.296875,-0.265625 v 5.171875 c 0,0.359375 -0.03125,0.46875 -0.921875,0.46875 h -0.3125 V 0 c 0.34375,-0.03125 1.203125,-0.03125 1.609375,-0.03125 0.390625,0 1.265625,0 1.609375,0.03125 v -0.3125 h -0.3125 c -0.90625,0 -0.921875,-0.109375 -0.921875,-0.46875 z m 0,0"
             id="id-ddb6adde-868b-4fee-9f61-a8e22b88fb33" />
        </g>
      </g>
    </g>
  </g>
  <g
     transform="matrix(8.60987,0,0,8.60987,580.56815,430.6969)"
     ns8:version="1.9.0"
     ns8:texconverter="pdflatex"
     ns8:pdfconverter="inkscape"
     ns8:text="\\color{red}$1$"
     ns8:preamble="/home/ghasemi/.config/inkscape/extensions/textext/default_packages.tex"
     ns8:scale="0.75"
     ns8:alignment="middle center"
     ns8:stroke-to-path="0"
     ns8:inkscapeversion="1.3.2"
     id="g2200-7-9"
     ns8:jacobian_sqrt="8.60987">
    <defs
       id="id-c3724ecd-f16b-4c5e-9f16-c8eb75223832-7">
      <g
         id="g39">
        <symbol
           overflow="visible"
           id="symbol38">
          <path
             style="stroke:none"
             d=""
             id="path38" />
        </symbol>
        <symbol
           overflow="visible"
           id="symbol39">
          <path
             style="stroke:none"
             d="m 2.9375,-6.375 c 0,-0.25 0,-0.265625 -0.234375,-0.265625 C 2.078125,-6 1.203125,-6 0.890625,-6 v 0.3125 c 0.203125,0 0.78125,0 1.296875,-0.265625 v 5.171875 c 0,0.359375 -0.03125,0.46875 -0.921875,0.46875 h -0.3125 V 0 c 0.34375,-0.03125 1.203125,-0.03125 1.609375,-0.03125 0.390625,0 1.265625,0 1.609375,0.03125 v -0.3125 h -0.3125 c -0.90625,0 -0.921875,-0.109375 -0.921875,-0.46875 z m 0,0"
             id="path39" />
        </symbol>
      </g>
    </defs>
    <g
       id="id-d8ac195f-88d5-4e4a-89ef-7d8631a07ad4-5"
       transform="translate(-149.603,-128.124)">
      <g
         style="fill:#ff0000;fill-opacity:1"
         id="id-47294bfd-dd72-4f65-b101-731a579e6d51-6">
        <g
           transform="translate(148.712,134.765)"
           id="g3505-3">
          <path
             style="stroke:none"
             d="m 2.9375,-6.375 c 0,-0.25 0,-0.265625 -0.234375,-0.265625 C 2.078125,-6 1.203125,-6 0.890625,-6 v 0.3125 c 0.203125,0 0.78125,0 1.296875,-0.265625 v 5.171875 c 0,0.359375 -0.03125,0.46875 -0.921875,0.46875 h -0.3125 V 0 c 0.34375,-0.03125 1.203125,-0.03125 1.609375,-0.03125 0.390625,0 1.265625,0 1.609375,0.03125 v -0.3125 h -0.3125 c -0.90625,0 -0.921875,-0.109375 -0.921875,-0.46875 z m 0,0"
             id="id-ddb6adde-868b-4fee-9f61-a8e22b88fb33-9" />
        </g>
      </g>
    </g>
  </g>
  <g
     transform="matrix(8.60987,0,0,8.60987,1399.1644,578.15977)"
     ns8:version="1.9.0"
     ns8:texconverter="pdflatex"
     ns8:pdfconverter="inkscape"
     ns8:text="\\color{red}$1$"
     ns8:preamble="/home/ghasemi/.config/inkscape/extensions/textext/default_packages.tex"
     ns8:scale="0.75"
     ns8:alignment="middle center"
     ns8:stroke-to-path="0"
     ns8:inkscapeversion="1.3.2"
     id="g2200-7-8"
     ns8:jacobian_sqrt="8.60987">
    <defs
       id="id-c3724ecd-f16b-4c5e-9f16-c8eb75223832-1">
      <g
         id="g41">
        <symbol
           overflow="visible"
           id="symbol40">
          <path
             style="stroke:none"
             d=""
             id="path40" />
        </symbol>
        <symbol
           overflow="visible"
           id="symbol41">
          <path
             style="stroke:none"
             d="m 2.9375,-6.375 c 0,-0.25 0,-0.265625 -0.234375,-0.265625 C 2.078125,-6 1.203125,-6 0.890625,-6 v 0.3125 c 0.203125,0 0.78125,0 1.296875,-0.265625 v 5.171875 c 0,0.359375 -0.03125,0.46875 -0.921875,0.46875 h -0.3125 V 0 c 0.34375,-0.03125 1.203125,-0.03125 1.609375,-0.03125 0.390625,0 1.265625,0 1.609375,0.03125 v -0.3125 h -0.3125 c -0.90625,0 -0.921875,-0.109375 -0.921875,-0.46875 z m 0,0"
             id="path41" />
        </symbol>
      </g>
    </defs>
    <g
       id="id-d8ac195f-88d5-4e4a-89ef-7d8631a07ad4-8"
       transform="translate(-149.603,-128.124)">
      <g
         style="fill:#ff0000;fill-opacity:1"
         id="id-47294bfd-dd72-4f65-b101-731a579e6d51-8">
        <g
           transform="translate(148.712,134.765)"
           id="g3505-5">
          <path
             style="stroke:none"
             d="m 2.9375,-6.375 c 0,-0.25 0,-0.265625 -0.234375,-0.265625 C 2.078125,-6 1.203125,-6 0.890625,-6 v 0.3125 c 0.203125,0 0.78125,0 1.296875,-0.265625 v 5.171875 c 0,0.359375 -0.03125,0.46875 -0.921875,0.46875 h -0.3125 V 0 c 0.34375,-0.03125 1.203125,-0.03125 1.609375,-0.03125 0.390625,0 1.265625,0 1.609375,0.03125 v -0.3125 h -0.3125 c -0.90625,0 -0.921875,-0.109375 -0.921875,-0.46875 z m 0,0"
             id="id-ddb6adde-868b-4fee-9f61-a8e22b88fb33-0" />
        </g>
      </g>
    </g>
  </g>
  <g
     transform="matrix(8.60987,0,0,8.60987,273.2367,381.06826)"
     ns8:version="1.9.0"
     ns8:texconverter="pdflatex"
     ns8:pdfconverter="inkscape"
     ns8:text="\\color{red}$2$"
     ns8:preamble="/home/ghasemi/.config/inkscape/extensions/textext/default_packages.tex"
     ns8:scale="0.75"
     ns8:alignment="middle center"
     ns8:stroke-to-path="0"
     ns8:inkscapeversion="1.3.2"
     id="g2200-0"
     ns8:jacobian_sqrt="8.60987">
    <defs
       id="id-f30526bd-dcfb-4f51-b22d-ffbaa383e9ae">
      <g
         id="id-699657e8-5e95-406c-b2e4-a0868eb179d5">
        <symbol
           overflow="visible"
           id="id-9801b728-7732-41f5-86f2-756a68e19f8f">
          <path
             style="stroke:none"
             d=""
             id="id-03d729a6-bdfa-4867-85ff-725e3220ba12" />
        </symbol>
        <symbol
           overflow="visible"
           id="id-8504afc2-26e2-47a4-9f39-20d6ec9f7083">
          <path
             style="stroke:none"
             d="m 1.265625,-0.765625 1.0625,-1.03125 c 1.546875,-1.375 2.140625,-1.90625 2.140625,-2.90625 0,-1.140625 -0.890625,-1.9375 -2.109375,-1.9375 -1.125,0 -1.859375,0.921875 -1.859375,1.8125 0,0.546875 0.5,0.546875 0.53125,0.546875 0.171875,0 0.515625,-0.109375 0.515625,-0.53125 0,-0.25 -0.1875,-0.515625 -0.53125,-0.515625 -0.078125,0 -0.09375,0 -0.125,0.015625 0.21875,-0.65625 0.765625,-1.015625 1.34375,-1.015625 0.90625,0 1.328125,0.8125 1.328125,1.625 C 3.5625,-3.90625 3.078125,-3.125 2.515625,-2.5 l -1.90625,2.125 C 0.5,-0.265625 0.5,-0.234375 0.5,0 H 4.203125 L 4.46875,-1.734375 H 4.234375 C 4.171875,-1.4375 4.109375,-1 4,-0.84375 3.9375,-0.765625 3.28125,-0.765625 3.0625,-0.765625 Z m 0,0"
             id="id-1bda7f84-7205-4bbf-b82b-59cb1d892689" />
        </symbol>
      </g>
    </defs>
    <g
       id="id-bae36070-b731-4a28-979d-87febc74ceaa"
       transform="translate(-149.212,-128.124)">
      <g
         style="fill:#ff0000;fill-opacity:1"
         id="id-1fbad579-744b-440a-bde1-4eda324bab1e">
        <g
           transform="translate(148.712,134.765)"
           id="g8749">
          <path
             style="stroke:none"
             d="m 1.265625,-0.765625 1.0625,-1.03125 c 1.546875,-1.375 2.140625,-1.90625 2.140625,-2.90625 0,-1.140625 -0.890625,-1.9375 -2.109375,-1.9375 -1.125,0 -1.859375,0.921875 -1.859375,1.8125 0,0.546875 0.5,0.546875 0.53125,0.546875 0.171875,0 0.515625,-0.109375 0.515625,-0.53125 0,-0.25 -0.1875,-0.515625 -0.53125,-0.515625 -0.078125,0 -0.09375,0 -0.125,0.015625 0.21875,-0.65625 0.765625,-1.015625 1.34375,-1.015625 0.90625,0 1.328125,0.8125 1.328125,1.625 C 3.5625,-3.90625 3.078125,-3.125 2.515625,-2.5 l -1.90625,2.125 C 0.5,-0.265625 0.5,-0.234375 0.5,0 H 4.203125 L 4.46875,-1.734375 H 4.234375 C 4.171875,-1.4375 4.109375,-1 4,-0.84375 3.9375,-0.765625 3.28125,-0.765625 3.0625,-0.765625 Z m 0,0"
             id="id-0ee647df-dc6e-4033-bf0f-2d9c668a6b5c" />
        </g>
      </g>
    </g>
  </g>
  <path
     style="fill:none;stroke:#000000;stroke-width:3;stroke-linecap:butt;stroke-linejoin:miter;stroke-opacity:1;stroke-dasharray:none"
     d="m 432.36187,539.81437 c 9.76901,0 266.47391,36.63997 266.47391,36.63997 l -59.82481,157.60718 -203.65523,-53.2344 z"
     id="path42" />
</svg>
