<svg width="2120" height="773" xmlns="http://www.w3.org/2000/svg" xmlns:xlink="http://www.w3.org/1999/xlink" overflow="hidden"><defs><clipPath id="clip0"><rect x="1101" y="849" width="2120" height="773"/></clipPath></defs><g clip-path="url(#clip0)" transform="translate(-1101 -849)"><path d="M1742.08 1043.5 1742.08 1137.55 1732.92 1137.55 1732.92 1043.5ZM1751.25 1137.55C1751.25 1145.15 1745.09 1151.3 1737.5 1151.3 1729.91 1151.3 1723.75 1145.15 1723.75 1137.55 1723.75 1129.96 1729.91 1123.8 1737.5 1123.8 1745.09 1123.8 1751.25 1129.96 1751.25 1137.55Z"/><path d="M1927.08 1044.5 1927.08 1151.38 1917.92 1151.38 1917.92 1044.5ZM1936.25 1146.79 1922.5 1174.29 1908.75 1146.79Z"/><text font-family="Arial,Arial_MSFontService,sans-serif" font-weight="400" font-size="41" transform="matrix(1 0 0 1 1585.63 1094)">Match?<tspan font-size="41" x="34" y="50">no</tspan><tspan font-size="41" x="190.051" y="-7">Match?</tspan><tspan font-size="41" x="224.051" y="43">yes</tspan></text><path d="M1123.5 983.5 3192.66 983.5" stroke="#000000" stroke-width="9.16667" stroke-linejoin="round" stroke-miterlimit="10" fill="none" fill-rule="evenodd"/><path d="M1123.5 1040.5 3192.66 1040.5" stroke="#000000" stroke-width="9.16667" stroke-linejoin="round" stroke-miterlimit="10" fill="none" fill-rule="evenodd"/><text font-family="Arial,Arial_MSFontService,sans-serif" font-weight="400" font-size="41" transform="matrix(1 0 0 1 1133.87 1025)">MPI</text><path d="M1541.5 983.5 1541.5 1039.93" stroke="#000000" stroke-width="9.16667" stroke-linejoin="round" stroke-miterlimit="10" fill="none" fill-rule="evenodd"/><path d="M2762.5 983.5 2762.5 1039.93" stroke="#000000" stroke-width="9.16667" stroke-linejoin="round" stroke-miterlimit="10" fill="none" fill-rule="evenodd"/><rect x="1543" y="987" width="1217" height="50.0002" fill="#B7DEE8"/><path d="M1123.5 853.5 3192.66 853.5" stroke="#000000" stroke-width="9.16667" stroke-linejoin="round" stroke-miterlimit="10" fill="none" fill-rule="evenodd"/><path d="M1123.5 947.5 3192.66 947.5" stroke="#000000" stroke-width="9.16667" stroke-linejoin="round" stroke-miterlimit="10" fill="none" fill-rule="evenodd"/><text font-family="Arial,Arial_MSFontService,sans-serif" font-weight="400" font-size="41" transform="matrix(1 0 0 1 1133.87 908)">process<tspan font-size="41" x="156" y="0">A</tspan></text><path d="M1541.5 853.5 1541.5 947.553" stroke="#000000" stroke-width="9.16667" stroke-linejoin="round" stroke-miterlimit="10" fill="none" fill-rule="evenodd"/><path d="M2588.5 853.5 2588.5 947.553" stroke="#000000" stroke-width="9.16667" stroke-linejoin="round" stroke-miterlimit="10" fill="none" fill-rule="evenodd"/><rect x="1544" y="856" width="1041" height="89.0001" fill="#B7DEE8"/><text font-family="Arial,Arial_MSFontService,sans-serif" font-weight="400" font-size="41" transform="matrix(1 0 0 1 1793.65 913)">MPI_SSEND (blocking)<tspan font-size="41" x="981.711" y="-3">continues</tspan></text><path d="M0 194 178.565 0 195 0 16.4349 194Z" fill-rule="evenodd" transform="matrix(-1 0 0 1 2142 1101)"/><path d="M0 194 178.565 0 196 0 17.4346 194Z" fill-rule="evenodd" transform="matrix(-1 0 0 1 2184 1101)"/><path d="M0 194 178.565 0 195 0 16.4349 194Z" fill-rule="evenodd" transform="matrix(-1 0 0 1 2225 1101)"/><path d="M0 194 178.565 0 196 0 17.4346 194Z" fill-rule="evenodd" transform="matrix(-1 0 0 1 2267 1101)"/><path d="M0 194 178.565 0 196 0 17.4346 194Z" fill-rule="evenodd" transform="matrix(-1 0 0 1 2308 1101)"/><path d="M0 194 178.565 0 195 0 16.4349 194Z" fill-rule="evenodd" transform="matrix(-1 0 0 1 2349 1101)"/><path d="M0 194 178.566 0 196 0 17.4347 194Z" fill-rule="evenodd" transform="matrix(-1 0 0 1 2391 1101)"/><path d="M0 194 178.565 0 195 0 16.4349 194Z" fill-rule="evenodd" transform="matrix(-1 0 0 1 2432 1101)"/><path d="M0 194 178.565 0 196 0 17.4346 194Z" fill-rule="evenodd" transform="matrix(-1 0 0 1 2474 1101)"/><path d="M0 194 178.565 0 195 0 16.4349 194Z" fill-rule="evenodd" transform="matrix(-1 0 0 1 2515 1101)"/><path d="M0 194 178.566 0 196 0 17.4347 194Z" fill-rule="evenodd" transform="matrix(-1 0 0 1 2557 1101)"/><path d="M0 194 178.565 0 195 0 16.4349 194Z" fill-rule="evenodd" transform="matrix(-1 0 0 1 2598 1101)"/><path d="M0 194 178.565 0 196 0 17.4346 194Z" fill-rule="evenodd" transform="matrix(-1 0 0 1 2640 1101)"/><path d="M0 194 178.565 0 196 0 17.4346 194Z" fill-rule="evenodd" transform="matrix(-1 0 0 1 2681 1101)"/><path d="M0 194 178.565 0 195 0 16.4349 194Z" fill-rule="evenodd" transform="matrix(-1 0 0 1 2722 1101)"/><path d="M0 194 178.565 0 196 0 17.4346 194Z" fill-rule="evenodd" transform="matrix(-1 0 0 1 2764 1101)"/><path d="M1123.5 1311.5 3192.66 1311.5" stroke="#000000" stroke-width="9.16667" stroke-linejoin="round" stroke-miterlimit="10" fill="none" fill-rule="evenodd"/><path d="M1123.5 1367.5 3192.66 1367.5" stroke="#000000" stroke-width="9.16667" stroke-linejoin="round" stroke-miterlimit="10" fill="none" fill-rule="evenodd"/><text font-family="Arial,Arial_MSFontService,sans-serif" font-weight="400" font-size="41" transform="matrix(1 0 0 1 1133.87 1352)">MPI</text><path d="M1895.5 1311.5 1895.5 1367.93" stroke="#000000" stroke-width="9.16667" stroke-linejoin="round" stroke-miterlimit="10" fill="none" fill-rule="evenodd"/><path d="M2762.5 1308.5 2762.5 1364.93" stroke="#000000" stroke-width="9.16667" stroke-linejoin="round" stroke-miterlimit="10" fill="none" fill-rule="evenodd"/><rect x="1898" y="1314" width="863" height="48.9998" fill="#B7DEE8"/><path d="M1953.08 952.5 1953.08 961.667 1943.92 961.667 1943.92 952.5ZM1953.08 970.833 1953.08 980 1943.92 980 1943.92 970.833ZM1953.08 989.167 1953.08 998.333 1943.92 998.333 1943.92 989.167ZM1953.08 1007.5 1953.08 1016.67 1943.92 1016.67 1943.92 1007.5ZM1953.08 1025.83 1953.08 1035 1943.92 1035 1943.92 1025.83ZM1953.08 1044.17 1953.08 1053.33 1943.92 1053.33 1943.92 1044.17ZM1953.08 1062.5 1953.08 1070.66 1943.92 1070.66 1943.92 1062.5ZM1962.25 1066.08 1948.5 1093.58 1934.75 1066.08Z"/><path d="M4.58333-1.27441e-05 4.58363 106.876-4.58304 106.876-4.58333 1.27441e-05ZM13.7503 102.292 0.000360892 129.792-13.7497 102.292Z" transform="matrix(1 0 0 -1 1922.5 1307.29)"/><path d="M2593.08 950.5 2593.08 959.667 2583.92 959.667 2583.92 950.5ZM2593.08 968.833 2593.08 978 2583.92 978 2583.92 968.833ZM2593.08 987.167 2593.08 996.333 2583.92 996.333 2583.92 987.167ZM2593.08 1005.5 2593.08 1014.67 2583.92 1014.67 2583.92 1005.5ZM2593.08 1023.83 2593.08 1033 2583.92 1033 2583.92 1023.83ZM2593.08 1042.17 2593.08 1051.33 2583.92 1051.33 2583.92 1042.17ZM2593.08 1060.5 2593.08 1061.14 2583.92 1061.14 2583.92 1060.5ZM2602.25 1056.55 2588.5 1084.05 2574.75 1056.55Z"/><text font-family="Arial,Arial_MSFontService,sans-serif" font-weight="400" font-size="41" transform="matrix(1 0 0 1 2380.1 1085)">completed</text><path d="M2768.08 1044.5 2768.08 1053.67 2758.92 1053.67 2758.92 1044.5ZM2768.08 1062.83 2768.08 1072 2758.92 1072 2758.92 1062.83ZM2768.08 1081.17 2768.08 1090.33 2758.92 1090.33 2758.92 1081.17ZM2768.08 1099.5 2768.08 1108.67 2758.92 1108.67 2758.92 1099.5ZM2768.08 1117.83 2768.08 1127 2758.92 1127 2758.92 1117.83ZM2768.08 1136.17 2768.08 1145.33 2758.92 1145.33 2758.92 1136.17ZM2768.08 1154.5 2768.08 1163.67 2758.92 1163.67 2758.92 1154.5ZM2768.08 1172.83 2768.08 1182 2758.92 1182 2758.92 1172.83ZM2768.08 1191.17 2768.08 1200.33 2758.92 1200.33 2758.92 1191.17ZM2768.08 1209.5 2768.08 1218.67 2758.92 1218.67 2758.92 1209.5ZM2768.08 1227.83 2768.08 1237 2758.92 1237 2758.92 1227.83ZM2768.08 1246.17 2768.08 1255.33 2758.92 1255.33 2758.92 1246.17ZM2768.08 1264.5 2768.08 1266.12 2758.92 1266.12 2758.92 1264.5ZM2777.25 1261.54 2763.5 1289.04 2749.75 1261.54Z"/><path d="M1123.5 1394.5 3192.66 1394.5" stroke="#000000" stroke-width="9.16667" stroke-linejoin="round" stroke-miterlimit="10" fill="none" fill-rule="evenodd"/><path d="M1123.5 1488.5 3192.66 1488.5" stroke="#000000" stroke-width="9.16667" stroke-linejoin="round" stroke-miterlimit="10" fill="none" fill-rule="evenodd"/><text font-family="Arial,Arial_MSFontService,sans-serif" font-weight="400" font-size="41" transform="matrix(1 0 0 1 1133.87 1450)">process<tspan font-size="41" x="156" y="0">B</tspan></text><path d="M1895.5 1394.5 1895.5 1488.55" stroke="#000000" stroke-width="9.16667" stroke-linejoin="round" stroke-miterlimit="10" fill="none" fill-rule="evenodd"/><path d="M2763.5 1394.5 2763.5 1488.55" stroke="#000000" stroke-width="9.16667" stroke-linejoin="round" stroke-miterlimit="10" fill="none" fill-rule="evenodd"/><rect x="1897" y="1397" width="863" height="89" fill="#B7DEE8"/><text font-family="Arial,Arial_MSFontService,sans-serif" font-weight="400" font-size="41" transform="matrix(1 0 0 1 2057.92 1455)">MPI_RECV (blocking)<tspan font-size="41" x="781.017" y="-2">continues</tspan></text><path d="M1123.5 1523.92 3169.74 1523.92 3169.74 1533.08 1123.5 1533.08ZM3165.16 1514.75 3192.66 1528.5 3165.16 1542.25Z" fill="#49702E"/><text fill="#49702E" font-family="Arial,Arial_MSFontService,sans-serif" font-weight="400" font-size="41" transform="matrix(1 0 0 1 3062.44 1587)">time</text></g></svg>