<svg width="3122" height="765" xmlns="http://www.w3.org/2000/svg" xmlns:xlink="http://www.w3.org/1999/xlink" overflow="hidden"><defs><clipPath id="clip0"><rect x="41" y="512" width="3122" height="765"/></clipPath></defs><g clip-path="url(#clip0)" transform="translate(-41 -512)"><path d="M239.5 1170.92 3074.87 1170.92 3074.87 1180.08 239.5 1180.08ZM3070.27 1161.75 3097.77 1175.5 3070.27 1189.25Z" fill="#49702E"/><text fill="#49702E" font-family="Arial,Arial_MSFontService,sans-serif" font-weight="400" font-size="46" transform="matrix(1 0 0 1 2961.87 1238)">time</text><path d="M590.083 608.5 590.083 617.667 580.917 617.667 580.917 608.5ZM590.083 626.833 590.083 636 580.917 636 580.917 626.833ZM590.083 645.167 590.083 654.333 580.917 654.333 580.917 645.167ZM590.083 663.5 590.083 672.667 580.917 672.667 580.917 663.5ZM590.083 681.833 590.083 691 580.917 691 580.917 681.833ZM590.083 700.167 590.083 709.333 580.917 709.333 580.917 700.167ZM590.083 718.5 590.083 727.667 580.917 727.667 580.917 718.5ZM599.25 729.5 585.5 757 571.75 729.5Z"/><path d="M250.5 516.5 3108.77 516.501" stroke="#000000" stroke-width="9.16667" stroke-linejoin="round" stroke-miterlimit="10" fill="none" fill-rule="evenodd"/><path d="M250.5 605.5 3108.77 605.5" stroke="#000000" stroke-width="9.16667" stroke-linejoin="round" stroke-miterlimit="10" fill="none" fill-rule="evenodd"/><text font-family="Arial,Arial_MSFontService,sans-serif" font-weight="400" font-size="46" transform="matrix(1 0 0 1 73.9367 575)">rank<tspan font-size="46" x="101" y="0">0</tspan></text><rect x="252.5" y="516.5" width="269" height="88.9997" stroke="#000000" stroke-width="9.16667" stroke-linejoin="round" stroke-miterlimit="10" fill="#B7DEE8"/><text font-family="Arial,Arial_MSFontService,sans-serif" font-weight="400" font-size="46" transform="matrix(1 0 0 1 315.236 578)">M. &amp; M.<tspan font-size="46" x="226.115" y="0">P. &amp; C.</tspan></text><rect x="700.5" y="516.5" width="546" height="88.9997" stroke="#000000" stroke-width="9.16667" stroke-linejoin="round" stroke-miterlimit="10" fill="#B7DEE8"/><text font-family="Arial,Arial_MSFontService,sans-serif" font-weight="400" font-size="46" transform="matrix(1 0 0 1 882.535 578)">M. &amp; M.<tspan font-size="46" x="376.196" y="0">P. &amp; C.</tspan></text><rect x="1419.5" y="516.5" width="596" height="88.9997" stroke="#000000" stroke-width="9.16667" stroke-linejoin="round" stroke-miterlimit="10" fill="#B7DEE8"/><text font-family="Arial,Arial_MSFontService,sans-serif" font-weight="400" font-size="46" transform="matrix(1 0 0 1 1642.22 578)">M. &amp; M.<tspan font-size="46" x="411.629" y="0">P. &amp; C.</tspan></text><rect x="2267.5" y="516.5" width="222" height="88.9997" stroke="#000000" stroke-width="9.16667" stroke-linejoin="round" stroke-miterlimit="10" fill="#B7DEE8"/><text font-family="Arial,Arial_MSFontService,sans-serif" font-weight="400" font-size="46" transform="matrix(1 0 0 1 2305.55 578)">M. &amp; M.<tspan font-size="46" x="219.24" y="0">P. &amp; C.</tspan><tspan font-size="46" x="610.833" y="0">continues</tspan></text><path d="M250.5 1043.5 3108.77 1043.5" stroke="#000000" stroke-width="9.16667" stroke-linejoin="round" stroke-miterlimit="10" fill="none" fill-rule="evenodd"/><path d="M250.5 1132.5 3108.77 1132.5" stroke="#000000" stroke-width="9.16667" stroke-linejoin="round" stroke-miterlimit="10" fill="none" fill-rule="evenodd"/><text font-family="Arial,Arial_MSFontService,sans-serif" font-weight="400" font-size="46" transform="matrix(1 0 0 1 73.9367 1102)">rank<tspan font-size="46" x="101" y="0">2</tspan></text><rect x="252.5" y="1043.5" width="546" height="89" stroke="#000000" stroke-width="9.16667" stroke-linejoin="round" stroke-miterlimit="10" fill="#B7DEE8"/><text font-family="Arial,Arial_MSFontService,sans-serif" font-weight="400" font-size="46" transform="matrix(1 0 0 1 463.1 1104)">M. &amp; M.<tspan font-size="46" x="408.25" y="0">P. &amp; C.</tspan></text><rect x="1053.5" y="1043.5" width="225" height="89" stroke="#000000" stroke-width="9.16667" stroke-linejoin="round" stroke-miterlimit="10" fill="#B7DEE8"/><text font-family="Arial,Arial_MSFontService,sans-serif" font-weight="400" font-size="46" transform="matrix(1 0 0 1 1086.44 1104)">M. &amp; M.<tspan font-size="46" x="237.407" y="0">P. &amp; C.</tspan></text><rect x="1508.5" y="1043.5" width="1001" height="89" stroke="#000000" stroke-width="9.16667" stroke-linejoin="round" stroke-miterlimit="10" fill="#B7DEE8"/><text font-family="Arial,Arial_MSFontService,sans-serif" font-weight="400" font-size="46" transform="matrix(1 0 0 1 1934.81 1104)">M. &amp; M.<tspan font-size="46" x="604.648" y="0">P. &amp; C.</tspan><tspan font-size="46" x="981.571" y="0">continues</tspan></text><path d="M250.5 773.5 3108.77 773.5" stroke="#000000" stroke-width="9.16667" stroke-linejoin="round" stroke-miterlimit="10" fill="none" fill-rule="evenodd"/><path d="M250.5 862.5 3108.77 862.5" stroke="#000000" stroke-width="9.16667" stroke-linejoin="round" stroke-miterlimit="10" fill="none" fill-rule="evenodd"/><text font-family="Arial,Arial_MSFontService,sans-serif" font-weight="400" font-size="46" transform="matrix(1 0 0 1 73.9367 832)">rank<tspan font-size="46" x="101" y="0">1</tspan></text><rect x="252.5" y="773.5" width="185" height="88" stroke="#000000" stroke-width="9.16667" stroke-linejoin="round" stroke-miterlimit="10" fill="#B7DEE8"/><text font-family="Arial,Arial_MSFontService,sans-serif" font-weight="400" font-size="46" transform="matrix(1 0 0 1 267.161 834)">M. &amp; M.<tspan font-size="46" x="193.704" y="0">P. &amp; C.</tspan></text><rect x="628.5" y="773.5" width="583" height="88" stroke="#000000" stroke-width="9.16667" stroke-linejoin="round" stroke-miterlimit="10" fill="#B7DEE8"/><text font-family="Arial,Arial_MSFontService,sans-serif" font-weight="400" font-size="46" transform="matrix(1 0 0 1 882.535 834)">M. &amp; M.<tspan font-size="46" x="403.422" y="0">P. &amp; C.</tspan></text><rect x="1457.5" y="773.5" width="193" height="88" stroke="#000000" stroke-width="9.16667" stroke-linejoin="round" stroke-miterlimit="10" fill="#B7DEE8"/><text font-family="Arial,Arial_MSFontService,sans-serif" font-weight="400" font-size="46" transform="matrix(1 0 0 1 1481.25 834)">M. &amp; M.<tspan font-size="46" x="205.042" y="0">P. &amp; C.</tspan></text><rect x="1862.5" y="773.5" width="221" height="88" stroke="#000000" stroke-width="9.16667" stroke-linejoin="round" stroke-miterlimit="10" fill="#B7DEE8"/><text font-family="Arial,Arial_MSFontService,sans-serif" font-weight="400" font-size="46" transform="matrix(1 0 0 1 1900.43 834)">M. &amp; M.<tspan font-size="46" x="205.825" y="0">P. &amp; C.</tspan><tspan font-size="46" x="1015.95" y="0">continues</tspan></text><rect x="2270.5" y="773.5" width="221" height="89.0001" stroke="#000000" stroke-width="9.16667" stroke-linejoin="round" stroke-miterlimit="10" fill="#B7DEE8"/><text font-family="Arial,Arial_MSFontService,sans-serif" font-weight="400" font-size="46" transform="matrix(1 0 0 1 2309.04 835)">M. &amp; M.<tspan font-size="46" x="218.348" y="0">P. &amp; C.</tspan></text><path d="M0-4.58333 9.16667-4.58333 9.16667 4.58333 0 4.58333ZM18.3333-4.58333 27.5-4.58333 27.5 4.58333 18.3333 4.58333ZM36.6667-4.58333 45.8333-4.58333 45.8333 4.58333 36.6667 4.58333ZM55-4.58333 64.1667-4.58333 64.1667 4.58333 55 4.58333ZM73.3333-4.58333 82.5-4.58333 82.5 4.58333 73.3333 4.58333ZM91.6667-4.58333 100.833-4.58333 100.833 4.58333 91.6667 4.58333ZM110-4.58333 119.167-4.58333 119.167 4.58333 110 4.58333ZM128.333-4.58333 137.5-4.58333 137.5 4.58333 128.333 4.58333ZM146.667-4.58333 155.833-4.58333 155.833 4.58333 146.667 4.58333ZM165-4.58333 174.167-4.58333 174.167 4.58333 165 4.58333ZM183.333-4.58333 192.5-4.58333 192.5 4.58333 183.333 4.58333ZM201.667-4.58333 210.826-4.58333C213.358-4.58333 215.41-2.53131 215.41 0L215.41 0.00685696 206.243 0.00685696 206.243 0 210.826 4.58333 201.667 4.58333ZM215.41 9.17352 215.41 18.3402 206.243 18.3402 206.243 9.17352ZM215.41 27.5069 215.41 36.6735 206.243 36.6735 206.243 27.5069ZM215.41 45.8402 215.41 55.0069 206.243 55.0069 206.243 45.8402ZM215.41 64.1735 215.41 73.3402 206.243 73.3402 206.243 64.1735ZM215.41 82.5069 215.41 91.6735 206.243 91.6735 206.243 82.5069ZM215.41 100.84 215.41 110.007 206.243 110.007 206.243 100.84ZM215.41 119.174 215.41 128.34 206.243 128.34 206.243 119.174ZM215.41 137.507 215.41 146.674 206.243 146.674 206.243 137.507ZM215.41 155.84 215.41 165.007 206.243 165.007 206.243 155.84ZM215.41 174.174 215.41 183.34 206.243 183.34 206.243 174.174ZM215.41 192.507 215.41 192.684 210.826 188.101 219.816 188.101 219.816 197.268 210.826 197.268C208.295 197.268 206.243 195.216 206.243 192.684L206.243 192.507ZM228.982 188.101 238.149 188.101 238.149 197.268 228.982 197.268ZM247.316 188.101 256.482 188.101 256.482 197.268 247.316 197.268ZM265.649 188.101 274.816 188.101 274.816 197.268 265.649 197.268ZM283.982 188.101 293.149 188.101 293.149 197.268 283.982 197.268ZM302.316 188.101 311.482 188.101 311.482 197.268 302.316 197.268ZM320.649 188.101 329.816 188.101 329.816 197.268 320.649 197.268ZM338.982 188.101 348.149 188.101 348.149 197.268 338.982 197.268ZM357.316 188.101 366.482 188.101 366.482 197.268 357.316 197.268ZM375.649 188.101 384.816 188.101 384.816 197.268 375.649 197.268ZM393.982 188.101 398.736 188.101 398.736 197.268 393.982 197.268ZM394.153 178.934 421.653 192.684 394.153 206.434Z" transform="matrix(1.83697e-16 1 1 -1.83697e-16 669.5 611.5)"/><path d="M0-4.58333 9.16667-4.58333 9.16667 4.58333 0 4.58333ZM18.3333-4.58333 27.5-4.58333 27.5 4.58333 18.3333 4.58333ZM36.6667-4.58333 45.8333-4.58333 45.8333 4.58333 36.6667 4.58333ZM55-4.58333 64.1667-4.58333 64.1667 4.58333 55 4.58333ZM73.3333-4.58333 73.7708-4.58333C76.3021-4.58333 78.3541-2.53131 78.3541 0L78.3541 8.72921 69.1875 8.72921 69.1875 0 73.7708 4.58333 73.3333 4.58333ZM78.3541 17.8959 78.3541 27.0625 69.1875 27.0625 69.1875 17.8959ZM78.3541 36.2292 78.3541 45.3959 69.1875 45.3959 69.1875 36.2292ZM78.3541 54.5625 78.3541 63.7292 69.1875 63.7292 69.1875 54.5625ZM78.3541 72.8959 78.3541 82.0625 69.1875 82.0625 69.1875 72.8959ZM78.3541 91.2292 78.3541 100.396 69.1875 100.396 69.1875 91.2292ZM78.3541 109.563 78.3541 118.729 69.1875 118.729 69.1875 109.563ZM78.3541 127.896 78.3541 137.063 69.1875 137.063 69.1875 127.896ZM78.3541 146.229 78.3541 155.396 69.1875 155.396 69.1875 146.229ZM78.3541 164.563 78.3541 173.729 69.1875 173.729 69.1875 164.563ZM78.3541 182.896 78.3541 192.063 69.1875 192.063 69.1875 182.896ZM78.3541 201.229 78.3541 210.396 69.1875 210.396 69.1875 201.229ZM78.3541 219.563 78.3541 228.729 69.1875 228.729 69.1875 219.563ZM80.6667 226.417 89.8333 226.417 89.8333 235.583 80.6667 235.583ZM99 226.417 108.167 226.417 108.167 235.583 99 235.583ZM117.333 226.417 126.5 226.417 126.5 235.583 117.333 235.583ZM135.667 226.417 144.833 226.417 144.833 235.583 135.667 235.583ZM154 226.417 156.561 226.417 156.561 235.583 154 235.583ZM151.978 217.25 179.478 231 151.978 244.75Z" transform="matrix(1.83697e-16 1 1 -1.83697e-16 591.5 863.5)"/><path d="M903.917 1039.88 903.917 1030.71 913.083 1030.71 913.083 1039.88ZM903.917 1021.54 903.917 1012.38 913.083 1012.38 913.083 1021.54ZM903.917 1003.21 903.917 994.043 913.083 994.043 913.083 1003.21ZM903.917 984.876 903.917 975.709 913.083 975.709 913.083 984.876ZM903.917 966.543 903.917 957.376 913.083 957.376 913.083 966.543ZM903.917 948.209 903.917 939.043 913.083 939.043 913.083 948.209ZM903.917 929.876 903.917 920.709 913.083 920.709 913.083 929.876ZM903.917 911.543 903.917 902.376 913.083 902.376 913.083 911.543ZM909.513 889.638 918.679 889.638 918.679 898.805 909.513 898.805ZM927.846 889.638 937.013 889.638 937.013 898.805 927.846 898.805ZM946.179 889.638 955.346 889.638 955.346 898.805 946.179 898.805ZM964.513 889.638 973.679 889.638 973.679 898.805 964.513 898.805ZM982.846 889.638 992.013 889.638 992.013 898.805 982.846 898.805ZM1001.18 889.638 1010.35 889.638 1010.35 898.805 1001.18 898.805ZM1019.51 889.638 1028.68 889.638 1028.68 898.805 1019.51 898.805ZM1037.85 889.638 1047.01 889.638 1047.01 898.805 1037.85 898.805ZM1056.18 889.638 1065.35 889.638 1065.35 898.805 1056.18 898.805ZM1074.51 889.638 1083.68 889.638 1083.68 898.805 1074.51 898.805ZM1092.85 889.638 1102.01 889.638 1102.01 898.805 1092.85 898.805ZM1111.18 889.638 1120.35 889.638 1120.35 898.805 1111.18 898.805ZM1129.51 889.638 1138.68 889.638 1138.68 898.805 1129.51 898.805ZM1147.85 889.638 1157.01 889.638 1157.01 898.805 1147.85 898.805ZM1166.18 889.638 1175.35 889.638 1175.35 898.805 1166.18 898.805ZM1184.51 889.638 1193.68 889.638 1193.68 898.805 1184.51 898.805ZM1202.85 889.638 1212.01 889.638 1212.01 898.805 1202.85 898.805ZM1221.18 889.638 1230.35 889.638 1230.35 898.805 1221.18 898.805ZM1239.51 889.638 1248.68 889.638 1248.68 898.805 1239.51 898.805ZM1257.85 889.638 1262.77 889.638 1258.19 894.222 1258.19 889.979 1267.35 889.979 1267.35 894.222C1267.35 896.753 1265.3 898.805 1262.77 898.805L1257.85 898.805ZM1258.19 880.812 1258.19 871.646 1267.35 871.646 1267.35 880.812ZM1258.19 862.479 1258.19 853.312 1267.35 853.312 1267.35 862.479ZM1258.19 844.146 1258.19 834.979 1267.35 834.979 1267.35 844.146ZM1258.19 825.812 1258.19 816.646 1267.35 816.646 1267.35 825.812ZM1258.19 807.479 1258.19 798.312 1267.35 798.312 1267.35 807.479ZM1258.19 789.146 1258.19 779.979 1267.35 779.979 1267.35 789.146ZM1258.19 770.812 1258.19 761.646 1267.35 761.646 1267.35 770.812ZM1258.19 752.479 1258.19 743.312 1267.35 743.312 1267.35 752.479ZM1258.19 734.146 1258.19 724.979 1267.35 724.979 1267.35 734.146ZM1258.19 715.812 1258.19 706.646 1267.35 706.646 1267.35 715.812ZM1258.19 697.479 1258.19 688.312 1267.35 688.312 1267.35 697.479ZM1258.19 679.146 1258.19 669.979 1267.35 669.979 1267.35 679.146ZM1258.19 660.812 1258.19 651.646 1267.35 651.646 1267.35 660.812ZM1258.19 642.479 1258.19 638.417 1267.35 638.417 1267.35 642.479ZM1249.02 643 1262.77 615.5 1276.52 643Z"/><path d="M1024.92 1036.1 1024.92 1026.93 1034.08 1026.93 1034.08 1036.1ZM1024.92 1017.77 1024.92 1008.6 1034.08 1008.6 1034.08 1017.77ZM1024.92 999.433 1024.92 990.267 1034.08 990.267 1034.08 999.433ZM1024.92 981.1 1024.92 971.933 1034.08 971.933 1034.08 981.1ZM1024.92 962.767 1024.92 959.863C1024.92 957.332 1026.97 955.28 1029.5 955.28L1035.76 955.28 1035.76 964.447 1029.5 964.447 1034.08 959.863 1034.08 962.767ZM1044.93 955.28 1054.1 955.28 1054.1 964.447 1044.93 964.447ZM1063.26 955.28 1072.43 955.28 1072.43 964.447 1063.26 964.447ZM1081.6 955.28 1090.76 955.28 1090.76 964.447 1081.6 964.447ZM1099.93 955.28 1109.1 955.28 1109.1 964.447 1099.93 964.447ZM1118.26 955.28 1127.43 955.28 1127.43 964.447 1118.26 964.447ZM1136.6 955.28 1145.76 955.28 1145.76 964.447 1136.6 964.447ZM1154.93 955.28 1164.1 955.28 1164.1 964.447 1154.93 964.447ZM1173.26 955.28 1182.43 955.28 1182.43 964.447 1173.26 964.447ZM1191.6 955.28 1200.76 955.28 1200.76 964.447 1191.6 964.447ZM1209.93 955.28 1219.1 955.28 1219.1 964.447 1209.93 964.447ZM1228.26 955.28 1237.43 955.28 1237.43 964.447 1228.26 964.447ZM1246.6 955.28 1255.76 955.28 1255.76 964.447 1246.6 964.447ZM1264.93 955.28 1274.1 955.28 1274.1 964.447 1264.93 964.447ZM1283.26 955.28 1292.43 955.28 1292.43 964.447 1283.26 964.447ZM1301.6 955.28 1310.76 955.28 1310.76 964.447 1301.6 964.447ZM1319.93 955.28 1329.1 955.28 1329.1 964.447 1319.93 964.447ZM1338.26 955.28 1347.43 955.28 1347.43 964.447 1338.26 964.447ZM1356.6 955.28 1365.76 955.28 1365.76 964.447 1356.6 964.447ZM1374.93 955.28 1376 955.28 1371.42 959.863 1371.42 951.767 1380.58 951.767 1380.58 959.863C1380.58 962.395 1378.53 964.447 1376 964.447L1374.93 964.447ZM1371.42 942.6 1371.42 933.433 1380.58 933.433 1380.58 942.6ZM1371.42 924.267 1371.42 915.1 1380.58 915.1 1380.58 924.267ZM1371.42 905.933 1371.42 896.767 1380.58 896.767 1380.58 905.933ZM1371.42 887.6 1371.42 887.417 1380.58 887.417 1380.58 887.6ZM1362.25 892 1376 864.5 1389.75 892Z"/><path d="M4.58333-1.06647e-05 4.58335 9.16666-4.58331 9.16668-4.58333 1.06647e-05ZM4.58338 18.3333 4.5834 27.5-4.58327 27.5-4.58329 18.3333ZM4.58342 36.6667 4.58344 45.8333-4.58323 45.8333-4.58325 36.6667ZM4.58346 55 4.58348 64.1667-4.58318 64.1667-4.58321 55ZM4.5835 73.3333 4.58353 82.5-4.58314 82.5-4.58316 73.3333ZM4.58355 91.6667 4.58357 100.833-4.5831 100.833-4.58312 91.6667ZM4.58359 110 4.58361 119.167-4.58306 119.167-4.58308 110ZM4.58363 128.333 4.58364 132.183-4.58303 132.183-4.58303 128.333ZM13.7503 127.6 0.000360892 155.1-13.7497 127.6Z" transform="matrix(1 0 0 -1 551.5 768.6)"/></g></svg>