<svg width="2945" height="791" xmlns="http://www.w3.org/2000/svg" xmlns:xlink="http://www.w3.org/1999/xlink" overflow="hidden"><defs><clipPath id="clip0"><rect x="161" y="910" width="2945" height="791"/></clipPath></defs><g clip-path="url(#clip0)" transform="translate(-161 -910)"><path d="M581.5 1594.92 3033.59 1594.92 3033.59 1604.08 581.5 1604.08ZM3029 1585.75 3056.5 1599.5 3029 1613.25Z" fill="#49702E"/><text fill="#49702E" font-family="Arial,Arial_MSFontService,sans-serif" font-weight="400" font-size="46" transform="matrix(1 0 0 1 2926.62 1662)">time</text><path d="M925.083 1032.5 925.083 1041.67 915.917 1041.67 915.917 1032.5ZM925.083 1050.83 925.083 1060 915.917 1060 915.917 1050.83ZM925.083 1069.17 925.083 1078.33 915.917 1078.33 915.917 1069.17ZM925.084 1087.5 925.084 1096.67 915.917 1096.67 915.917 1087.5ZM925.084 1105.83 925.084 1115 915.917 1115 915.917 1105.83ZM925.084 1124.17 925.084 1133.33 915.917 1133.33 915.917 1124.17ZM925.084 1142.5 925.084 1151.67 915.917 1151.67 915.917 1142.5ZM934.25 1153.5 920.5 1181 906.75 1153.5Z"/><text font-family="Arial,Arial_MSFontService,sans-serif" font-weight="400" font-size="46" transform="matrix(1 0 0 1 409.11 971)">rank<tspan font-size="46" x="101" y="0">0</tspan><tspan font-size="46" x="0" y="55">rank 1</tspan><tspan font-size="46" x="0" y="530">rank 4</tspan><tspan font-size="46" x="0" y="585">rank 5</tspan><tspan font-size="46" x="0" y="260">rank</tspan><tspan font-size="46" x="101" y="260">2</tspan><tspan font-size="46" x="0" y="315">rank</tspan><tspan font-size="46" x="101" y="315">3</tspan></text><path d="M0-4.58333 9.16667-4.58333 9.16667 4.58333 0 4.58333ZM18.3333-4.58333 27.5-4.58333 27.5 4.58333 18.3333 4.58333ZM36.6667-4.58333 45.8333-4.58333 45.8333 4.58333 36.6667 4.58333ZM55-4.58333 64.1667-4.58333 64.1667 4.58333 55 4.58333ZM73.3333-4.58333 82.5-4.58333 82.5 4.58333 73.3333 4.58333ZM91.6667-4.58333 100.833-4.58333 100.833 4.58333 91.6667 4.58333ZM110-4.58333 119.167-4.58333 119.167 4.58333 110 4.58333ZM128.333-4.58333 137.5-4.58333 137.5 4.58333 128.333 4.58333ZM146.667-4.58333 155.833-4.58333 155.833 4.58333 146.667 4.58333ZM165-4.58333 174.167-4.58333 174.167 4.58333 165 4.58333ZM183.333-4.58333 192.5-4.58333 192.5 4.58333 183.333 4.58333ZM201.667-4.58333 210.827-4.58333C213.358-4.58333 215.41-2.53131 215.41 0L215.41 0.00631562 206.244 0.00631562 206.244 0 210.827 4.58333 201.667 4.58333ZM215.41 9.17298 215.41 18.3396 206.244 18.3396 206.244 9.17298ZM215.41 27.5063 215.41 33 210.827 28.4167 214.5 28.4167 214.5 37.5833 210.827 37.5833C208.296 37.5833 206.244 35.5313 206.244 33L206.244 27.5063ZM223.667 28.4167 232.833 28.4167 232.833 37.5833 223.667 37.5833ZM242 28.4167 251.167 28.4167 251.167 37.5833 242 37.5833ZM260.333 28.4167 269.5 28.4167 269.5 37.5833 260.333 37.5833ZM278.667 28.4167 287.833 28.4167 287.833 37.5833 278.667 37.5833ZM297 28.4167 306.167 28.4167 306.167 37.5833 297 37.5833ZM315.333 28.4167 324.5 28.4167 324.5 37.5833 315.333 37.5833ZM333.667 28.4167 342.833 28.4167 342.833 37.5833 333.667 37.5833ZM352 28.4167 361.167 28.4167 361.167 37.5833 352 37.5833ZM370.333 28.4167 379.5 28.4167 379.5 37.5833 370.333 37.5833ZM388.667 28.4167 397.833 28.4167 397.833 37.5833 388.667 37.5833ZM394.154 19.25 421.654 33 394.154 46.75Z" transform="matrix(1.83697e-16 1 1 -1.83697e-16 980.5 1038.5)"/><path d="M0-4.58333 9.16667-4.58333 9.16667 4.58333 0 4.58333ZM18.3333-4.58333 27.5-4.58333 27.5 4.58333 18.3333 4.58333ZM36.6667-4.58333 45.8333-4.58333 45.8333 4.58333 36.6667 4.58333ZM55-4.58333 64.1667-4.58333 64.1667 4.58333 55 4.58333ZM73.3333-4.58333 73.7708-4.58333C76.3021-4.58333 78.3542-2.53131 78.3542 0L78.3542 8.72916 69.1875 8.72916 69.1875 0 73.7708 4.58333 73.3333 4.58333ZM78.3542 17.8958 78.3542 27.0625 69.1875 27.0625 69.1875 17.8958ZM78.3542 36.2292 78.3542 45.3958 69.1875 45.3958 69.1875 36.2292ZM78.3542 54.5625 78.3542 63.7292 69.1875 63.7292 69.1875 54.5625ZM78.3542 72.8958 78.3542 82.0625 69.1875 82.0625 69.1875 72.8958ZM78.3542 91.2292 78.3542 100.396 69.1875 100.396 69.1875 91.2292ZM78.3542 109.562 78.3542 118.729 69.1875 118.729 69.1875 109.562ZM78.3542 127.896 78.3542 137.062 69.1875 137.062 69.1875 127.896ZM78.3542 146.229 78.3542 155.396 69.1875 155.396 69.1875 146.229ZM78.3542 164.562 78.3542 165 73.7708 160.417 82.5 160.417 82.5 169.583 73.7708 169.583C71.2395 169.583 69.1875 167.531 69.1875 165L69.1875 164.562ZM91.6667 160.417 100.833 160.417 100.833 169.583 91.6667 169.583ZM110 160.417 119.167 160.417 119.167 169.583 110 169.583ZM128.333 160.417 137.5 160.417 137.5 169.583 128.333 169.583ZM146.667 160.417 155.833 160.417 155.833 169.583 146.667 169.583ZM151.978 151.25 179.478 165 151.978 178.75Z" transform="matrix(1.83697e-16 1 1 -1.83697e-16 791.5 1287.5)"/><path d="M1055.92 1460.88 1055.92 1451.71 1065.08 1451.71 1065.08 1460.88ZM1055.92 1442.54 1055.92 1433.38 1065.08 1433.38 1065.08 1442.54ZM1055.92 1424.21 1055.92 1415.04 1065.08 1415.04 1065.08 1424.21ZM1055.92 1405.88 1055.92 1396.71 1065.08 1396.71 1065.08 1405.88ZM1055.92 1387.54 1055.92 1378.38 1065.08 1378.38 1065.08 1387.54ZM1055.92 1369.21 1055.92 1360.04 1065.08 1360.04 1065.08 1369.21ZM1055.92 1350.88 1055.92 1341.71 1065.08 1341.71 1065.08 1350.88ZM1055.92 1332.54 1055.92 1323.38 1065.08 1323.38 1065.08 1332.54ZM1055.92 1314.21 1055.92 1308.4C1055.92 1305.87 1057.97 1303.82 1060.5 1303.82L1063.86 1303.82 1063.86 1312.99 1060.5 1312.99 1065.08 1308.4 1065.08 1314.21ZM1073.03 1303.82 1082.19 1303.82 1082.19 1312.99 1073.03 1312.99ZM1091.36 1303.82 1100.53 1303.82 1100.53 1312.99 1091.36 1312.99ZM1109.69 1303.82 1118.86 1303.82 1118.86 1312.99 1109.69 1312.99ZM1128.03 1303.82 1137.19 1303.82 1137.19 1312.99 1128.03 1312.99ZM1146.36 1303.82 1155.53 1303.82 1155.53 1312.99 1146.36 1312.99ZM1164.69 1303.82 1173.86 1303.82 1173.86 1312.99 1164.69 1312.99ZM1183.03 1303.82 1192.19 1303.82 1192.19 1312.99 1183.03 1312.99ZM1201.36 1303.82 1210.53 1303.82 1210.53 1312.99 1201.36 1312.99ZM1219.69 1303.82 1228.86 1303.82 1228.86 1312.99 1219.69 1312.99ZM1238.03 1303.82 1247.19 1303.82 1247.19 1312.99 1238.03 1312.99ZM1256.36 1303.82 1265.53 1303.82 1265.53 1312.99 1256.36 1312.99ZM1274.69 1303.82 1283.86 1303.82 1283.86 1312.99 1274.69 1312.99ZM1293.03 1303.82 1302.19 1303.82 1302.19 1312.99 1293.03 1312.99ZM1311.36 1303.82 1320.53 1303.82 1320.53 1312.99 1311.36 1312.99ZM1319.92 1303.21 1319.92 1294.04 1329.08 1294.04 1329.08 1303.21ZM1319.92 1284.88 1319.92 1275.71 1329.08 1275.71 1329.08 1284.88ZM1319.92 1266.54 1319.92 1257.38 1329.08 1257.38 1329.08 1266.54ZM1319.92 1248.21 1319.92 1239.04 1329.08 1239.04 1329.08 1248.21ZM1319.92 1229.88 1319.92 1220.71 1329.08 1220.71 1329.08 1229.88ZM1319.92 1211.54 1319.92 1202.38 1329.08 1202.38 1329.08 1211.54ZM1319.92 1193.21 1319.92 1184.04 1329.08 1184.04 1329.08 1193.21ZM1319.92 1174.88 1319.92 1165.71 1329.08 1165.71 1329.08 1174.88ZM1319.92 1156.54 1319.92 1147.38 1329.08 1147.38 1329.08 1156.54ZM1319.92 1138.21 1319.92 1129.04 1329.08 1129.04 1329.08 1138.21ZM1319.92 1119.88 1319.92 1110.71 1329.08 1110.71 1329.08 1119.88ZM1319.92 1101.54 1319.92 1092.38 1329.08 1092.38 1329.08 1101.54ZM1319.92 1083.21 1319.92 1074.04 1329.08 1074.04 1329.08 1083.21ZM1319.92 1064.88 1319.92 1059.42 1329.08 1059.42 1329.08 1064.88ZM1310.75 1064 1324.5 1036.5 1338.25 1064Z"/><path d="M1088.92 1460.1 1088.92 1450.93 1098.08 1450.93 1098.08 1460.1ZM1088.92 1441.77 1088.92 1432.6 1098.08 1432.6 1098.08 1441.77ZM1088.92 1423.43 1088.92 1414.27 1098.08 1414.27 1098.08 1423.43ZM1088.92 1405.1 1088.92 1395.93 1098.08 1395.93 1098.08 1405.1ZM1088.92 1386.77 1088.92 1383.86C1088.92 1381.33 1090.97 1379.28 1093.5 1379.28L1099.76 1379.28 1099.76 1388.45 1093.5 1388.45 1098.08 1383.86 1098.08 1386.77ZM1108.93 1379.28 1118.1 1379.28 1118.1 1388.45 1108.93 1388.45ZM1127.26 1379.28 1136.43 1379.28 1136.43 1388.45 1127.26 1388.45ZM1145.6 1379.28 1154.76 1379.28 1154.76 1388.45 1145.6 1388.45ZM1163.93 1379.28 1173.1 1379.28 1173.1 1388.45 1163.93 1388.45ZM1182.26 1379.28 1191.43 1379.28 1191.43 1388.45 1182.26 1388.45ZM1200.6 1379.28 1209.76 1379.28 1209.76 1388.45 1200.6 1388.45ZM1218.93 1379.28 1228.1 1379.28 1228.1 1388.45 1218.93 1388.45ZM1237.26 1379.28 1246.43 1379.28 1246.43 1388.45 1237.26 1388.45ZM1255.6 1379.28 1264.76 1379.28 1264.76 1388.45 1255.6 1388.45ZM1273.93 1379.28 1283.1 1379.28 1283.1 1388.45 1273.93 1388.45ZM1292.26 1379.28 1301.43 1379.28 1301.43 1388.45 1292.26 1388.45ZM1310.6 1379.28 1319.76 1379.28 1319.76 1388.45 1310.6 1388.45ZM1328.93 1379.28 1338.1 1379.28 1338.1 1388.45 1328.93 1388.45ZM1347.26 1379.28 1356.43 1379.28 1356.43 1388.45 1347.26 1388.45ZM1352.92 1375.77 1352.92 1366.6 1362.08 1366.6 1362.08 1375.77ZM1352.92 1357.43 1352.92 1348.27 1362.08 1348.27 1362.08 1357.43ZM1352.92 1339.1 1352.92 1329.93 1362.08 1329.93 1362.08 1339.1ZM1352.92 1320.77 1352.92 1311.6 1362.08 1311.6 1362.08 1320.77ZM1343.75 1316 1357.5 1288.5 1371.25 1316Z"/><path d="M4.58333-1.06647e-05 4.58335 9.16666-4.58331 9.16668-4.58333 1.06647e-05ZM4.58338 18.3333 4.5834 27.5-4.58327 27.5-4.58329 18.3333ZM4.58342 36.6667 4.58344 45.8333-4.58323 45.8333-4.58325 36.6667ZM4.58346 55 4.58348 64.1667-4.58318 64.1667-4.58321 55ZM4.5835 73.3333 4.58353 82.5-4.58314 82.5-4.58316 73.3333ZM4.58355 91.6667 4.58357 100.833-4.5831 100.833-4.58312 91.6667ZM4.58359 110 4.58361 119.167-4.58306 119.167-4.58308 110ZM4.58363 128.333 4.58364 132.183-4.58303 132.183-4.58303 128.333ZM13.7503 127.6 0.000360892 155.1-13.7497 127.6Z" transform="matrix(1 0 0 -1 886.5 1192.6)"/><text font-family="Arial,Arial_MSFontService,sans-serif" font-weight="400" font-size="46" transform="matrix(1 0 0 1 193.825 1004)">group 0</text><path d="M407.186 935.196 408.583 935.196 408.583 939.278 407.777 939.278C402.585 939.278 398.521 940.63 395.585 943.333 392.648 946.036 391.18 950.486 391.18 956.68 391.18 959.187 391.538 962.284 392.255 965.972 392.971 969.66 393.329 972.292 393.329 973.868 393.329 976.911 392.434 979.409 390.643 981.36 388.853 983.312 386.722 984.753 384.252 985.684L384.252 986.651C386.722 987.582 388.853 989.023 390.643 990.975 392.434 992.926 393.329 995.424 393.329 998.467 393.329 1000.04 392.971 1002.67 392.255 1006.36 391.538 1010.05 391.18 1013.15 391.18 1015.65 391.18 1022.17 392.648 1026.78 395.585 1029.49 398.521 1032.19 402.585 1033.54 407.777 1033.54L408.583 1033.54 408.583 1037.62 407.186 1037.62C398.772 1037.48 392.478 1035.55 388.307 1031.85 384.135 1028.14 382.049 1022.42 382.049 1014.69 382.049 1011.72 382.47 1008.33 383.312 1004.54 384.153 1000.74 384.574 998.199 384.574 996.91 384.574 994.439 383.723 992.425 382.023 990.867 380.322 989.31 377.753 988.477 374.315 988.37L374.315 983.965C377.753 983.858 380.322 983.025 382.023 981.468 383.723 979.91 384.574 977.896 384.574 975.425 384.574 974.136 384.153 971.594 383.312 967.798 382.47 964.003 382.049 960.619 382.049 957.647 382.049 950.235 384.135 944.676 388.307 940.97 392.478 937.264 398.772 935.339 407.186 935.196Z" fill-rule="evenodd"/><text fill="#000000" fill-opacity="0" font-family="Arial,Arial_MSFontService,sans-serif" font-size="102.427" x="374.315" y="1024.82">ሼ</text><text font-family="Arial,Arial_MSFontService,sans-serif" font-weight="400" font-size="46" transform="matrix(1 0 0 1 193.825 1260)">group 1</text><path d="M407.186 1191.34 408.583 1191.34 408.583 1195.42 407.777 1195.42C402.585 1195.42 398.521 1196.77 395.585 1199.48 392.648 1202.18 391.18 1206.63 391.18 1212.82 391.18 1215.33 391.538 1218.43 392.255 1222.12 392.971 1225.8 393.329 1228.44 393.329 1230.01 393.329 1233.05 392.434 1235.55 390.643 1237.5 388.853 1239.45 386.722 1240.9 384.252 1241.83L384.252 1242.79C386.722 1243.72 388.853 1245.17 390.643 1247.12 392.434 1249.07 393.329 1251.57 393.329 1254.61 393.329 1256.19 392.971 1258.82 392.255 1262.51 391.538 1266.19 391.18 1269.29 391.18 1271.8 391.18 1278.31 392.648 1282.92 395.585 1285.63 398.521 1288.33 402.585 1289.68 407.777 1289.68L408.583 1289.68 408.583 1293.77 407.186 1293.77C398.772 1293.62 392.478 1291.7 388.307 1287.99 384.135 1284.29 382.049 1278.57 382.049 1270.83 382.049 1267.86 382.47 1264.48 383.312 1260.68 384.153 1256.88 384.574 1254.34 384.574 1253.05 384.574 1250.58 383.723 1248.57 382.023 1247.01 380.322 1245.45 377.753 1244.62 374.315 1244.51L374.315 1240.11C377.753 1240 380.322 1239.17 382.023 1237.61 383.723 1236.05 384.574 1234.04 384.574 1231.57 384.574 1230.28 384.153 1227.74 383.312 1223.94 382.47 1220.15 382.049 1216.76 382.049 1213.79 382.049 1206.38 384.135 1200.82 388.307 1197.11 392.478 1193.41 398.772 1191.48 407.186 1191.34Z" fill-rule="evenodd"/><text fill="#000000" fill-opacity="0" font-family="Arial,Arial_MSFontService,sans-serif" font-size="102.427" x="374.315" y="1280.96">ሼ</text><text font-family="Arial,Arial_MSFontService,sans-serif" font-weight="400" font-size="46" transform="matrix(1 0 0 1 193.825 1529)">group 2</text><path d="M407.186 1460.05 408.583 1460.05 408.583 1464.14 407.777 1464.14C402.585 1464.14 398.521 1465.49 395.585 1468.19 392.648 1470.89 391.18 1475.34 391.18 1481.54 391.18 1484.05 391.538 1487.14 392.255 1490.83 392.971 1494.52 393.329 1497.15 393.329 1498.73 393.329 1501.77 392.434 1504.27 390.643 1506.22 388.853 1508.17 386.722 1509.61 384.252 1510.54L384.252 1511.51C386.722 1512.44 388.853 1513.88 390.643 1515.83 392.434 1517.78 393.329 1520.28 393.329 1523.33 393.329 1524.9 392.971 1527.53 392.255 1531.22 391.538 1534.91 391.18 1538.01 391.18 1540.51 391.18 1547.03 392.648 1551.64 395.585 1554.34 398.521 1557.05 402.585 1558.4 407.777 1558.4L408.583 1558.4 408.583 1562.48 407.186 1562.48C398.772 1562.34 392.478 1560.41 388.307 1556.71 384.135 1553 382.049 1547.28 382.049 1539.55 382.049 1536.57 382.47 1533.19 383.312 1529.4 384.153 1525.6 384.574 1523.06 384.574 1521.77 384.574 1519.3 383.723 1517.28 382.023 1515.73 380.322 1514.17 377.753 1513.34 374.315 1513.23L374.315 1508.82C377.753 1508.72 380.322 1507.88 382.023 1506.33 383.723 1504.77 384.574 1502.75 384.574 1500.28 384.574 1498.99 384.153 1496.45 383.312 1492.66 382.47 1488.86 382.049 1485.48 382.049 1482.51 382.049 1475.09 384.135 1469.53 388.307 1465.83 392.478 1462.12 398.772 1460.2 407.186 1460.05Z" fill-rule="evenodd"/><text fill="#000000" fill-opacity="0" font-family="Arial,Arial_MSFontService,sans-serif" font-size="102.427" x="374.315" y="1549.68">ሼ</text><path d="M585.5 1197.5 3060.5 1197.5" stroke="#000000" stroke-width="9.16667" stroke-linejoin="round" stroke-miterlimit="10" fill="none" fill-rule="evenodd"/><path d="M585.5 1285.5 3060.5 1285.5" stroke="#000000" stroke-width="9.16667" stroke-linejoin="round" stroke-miterlimit="10" fill="none" fill-rule="evenodd"/><rect x="587.5" y="1197.5" width="185" height="88" stroke="#000000" stroke-width="9.16667" stroke-linejoin="round" stroke-miterlimit="10" fill="#B7DEE8"/><text font-family="Arial,Arial_MSFontService,sans-serif" font-weight="400" font-size="46" transform="matrix(1 0 0 1 602.334 1258)">M. &amp; M.<tspan font-size="46" x="193.704" y="0">P. &amp; C.</tspan></text><rect x="964.5" y="1197.5" width="300" height="88" stroke="#000000" stroke-width="9.16667" stroke-linejoin="round" stroke-miterlimit="10" fill="#B7DEE8"/><text font-family="Arial,Arial_MSFontService,sans-serif" font-weight="400" font-size="46" transform="matrix(1 0 0 1 1056.87 1258)">M. &amp; M.<tspan font-size="46" x="220.113" y="0">P. &amp; C.</tspan></text><rect x="1432.5" y="1197.5" width="172" height="88" stroke="#000000" stroke-width="9.16667" stroke-linejoin="round" stroke-miterlimit="10" fill="#B7DEE8"/><text font-family="Arial,Arial_MSFontService,sans-serif" font-weight="400" font-size="46" transform="matrix(1 0 0 1 1440 1258)">M. &amp; M.<tspan font-size="46" x="173.736" y="0">P. &amp; C.</tspan></text><rect x="1774.5" y="1197.5" width="171" height="88" stroke="#000000" stroke-width="9.16667" stroke-linejoin="round" stroke-miterlimit="10" fill="#B7DEE8"/><text font-family="Arial,Arial_MSFontService,sans-serif" font-weight="400" font-size="46" transform="matrix(1 0 0 1 1783.87 1258)">M. &amp; M.<tspan font-size="46" x="174.396" y="0">P. &amp; C.</tspan><tspan font-size="46" x="1074.83" y="0">continues</tspan></text><rect x="2122.5" y="1197.5" width="171" height="89" stroke="#000000" stroke-width="9.16667" stroke-linejoin="round" stroke-miterlimit="10" fill="#B7DEE8"/><text font-family="Arial,Arial_MSFontService,sans-serif" font-weight="400" font-size="46" transform="matrix(1 0 0 1 2129.49 1258)">M. &amp; M.<tspan font-size="46" x="178.074" y="1">P. &amp; C.</tspan></text><rect x="2463.5" y="1197.5" width="171" height="88" stroke="#000000" stroke-width="9.16667" stroke-linejoin="round" stroke-miterlimit="10" fill="#B7DEE8"/><text font-family="Arial,Arial_MSFontService,sans-serif" font-weight="400" font-size="46" transform="matrix(1 0 0 1 2473.83 1258)">M. &amp; M.<tspan font-size="46" x="174.807" y="1">P. &amp; C.</tspan></text><path d="M585.5 940.5 3060.5 940.5" stroke="#000000" stroke-width="9.16667" stroke-linejoin="round" stroke-miterlimit="10" fill="none" fill-rule="evenodd"/><path d="M585.5 1029.5 3060.5 1029.5" stroke="#000000" stroke-width="9.16667" stroke-linejoin="round" stroke-miterlimit="10" fill="none" fill-rule="evenodd"/><rect x="587.5" y="940.5" width="269" height="89" stroke="#000000" stroke-width="9.16667" stroke-linejoin="round" stroke-miterlimit="10" fill="#B7DEE8"/><text font-family="Arial,Arial_MSFontService,sans-serif" font-weight="400" font-size="46" transform="matrix(1 0 0 1 650.41 1002)">M. &amp; M.<tspan font-size="46" x="226.115" y="0">P. &amp; C.</tspan></text><rect x="1035.5" y="940.5" width="257" height="89" stroke="#000000" stroke-width="9.16667" stroke-linejoin="round" stroke-miterlimit="10" fill="#B7DEE8"/><text font-family="Arial,Arial_MSFontService,sans-serif" font-weight="400" font-size="46" transform="matrix(1 0 0 1 1085.96 1002)">M. &amp; M.<tspan font-size="46" x="215.661" y="0">P. &amp; C.</tspan></text><rect x="1459.5" y="940.5" width="297" height="89" stroke="#000000" stroke-width="9.16667" stroke-linejoin="round" stroke-miterlimit="10" fill="#B7DEE8"/><text font-family="Arial,Arial_MSFontService,sans-serif" font-weight="400" font-size="46" transform="matrix(1 0 0 1 1533.26 1002)">M. &amp; M.<tspan font-size="46" x="266.308" y="0">P. &amp; C.</tspan></text><rect x="1992.5" y="940.5" width="221" height="89" stroke="#000000" stroke-width="9.16667" stroke-linejoin="round" stroke-miterlimit="10" fill="#B7DEE8"/><text font-family="Arial,Arial_MSFontService,sans-serif" font-weight="400" font-size="46" transform="matrix(1 0 0 1 2030.26 1002)">M. &amp; M.<tspan font-size="46" x="203.525" y="0">P. &amp; C.</tspan><tspan font-size="46" x="828.441" y="0">continues</tspan></text><rect x="2390.5" y="940.5" width="221" height="88" stroke="#000000" stroke-width="9.16667" stroke-linejoin="round" stroke-miterlimit="10" fill="#B7DEE8"/><text font-family="Arial,Arial_MSFontService,sans-serif" font-weight="400" font-size="46" transform="matrix(1 0 0 1 2428.33 1001)">M. &amp; M.<tspan font-size="46" x="203.525" y="0">P. &amp; C.</tspan></text><path d="M585.5 1467.5 3060.5 1467.5" stroke="#000000" stroke-width="9.16667" stroke-linejoin="round" stroke-miterlimit="10" fill="none" fill-rule="evenodd"/><path d="M585.5 1556.5 3060.5 1556.5" stroke="#000000" stroke-width="9.16667" stroke-linejoin="round" stroke-miterlimit="10" fill="none" fill-rule="evenodd"/><rect x="587.5" y="1467.5" width="333" height="88" stroke="#000000" stroke-width="9.16667" stroke-linejoin="round" stroke-miterlimit="10" fill="#B7DEE8"/><text font-family="Arial,Arial_MSFontService,sans-serif" font-weight="400" font-size="46" transform="matrix(1 0 0 1 689.798 1528)">M. &amp; M.<tspan font-size="46" x="255.028" y="0">P. &amp; C.</tspan></text><rect x="1110.5" y="1467.5" width="224" height="88" stroke="#000000" stroke-width="9.16667" stroke-linejoin="round" stroke-miterlimit="10" fill="#B7DEE8"/><text font-family="Arial,Arial_MSFontService,sans-serif" font-weight="400" font-size="46" transform="matrix(1 0 0 1 1142.58 1528)">M. &amp; M.<tspan font-size="46" x="208.001" y="0">P. &amp; C.</tspan></text><rect x="1506.5" y="1467.5" width="330" height="88" stroke="#000000" stroke-width="9.16667" stroke-linejoin="round" stroke-miterlimit="10" fill="#B7DEE8"/><text font-family="Arial,Arial_MSFontService,sans-serif" font-weight="400" font-size="46" transform="matrix(1 0 0 1 1604.92 1528)">M. &amp; M.<tspan font-size="46" x="251.198" y="0">P. &amp; C.</tspan><tspan font-size="46" x="1253.79" y="0">continues</tspan></text><rect x="2018.5" y="1467.5" width="198" height="88" stroke="#000000" stroke-width="9.16667" stroke-linejoin="round" stroke-miterlimit="10" fill="#B7DEE8"/><text font-family="Arial,Arial_MSFontService,sans-serif" font-weight="400" font-size="46" transform="matrix(1 0 0 1 2038.14 1528)">M. &amp; M.<tspan font-size="46" x="194.934" y="-1">P. &amp; C.</tspan></text><rect x="2390.5" y="1467.5" width="231" height="89" stroke="#000000" stroke-width="9.16667" stroke-linejoin="round" stroke-miterlimit="10" fill="#B7DEE8"/><text font-family="Arial,Arial_MSFontService,sans-serif" font-weight="400" font-size="46" transform="matrix(1 0 0 1 2426.63 1529)">M. &amp; M.<tspan font-size="46" x="213.604" y="0">P. &amp; C.</tspan></text></g></svg>