<svg width="1650" height="1065" xmlns="http://www.w3.org/2000/svg" xmlns:xlink="http://www.w3.org/1999/xlink" overflow="hidden"><defs><clipPath id="clip0"><rect x="1584" y="446" width="1650" height="1065"/></clipPath></defs><g clip-path="url(#clip0)" transform="translate(-1584 -446)"><path d="M2124.36 650.292C2118.98 648.31 2115.32 648.989 2110.77 648.593 2070.88 645.126 2032.72 645.939 1991.82 645.196 1947.76 642.75 1945.55 641.822 1888.17 645.196 1873.93 646.033 1859.85 648.593 1845.68 650.292 1798.98 665.851 1871.44 642.338 1806.6 660.482 1800.22 662.269 1793.93 664.509 1787.91 667.276 1754.16 682.777 1698.44 710.531 1679.16 740.309 1672.93 749.933 1665.49 758.879 1660.47 769.182 1654.1 782.225 1653.23 797.87 1645.17 809.945 1644.04 811.643 1642.77 813.256 1641.77 815.04 1639.93 818.36 1638.91 822.159 1636.68 825.231 1634.32 828.468 1630.68 830.597 1628.18 833.723 1611.05 855.13 1636.31 828.869 1616.29 850.707 1612.5 854.839 1608.16 858.449 1604.39 862.596 1599.96 867.467 1593.48 878.68 1590.8 882.978 1590.23 887.507 1590.05 892.102 1589.1 896.565 1588.35 900.066 1586.64 903.302 1585.7 906.756 1584.94 909.541 1584.57 912.417 1584 915.248 1584.57 924.873 1583.89 934.651 1585.7 944.121 1586.23 946.902 1589.15 948.612 1590.8 950.915 1591.98 952.576 1592.65 954.682 1594.2 956.01 1600.22 961.169 1625.44 971.229 1626.48 971.297 1688.1 975.302 1749.96 973.561 1811.7 974.693 1824.73 979.223 1839.75 980.009 1850.78 988.281 1853.05 989.979 1855.18 991.876 1857.58 993.376 1859.73 994.718 1862.37 995.229 1864.38 996.773 1869.78 1000.93 1874.49 1005.92 1879.67 1010.36 1881.97 1012.33 1890.95 1018.78 1893.26 1022.25 1895.37 1025.41 1896.41 1029.18 1898.36 1032.44 1902.35 1039.09 1908.23 1044 1913.66 1049.42 1914.79 1052.26 1915.79 1055.14 1917.05 1057.92 1922.23 1069.31 1922.75 1067.63 1927.25 1080 1928.05 1082.19 1928.31 1084.55 1928.95 1086.79 1929.93 1090.22 1932.85 1097.98 1934.05 1100.38 1938.09 1108.47 1946.9 1119.42 1951.04 1125.85 1952.41 1127.98 1953.03 1130.54 1954.44 1132.65 1956.45 1135.66 1958.75 1138.5 1961.23 1141.14 1979.18 1160.2 1985 1164.72 2005.41 1181.9 2017.55 1192.12 2010.66 1186.18 2025.81 1195.49 2035.32 1201.34 2036.76 1204.2 2047.9 1207.38 2055.69 1209.61 2063.69 1211.1 2071.69 1212.47 2111.52 1219.34 2134 1216.61 2182.14 1217.57 2186.67 1218.7 2191.1 1220.37 2195.73 1220.97 2241.24 1226.84 2253.19 1223.93 2306.18 1222.67 2338.53 1200.28 2319.73 1216.41 2335.07 1198.89 2336.65 1197.08 2338.93 1195.85 2340.17 1193.79 2344.08 1187.28 2350.36 1173.41 2350.36 1173.41 2354.19 1154.3 2349.26 1177.56 2357.16 1147.93 2363.56 1123.93 2352.98 1157.07 2362.26 1129.25 2362.82 1124.16 2363.11 1119.02 2363.96 1113.97 2364.25 1112.2 2364.66 1110.36 2365.66 1108.87 2366.99 1106.87 2368.69 1105.01 2370.75 1103.77 2386.51 1094.33 2397.91 1097.95 2418.33 1096.98L2533.88 1098.68C2566.34 1101.2 2575.75 1114.09 2605.25 1124.16 2616.82 1128.11 2629.34 1128.78 2640.94 1132.65 2672.33 1143.11 2664.01 1142.86 2685.12 1154.73 2703.69 1165.17 2694.55 1157.86 2714 1170.01 2722.66 1175.42 2732.27 1179.78 2739.49 1187 2778.14 1225.63 2728.82 1179.36 2795.57 1226.06 2801.23 1230.03 2806.32 1234.98 2812.56 1237.95 2818.39 1240.73 2825.26 1240.65 2831.25 1243.05 2842.31 1247.47 2852.39 1254.15 2863.54 1258.33 2891.09 1268.66 2949.13 1278.81 2970.59 1283.81 3021.12 1295.59 2980.86 1291.17 3031.76 1294L3115.03 1292.3C3118.22 1292 3119.41 1287.62 3121.82 1285.51 3128.48 1279.68 3136.3 1275.1 3142.21 1268.52 3171.32 1236.2 3161.82 1242.1 3179.6 1212.47 3182.1 1208.3 3185.59 1204.76 3188.09 1200.59 3192.4 1193.42 3195.42 1185.51 3199.99 1178.51 3203.95 1172.43 3209.05 1167.18 3213.58 1161.52 3215.28 1156.43 3216.73 1151.24 3218.68 1146.24 3220.7 1141.04 3223.35 1136.11 3225.48 1130.95 3227.32 1126.48 3228.88 1121.89 3230.58 1117.36 3231.1 1109.06 3236.78 1055.55 3232.27 1037.54 3230.86 1031.88 3226.39 1027.46 3223.78 1022.25 3222.41 1019.52 3222 1016.34 3220.38 1013.76 3219.11 1011.72 3216.9 1010.44 3215.28 1008.66 3191.09 982.064 3214.1 1003.94 3194.89 989.979 3191.31 987.379 3188.61 983.556 3184.7 981.487 3178.84 978.387 3172.23 976.958 3166 974.693 3145.47 954.173 3162.72 967.728 3126.92 954.312 3122.18 952.534 3118.31 948.417 3113.33 947.518 3083.53 942.147 3052.72 942.64 3023.27 935.629 2932.47 914.021 3045.1 938.985 2948.5 923.74 2909.48 917.582 2927.07 919.549 2895.82 916.947 2890.73 914.116 2885.75 911.061 2880.53 908.454 2876.67 906.526 2872.27 905.674 2868.63 903.359 2865.93 901.64 2864.1 898.83 2861.84 896.565 2856.74 886.375 2850.78 876.572 2846.54 865.993 2845.41 863.162 2844.51 860.228 2843.15 857.501 2838.84 848.893 2835.57 839.54 2829.55 832.025 2827.29 829.194 2824.82 826.513 2822.75 823.532 2814.48 811.58 2815.55 808.586 2804.06 799.754 2794.92 792.724 2790.84 792.582 2780.27 789.564 2774.61 784.468 2769.84 778.152 2763.28 774.278 2757.11 770.635 2742.89 767.484 2742.89 767.484 2741.19 765.785 2739.88 763.58 2737.79 762.389 2735.76 761.23 2733.21 761.428 2731 760.69 2721.31 757.463 2711.76 753.827 2702.11 750.5 2676.19 741.565 2675.47 741.368 2642.63 735.214 2632.88 733.385 2604.56 727.771 2593.36 726.721 2582.63 725.716 2571.81 725.87 2561.07 725.023 2550.28 724.172 2539.5 723.104 2528.78 721.626 2523.06 720.837 2517.53 718.904 2511.79 718.229 2498.24 716.636 2471.01 714.832 2471.01 714.832 2429.78 703.592 2457.16 709.604 2380.95 706.34L2333.37 704.642C2326.01 702.943 2318.72 700.868 2311.28 699.546 2293.22 696.337 2275.01 693.989 2256.9 691.054 2254.05 690.592 2251.24 689.922 2248.41 689.356 2243.88 687.091 2239.58 684.265 2234.81 682.562 2231.57 681.403 2228 681.539 2224.62 680.863 2222.33 680.406 2220.09 679.731 2217.82 679.165 2200.14 668.56 2218.43 678.236 2200.83 672.371 2181.24 665.845 2212.24 671.249 2180.44 667.276 2162.87 660.254 2179.38 665.852 2148.15 662.181 2146.37 661.972 2144.7 661.188 2143.05 660.482 2143.05 660.48 2129.74 652.273 2124.36 650.292Z" fill="#A6A6A6" fill-rule="evenodd"/><path d="M1695.5 845.5C1695.5 806.84 1728.41 775.5 1769 775.5 1809.59 775.5 1842.5 806.84 1842.5 845.5 1842.5 884.16 1809.59 915.5 1769 915.5 1728.41 915.5 1695.5 884.16 1695.5 845.5Z" stroke="#000000" stroke-width="3.4375" stroke-linejoin="round" stroke-miterlimit="10" fill="#FFFF00" fill-rule="evenodd"/><text font-family="Courier New,Courier New_MSFontService,sans-serif" font-weight="700" font-size="124" transform="matrix(1 0 0 1 1731.31 880)">0</text><path d="M1971.5 798C1971.5 759.064 2004.41 727.5 2045 727.5 2085.59 727.5 2118.5 759.064 2118.5 798 2118.5 836.936 2085.59 868.5 2045 868.5 2004.41 868.5 1971.5 836.936 1971.5 798Z" stroke="#000000" stroke-width="3.4375" stroke-linejoin="round" stroke-miterlimit="10" fill="#FFFF00" fill-rule="evenodd"/><text font-family="Courier New,Courier New_MSFontService,sans-serif" font-weight="700" font-size="124" transform="matrix(1 0 0 1 2007.51 832)">1</text><path d="M2092.5 1084C2092.5 1045.06 2125.41 1013.5 2166 1013.5 2206.59 1013.5 2239.5 1045.06 2239.5 1084 2239.5 1122.94 2206.59 1154.5 2166 1154.5 2125.41 1154.5 2092.5 1122.94 2092.5 1084Z" stroke="#000000" stroke-width="3.4375" stroke-linejoin="round" stroke-miterlimit="10" fill="#FFFF00" fill-rule="evenodd"/><text font-family="Courier New,Courier New_MSFontService,sans-serif" font-weight="700" font-size="124" transform="matrix(1 0 0 1 2128.76 1119)">2</text><path d="M2208.5 901C2208.5 862.064 2241.41 830.5 2282 830.5 2322.59 830.5 2355.5 862.064 2355.5 901 2355.5 939.936 2322.59 971.5 2282 971.5 2241.41 971.5 2208.5 939.936 2208.5 901Z" stroke="#000000" stroke-width="3.4375" stroke-linejoin="round" stroke-miterlimit="10" fill="#FFFF00" fill-rule="evenodd"/><text font-family="Courier New,Courier New_MSFontService,sans-serif" font-weight="700" font-size="124" transform="matrix(1 0 0 1 2244.47 935)">3</text><path d="M2421.5 916C2421.5 877.064 2454.63 845.5 2495.5 845.5 2536.37 845.5 2569.5 877.064 2569.5 916 2569.5 954.936 2536.37 986.5 2495.5 986.5 2454.63 986.5 2421.5 954.936 2421.5 916Z" stroke="#000000" stroke-width="3.4375" stroke-linejoin="round" stroke-miterlimit="10" fill="#FFFF00" fill-rule="evenodd"/><text font-family="Courier New,Courier New_MSFontService,sans-serif" font-weight="700" font-size="124" transform="matrix(1 0 0 1 2458.2 950)">4</text><path d="M2828.5 1027C2828.5 988.064 2861.41 956.5 2902 956.5 2942.59 956.5 2975.5 988.064 2975.5 1027 2975.5 1065.94 2942.59 1097.5 2902 1097.5 2861.41 1097.5 2828.5 1065.94 2828.5 1027Z" stroke="#000000" stroke-width="3.4375" stroke-linejoin="round" stroke-miterlimit="10" fill="#FFFF00" fill-rule="evenodd"/><text font-family="Courier New,Courier New_MSFontService,sans-serif" font-weight="700" font-size="124" transform="matrix(1 0 0 1 2864.57 1062)">5</text><path d="M2600.5 1028C2600.5 989.064 2633.41 957.5 2674 957.5 2714.59 957.5 2747.5 989.064 2747.5 1028 2747.5 1066.94 2714.59 1098.5 2674 1098.5 2633.41 1098.5 2600.5 1066.94 2600.5 1028Z" stroke="#000000" stroke-width="3.4375" stroke-linejoin="round" stroke-miterlimit="10" fill="#FFFF00" fill-rule="evenodd"/><text font-family="Courier New,Courier New_MSFontService,sans-serif" font-weight="700" font-size="124" transform="matrix(1 0 0 1 2636.39 1062)">6</text><path d="M2955.5 1189C2955.5 1150.06 2988.41 1118.5 3029 1118.5 3069.59 1118.5 3102.5 1150.06 3102.5 1189 3102.5 1227.94 3069.59 1259.5 3029 1259.5 2988.41 1259.5 2955.5 1227.94 2955.5 1189Z" stroke="#000000" stroke-width="3.4375" stroke-linejoin="round" stroke-miterlimit="10" fill="#FFFF00" fill-rule="evenodd"/><text font-family="Courier New,Courier New_MSFontService,sans-serif" font-weight="700" font-size="124" transform="matrix(1 0 0 1 2991.51 1223)">7</text><rect x="1797.5" y="448.5" width="738" height="116" fill="#FFFF00"/><path d="M2564.75 448.5 2564.75 564.5Z" stroke="#385D8A" stroke-width="4.58333" stroke-linejoin="round" stroke-miterlimit="10" fill="none" fill-rule="evenodd"/><path d="M2564.75 498.289 2733.87 858.898" stroke="#385D8A" stroke-width="4.58333" stroke-linejoin="round" stroke-miterlimit="10" fill="none" fill-rule="evenodd"/><text font-family="Courier New,Courier New_MSFontService,sans-serif" font-weight="700" font-size="64" transform="matrix(1 0 0 1 1896.76 524)">MPI_COMM_WORLD</text><rect x="1971.5" y="1378.5" width="655" height="112" fill="#FFFF00"/><path d="M2671.58 1378.5 2671.58 1490.5Z" stroke="#385D8A" stroke-width="4.58333" stroke-linejoin="round" stroke-miterlimit="10" fill="none" fill-rule="evenodd"/><path d="M2671.58 1433.45 2983.43 1244.77" stroke="#385D8A" stroke-width="4.58333" stroke-linejoin="round" stroke-miterlimit="10" fill="none" fill-rule="evenodd"/><text font-family="Arial,Arial_MSFontService,sans-serif" font-weight="400" font-size="64" transform="matrix(1 0 0 1 2110.85 1457)">Process rank</text></g></svg>